<?xml version="1.0" encoding="utf-8"?>
<!-- Generator: Adobe Illustrator 20.1.0, SVG Export Plug-In . SVG Version: 6.00 Build 0)  -->
<svg version="1.1" id="Layer_1" xmlns="http://www.w3.org/2000/svg" xmlns:xlink="http://www.w3.org/1999/xlink" x="0px" y="0px"
	 viewBox="0 0 1349 600" style="enable-background:new 0 0 1349 600;" xml:space="preserve">
<style type="text/css">
	.st0{fill:#DFE3FE;}
	.st1{display:none;}
	.st2{display:inline;fill:url(#SVGID_1_);}
	.st3{display:inline;fill:#FFFFFF;}
	.st4{display:inline;}
	.st5{fill:#22377C;}
	.st6{display:inline;fill:#FF5E99;}
	.st7{display:inline;fill:#FCD2C5;}
	.st8{display:inline;fill:#552589;}
	.st9{display:inline;fill:#D2DBEB;}
	.st10{display:inline;fill:#22377C;}
	.st11{display:inline;fill:#2D5DEA;}
	.st12{display:inline;fill:#13265B;}
	.st13{display:inline;fill:#BF8DFF;}
	.st14{display:inline;fill:#29004F;}
	.st15{display:inline;fill:#F0F5FF;}
	.st16{display:inline;fill:#3F82C4;}
	.st17{display:inline;fill:#8FAFFF;}
	.st18{display:inline;fill:#9958ED;}
	.st19{display:inline;fill:#E3EEF7;}
	.st20{display:inline;fill:#AFC4D6;}
	.st21{fill:url(#SVGID_2_);}
	.st22{fill:#2C62C0;}
	.st23{fill:#2B5FBB;}
	.st24{fill:#295CB6;}
	.st25{fill:#275AB0;}
	.st26{fill:#2556AB;}
	.st27{fill:#2653A6;}
	.st28{fill:#2351A1;}
	.st29{fill:#224E9C;}
	.st30{fill:#1F4C97;}
	.st31{fill:#1E4991;}
	.st32{fill:#1E458C;}
	.st33{fill:#1C4387;}
	.st34{fill:#FF5E99;}
	.st35{fill:#8FAFFF;}
	.st36{fill:#2D5DEA;}
	.st37{fill:#FF76AD;}
	.st38{fill:#310078;}
	.st39{fill:#FDC9B7;}
	.st40{fill:#552589;}
	.st41{fill:#E4EEFF;}
	.st42{fill:#CACAFD;}
	.st43{fill:#9A98EB;}
	.st44{fill:#3D59A8;}
	.st45{fill:#FFFFFF;}
	.st46{fill:#023B7C;}
	.st47{fill:#C8E1FF;}
	.st48{fill:#F3F8FF;}
	.st49{fill:#C9E2FF;}
	.st50{fill:#9BAEC4;}
	.st51{fill:url(#SVGID_3_);}
	.st52{clip-path:url(#SVGID_5_);}
	.st53{fill:url(#SVGID_6_);}
	.st54{fill:url(#SVGID_7_);}
	.st55{fill:url(#SVGID_8_);}
	.st56{fill:url(#SVGID_9_);}
	.st57{fill:url(#SVGID_10_);}
	.st58{fill:url(#SVGID_11_);}
	.st59{fill:url(#SVGID_12_);}
	.st60{fill:url(#SVGID_13_);}
	.st61{fill:url(#SVGID_14_);}
	.st62{fill:url(#SVGID_15_);}
	.st63{fill:url(#SVGID_16_);}
	.st64{fill:url(#SVGID_17_);}
	.st65{fill:url(#SVGID_18_);}
	.st66{fill:url(#SVGID_19_);}
	.st67{fill:url(#SVGID_20_);}
	.st68{fill:url(#SVGID_21_);}
	.st69{fill:url(#SVGID_22_);}
	.st70{fill:url(#SVGID_23_);}
	.st71{fill:url(#SVGID_24_);}
	.st72{fill:url(#SVGID_25_);}
	.st73{fill:url(#SVGID_26_);}
	.st74{fill:url(#SVGID_27_);}
	.st75{fill:url(#SVGID_28_);}
	.st76{fill:url(#SVGID_29_);}
	.st77{fill:url(#SVGID_30_);}
	.st78{fill:url(#SVGID_31_);}
	.st79{fill:url(#SVGID_32_);}
	.st80{fill:url(#SVGID_33_);}
	.st81{fill:url(#SVGID_34_);}
	.st82{fill:url(#SVGID_35_);}
	.st83{fill:url(#SVGID_36_);}
	.st84{fill:#F0CCC1;}
	.st85{fill:#BF8DFF;}
	.st86{fill:#F5BCA9;}
	.st87{fill:#F5BDAF;}
	.st88{fill:#C5CBD3;}
	.st89{fill:#C3D4D8;}
	.st90{fill:#891343;}
</style>
<path class="st0" d="M527.3,0c0,0,21.2,48.8,107.1,61.8s29.9,83.1,49.1,155.6c9.7,36.6,48.3,109,166.7,64.3
	c83.8-31.7,111.3,11.5,113.2,81.4c2.4,89.4,45.5,119.5,153.9,103.7c108.4-15.9,124.4-2.5,140.4,28.5s69.2,28.9,91.3,8.9
	c0-66,0-503.6,0-503.6L527.3,0z"/>
<g class="st1">
	
		<radialGradient id="SVGID_1_" cx="908.2811" cy="574.3105" r="398.3954" gradientTransform="matrix(1 0 0 -7.000000e-02 0 585.79)" gradientUnits="userSpaceOnUse">
		<stop  offset="1.000000e-02" style="stop-color:#77D6EC"/>
		<stop  offset="1" style="stop-color:#FFFFFF"/>
	</radialGradient>
	<ellipse class="st2" cx="908.3" cy="544.7" rx="396.3" ry="18.6"/>
	<rect x="1162" y="539.6" class="st3" width="65.2" height="5.1"/>
	<path class="st3" d="M1211.2,364.9h-29.3c-1.4,0-2.5,1.1-2.5,2.5v29.3c0,1.4,1.1,2.5,2.5,2.5h29.3c1.4,0,2.5-1.1,2.5-2.5v-29.3
		C1213.8,366,1212.6,364.9,1211.2,364.9z M1208.7,394.1h-24.2v-24.2h24.2L1208.7,394.1z"/>
	
		<rect x="1175.9" y="379.2" transform="matrix(0.7071 -0.7071 0.7071 0.7071 80.4675 957.8074)" class="st3" width="41" height="5.1"/>
	<path class="st3" d="M1211.2,451.8h-29.3c-1.4,0-2.5,1.1-2.5,2.5v29.3c0,1.4,1.1,2.5,2.5,2.5h29.3c1.4,0,2.5-1.1,2.5-2.5v-29.3
		C1213.8,452.9,1212.6,451.8,1211.2,451.8z M1208.7,481.1h-24.2v-24.2h24.2L1208.7,481.1z"/>
	
		<rect x="1193.9" y="448.5" transform="matrix(0.7071 -0.7071 0.7071 0.7071 18.7906 983.3517)" class="st3" width="5.1" height="41"/>
	<path class="st3" d="M1211.2,423.4h-29.3c-1.4,0-2.5,1.1-2.5,2.5v28.4c0,1.4,1.1,2.5,2.5,2.5h29.3c1.4,0,2.5-1.1,2.5-2.5v-28.4
		C1213.8,424.5,1212.6,423.4,1211.2,423.4z M1208.7,451.8h-24.2v-23.3h24.2L1208.7,451.8z"/>
	
		<rect x="1175.9" y="437.5" transform="matrix(0.7071 -0.7071 0.7071 0.7071 39.2765 974.8729)" class="st3" width="41" height="5.1"/>
	<path class="st3" d="M1211.2,394.1h-29.3c-1.4,0-2.5,1.1-2.5,2.5V426c0,1.4,1.1,2.5,2.5,2.5h29.3c1.4,0,2.5-1.1,2.5-2.5v-29.3
		C1213.7,395.3,1212.6,394.1,1211.2,394.1z M1208.7,423.4h-24.2v-24.2h24.2L1208.7,423.4z"/>
	
		<rect x="1193.9" y="390.5" transform="matrix(0.7071 -0.7071 0.7071 0.7071 59.7831 966.3736)" class="st3" width="5.1" height="41"/>
	<g class="st4">
		<path class="st5" d="M1211.2,306.3h-29.3c-1.4,0-2.5,1.1-2.5,2.5v29.3c0,1.4,1.1,2.5,2.5,2.5h29.3c1.4,0,2.5-1.1,2.5-2.5v-29.3
			C1213.8,307.4,1212.6,306.3,1211.2,306.3z M1208.7,335.6h-24.2v-24.2h24.2L1208.7,335.6z"/>
		
			<rect x="1175.9" y="320.7" transform="matrix(0.7071 -0.7071 0.7071 0.7071 121.8825 940.6544)" class="st5" width="41" height="5.1"/>
		<path class="st5" d="M1211.2,277h-29.3c-1.4,0-2.5,1.2-2.5,2.6v29.3c0,1.4,1.1,2.5,2.5,2.5h29.3c1.4,0,2.5-1.1,2.5-2.5v-29.3
			C1213.8,278.2,1212.7,277,1211.2,277C1211.3,277,1211.2,277,1211.2,277z M1208.7,306.3h-24.2v-24.2h24.2L1208.7,306.3z"/>
		
			<rect x="1193.9" y="273.7" transform="matrix(0.7071 -0.7071 0.7071 0.7071 142.3951 932.1404)" class="st5" width="5.1" height="41"/>
		<path class="st5" d="M1211.2,335.6h-29.3c-1.4,0-2.5,1.1-2.5,2.5v29.3c0,1.4,1.1,2.5,2.5,2.5h29.3c1.4,0,2.5-1.1,2.5-2.5v-29.3
			C1213.8,336.7,1212.6,335.6,1211.2,335.6z M1208.7,364.9h-24.2v-24.2h24.2L1208.7,364.9z"/>
		
			<rect x="1193.9" y="332.3" transform="matrix(0.7071 -0.7071 0.7071 0.7071 100.9801 949.2935)" class="st5" width="5.1" height="41"/>
		<path class="st5" d="M1211.2,248.6h-29.3c-1.4,0-2.5,1.2-2.5,2.5v28.4c0,1.4,1.1,2.5,2.5,2.5h29.3c1.4,0,2.5-1.1,2.5-2.5v-28.4
			C1213.8,249.8,1212.7,248.6,1211.2,248.6C1211.3,248.6,1211.2,248.6,1211.2,248.6z M1208.7,277h-24.2v-23.3h24.2L1208.7,277z"/>
		
			<rect x="1175.9" y="262.7" transform="matrix(0.707 -0.7072 0.7072 0.707 162.9838 923.8661)" class="st5" width="41" height="5.1"/>
		<path class="st5" d="M1211.2,219.4h-29.3c-1.4,0-2.5,1.2-2.5,2.5v29.3c0,1.4,1.1,2.5,2.5,2.5h29.3c1.4,0,2.5-1.1,2.5-2.5v-29.3
			C1213.8,220.5,1212.7,219.4,1211.2,219.4C1211.3,219.4,1211.2,219.4,1211.2,219.4z M1208.7,248.6h-24.2v-24.2h24.2L1208.7,248.6z"
			/>
		
			<rect x="1193.9" y="215.8" transform="matrix(0.7071 -0.7071 0.7071 0.7071 183.3671 915.1915)" class="st5" width="5.1" height="41"/>
		<path class="st5" d="M1211.2,191h-29.3c-1.4,0-2.5,1.2-2.5,2.5v28.4c0,1.4,1.1,2.5,2.5,2.5h29.3c1.4,0,2.5-1.1,2.5-2.5v-28.4
			C1213.8,192.1,1212.7,191,1211.2,191C1211.3,191,1211.2,191,1211.2,191z M1208.7,219.4h-24.2V196h24.2L1208.7,219.4z"/>
		
			<rect x="1175.9" y="205" transform="matrix(0.7071 -0.7071 0.7071 0.7071 203.6478 906.7753)" class="st5" width="41" height="5.1"/>
		<path class="st5" d="M1211.2,161.7h-29.3c-1.4,0-2.5,1.2-2.5,2.5v29.3c0,1.4,1.1,2.5,2.5,2.5h29.3c1.4,0,2.5-1.1,2.5-2.5v-29.3
			C1213.8,162.8,1212.7,161.7,1211.2,161.7C1211.3,161.7,1211.2,161.7,1211.2,161.7z M1208.7,191h-24.2v-24.2h24.2L1208.7,191z"/>
		
			<rect x="1193.9" y="158.1" transform="matrix(0.7071 -0.7071 0.7071 0.7071 224.1441 898.3008)" class="st5" width="5.1" height="41"/>
		<path class="st5" d="M1211.2,481.1h-29.3c-1.4,0-2.5,1.2-2.5,2.5v29.3c0,1.4,1.1,2.5,2.5,2.5h29.3c1.4,0,2.5-1.1,2.5-2.5v-29.3
			C1213.8,482.2,1212.7,481.1,1211.2,481.1C1211.3,481.1,1211.2,481.1,1211.2,481.1z M1208.7,510.4h-24.2v-24.2h24.2L1208.7,510.4z"
			/>
		
			<rect x="1175.9" y="495.5" transform="matrix(0.7071 -0.7071 0.7071 0.7071 -1.7118 991.8408)" class="st5" width="41" height="5.1"/>
		<path class="st5" d="M1211.2,510.4h-29.3c-1.4,0-2.5,1.2-2.5,2.5v29.3c0,1.4,1.1,2.5,2.5,2.5h29.3c1.4,0,2.5-1.1,2.5-2.5v-29.3
			C1213.8,511.5,1212.7,510.4,1211.2,510.4C1211.3,510.4,1211.2,510.4,1211.2,510.4z M1208.7,539.6h-24.2v-24.2h24.2L1208.7,539.6z"
			/>
		
			<rect x="1193.9" y="507.1" transform="matrix(0.7071 -0.7071 0.7071 0.7071 -22.6141 1000.5004)" class="st5" width="5.1" height="41"/>
		<path class="st5" d="M1211.2,131.6h-29.3c-1.4,0-2.5,1.2-2.5,2.5v29.3c0,1.3,1.1,2.4,2.5,2.5h29.3c1.4,0,2.5-1.1,2.5-2.5v-29.2
			C1213.8,132.8,1212.6,131.6,1211.2,131.6z M1208.7,160.9h-24.2v-24.1h24.2L1208.7,160.9z"/>
		
			<rect x="1175.9" y="146.3" transform="matrix(0.7071 -0.7071 0.7071 0.7071 245.1894 889.5847)" class="st5" width="41" height="5.1"/>
		<path class="st5" d="M1211.2,103.2h-29.3c-1.4,0-2.5,1.2-2.5,2.5v28.4c0,1.4,1.1,2.6,2.5,2.6c0,0,0,0,0,0h29.3
			c1.4,0,2.5-1.1,2.5-2.5v-28.4C1213.8,104.4,1212.6,103.2,1211.2,103.2z M1208.7,131.6h-24.2v-23.3h24.2L1208.7,131.6z"/>
		
			<rect x="1193.9" y="99.3" transform="matrix(0.7071 -0.7071 0.7071 0.7071 265.6857 881.0895)" class="st5" width="5.1" height="41"/>
		<path class="st5" d="M1181.9,131.6h-29.3c-1.4,0-2.5,1.1-2.5,2.5v29.3c0,1.4,1.2,2.5,2.5,2.5h29.3c1.4,0,2.5-1.1,2.5-2.5v-29.2
			C1184.5,132.8,1183.3,131.6,1181.9,131.6z M1179.5,160.9h-24.3v-24.1h24.3V160.9z"/>
		
			<rect x="1164.9" y="128.3" transform="matrix(0.7071 -0.7071 0.7071 0.7071 236.7004 869.0823)" class="st5" width="5.1" height="41"/>
		<path class="st5" d="M1152.7,131.6h-28.4c-1.4,0-2.5,1.1-2.5,2.5v29.3c0,1.4,1.2,2.5,2.5,2.5h28.4c1.4,0,2.5-1.1,2.5-2.5v-29.2
			C1155.2,132.8,1154.1,131.6,1152.7,131.6C1152.7,131.6,1152.7,131.6,1152.7,131.6z M1150.1,160.9h-23.3v-24.1h23.3V160.9z"/>
		
			<rect x="1117.9" y="146.3" transform="matrix(0.7071 -0.7071 0.7071 0.7071 228.201 848.5963)" class="st5" width="41" height="5.1"/>
		<path class="st5" d="M1124.3,131.6h-29.3c-1.4,0-2.5,1.1-2.5,2.5v29.3c0,1.4,1.2,2.5,2.5,2.5h29.3c1.4,0,2.5-1.1,2.5-2.5v-29.2
			C1126.8,132.8,1125.7,131.7,1124.3,131.6z M1121.8,160.9h-24.2v-24.1h24.2V160.9z"/>
		
			<rect x="1106.9" y="128.3" transform="matrix(0.7071 -0.7071 0.7071 0.7071 219.7223 828.0898)" class="st5" width="5.1" height="41"/>
		<path class="st5" d="M1232.2,131.6h-21c-1.4,0-2.5,1.1-2.5,2.5v29.3c0,1.4,1.2,2.5,2.5,2.5h21c9.4,0,17-7.6,17-17v-0.3
			C1249.2,139.2,1241.6,131.7,1232.2,131.6z M1244.2,148.9c0,6.6-5.4,12-12,12h-18.5v-24.1h18.5c6.6,0,12,5.4,12,12V148.9z"/>
		<rect x="1058.2" y="160.9" class="st5" width="123.3" height="5.1"/>
		<path class="st5" d="M1096.4,132c-0.8-0.5-1.7-0.5-2.5-0.1l-27.5,14.1c-0.8,0.4-1.4,1.3-1.4,2.3v14.6c0,1.4,1.1,2.5,2.5,2.5h27.4
			c1.4,0,2.5-1.1,2.5-2.5v-28.7C1097.5,133.3,1097.1,132.5,1096.4,132z M1092.5,160.4H1070v-10.5l22.4-11.5L1092.5,160.4z"/>
		<rect x="1096.1" y="160.8" class="st5" width="2.9" height="67.2"/>
	</g>
	<path class="st6" d="M1085.9,225.5h23.3c3.2,0,5.8,2.6,5.8,5.8v23.3c0,3.2-2.6,5.8-5.8,5.8h-23.3c-3.2,0-5.8-2.6-5.8-5.8v-23.3
		C1080.1,228.1,1082.7,225.5,1085.9,225.5z"/>
	<path class="st7" d="M1186,386.5c-0.6-0.2-1.3-0.5-1.4,0.3c-0.1,0.5,2.1,1.5,2.7,1.5c1.3-0.6,0.9-1.3,2.2-1.6
		C1188.3,386.8,1187.1,386.8,1186,386.5z"/>
	<path class="st7" d="M1190.4,386.4c-1.3,0.4-2.6,0.9-3.8,1.5c-1.5,0.6-4.7,2.5-4.9,2.6c-0.9,0.5-1.9,1-2.7,1.7
		c-0.3,0.5-0.5,1.2-0.5,1.8c0.1,0.4,0.4,0.6,0.8,0.7c0,0.8,2,0.4,1.9,0.6c-0.2,0.8,0.9,1.3,3.4-0.2c0.1-0.1,6.9-2.6,9-3.5
		C1192.7,389.6,1191.7,387.9,1190.4,386.4z"/>
	<path class="st7" d="M1224.1,362.9c-0.4,0.1-0.9,0.2-1.2,0.5c-6,3.5-26,20.5-32.8,23.2c1.1,1.6,2.1,3.3,2.8,5.2
		c11.2-4.6,37.7-19.4,37.1-24.2C1229.5,363.1,1226.2,362.4,1224.1,362.9z"/>
	<path class="st7" d="M1231.2,326.5c-2.7,5.8-6.3,26.3-10,35.8c-4.4,11.7,5.3,10.6,7.7,7.5c6.5-8.1,20.5-33.5,16.7-37.3
		C1244,330.7,1231.7,325.4,1231.2,326.5z"/>
	<path class="st8" d="M1231.1,324.9c-0.5,0.1-1,0.4-1.2,0.9c-1.5,3-3,9.7-4.7,16.8c-1.7,7.1-5.8,20.7-6,21.4
		c-2.4,1.7-25.6,19.5-29.6,21.1l3.8,7.9c9.8-4.1,31.8-16,36.8-22.5c5.3-6.6,21.8-34,16.5-39.2
		C1244.9,329.6,1233.4,324.4,1231.1,324.9z"/>
	<rect x="1097.9" y="369.6" class="st9" width="145.5" height="126.6"/>
	<rect x="1097.9" y="358.1" class="st10" width="145.5" height="16.2"/>
	<rect x="1110.5" y="382.4" class="st3" width="119.4" height="98.7"/>
	<rect x="1140.4" y="388.8" class="st9" width="85" height="46.2"/>
	<rect x="1144.1" y="462.8" class="st9" width="17.6" height="2.3"/>
	<rect x="1170.5" y="462.8" class="st9" width="38.6" height="2.3"/>
	<rect x="1213.6" y="462.8" class="st9" width="8" height="2.3"/>
	<rect x="1195.1" y="466.5" class="st9" width="26.6" height="2.3"/>
	<rect x="1144.1" y="466.5" class="st9" width="6.4" height="2.3"/>
	<rect x="1153.7" y="466.5" class="st9" width="35.1" height="2.3"/>
	<rect x="1144.1" y="470.1" class="st9" width="21.1" height="2.3"/>
	<rect x="1169.5" y="470.1" class="st9" width="52.1" height="2.3"/>
	<rect x="1144.1" y="443" class="st9" width="17.6" height="2.3"/>
	<rect x="1170.5" y="443" class="st9" width="38.6" height="2.3"/>
	<rect x="1213.6" y="443" class="st9" width="8" height="2.3"/>
	<rect x="1195.1" y="446.6" class="st9" width="26.6" height="2.3"/>
	<rect x="1144.1" y="446.6" class="st9" width="6.4" height="2.3"/>
	<rect x="1153.7" y="446.6" class="st9" width="35.1" height="2.3"/>
	<rect x="1144.1" y="450.2" class="st9" width="21.1" height="2.3"/>
	<rect x="1169.5" y="450.2" class="st9" width="52.1" height="2.3"/>
	<rect x="1115.9" y="389.1" class="st9" width="18.7" height="3.6"/>
	<rect x="1115.9" y="399.1" class="st9" width="18.7" height="3.6"/>
	<rect x="1115.9" y="409" class="st9" width="18.7" height="3.6"/>
	<rect x="1115.9" y="419" class="st9" width="18.7" height="3.6"/>
	<rect x="1115.9" y="428.9" class="st9" width="18.7" height="3.6"/>
	<rect x="1115.9" y="438.9" class="st9" width="18.7" height="3.6"/>
	<rect x="1115.9" y="448.9" class="st9" width="18.7" height="3.6"/>
	<rect x="1115.9" y="458.9" class="st9" width="18.7" height="3.6"/>
	<rect x="1115.9" y="468.8" class="st9" width="18.7" height="3.6"/>
	<circle class="st3" cx="1235.4" cy="369.4" r="1.7"/>
	<circle class="st3" cx="1228.4" cy="369.4" r="1.7"/>
	<path class="st11" d="M1190.5,396.7h-15.3c-7.9,0-14,7.2-14.1,15.1c0,7.9,6.2,14.8,14.1,14.8h15.3c8.2-0.3,14.7-7.2,14.5-15.4
		C1204.8,403.3,1198.4,397,1190.5,396.7z"/>
	<path class="st11" d="M1161.2,411.9C1161.2,411.9,1161.2,411.9,1161.2,411.9c0-0.1,0-0.1,0-0.1V411.9z"/>
	<polygon class="st3" points="1178,420.4 1192.2,412.2 1178,404 	"/>
	<path class="st12" d="M1259,536.1l-4.5-2.5c0,0-1,1.5-1.8,2.4c-1.5,1.8-8.9,3.1-8.9,5.7c0,1.3,2.7,2.5,5,2.6
		c1.8,0.1,3.7-0.2,5.4-0.7c1.3-0.4,4.4-1.7,4.8-2.5c0.5-0.9,0.5-2,0.2-3C1259.3,536.6,1259,536.1,1259,536.1z"/>
	<path class="st7" d="M1253.1,533.4c0.4,0.9,0.2,1.9-0.5,2.6c0.7,1,1.6,1.9,2.6,2.5c1,0.5,3.8-0.5,3.8-0.5c0.1-1.2,0.2-2.3,0.1-3.5
		L1253.1,533.4z"/>
	<path class="st13" d="M1241.6,385c-1.8,28.3-1.7,56.8,0.3,85.1c2,21.7,5.7,43.2,11.3,64.3c0,0.2,4.5,2.6,6.7,0.2
		c0,0-3.5-33.1,0.9-64.3c3.8-27,9.1-52.5,11.2-54.2v-28.6C1261.1,388.2,1245.2,386.6,1241.6,385z"/>
	<path class="st12" d="M1293.4,536.4l-4.7-2.2c0,0-0.9,1.5-1.6,2.5c-1.5,1.9-8.6,3.8-8.4,6.4c0.1,1.3,2.9,2.2,5.2,2.2
		c1.8,0.1,3.7-0.3,5.3-1.2c1.5-1,4.2-2,4.6-2.8c0.4-1,0.4-2.1,0-3C1293.8,536.9,1293.4,536.4,1293.4,536.4z"/>
	<path class="st7" d="M1287.7,534.1c0.2,1,0,2-0.6,2.7c0.7,1,1.7,1.8,2.8,2.3c1,0.5,3.8-0.8,3.8-0.8c0.1-1.5,0-3.6,0-3.6
		L1287.7,534.1z"/>
	<path class="st13" d="M1294.8,387.3c-10.9,1.6-26.8,1.2-30.6-0.1c0.4,28.5,2.8,57,7.1,85.1c3.6,21.4,9.1,42.4,16.2,62.9
		c0.1,0.2,4.7,2.3,6.7-0.3c0,0-6.1-32.7-4.1-64.2C1291.8,443.5,1294.8,387.3,1294.8,387.3z"/>
	<path class="st7" d="M1239.9,307.6c0.1,0.6,2.4,7,1.5,10.7c1,3.2,10.2,2.1,11.9-3.8c-1.2-1.5-3.2-9.7-3.1-12.8
		C1249.5,302.3,1242.2,307.6,1239.9,307.6z"/>
	<path class="st7" d="M1240.6,291.8c-4.2,0.2-8,1.7-8.4,5.7c-0.1,1.5,2.1,13.9,9,15c2.9,0.4,7.8-5.1,7.6-8.4l-0.3-4.6
		C1248.2,295,1245,291.5,1240.6,291.8z"/>
	<path class="st8" d="M1262.9,315.7c-2.3-0.6-9.5-1.3-9.5-1.3s-4.4,4.9-7.5,5.5c-2.2,0.4-4.4-1.7-4.4-1.7s-7.7,3.4-9,4.5
		c-5.2,4-2.4,11.1-1.6,17.3c0.5,3.6,9.5,36.4,7.5,68.5c14.4,5.8,28.3,9.8,47.8-0.7l-1.3-20.7l6.4,19.3c1.3-0.3,4-0.6,5.1-0.8
		C1296.3,345.6,1283.7,321.2,1262.9,315.7z"/>
	<path class="st13" d="M1253.3,314.4c0,0-4.4,4.9-7.5,5.5c-2.2,0.4-4.4-1.7-4.4-1.7s-7.2,3.2-8.8,4.4c1.3,6.5,9.6,12.3,9.6,12.3
		s12.3-13.7,20.7-19.3c-1.5-0.5-3.1-0.8-4.7-0.9L1253.3,314.4z"/>
	<path class="st14" d="M1249.3,284.2c-8.7-6.9-22.9,1-22.7,9.9c0,2,2.2,6.5,20.2,1.5c2.4,3,3.7,10,3.7,10
		C1255.7,300.2,1256,289.4,1249.3,284.2z"/>
	<path class="st7" d="M1249,297.6c-0.7,0-1.3,0.1-1.9,0.4c0.3,1.8,0.8,3.5,1.3,5.3c1.3-0.4,2.3-1.5,2.6-2.8
		C1251.1,299.3,1250.1,297.7,1249,297.6z"/>
	<path class="st7" d="M1195.8,367.4c-0.3,0.5,1.5,2.1,2.1,2.2c1.4-0.1,1.3-0.9,2.6-0.8c-1.2-0.3-2.3-0.7-3.3-1.3
		C1196.6,367.1,1196.1,366.6,1195.8,367.4z"/>
	<path class="st7" d="M1197.3,368.9c-1.6,0.1-5.2,0.8-5.5,0.9c-1.1,0.2-2.1,0.4-3.1,0.7c-0.5,0.4-0.9,0.9-1,1.5
		c0,0.4,0.2,0.7,0.6,0.9c-0.2,0.8,1.7,1,1.7,1.2c-0.4,0.7,0.4,1.5,3.2,0.9c0.2,0,7.4-0.1,9.7-0.4c-0.3-2-0.8-3.9-1.5-5.7
		C1200,368.7,1198.7,368.7,1197.3,368.9z"/>
	<path class="st8" d="M1259.8,323.9c-0.5-0.1-1.1,0.1-1.5,0.5c-2.3,2.4-6,8.2-9.9,14.3c-3.4,5.6-7.2,11.1-11.2,16.4
		c-0.5,0.6-1,1.3-1.5,2c-2.9,0.8-6.7,2.1-10.8,3.5c-8.8,2.9-19.8,6.6-24.1,6.8l1.1,8.7c10.6-0.7,35.3-4.8,42.1-9.3
		c7.2-4.5,31.6-25.1,28.4-31.7C1271.4,332.8,1262.3,324.2,1259.8,323.9z"/>
	<path class="st11" d="M555.7,441.4c-0.5,2.4,0.2,5.3-0.2,7.8c-0.5,3.1-2.5,4-3.9,6c-1.7,3.2-2.4,6.8-1.8,10.4
		c0.5,2.2,1.1,4.3,1.8,6.4c0.7,2.2,0.9,4.6,0.5,6.9c-0.8,3.3-4.8,5.9-4.8,20c0,12.9,9.2,17.9,11.8,21v-83.4l-1.2,1.1
		C556.8,438.6,556,439.9,555.7,441.4z"/>
	<path class="st11" d="M566.5,472c0.7-2.1,1.3-4.2,1.7-6.4c0.6-3.6,0-7.3-1.7-10.4c-1.3-2-3.3-2.9-3.9-6c-0.4-2.5,0.3-5.4-0.2-7.8
		c-0.3-1.4-1.1-2.7-2.2-3.7l-1.2-1.1v83.4c2.6-3.1,11.8-8.2,11.8-21c0-14.1-4-16.7-4.8-20C565.6,476.6,565.8,474.2,566.5,472z"/>
	<path class="st9" d="M571.1,487.8c-0.7,0.9-0.4,2.3-1,3.3c-0.8,1.2-2.5,1.2-3.9,1.7c-1.6,0.7-2.6,2.3-2.6,4c0.1,1,0.4,2.1,0.7,3.1
		c0.3,1,0.2,2.1-0.4,3c-1,1.2-4.6,1.5-6.2,7.4c-1.5,5.4,5.6,9.5,7.5,11.4l9.2-35.1l-1.1,0.2C572.5,486.8,571.7,487.2,571.1,487.8z"
		/>
	<path class="st9" d="M575.9,492.5c-0.1-1.2,0.9-2.2,0.7-3.3c-0.2-0.8-0.7-1.5-1.5-2l-0.8-0.7l-9.2,35.2c2.5-0.8,10.7-0.9,12.1-6.3
		c1.5-5.9-1.5-7.9-1.8-9.5c-0.1-1.1,0.4-2.1,1.2-2.8c0.8-0.7,1.5-1.5,2.1-2.3c0.9-1.5,0.8-3.4-0.3-4.8
		C577.6,494.8,576,494,575.9,492.5z"/>
	<path class="st3" d="M544,517.8c0,0,5.7,6.1,5.7,10.2c-0.1,1.6-0.4,3.2-1,4.7c-1.6,4.9,1.1,10.1,6,11.7c0.9,0.3,1.9,0.4,2.8,0.4
		h15.1c5.1,0,9.3-4.2,9.3-9.3c0-0.9-0.1-1.9-0.4-2.8c-0.5-1.5-0.9-3.1-1-4.7c0-4.1,5.7-10.2,5.7-10.2L544,517.8z"/>
	<path class="st10" d="M924.3,192.8h128.9c18.1,0,32.7,14.6,32.7,32.7l0,0V512c0,18.1-14.6,32.7-32.7,32.7h0H924.3
		c-18.1,0-32.7-14.6-32.7-32.7v0V225.5C891.6,207.4,906.3,192.8,924.3,192.8L924.3,192.8z"/>
	<path class="st15" d="M1053.2,200H924c-14.1,0-25.5,11.4-25.5,25.5v286.7c0,14.3,11.6,25.8,25.9,25.9h128.9
		c14.3,0,25.9-11.6,25.9-25.9V225.9C1079.1,211.6,1067.5,200,1053.2,200z"/>
	<path class="st10" d="M940.7,205.4c0,9.5,7.7,17.1,17.1,17.1l0,0h62c9.5,0,17.1-7.7,17.1-17.1v0v-6.9h-96.3V205.4z"/>
	<path class="st9" d="M970.5,209.7h36.7c1.3,0,2.4,1.1,2.4,2.4v0c0,1.3-1.1,2.4-2.4,2.4h-36.7c-1.3,0-2.4-1.1-2.4-2.4v0
		C968.1,210.8,969.2,209.7,970.5,209.7z"/>
	<circle class="st9" cx="988.8" cy="202.9" r="2.8"/>
	<path class="st16" d="M1039.8,463.2h23.3c3.2,0,5.8,2.6,5.8,5.8v23.3c0,3.2-2.6,5.8-5.8,5.8h-23.3c-3.2,0-5.8-2.6-5.8-5.8v-23.3
		C1034.1,465.8,1036.7,463.2,1039.8,463.2z"/>
	<path class="st6" d="M998.1,463.2h23.3c3.2,0,5.8,2.6,5.8,5.8v23.3c0,3.2-2.6,5.8-5.8,5.8h-23.3c-3.2,0-5.8-2.6-5.8-5.8v-23.3
		C992.3,465.8,994.9,463.2,998.1,463.2z"/>
	<path class="st11" d="M956.3,463.2h23.3c3.2,0,5.8,2.6,5.8,5.8v23.3c0,3.2-2.6,5.8-5.8,5.8h-23.3c-3.2,0-5.8-2.6-5.8-5.8v-23.3
		C950.5,465.8,953.1,463.2,956.3,463.2z"/>
	<path class="st11" d="M914.5,463.2h23.3c3.2,0,5.8,2.6,5.8,5.8v23.3c0,3.2-2.6,5.8-5.8,5.8h-23.3c-3.2,0-5.8-2.6-5.8-5.8v-23.3
		C908.7,465.8,911.3,463.2,914.5,463.2z"/>
	<path class="st16" d="M1039.8,250.1h23.3c3.2,0,5.8,2.6,5.8,5.8v23.3c0,3.2-2.6,5.8-5.8,5.8h-23.3c-3.2,0-5.8-2.6-5.8-5.8v-23.3
		C1034.1,252.6,1036.7,250.1,1039.8,250.1z"/>
	<path class="st9" d="M998.1,250.1h23.3c3.2,0,5.8,2.6,5.8,5.8v23.3c0,3.2-2.6,5.8-5.8,5.8h-23.3c-3.2,0-5.8-2.6-5.8-5.8v-23.3
		C992.3,252.6,994.9,250.1,998.1,250.1z"/>
	<path class="st11" d="M956.3,250.1h23.3c3.2,0,5.8,2.6,5.8,5.8v23.3c0,3.2-2.6,5.8-5.8,5.8h-23.3c-3.2,0-5.8-2.6-5.8-5.8v-23.3
		C950.5,252.6,953.1,250.1,956.3,250.1z"/>
	<path class="st9" d="M914.5,250.1h23.3c3.2,0,5.8,2.6,5.8,5.8v23.3c0,3.2-2.6,5.8-5.8,5.8h-23.3c-3.2,0-5.8-2.6-5.8-5.8v-23.3
		C908.7,252.6,911.3,250.1,914.5,250.1z"/>
	<path class="st6" d="M956.3,295.1h23.3c3.2,0,5.8,2.6,5.8,5.8v23.3c0,3.2-2.6,5.8-5.8,5.8h-23.3c-3.2,0-5.8-2.6-5.8-5.8v-23.3
		C950.5,297.7,953.1,295.1,956.3,295.1z"/>
	<path class="st11" d="M998.1,295.1h23.3c3.2,0,5.8,2.6,5.8,5.8v23.3c0,3.2-2.6,5.8-5.8,5.8h-23.3c-3.2,0-5.8-2.6-5.8-5.8v-23.3
		C992.3,297.7,994.9,295.1,998.1,295.1z"/>
	<path class="st11" d="M914.5,295.1h23.3c3.2,0,5.8,2.6,5.8,5.8v23.3c0,3.2-2.6,5.8-5.8,5.8h-23.3c-3.2,0-5.8-2.6-5.8-5.8v-23.3
		C908.7,297.7,911.3,295.1,914.5,295.1z"/>
	<path class="st6" d="M1039.8,339.9h23.3c3.2,0,5.8,2.6,5.8,5.8V369c0,3.2-2.6,5.8-5.8,5.8h-23.3c-3.2,0-5.8-2.6-5.8-5.8v-23.3
		C1034.1,342.5,1036.7,339.9,1039.8,339.9z"/>
	<path class="st11" d="M956.3,339.9h23.3c3.2,0,5.8,2.6,5.8,5.8V369c0,3.2-2.6,5.8-5.8,5.8h-23.3c-3.2,0-5.8-2.6-5.8-5.8v-23.3
		C950.5,342.5,953.1,339.9,956.3,339.9z"/>
	<path class="st16" d="M914.5,339.9h23.3c3.2,0,5.8,2.6,5.8,5.8V369c0,3.2-2.6,5.8-5.8,5.8h-23.3c-3.2,0-5.8-2.6-5.8-5.8v-23.3
		C908.7,342.5,911.3,339.9,914.5,339.9z"/>
	<path class="st16" d="M914.5,385h23.3c3.2,0,5.8,2.6,5.8,5.8V414c0,3.2-2.6,5.8-5.8,5.8h-23.3c-3.2,0-5.8-2.6-5.8-5.8v-23.3
		C908.7,387.6,911.3,385,914.5,385z"/>
	<path class="st16" d="M956.3,385h23.3c3.2,0,5.8,2.6,5.8,5.8V414c0,3.2-2.6,5.8-5.8,5.8h-23.3c-3.2,0-5.8-2.6-5.8-5.8v-23.3
		C950.5,387.6,953.1,385,956.3,385z"/>
	<path class="st7" d="M1105.3,253.5c-0.5-0.3-2.9-0.3-3,0.2c-0.3,0.8,0.5,0.8,1.1,0.9c1.1,0.3,2.2,0.7,3.3,1.3
		C1105.6,255.1,1106.2,254.6,1105.3,253.5z"/>
	<path class="st7" d="M1105.5,246.5c-1.6-2.4-2.8-2.4-2.9-1.6c0,0.2-1.7-1-2-0.3c-0.4-0.1-0.8,0-1,0.3c-0.3,0.6-0.4,1.2-0.3,1.8
		c0.5,0.9,1.1,1.8,1.8,2.6c0.1,0.2,2.3,3.2,3.4,4.4c0.9,1,1.9,2,2.9,2.9c1.8-0.9,3.4-2,5-3.2
		C1110.8,251.7,1105.6,246.6,1105.5,246.5z"/>
	<path class="st17" d="M1112.7,251.7l-6.8,5.6c2.9,3.1,8.5,13.3,12.9,21.5c2,3.8,3.9,7.3,5.4,9.9c-0.1,0.8-0.2,1.6-0.3,2.4
		c-0.3,5-1.3,22.4-7.5,26.1c-0.5,0.3,13.9,30.6,13.9,30.6s12.5-42.3,6.7-60.5C1134.5,279.6,1120,259.5,1112.7,251.7z"/>
	<path class="st7" d="M1112.4,446.2c0.1,3.9,16.4,86.5,16.4,86.5c1.9,0.2,3.9-0.5,5.3-1.8c0,0-3.8-82.2-3.8-83.9
		C1129,448.6,1114.8,447.7,1112.4,446.2z"/>
	<path class="st11" d="M1100.8,387.9l2.9,28.4c2.3,1.5,4.4,26.9,11,53.4c7.7,30.6,13.1,60.4,13.1,60.4c1.8-1.8,4.5-2.1,6.6-0.9
		c0,0-2.2-141.2-3.7-146.9C1127.5,384.3,1111.8,387.5,1100.8,387.9z"/>
	<path class="st9" d="M1135.2,530.7c-0.4-0.4-0.8-0.8-1.2-1.3c0,0-4.2-1-5.5,2.1c0,0,0,3.6,1,4.9c1.5,1.9,3.3,3.5,5.3,4.9
		c1.8,0.5,3.6,0.6,5.4,0.2c2.2-0.3,4.8-1.8,4.7-3.1C1144.7,535.8,1136.9,532.4,1135.2,530.7z"/>
	<path class="st11" d="M1134.5,534c-1.9-1.3-5,0.9-2.9,3.9c1.1,1.4,2.4,2.5,3.8,3.5c1.3,0.4,2.6,0.4,3.9,0.1
		c1.6-0.2,3.5-1.3,3.4-2.2C1142.6,537.4,1136.5,535.3,1134.5,534z"/>
	<path class="st7" d="M1023.1,281.8c0-0.6,0.3-1.3-0.5-1.3c-0.6,0-1.2,2.3-1.1,2.9c0.7,1.2,1.5,0.7,1.9,2
		C1023.2,284.2,1023.1,283,1023.1,281.8z"/>
	<path class="st7" d="M1018.7,278.1c-0.6-0.9-1.3-1.7-2-2.5c-0.6-0.3-1.2-0.3-1.9-0.2c-0.3,0.2-0.6,0.5-0.5,0.9
		c-0.8,0.1-0.1,2-0.3,2c-0.8,0-1.1,1.1,0.7,3.3c0.1,0.1,3.5,6.5,4.7,8.5c1.6-1.1,3.1-2.4,4.5-3.8c-0.6-1.2-1.2-2.5-1.9-3.6
		C1021.1,281.2,1018.9,278.3,1018.7,278.1z"/>
	<path class="st7" d="M1051.2,315.2c-4.4-5.5-23.8-22.9-27.4-29.3c-1.4,1.3-3,2.5-4.8,3.4c6.1,10.4,24.3,34.7,29,33.5
		c4.3-1.1,4.6-4.4,3.8-6.4C1051.7,315.9,1051.5,315.5,1051.2,315.2z"/>
	<path class="st7" d="M1052,313.4c-12.1-2.8-9.7,6.7-6.3,8.7c8.9,5.3,36,15.8,39.3,11.4c1.5-1.9,5-14.8,3.9-15.1
		C1082.7,316.5,1061.9,315.7,1052,313.4z"/>
	<path class="st17" d="M1072,314.6c-6.6-0.5-13.1-1.4-19.6-2.6c-0.8-0.2-1.6-0.3-2.4-0.4c-2.1-2.2-4.9-5-8-8
		c-6.6-6.6-14.9-14.7-17-18.4l-7.3,4.9c5.4,9.2,20.2,29.3,27.3,33.4c7.3,4.4,26.5,13,33.9,16.1c2.3,1,14.2-23.9,13.6-23.8
		C1087.1,316.7,1079.2,315.3,1072,314.6z"/>
	<path class="st7" d="M1083.1,449.8c0.1,1.7,4.9,83.8,4.9,83.8c1.6,1.1,3.5,1.6,5.5,1.2c0,0,7.7-83.8,7.4-87.7
		C1098.6,448.8,1084.5,451.2,1083.1,449.8z"/>
	<path class="st11" d="M1075.8,385.4c-0.8,5.8,11.6,146.5,11.6,146.5c2-1.5,4.8-1.4,6.7,0.2c0,0,2.3-30.2,6.7-61.4
		c3.8-27,3.3-52.5,5.4-54.2v-28.6C1095.3,388.7,1079.4,387,1075.8,385.4z"/>
	<path class="st9" d="M1115.3,391.7c-11,0.3-21.9,0.1-32.8-0.7c-2.5-0.1-5-0.3-7.4-0.5c-0.4,8.8-0.4,17.6,0.1,26.4
		c1,0,8.9,0.5,8.9,0.5c13.8,1.1,34.7,4.2,44,1.9c1.7-0.4,6.2-2,6.4-2.5c0.8-9.5,0.7-19.1-0.1-28.6
		C1128.3,390.2,1121.9,391.4,1115.3,391.7z"/>
	<path class="st7" d="M1109.5,304.1c-2.2,0.5-10.4-3.3-11.2-3.8c0.7,3,0.4,11.5-0.5,13.2c2.9,5.4,12.1,4.7,12.4,1.4
		C1108.5,311.4,1109.5,304.7,1109.5,304.1z"/>
	<path class="st7" d="M1105.8,288.7c-4.4,0.6-6.8,4.7-6.2,9.1l0.6,4.5c0.5,3.3,6.3,7.8,9.1,6.8c6.6-2.4,6.3-15.1,5.8-16.5
		C1114,288.8,1109.9,288.2,1105.8,288.7z"/>
	<path class="st17" d="M1120.6,310.9c-4.4,6.4-10.4,3.9-10.4,3.9c-2.1,1-4.4,1.3-6.6,1c-4.3-0.6-5.8-2.4-5.8-2.4s-6.8,2.4-9.1,3.1
		c-6.9,2.2-8.7,7.7-8.6,13.8c0,1.5-7,49.2-4.8,80.7c1,0,2.2,0,3.6,0.1l2.4-20.2l2.9,20.5c13.8,1.1,34.6,3.5,44,1.9l1.7-18.3
		l1.6,17.3c0.7-0.4,2.9-1,3.1-1.6c2.9-28.6-6.4-77.1-7.6-80.5C1125.4,326.1,1124.4,305.5,1120.6,310.9z"/>
	<path class="st9" d="M1087.9,532.1c-0.3,0.5-0.7,1-1.1,1.5c-1.5,1.8-8.9,6-8.9,8.6c0,1.3,2.7,2.5,5,2.6c1.8,0.2,3.7,0,5.4-0.7
		c1.9-1.5,3.5-3.4,4.8-5.4c0.8-1.5,0.5-5,0.5-5C1092,530.7,1087.9,532.1,1087.9,532.1z"/>
	<path class="st11" d="M1087.9,536.3c-1.9,1.6-8.1,4.5-8.1,6.5c0,1,2.1,1.9,3.8,1.9c1.4,0.2,2.8,0,4.1-0.6c1.4-1.2,2.6-2.5,3.6-4.1
		C1093.2,536.7,1089.7,534.7,1087.9,536.3z"/>
	<path class="st10" d="M1117.5,289.3c-3.4-6.4-14.6-10.5-20.7-5c-5.4,4.9-4,12.9-0.1,18c2,2.6-1.5,2.3-1.5,2.3
		c1.7,1.7,3.8,2.9,6.1,3.6c10.8,2.7,16.5-11.9,16.5-11.9s-4.4-1-3-1c6.4,0,7.6-2.9,6.7-6.2C1121.7,290.5,1120,294.2,1117.5,289.3z"
		/>
	<path class="st7" d="M935.2,413.5c-1.2,0-2.4-0.2-3.5-0.5c1.2,0.6,0.7,1.3,1.9,2c0.5,0.2,2.9-0.4,2.9-0.9
		C936.6,413.2,935.9,413.4,935.2,413.5z"/>
	<path class="st7" d="M938.7,418c-0.2-0.2-3-2.6-4.4-3.5c-1.1-0.8-2.3-1.5-3.5-2.1c-1.5,1.3-2.9,2.7-4.1,4.3c1.9,1.3,8.1,5,8.2,5.1
		c2.1,1.9,3.3,1.7,3.3,0.8c0-0.2,1.9,0.6,2-0.2c0.4,0,0.7-0.2,0.9-0.5c0.1-0.6,0.1-1.3-0.1-1.9C940.3,419.4,939.6,418.7,938.7,418z"
		/>
	<path class="st7" d="M902.1,346c-0.3-1.1-13.4,1.8-15.3,3.1c-4.5,3,4.5,30.6,9.4,39.8c1.9,3.5,11.2,6.4,9-5.8
		C903.4,373.1,903.6,352.3,902.1,346z"/>
	<path class="st7" d="M903.4,383.8c-0.3-0.3-0.7-0.5-1.1-0.7c-2-0.8-5.3-0.7-6.6,3.5c-1.5,4.6,21.9,24,32,30.7
		c1-1.7,2.3-3.2,3.7-4.6C925,408.8,908.6,388.4,903.4,383.8z"/>
	<path class="st18" d="M913.4,392.9c-2.7-3.1-5.3-6.1-7.3-8.3c0-0.8-0.1-1.6-0.3-2.4c-0.8-6.4-1.2-12.8-1.3-19.3
		c-0.2-7.1-0.5-13.8-1.2-16.9c-0.1-0.5-0.5-0.9-1-1.1c-2.2-1-14.1,1.8-16.1,3.1c-6,3.9,4.4,33.3,8.1,40.6
		c3.5,7.2,22.2,22.9,30.7,28.7l5.2-6.8C926.7,408.3,919.3,399.7,913.4,392.9z"/>
	<path class="st9" d="M979,327.3l-11.8,27.3c-1,2-3.4,2.9-5.5,2l-22.2-9.6c-1.8-0.8-2.7-3-1.9-4.8c0-0.1,0.1-0.2,0.1-0.2l11.7-27.1
		v-0.8c-11.7,0.1-19.1,8-23.8,18.9c-4.7,10.9-2.6,24.6,4.5,33.9l-69,159.2c-2.9,6.8-1,14.7,5.8,17.7l0.2,0.1c7,2.9,15-0.4,18-7.3
		l69.1-159.3c12-1.4,22.4-9,27.5-20c4.7-10.9,5.1-21.9-2.8-30.5C978.9,326.8,979.1,327.1,979,327.3z M876.8,534.5
		c-1.1,2.7-4.2,3.9-6.9,2.7s-3.9-4.2-2.7-6.9c1.1-2.7,4.2-3.9,6.9-2.7c0,0,0,0,0,0C876.7,528.8,877.9,531.8,876.8,534.5z"/>
	<path class="st8" d="M794.3,531.3c0.3-1.2,1-2.8,1-2.8l-4.7-2.3c0,0-0.6,0-1.7,1c-1,0.3-1.9,0.9-2.4,1.9c-0.4,0.8,0.6,3.6,0.7,5.3
		c0.4,1.8,1.2,3.5,2.5,4.8c1.4,1.8,3.9,3.4,4.9,2.6C796.8,540.5,793.6,533.6,794.3,531.3z"/>
	<path class="st7" d="M788.9,527.2c0,0,0.8,2.9,1.8,3.4c1.1,0.5,2.3,0.8,3.6,0.7c0.3-1,0.7-2,1.3-2.9l-4.9-2.9
		C790.7,525.5,789.9,526.2,788.9,527.2z"/>
	<path class="st8" d="M832.5,395.5c-6.2,18.3-8.7,51.7-11.7,77.9c-1.3,11.7-31.6,53.5-31.6,53.5c1.2,1.9,3.4,3,5.6,2.8
		c0,0,39.2-34.9,45.4-52.2c13-36.7,20.7-75.1,20.9-78.1C857.3,400.1,843.1,398.5,832.5,395.5z"/>
	<path class="st7" d="M857.4,447.1c-0.3,3.9,7.4,90.7,7.4,90.7c1.9,0.4,3.9-0.1,5.5-1.2c0,0,4.8-85,4.9-86.7
		C873.7,451.2,859.6,448.8,857.4,447.1z"/>
	<path class="st8" d="M871.4,536.4c-0.8-0.9-1.8-2.4-1.8-2.4l-4.5,2.5c0,0-0.4,0.5-0.1,1.9c-0.4,1-0.3,2.1,0.2,3
		c0.5,0.8,3.5,2,4.8,2.5c1.7,0.6,3.6,0.8,5.4,0.7c2.2-0.1,5-1.3,5-2.6C880.3,539.6,872.9,538.3,871.4,536.4z"/>
	<path class="st7" d="M864.7,536.1c0,0,0.1,1,0.3,2.4c0,0,2.8,1,3.8,0.5c1.1-0.6,2-1.5,2.6-2.5c-0.7-0.8-1.2-1.7-1.6-2.7
		L864.7,536.1z"/>
	<path class="st8" d="M852,387.9v28.6c2.1,1.7,1.6,27.3,5.4,54.2c4.5,31.2,6.8,64.3,6.8,64.3c2.2,2.4,6.6,0,6.7-0.2
		c0,0,12.4-143.6,11.6-149.5C878.8,387,862.9,388.7,852,387.9z"/>
	<path class="st9" d="M829.2,403.2c0,0,13.4,10.4,36.2,14.8l3.9-5.2l0.3,6.1c4.8,1.6,11.9,0.1,14.4-5.6c0.9-2,2.9-9.4,2.9-9.4
		l-51.4-21.5C835.4,382.4,828.7,394.4,829.2,403.2z"/>
	<path class="st7" d="M887.4,316.5c-0.6,3-4.1,10.8-5.6,12c0.6,6.1,9.3,9,10.9,6.1c-0.2-3.8,3.3-9.6,3.5-10.2
		C894,323.9,888,317.2,887.4,316.5z"/>
	<path class="st13" d="M892.8,334.5c0,0-2.6,1.7-4.6,0.8c-3-1.3-6.3-6.9-6.3-6.9s-7.2-0.4-9.6-0.6c-7.2-0.6-12.3,4.4-15.7,9.4
		c-9,13.3-23,48.9-23,48.9c8.3,13.2,45.2,22.3,52.2,21.4c5.2-0.6,8.9-38,16.4-52.2c2.8-4.7,2.2-10.6-1.5-14.7
		C899.7,339.3,892.8,334.5,892.8,334.5z"/>
	<path class="st7" d="M907.3,408.6c-1.2,0-2.3-0.3-3.5-0.7c1.2,0.6,0.7,1.3,1.7,2.1c0.5,0.2,2.9-0.2,2.9-0.8
		C908.6,408.4,907.9,408.6,907.3,408.6z"/>
	<path class="st7" d="M910.6,413.3c-0.2-0.2-2.9-2.7-4.2-3.7c-1.1-0.8-2.2-1.6-3.4-2.3c-1.6,1.2-3,2.6-4.3,4.1
		c1.8,1.5,7.8,5.4,8,5.5c2.1,2,3.2,1.8,3.2,1c0-0.2,1.8,0.7,2-0.1c0.4,0.1,0.8-0.1,0.9-0.5c0.2-0.6,0.2-1.2,0-1.9
		C912.2,414.8,911.4,414,910.6,413.3z"/>
	<path class="st7" d="M877.4,339.6c-0.2-1.2-13.4,1.2-15.4,2.4c-4.6,2.8,3,30.8,7.5,40.2c1.7,3.6,10.9,6.9,9.3-5.5
		C877.4,366.7,878.7,345.9,877.4,339.6z"/>
	<path class="st7" d="M876.9,377.4c-0.3-0.3-0.7-0.5-1.1-0.7c-2-0.9-5.3-1-6.8,3.2c-1.6,4.5,20.7,25.1,30.4,32.2
		c1.1-1.6,2.4-3.1,3.9-4.4C897.3,403.5,881.9,382.3,876.9,377.4z"/>
	<path class="st18" d="M885.9,386.7c-2.6-3.3-5-6.4-6.9-8.6c0-0.8-0.1-1.6-0.1-2.4c-0.6-4.8-0.1-33.1-0.8-36.3
		c-0.1-0.5-0.4-0.9-0.9-1.2c-2.1-1.1-14.2,1.1-16.3,2.3c-6.2,3.6,2.7,33.5,6.1,41c3.2,7.3,21,23.9,29.3,30.1l5.5-6.5
		C898.4,402.7,891.5,393.8,885.9,386.7z"/>
	<path class="st12" d="M896.4,320.4c0.2,3.9-0.4,7.8-2,11.4c-1.6,3.4-4.4,5.4-4.6,14.4c-0.3,13-10.3,24.1-8.1,26.2
		c2.2,2.1,11.7-2.4,16.4-15.5c1.3-3.6,1.7-7.4,1.2-11.2c-0.9-4.8,0-9.7,2.5-13.9c2.1-3.8,3.1-8.1,2.9-12.5
		C903.5,316,896.5,320.2,896.4,320.4z"/>
	<path class="st7" d="M899.7,308.3c-4.4-1.1-9,2.2-10.1,6.4l-1.2,4.4c-0.8,3.2,2.8,9.6,5.8,9.7c7,0.3,11.7-11.5,11.8-12.9
		C906.3,312,903.6,309.3,899.7,308.3z"/>
	<path class="st12" d="M902.8,304.9c0,0,0.1-0.7-3.2-3.5c-4.1-3-9.6-3.1-13.8-0.3c-6.2,3.7-10,10.5-9.9,17.8
		c0.3,5.7-2.2,11.2-6.6,14.7c-4.1,3.2-5.8,8.6-6.4,11.3c-2.9,15.6,7.2,26.6,11.2,26.2c4.4-0.4-1.1-18,7.7-30.3
		c6.1-8.6,3.9-12.4,4.1-16.8c0.2-5.7,4.5-12,7.5-13.9c3.2-2.1,8.3-1.2,8.3-1.2s6.5,3.9,0.7,14.4c4.6-2.2,8-12.5,4.2-16.4
		C905.7,305.9,904.3,305.2,902.8,304.9z"/>
	<path class="st7" d="M890.3,313.1c-1.3-0.2-2.6,0.5-3.1,1.7c-0.3,1.3,0.2,2.7,1.2,3.7c1.2-1.3,2.4-2.8,3.5-4.2
		C891.4,313.8,890.9,313.4,890.3,313.1z"/>
	<path class="st7" d="M663,372.7c-1.6,0.3-5.1,1.5-5.3,1.5c-1,0.3-2,0.6-3,1.1c-0.4,0.5-0.7,1-0.8,1.7c0,0.4,0.3,0.7,0.7,0.8
		c-0.1,0.8,1.9,0.8,1.8,0.9c-0.3,0.8,0.6,1.5,3.3,0.5c0.2,0,7.3-1.1,9.6-1.6c-0.5-1.9-1.2-3.7-2.1-5.5
		C665.7,372.1,664.4,372.3,663,372.7z"/>
	<path class="st7" d="M719.3,321.8c-3.9,5.1-11.7,24.4-17.1,33c-6.7,10.4,2.9,11.4,6,8.9c8.1-6.6,27-28.5,24-33.1
		C731,328.7,720,320.9,719.3,321.8z"/>
	<path class="st16" d="M719.3,321.8c-2.7,3.6-7.8,14.3-13.1,22.7c2.8,2.5,5.8,4.7,9,6.7c1.1,0.7,4.5,3,5.7,3.6
		c7.8-8.7,13.4-21.2,11.4-24.3C731,328.7,720,320.9,719.3,321.8z"/>
	<path class="st7" d="M704.8,356c-0.4,0-0.9,0.1-1.3,0.2c-6.6,2.2-29.6,14.7-36.9,15.9c0.8,1.8,1.3,3.7,1.6,5.7
		c11.9-2.2,40.8-11.1,41.3-16C710.1,357.4,707,356,704.8,356z"/>
	<path class="st7" d="M786.6,401.6c-0.3,0.6-0.8,1.1,0,1.5c0.5,0.2,2-1.7,2-2.3c-0.3-1.4-1-1.2-1.1-2.5
		C787.4,399.4,787.1,400.5,786.6,401.6z"/>
	<path class="st7" d="M793.1,395.2c-1.9,0.5-3.8,1.1-5.6,2c0.1,1.4,0.2,2.7,0.5,4.1c0.3,1.6,1.3,5.1,1.5,5.4c0.3,1,0.6,2,1,3
		c0.4,0.5,1,0.8,1.6,0.9c0.4,0,0.7-0.3,0.8-0.6c0.8,0.2,0.8-1.9,1-1.8c0.7,0.3,1.5-0.6,0.5-3.3C794.4,404.6,793.5,397.5,793.1,395.2
		z"/>
	<path class="st7" d="M762.2,321.8c-0.7-0.9-11.7,6.8-12.9,8.7c-3,4.5,16,26.5,24,33.1c3.1,2.5,12.8,1.5,6-8.9
		C773.9,346.3,766.1,327,762.2,321.8z"/>
	<path class="st16" d="M749.3,330.7c-2,3,3.6,15.4,11.4,24.3c1.2-0.6,4.6-2.9,5.7-3.6c3.1-2,6.1-4.3,9-6.7
		c-5.3-8.4-10.4-19-13.1-22.7C761.5,320.9,750.6,328.7,749.3,330.7z"/>
	<path class="st7" d="M778.1,354.5c-4.4-0.5-5.8,2.4-5.8,4.6c0,0.4,0,0.9,0.2,1.3c2,6.6,14,29.9,15.1,37.2c1.8-0.7,3.7-1.2,5.7-1.5
		C791.2,384.2,782.9,355,778.1,354.5z"/>
	<path class="st7" d="M743.2,447.1c-0.3,3.9,7.4,90.7,7.4,90.7c1.9,0.4,3.9-0.1,5.5-1.2c0,0,4.8-85,4.9-86.7
		C759.5,451.2,745.4,448.8,743.2,447.1z"/>
	<path class="st12" d="M757.2,536.4c-0.8-0.9-1.8-2.4-1.8-2.4l-4.5,2.5c0,0-0.4,0.5-0.1,1.9c-0.4,1-0.3,2.1,0.2,3
		c0.5,0.8,3.3,1.6,4.8,2.5c1.7,0.7,3.6,1,5.4,0.7c2.2-0.1,5-1.3,5-2.6C766,539.6,758.7,538.3,757.2,536.4z"/>
	<path class="st7" d="M750.4,536.1c0,0,0.1,1,0.3,2.4c0,0,2.8,1,3.8,0.5c1.1-0.6,2-1.5,2.6-2.5c-0.7-0.8-1.2-1.7-1.6-2.7
		L750.4,536.1z"/>
	<path class="st9" d="M737.8,387.9v28.6c2.1,1.7,1.6,27.3,5.4,54.2c4.5,31.2,6.8,64.3,6.8,64.3c2.2,2.4,6.6,0,6.7-0.2
		c0,0,12.4-143.6,11.6-149.5C764.6,387,748.7,388.7,737.8,387.9z"/>
	<path class="st7" d="M719.9,449.8c0.1,1.7,4.9,86.7,4.9,86.7c1.6,1.1,3.5,1.6,5.5,1.2c0,0,7.7-86.8,7.4-90.7
		C735.4,448.8,721.3,451.2,719.9,449.8z"/>
	<path class="st12" d="M730,536.5l-4.5-2.5c0,0-1,1.5-1.8,2.4c-1.5,1.8-8.9,3.1-8.9,5.7c0,1.3,2.7,2.5,5,2.6
		c1.8,0.1,3.7-0.2,5.4-0.7c1.3-0.4,4.4-1.7,4.8-2.5c0.5-0.9,0.5-2,0.2-3C730.3,537.1,730,536.5,730,536.5z"/>
	<path class="st7" d="M723.6,536.4c0.6,1.1,1.5,1.9,2.6,2.6c1,0.5,3.8-0.5,3.8-0.5c0.2-1.5,0.3-2.4,0.3-2.4l-5.2-2.3
		C724.8,534.7,724.3,535.6,723.6,536.4z"/>
	<path class="st9" d="M712.6,385.4c-0.8,5.8,11.6,149.5,11.6,149.5c0,0.2,4.5,2.7,6.7,0.2c0,0,2.3-33.1,6.8-64.3
		c3.8-27,3.3-52.5,5.4-54.2v-28.6C732.1,388.7,716.2,387,712.6,385.4z"/>
	<path class="st16" d="M712.6,379.7c0,0-2.2,14.4-0.6,15.9c3.5,3.6,14.9-0.1,25.8-0.6s30.6,3.1,31.3,0.9c0.7-2.2-1.3-13.8-1.3-13.8
		L712.6,379.7z"/>
	<path class="st7" d="M745.7,300.3c-0.8,0.5-9,4.4-11.2,3.8c0,0.6,1,7.3-0.7,10.8c0.4,3.3,9.5,4,12.4-1.4
		C745.3,311.8,745.1,303.3,745.7,300.3z"/>
	<path class="st7" d="M738.2,288.7c-4.1-0.6-8.2,0.1-9.4,3.9c-0.4,1.4-0.7,14.1,5.8,16.5c2.8,1,8.6-3.5,9.1-6.8l0.6-4.5
		C745.1,293.4,742.7,289.4,738.2,288.7z"/>
	<path class="st12" d="M755.4,316.6c-2.3-0.7-9.1-3.1-9.1-3.1s-5.2,3.9-8.5,3.9c-2.2,0-4-2.5-4-2.5s-8.2,1.9-9.7,2.6
		c-5.8,2.9-6.3,8.4-7.1,13c-0.7,4.5-7.3,51.8-6,54.5c3.1,6.5,53.6,6.6,57.7,0c1.6-2.6-4.8-52.1-4.8-54.4
		C763.9,324.3,762.2,318.8,755.4,316.6z"/>
	<path class="st10" d="M732.3,286.6c-7.3,0.8-6.4,11.4-3.3,13.1c-1-7.8,4.4-9.9,4.4-9.9c9.7,0.6,12.2,12.3,11.3,15.3
		c0,0,11.5-8.7,2.9-17.7C742.1,281.4,732.3,286.6,732.3,286.6z"/>
	<path class="st7" d="M744.4,296.1c-0.7,0-1.3,0.2-1.9,0.5c0.4,1.8,1,3.5,1.6,5.2c1.3-0.5,2.2-1.6,2.5-2.9
		C746.6,297.7,745.6,296.1,744.4,296.1z"/>
	<path class="st10" d="M770.2,295.8c0-28.2-23.7-18-23.7-10.6c0,1.8,0.9,2.9,2.5,1.2c2.7-3,11.9-5.3,5.5,11.5
		c-1.7,4.4-8,9.8,4.2,18.9c11,8.2,1.3,10.3,1.7,13.8c1,8.9,25.1-8.5,14-22.4C772.2,305.2,770.2,304.4,770.2,295.8z"/>
	<path class="st11" d="M748,284.8c-0.5-0.3-1-0.5-1.6-0.5c-0.8,0-1.6,0.3-2.2,0.9c2,1,3.7,2.3,5.1,4.1
		C750,287.8,750.1,286.3,748,284.8z"/>
	<path class="st16" d="M684.3,382.7l-21.2-9.7c-2.9-1.3-6.3,0-7.6,2.8l-9.7,21.2c-1.3,2.9,0,6.3,2.8,7.6l21.2,9.7
		c2.9,1.3,6.3,0,7.6-2.8l9.7-21.1C688.4,387.4,687.1,384,684.3,382.7z"/>
	<path class="st7" d="M662.7,371.3c-0.6-0.3-1.1-0.8-1.5,0c-0.2,0.5,2.1,2,2.6,2.2c2.2,1,2.9-0.3,2.2-1.4
		C664.9,372,663.7,371.7,662.7,371.3z"/>
	<path class="st6" d="M637.2,476.2l-23.3-0.6c-3.2,0-5.8,2.4-5.9,5.6l-0.6,23.3c0,3.2,2.4,5.8,5.6,5.9l23.3,0.6
		c3.2,0,5.8-2.4,5.9-5.6l0.6-23.3C642.9,478.9,640.4,476.3,637.2,476.2z"/>
	<path class="st8" d="M641.7,471c-2.3-2.2-5.9-2.1-8.1,0.1L617.4,488c-2.2,2.3-2.1,5.9,0.2,8.1l16.8,16.1c2.3,2.2,5.9,2.1,8.1-0.2
		l16.1-16.8c2.2-2.3,2.1-5.9-0.2-8.1L641.7,471z"/>
	<path class="st11" d="M647.3,485.6h23.3c3.2,0,5.8,2.6,5.8,5.8v23.3c0,3.2-2.6,5.8-5.8,5.8h-23.3c-3.2,0-5.8-2.6-5.8-5.8v-23.3
		C641.6,488.1,644.1,485.6,647.3,485.6z"/>
	<rect x="605.3" y="493.3" class="st3" width="60" height="51.4"/>
	<rect x="665.3" y="493.3" class="st19" width="22" height="51.4"/>
	<polygon class="st20" points="605.3,525.1 655.4,525.1 665.4,493.3 605.3,493.3 	"/>
	<polygon class="st20" points="665.6,494.7 675.3,536.2 687.4,536.2 687.4,493.3 665.3,493.3 	"/>
	<polygon class="st3" points="593.8,514.3 655.4,514.3 665.4,493.2 605.7,493.2 	"/>
	<polygon class="st19" points="665.6,493.2 674.7,518.6 696.4,518.6 687.4,493.2 	"/>
</g>
<g>
	
		<radialGradient id="SVGID_2_" cx="990.2723" cy="-73.059" r="300.9298" gradientTransform="matrix(1.0895 0 0 -7.000000e-02 -153.2208 509.56)" gradientUnits="userSpaceOnUse">
		<stop  offset="1.000000e-02" style="stop-color:#77D6EC"/>
		<stop  offset="1" style="stop-color:#FFFFFF"/>
	</radialGradient>
	<ellipse class="st21" cx="927" cy="514.1" rx="326.9" ry="17.1"/>
	<g>
		<g>
			<g>
				<path class="st22" d="M739.6,478.5l7.7-4.2l0.8,0.6c0.4,0.3,0.8,0.6,1.2,0.8l-7.7,4.2c-0.4-0.3-0.8-0.5-1.2-0.8L739.6,478.5z"/>
				<path class="st23" d="M741.6,480l7.7-4.2c0.5,0.3,1.1,0.6,1.6,0.9l-7.7,4.2C742.6,480.6,742.1,480.3,741.6,480L741.6,480z"/>
				<path class="st24" d="M743.2,480.9l7.7-4.2c0.5,0.3,1.1,0.5,1.7,0.7l-7.7,4.2C744.3,481.4,743.7,481.1,743.2,480.9z"/>
				<path class="st25" d="M744.8,481.6l7.7-4.2c0.6,0.2,1.2,0.4,1.8,0.6l-7.7,4.2C746,482,745.4,481.8,744.8,481.6z"/>
				<path class="st26" d="M746.6,482.2l7.7-4.2c0.7,0.2,1.3,0.4,2,0.5l-7.7,4.2C748,482.6,747.3,482.4,746.6,482.2z"/>
				<path class="st27" d="M748.7,482.7l7.7-4.2c0.7,0.2,1.5,0.3,2.4,0.4l-7.7,4.2C750.2,483,749.4,482.9,748.7,482.7L748.7,482.7z"
					/>
				<path class="st28" d="M751,483.1l7.7-4.2c0.9,0.1,1.9,0.2,2.9,0.2l-7.7,4.2C753,483.3,752,483.2,751,483.1z"/>
				<path class="st29" d="M754,483.4l7.7-4.2c0.6,0,1.3,0,2,0h1.7l-7.7,4.2c-0.6,0-1.1,0-1.7,0S754.7,483.4,754,483.4z"/>
				<path class="st30" d="M757.7,483.4l7.7-4.2c1.2,0,2.3-0.1,3.4-0.3l-7.7,4.2C760,483.2,758.9,483.3,757.7,483.4L757.7,483.4z"/>
				<path class="st31" d="M761.1,483.1l7.7-4.2c1-0.1,1.9-0.3,2.9-0.5l-7.7,4.2C763,482.8,762.1,483,761.1,483.1z"/>
				<path class="st32" d="M764,482.6l7.7-4.2c0.9-0.2,1.8-0.5,2.6-0.8l-7.7,4.2C765.7,482.1,764.8,482.4,764,482.6L764,482.6z"/>
				<path class="st33" d="M766.6,481.8l7.7-4.2c0.7-0.3,1.4-0.6,2.1-1l-7.7,4.2C768,481.2,767.3,481.6,766.6,481.8L766.6,481.8z"/>
			</g>
			<polygon class="st34" points="697.3,371.7 705,367.5 737.3,367.5 729.6,371.7 			"/>
			<path class="st35" d="M763.6,479.2c-6.6,0-11.9-1.4-15.7-4.3c-0.4-0.3-0.8-0.6-1.1-1l-0.3-0.2c-0.4-0.3-0.7-0.7-1.1-1l-0.2-0.2
				c-0.3-0.3-0.6-0.6-0.8-1l-0.2-0.3c-0.3-0.4-0.6-0.8-0.8-1.2l-0.1-0.2c-0.2-0.4-0.4-0.7-0.6-1.1l-0.1-0.3
				c-0.2-0.4-0.4-0.9-0.6-1.3l-0.2-0.4c-0.1-0.3-0.3-0.7-0.4-1.1l-0.2-0.5c-0.1-0.5-0.3-0.9-0.4-1.4c0-0.2-0.1-0.5-0.1-0.7v-0.3
				c0-0.2-0.1-0.4-0.1-0.6v-0.3c0-0.2-0.1-0.5-0.1-0.7v-0.3c0-0.4-0.1-0.7-0.1-1.1v-0.2c0-0.4,0-0.7-0.1-1.1v-0.5
				c0-0.3,0-0.6-0.1-0.9v-0.5c0-0.3,0-0.7-0.1-1c0-0.2,0-0.3,0-0.5c0-0.4,0-0.9-0.1-1.4c0-0.1,0-0.2,0-0.3c0-0.6-0.1-1.1-0.1-1.8
				v-0.6c0-0.4,0-0.9-0.1-1.3c0-0.2,0-0.5,0-0.7v-1.3c0-0.2,0-0.5,0-0.8c0-0.5,0-1,0-1.5c0-0.2,0-0.4,0-0.7c0-0.7,0-1.5-0.1-2.2
				l-2.6-74.7l-7.7,4.2l2.1,74.6c0,0.8,0.4,14.4,1.2,19.8c0.1,0.4,0.3,1.5,0.3,1.7s0.1,0.6,0.2,1c0,0.1,0.5,1.7,0.7,2.1l0.2,0.4
				l0.1,0.1c0.2,0.4,0.4,0.8,0.6,1.1l0.1,0.3c0.2,0.4,0.4,0.7,0.6,1.1l0.1,0.2c0.3,0.4,0.5,0.8,0.8,1.2l0.2,0.3
				c0.3,0.3,0.5,0.6,0.8,1l0.2,0.2c0.3,0.4,0.7,0.7,1.1,1l0.3,0.2l0.4,0.4l0,0c0.2,0.2,0.5,0.4,0.7,0.6c3.7,2.8,8.9,4.3,15.7,4.3
				c5.4,0,9.6-0.8,12.7-2.5l7.7-4.2C773.3,478.4,769,479.2,763.6,479.2z"/>
			<g>
				<path class="st29" d="M807.2,480.7l7.7-4.2c-0.3,1.2-0.6,2.4-1,3.6l-7.7,4.2C806.6,483.1,806.9,481.9,807.2,480.7z"/>
				<path class="st30" d="M806.2,484.3l7.7-4.2c-0.4,1.2-0.8,2.3-1.3,3.4l-7.7,4.2C805.4,486.6,805.8,485.5,806.2,484.3L806.2,484.3
					z"/>
				<path class="st31" d="M804.9,487.7l7.7-4.2c-0.5,1.2-1.1,2.3-1.7,3.5l-7.7,4.2C803.8,490.1,804.4,488.9,804.9,487.7L804.9,487.7
					z"/>
				<path class="st32" d="M803.2,491.2l7.7-4.2c-0.7,1.3-1.5,2.6-2.4,3.8l-7.7,4.2C801.7,493.8,802.5,492.5,803.2,491.2z"/>
				<path class="st33" d="M800.8,495l7.7-4.2c-0.4,0.5-0.8,1-1.2,1.5c-3.2,3.9-7.2,7.1-11.7,9.5L788,506c4.5-2.4,8.4-5.6,11.7-9.5
					C800,496,800.4,495.5,800.8,495L800.8,495z"/>
			</g>
			<path class="st36" d="M807.7,478.5c-1.1,6.5-3.9,12.7-8,17.9c-4.3,5.1-9.9,9.1-16.1,11.6c-6.6,2.8-15.4,4.2-26,4.2
				c-12.9,0-22.6-1.5-29.6-4.6c-6.4-2.7-12.1-6.9-16.6-12.2c-3.9-4.6-6.8-10-8.4-15.9c-2-7.8-3.2-19.3-3.6-34.3l-0.3-9.9l-1.8-63.7
				h32.2l1.6,57.7l0,0l0.5,17c0.3,11.1,0.8,18.4,1.5,21.5c1,4.5,3.5,8.4,7.2,11.2c3.7,2.8,8.9,4.3,15.7,4.3s11.7-1.3,14.8-4
				c3-2.4,4.9-5.8,5.5-9.5c0.6-4.3,0.8-11.7,0.5-21.9l-1-35.1l0,0l-1.1-41.1h32.2l1.1,38l1,34.5
				C809.3,460.5,808.9,471.7,807.7,478.5z"/>
			<path class="st35" d="M816.5,462.9c0-0.2,0-0.4,0-0.5c0-0.5,0-1,0.1-1.5c0-0.3,0-0.5,0-0.8c0-0.4,0-0.9,0-1.3s0-0.6,0-0.9
				s0-0.9,0-1.3s0-0.6,0-0.9c0-0.3,0-0.9,0-1.4c0-0.5,0-0.7,0-1c0-0.3,0-0.9,0-1.4v-1.5c0-0.3,0-0.7,0-1c0-0.3,0-0.7,0-1.1
				s0-1.1,0-1.6c0-0.4,0-0.7,0-1.1c0-0.6,0-1.2,0-1.8c0-0.3,0-0.6,0-0.9c0-0.9,0-1.9-0.1-2.9l-2-72.5l-7.7,4.2l2,72.5
				c0,1,0,1.9,0.1,2.9c0,0.3,0,0.6,0,0.9c0,0.6,0,1.2,0,1.8c0,0.4,0,0.7,0,1.1c0,0.5,0,1.1,0,1.6c0,0.5,0,0.7,0,1.1s0,1,0,1.5
				c0,0.5,0,0.7,0,1.1c0,0.3,0,0.9,0,1.4s0,0.7,0,1s0,0.9,0,1.3s0,0.6,0,1c0,0.3,0,0.9,0,1.3c0,0.4,0,0.6,0,0.9s0,0.9,0,1.3
				c0,0.4,0,0.5,0,0.8c0,0.5,0,1-0.1,1.4c0,0.2,0,0.4,0,0.6c0,0.6,0,1.3-0.1,1.9c0,0.1,0,0.3,0,0.4c0,0.5-0.1,0.9-0.1,1.4
				c0,0.3,0,0.5-0.1,0.8s0,0.6-0.1,0.9c-0.1,0.3,0,0.5-0.1,0.8c-0.1,0.3-0.1,0.6-0.1,0.8c0,0.3-0.1,0.5-0.1,0.7
				c0,0.2-0.1,0.5-0.1,0.8c0,0.3-0.1,0.5-0.1,0.7c0,0.2-0.1,0.5-0.1,0.7c-0.1,0.5-0.2,1-0.3,1.5c-1.1,6.5-3.9,12.7-8,17.9
				c-3.2,3.9-7.2,7.1-11.7,9.5l7.7-4.2c9.9-5.1,16.9-14.4,19.2-25.3l0,0c0.2-0.7,0.3-1.4,0.5-2.1c0.1-0.5,0.2-1,0.3-1.5v-0.1
				c0-0.2,0-0.4,0.1-0.6c0.1-0.2,0.1-0.4,0.1-0.7c0-0.2,0.1-0.5,0.1-0.8l0.1-0.7c0-0.3,0.1-0.6,0.1-0.9c0-0.3,0-0.5,0.1-0.8
				c0.1-0.3,0-0.6,0.1-0.9c0.1-0.3,0-0.5,0.1-0.8c0,0,0-0.1,0-0.1c0-0.4,0.1-0.9,0.1-1.3c0-0.1,0-0.2,0-0.3
				C816.4,464.2,816.5,463.5,816.5,462.9z"/>
			<polygon class="st34" points="774.7,371.7 782.3,367.5 814.6,367.5 806.9,371.7 			"/>
		</g>
		<g>
			<path class="st37" d="M731.2,429.4L731.2,429.4c-0.1,0.9-1,1.6-1.9,1.4c-0.9-0.1-1.5-0.9-1.4-1.8v-3c0-0.8-0.7-1.5-1.5-1.5
				s-1.5,0.7-1.5,1.5v15.4c0,1.6-1.3,2.9-2.9,2.9c0,0-0.1,0-0.1,0c-1.6-0.1-2.8-1.5-2.8-3.1v-23.9c0-1.3-1.1-2.4-2.4-2.4
				c-0.1,0-0.3,0-0.4,0c-1.1,0.3-1.9,1.3-1.9,2.4v8.3c0,1.4-1.1,2.6-2.6,2.6c-0.2,0-0.4,0-0.5-0.1c-1.2-0.3-2-1.3-2-2.6v-2.4
				c0-1.3-1-2.3-2.3-2.3c0,0-0.1,0-0.1,0c-1.3,0.1-2.3,1.2-2.2,2.5v9.6c0,1.9-1.6,3.3-3.4,3.3c-0.7,0-1.3-0.2-1.9-0.6l-1.8-63.7
				h32.2L731.2,429.4z"/>
			<path class="st37" d="M807.9,409.8c-0.2,0.1-0.4,0.1-0.6,0.1c-0.9,0-1.7-0.8-1.7-1.7c0,0,0,0,0,0V405c0-0.4-0.2-0.8-0.4-1.1
				c-0.6-0.6-1.5-0.6-2.1,0c-0.3,0.3-0.4,0.7-0.4,1.1v7.9c0,1.6-1.3,2.9-2.9,2.9c0,0-0.1,0-0.1,0c-1.6-0.1-2.8-1.5-2.8-3.1v-16.4
				c0-1.3-1.1-2.4-2.4-2.4c-0.2,0-0.3,0-0.5,0c-1.1,0.3-1.9,1.3-1.9,2.4v30.6c0,1.4-1.1,2.6-2.6,2.6c-0.2,0-0.4,0-0.5-0.1
				c-1.2-0.3-2-1.3-2-2.6v-24.7c0-1.3-1-2.3-2.3-2.3c0,0-0.1,0-0.1,0c-1.3,0.1-2.3,1.2-2.2,2.5v9.6c-0.2,1.8-1.8,3.2-3.6,3.1
				c-1.3-0.1-2.4-1-2.9-2.2l0,0l-1.1-41.1h32.2L807.9,409.8z"/>
		</g>
		<g>
			<path class="st35" d="M605.3,332.5c0,0,3.5-6.2,6.8-4.2c2.5,1.5,16.1,29.1,20.3,33.8c1.2,1.3,6.3,2.7,6.3,2.7
				c0.6,3.2,0.2,6.4-1.1,9.4c-0.8,1.5-10.3-2.5-11.5-3.3c-6.3-4-13-21.8-13-21.8L605.3,332.5z"/>
			<path class="st35" d="M634.5,360.6c0,0,7.8,3.2,8.1,3.8c0.3,0.5-4.2,13.3-4.9,13.2s-6.7-2.4-6.7-2.4S632.7,362.4,634.5,360.6z"/>
			<path class="st38" d="M631.5,509.9c0-0.4-0.1-0.8-0.2-1.2c-0.4-1.8-1.7-3.3-3.4-3.9c-2.3-0.8-5.9-0.5-9.8-1.6
				c-3.9-1-5.1-2.8-5.1-2.8l-5.3-0.5c-0.8,3-1.4,6-1.8,9.1c-0.1,1.1-0.1,2,0.2,2.2c0.9,0.7,18.9,0.2,24,0.1c0.7,0,1.3-0.6,1.3-1.3
				C631.6,510,631.5,510,631.5,509.9z"/>
			<path class="st39" d="M611.1,503.8c-1.6,0.1-3.1-1.1-3.2-2.8c0,0,0,0,0,0l-0.1-2.3l-0.3-5.8l6.8-0.2l-0.4,6.7l-0.1,1.7
				C613.7,502.5,612.5,503.7,611.1,503.8z"/>
			<path class="st38" d="M592.5,510.5c0.1-0.3,0.2-0.7,0.3-1.1c0.3-1.8-0.4-3.6-1.7-4.9c-1.9-1.6-5.3-2.6-8.6-5
				c-3.3-2.4-3.8-4.5-3.8-4.5l-4.7-2.4c-1.8,2.5-3.4,5.1-4.9,7.8c-0.5,1.1-0.8,1.9-0.6,2.2c0.6,0.9,17.5,7,22.4,8.7
				c0.7,0.3,1.4-0.1,1.7-0.8C592.5,510.6,592.5,510.6,592.5,510.5z"/>
			<path class="st39" d="M575.6,497.5c-1.6-0.5-2.5-2.2-2-3.7c0,0,0,0,0,0l0.7-2.2l1.8-5.5l6.4,2.2l-2.7,6.2l-0.7,1.5
				C578.6,497.2,577,497.9,575.6,497.5z"/>
			<path class="st40" d="M583,392.1c1.2-5.5,24.7-3.6,24.7-3.6s0,1.1-0.1,3c3.4-1.3,8.9-4.7,15-3.4c1.5,12.9,2.2,25.9,2,38.9
				c-0.4,20.3-8.4,70.5-8.4,70.5h-11.4c0,0,1-54.9-1.1-76.5c-1.4,9.1-4.1,28.1-6.4,37.6c-3.7,15.7-15.6,35.6-15.6,35.6l-9.5-2.1
				c3.9-17.2,7.4-25.8,7.8-37.7C580.8,433.2,579.1,409.5,583,392.1z"/>
			<path class="st38" d="M603.7,421.1c0,0,2.8-13.5,3.5-20c0,0-0.4,16.7-3.2,24.1L603.7,421.1z"/>
			<path class="st41" d="M603.8,320.2c0,0-12.2,0.2-16.1,11.1c-3.8,10.9-8.4,54.2-7.3,64.2c0,0,30.4,5.9,45.6-1.5
				c0,0-4.5-35.9-5.2-44.2C620.2,341.5,614.2,321.7,603.8,320.2z"/>
			<path class="st39" d="M608.2,311.8c0,0-1.3,8.3,0,12.9c0.2,0.9-0.3,1.8-1.2,2.1c-3.4,1.1-8-3.4-10.3-4.9
				c-0.5-2.6,0.9-12.7,0.9-12.7L608.2,311.8z"/>
			<path class="st39" d="M604.6,285.1c7.2,0,13.1,6.8,13.1,15.3c0,0.5,0,1-0.1,1.5c0.5,0.6,1.3,1.6,0.9,2.5
				c-0.3,0.5-0.9,0.9-1.5,0.8c-1.7,6.1-6.6,10.5-12.4,10.5c-7.2,0-13.1-6.8-13.1-15.3S597.4,285.1,604.6,285.1z"/>
			<path class="st5" d="M586.2,292.8c0.9-13,17.1-18.4,23-17.5c0.8,0.1,0.2,1.3-0.6,2.2c7.4-0.7,15.6,0.7,16.8,8.7
				c0.9,5.9-14.4,8.6-24.9,7.1c-0.8-0.2-1.7,0-2.4,0.4c-0.8,0.7-1.7,2.7-0.5,7.2c-0.9-0.8-2.9-1.9-3.7-0.4c-0.6,1.1-0.2,3.7,3,4.5
				c1.4,3.1,0.7,6.3,0.3,8.2C597.1,313.2,585.5,301.9,586.2,292.8z"/>
			<path class="st35" d="M608.2,324.6c0.1,1.1-0.7,2.1-1.8,2.2c-0.1,0-0.3,0-0.4,0c-2.4,0-9.3-5-9.3-5s-0.8,0.1-1,0.4
				c0,0,8.5,6.6,11.7,5C608.1,326.6,608.5,325.6,608.2,324.6z"/>
			<path class="st40" d="M693.3,354.3l6.7-9.8l-48.4-33l-6.7,9.8c-1.8,2.7-1.1,6.3,1.6,8.2c0,0,0,0,0,0l3.3,2.2
				c3.9,2.6,4.9,7.9,2.2,11.8l-25.9,35.9c-3.4,5-5.6,16.9,0.4,21c6,4.1,16.3-2.3,19.7-7.3l23.9-37.3c2.6-3.9,7.9-4.9,11.8-2.2
				l3.3,2.2C687.8,357.7,691.5,357,693.3,354.3C693.3,354.3,693.3,354.3,693.3,354.3z M641,388.8c-3.1,4.5-7.6,6.8-10.1,5.1
				c-2.5-1.7-2-6.7,1.1-11.2c3.1-4.5,7.6-6.8,10.1-5.1C644.6,379.3,644.1,384.3,641,388.8L641,388.8z"/>
			<path class="st42" d="M719.4,311.7l-44.7-30.4c-0.5-0.3-1.1-0.2-1.4,0.3c0,0,0,0,0,0l-19.3,28.3l46.6,31.7l19-28
				C720.2,313,720,312.1,719.4,311.7C719.4,311.7,719.4,311.7,719.4,311.7z"/>
			<path class="st38" d="M701.4,340.5l-46.6-31.7c-0.5-0.4-1.2-0.2-1.6,0.3c0,0,0,0,0,0l-7,10.2l48.5,33l7-10.2
				C702.1,341.6,701.9,340.9,701.4,340.5C701.4,340.5,701.4,340.5,701.4,340.5z"/>
			
				<ellipse transform="matrix(0.5625 -0.8268 0.8268 0.5625 24.7657 680.5598)" class="st42" cx="655.5" cy="316.9" rx="3.1" ry="3.1"/>
			
				<ellipse transform="matrix(0.5627 -0.8267 0.8267 0.5627 19.99 722.5923)" class="st42" cx="692.9" cy="342.4" rx="3.1" ry="3.1"/>
			<path class="st43" d="M657.8,308.5c-0.2,0-0.5-0.2-0.5-0.4c0-0.1,0-0.2,0.1-0.3l17.1-25.1c0.1-0.2,0.4-0.3,0.6-0.1
				s0.3,0.4,0.1,0.6l-17.1,25.1C658.1,308.4,658,308.5,657.8,308.5z"/>
			<path class="st43" d="M660.2,310.1c-0.2,0-0.4-0.2-0.5-0.4c0-0.1,0-0.2,0.1-0.3l17.1-25.1c0.1-0.2,0.4-0.3,0.6-0.1
				s0.3,0.4,0.1,0.6l0,0l-17.1,25.1C660.5,310,660.4,310.1,660.2,310.1z"/>
			<path class="st43" d="M662.6,311.7c-0.2,0-0.5-0.2-0.5-0.4c0-0.1,0-0.2,0.1-0.3l17.2-25.1c0.1-0.2,0.4-0.3,0.6-0.1
				s0.3,0.4,0.1,0.6l0,0L663,311.5C662.9,311.7,662.8,311.8,662.6,311.7z"/>
			<path class="st43" d="M665,313.4c-0.2,0-0.4-0.2-0.5-0.4c0-0.1,0-0.2,0.1-0.3l17.1-25.1c0.1-0.2,0.4-0.3,0.6-0.1s0.3,0.4,0.1,0.6
				l-17.1,25.1C665.3,313.3,665.2,313.4,665,313.4z"/>
			<path class="st43" d="M667.4,315c-0.2,0-0.5-0.2-0.5-0.4c0-0.1,0-0.2,0.1-0.3l17.1-25.1c0.1-0.2,0.4-0.3,0.6-0.1s0.3,0.4,0.1,0.6
				l0,0l-17.1,25.1C667.7,314.9,667.6,315,667.4,315z"/>
			<path class="st43" d="M669.8,316.6c-0.2,0-0.4-0.2-0.5-0.4c0-0.1,0-0.2,0.1-0.3l17.1-25.1c0.1-0.2,0.4-0.3,0.6-0.1
				s0.3,0.4,0.1,0.6l-17.1,25.1C670.1,316.6,670,316.6,669.8,316.6z"/>
			<path class="st43" d="M672.2,318.3c-0.2,0-0.5-0.2-0.5-0.4c0-0.1,0-0.2,0.1-0.3l17.1-25.1c0.1-0.2,0.4-0.3,0.6-0.1
				s0.3,0.4,0.1,0.6l-17.1,25.1C672.5,318.2,672.4,318.3,672.2,318.3z"/>
			<path class="st43" d="M674.6,319.9c-0.2,0-0.5-0.2-0.5-0.4c0-0.1,0-0.2,0.1-0.3l17.1-25.1c0.1-0.2,0.4-0.3,0.6-0.1
				c0.2,0.1,0.3,0.4,0.1,0.6L675,319.7C674.9,319.8,674.8,319.9,674.6,319.9z"/>
			<path class="st43" d="M677,321.5c-0.2,0-0.4-0.2-0.5-0.4c0-0.1,0-0.2,0.1-0.3l17.1-25.1c0.1-0.2,0.4-0.3,0.6-0.1
				c0.2,0.1,0.3,0.4,0.1,0.6l-17.1,25.1C677.3,321.5,677.2,321.5,677,321.5z"/>
			<path class="st43" d="M679.4,323.2c-0.2,0-0.5-0.2-0.5-0.4c0-0.1,0-0.2,0.1-0.3l17.2-25.1c0.1-0.2,0.4-0.3,0.6-0.1
				s0.3,0.4,0.1,0.6L679.8,323C679.7,323.1,679.6,323.2,679.4,323.2z"/>
			<path class="st43" d="M681.8,324.8c-0.2,0-0.4-0.2-0.5-0.4c0-0.1,0-0.2,0.1-0.3l17.1-25.1c0.1-0.2,0.4-0.3,0.6-0.1
				c0.2,0.1,0.3,0.4,0.1,0.6l-17.1,25.1C682.1,324.7,682,324.8,681.8,324.8z"/>
			<path class="st43" d="M684.2,326.4c-0.2,0-0.4-0.2-0.4-0.5c0-0.1,0-0.2,0.1-0.2l17.1-25.1c0.1-0.2,0.4-0.3,0.6-0.1
				c0.2,0.1,0.3,0.4,0.1,0.6l0,0l-17.1,25.1C684.5,326.4,684.4,326.4,684.2,326.4z"/>
			<path class="st43" d="M686.6,328.1c-0.2,0-0.4-0.2-0.5-0.4c0-0.1,0-0.2,0.1-0.3l17.1-25.1c0.1-0.2,0.4-0.3,0.6-0.1
				s0.3,0.4,0.1,0.6L687,327.9C686.9,328,686.8,328.1,686.6,328.1z"/>
			<path class="st43" d="M689,329.7c-0.2,0-0.4-0.2-0.5-0.4c0-0.1,0-0.2,0.1-0.3l17.1-25.1c0.1-0.2,0.4-0.3,0.6-0.1
				c0.2,0.1,0.3,0.4,0.1,0.6l0,0l-17.1,25.1C689.3,329.6,689.2,329.7,689,329.7z"/>
			<path class="st43" d="M691.4,331.3c-0.2,0-0.4-0.2-0.5-0.4c0-0.1,0-0.2,0.1-0.3l17.1-25.1c0.1-0.2,0.4-0.3,0.6-0.1
				s0.3,0.4,0.1,0.6l-17.1,25.1C691.7,331.2,691.5,331.3,691.4,331.3z"/>
			<path class="st43" d="M693.8,332.9c-0.2,0-0.4-0.2-0.5-0.4c0-0.1,0-0.2,0.1-0.3l17.1-25.1c0.1-0.2,0.4-0.3,0.6-0.1
				c0.2,0.1,0.3,0.4,0.1,0.6l-17.1,25.1C694.1,332.9,693.9,333,693.8,332.9z"/>
			<path class="st43" d="M696.2,334.6c-0.2,0-0.4-0.2-0.5-0.4c0-0.1,0-0.2,0.1-0.3l17.1-25.1c0.1-0.2,0.4-0.3,0.6-0.1
				s0.3,0.4,0.1,0.6l-17.1,25.1C696.5,334.5,696.3,334.6,696.2,334.6z"/>
			<path class="st43" d="M698.6,336.2c-0.2,0-0.4-0.2-0.5-0.4c0-0.1,0-0.2,0.1-0.3l17.1-25.1c0.1-0.2,0.4-0.3,0.6-0.1
				c0.2,0.1,0.3,0.4,0.1,0.6L699,336C698.9,336.1,698.7,336.2,698.6,336.2z"/>
			<path class="st43" d="M701,337.8c-0.2,0-0.5-0.2-0.5-0.4c0-0.1,0-0.2,0.1-0.3l17.1-25.1c0.1-0.2,0.4-0.3,0.6-0.1
				c0.2,0.1,0.3,0.4,0.1,0.6l-17.1,25.1C701.3,337.8,701.1,337.8,701,337.8z"/>
			<path class="st39" d="M601.7,373.2l2.3-8.4c0,0,18.4,5.7,20.2,6c1.3-0.3,2.5-0.9,3.5-1.7c2.2-2.2,3.9-3.9,6.6-3.9
				c2.1,0.1,4,1.2,5.1,2.9c0.6,0.7,1.5,2.5,1.1,2.8s-1.1,0-1.4-0.1c-0.7-0.4-1-1.3-1.7-1.7c-0.7-0.3-1.5-0.6-2.2-0.8
				c0.7,0.5,1.4,1.2,2.1,1.8c0.7,0.8,1.1,1.7,1.4,2.7c0.2,0.7,0.1,1.4-0.2,2c-0.1,0.2-0.7-0.3-0.8-0.9c-0.2-0.7-0.4-1.4-0.8-2
				c0.2,0.6,0.3,1.2,0.2,1.8c-0.2,0.8-1.1,2.3-1.1,1c0.1-0.8-0.1-1.7-0.5-2.4c-0.4-0.4-0.9-0.8-1.4-1.1c0.5,0.7,1.7,3.2,0.4,3.6
				c-0.3,0.1-0.4-0.6-0.6-1c-0.2-0.5-1.4-2-3.6,0c-3.6,3.2-6,1.8-6,1.8L601.7,373.2z"/>
			<path class="st35" d="M603.4,340.4c-2.1,5.8-5.6,15.9-6,18.8c-0.6,3.7,7.8,4.4,7.8,4.4l0.8,10.8c0,0-15.8-0.8-18.6-5.8
				c-3.8-7-3.6-23.1,0-33.1c2.4-6.9,11.2-9.5,14.8-5.2C604.6,333.4,604,338.9,603.4,340.4z"/>
			<path class="st35" d="M605.4,378.1c0,0-6.6-0.9-7-1.4c-0.3-0.5,0.9-17,1.6-17.1s5.9,1.9,5.9,1.9S606.8,376,605.4,378.1z"/>
			<path class="st39" d="M656.2,366.2c2.1,1.2,4.3,2.2,6.5,3c1.6,0.3,0.8,2.2,0,2.4c0.5,0.3,0.8,0.7,0.9,1.2c0.1,0.6-1,2.1-1.9,1.5
				c0,0,1.4,1.9-1.7,2.2c0,0,0.1,1.6-1.3,1.5c-2.3-0.2-4.4-1.1-6.1-2.6c-1.9-2-0.3-3.4-0.3-3.4s-0.5-1.8,0.8-2.2
				c0,0-0.1-1.8,1.3-2.1C654.3,367.7,654.4,365.5,656.2,366.2z"/>
			<path class="st34" d="M670.5,291.3l0.2,8.8c0,1.3,1.1,2.4,2.4,2.4l0,0c1.3,0,2.4-1.1,2.4-2.4v-2.9c0-1.6,1.3-3,3-3l0,0
				c1.6,0,3,1.3,3,3v17.8c0,2.5,2,4.5,4.5,4.5l0,0c2.5,0,4.5-2,4.5-4.5v-8.1c0-1.5,1.2-2.8,2.8-2.8l0,0l0,0c1.5,0,2.8,1.2,2.8,2.8
				l0,0v4.5c0,1.6,1.3,3,3,3l0,0c1.6,0,3-1.3,3-3v-1c0-1.3,1.1-2.4,2.4-2.4l0,0c1.3,0,2.4,1.1,2.4,2.4v31c0,1.9,1.5,3.4,3.4,3.4l0,0
				c1.9,0,3.4-1.5,3.4-3.4V319c0-0.8,0.7-1.5,1.5-1.5l0,0c1.7,0,3.4-1.9,4.3-3.4c0.6-0.8,0.5-2-0.1-2.8
				c-3.9-4.4-18.5-18.7-44.7-29.8c-0.7-0.3-1.4,0-1.7,0.7C671.4,285.1,670.7,288.2,670.5,291.3z"/>
		</g>
		<g>
			<rect x="1039.9" y="354.8" class="st44" width="65.8" height="135"/>
			<path class="st5" d="M1164.2,507.8H981.4c10.9-20.8,32.5-33.8,56-33.8h70.8C1131.6,473.9,1153.2,487,1164.2,507.8L1164.2,507.8z"
				/>
			<path class="st5" d="M870.7,159h404.2c6,0,10.8,4.8,10.8,10.8v255.4c0,6-4.8,10.8-10.8,10.8H870.7c-6,0-10.8-4.8-10.8-10.8V169.8
				C859.9,163.9,864.7,159,870.7,159z"/>
			<path class="st45" d="M881,174.3h383.6c3,0,5.4,2.4,5.4,5.4v220c0,3-2.4,5.4-5.4,5.4H881c-3,0-5.4-2.4-5.4-5.4v-220
				C875.6,176.7,878,174.3,881,174.3z"/>
			<path class="st40" d="M881,174.3h383.6c3,0,5.4,2.4,5.4,5.4c0,0,0,0,0,0v38.9l0,0H875.6l0,0v-38.9
				C875.6,176.7,878,174.3,881,174.3z"/>
			<circle class="st45" cx="1243" cy="195.8" r="15"/>
			<path class="st46" d="M1236.4,203.5c0.3,0,0.6-0.1,0.8-0.3l13-13c0.5-0.4,0.6-1.1,0.2-1.6c-0.4-0.5-1.1-0.6-1.6-0.2
				c-0.1,0.1-0.1,0.1-0.2,0.2l-13,13c-0.4,0.4-0.5,1.1,0,1.6C1235.8,203.4,1236.1,203.5,1236.4,203.5L1236.4,203.5z"/>
			<path class="st46" d="M1249.5,203.5c0.6,0,1.1-0.5,1.1-1.1c0-0.3-0.1-0.6-0.3-0.8l-13-13c-0.3-0.5-1-0.7-1.6-0.3
				c-0.5,0.3-0.7,1-0.3,1.6c0.1,0.1,0.2,0.3,0.4,0.4l13,13C1248.9,203.4,1249.2,203.5,1249.5,203.5z"/>
			<path class="st47" d="M899.3,230.7H963c4.4,0,8,3.6,8,8v42.5c0,4.4-3.6,8-8,8h-63.8c-4.4,0-8-3.6-8-8v-42.5
				C891.3,234.3,894.9,230.7,899.3,230.7z"/>
			<path class="st48" d="M971,263.1v21.4c0,2.6-2.1,4.7-4.7,4.7H896c-2.6,0-4.7-2.1-4.7-4.7c0,0,0,0,0,0v-1.8l17.5-19.4
				c0.8-0.9,2.2-0.9,3.1-0.1c0,0,0.1,0.1,0.1,0.1l13.1,13.6c0.8,0.9,2.2,0.9,3.1,0.1c0,0,0.1-0.1,0.1-0.1l26.9-29.4
				c0.8-0.9,2.2-0.9,3.1-0.1c0.1,0.1,0.2,0.2,0.2,0.2L971,263.1z"/>
			<path class="st47" d="M988.7,230.7h63.8c4.4,0,8,3.6,8,8v42.5c0,4.4-3.6,8-8,8h-63.8c-4.4,0-8-3.6-8-8v-42.5
				C980.7,234.3,984.3,230.7,988.7,230.7z"/>
			<path class="st48" d="M1060.5,263.1v21.4c0,2.6-2.1,4.7-4.7,4.7h-70.2c-2.6,0-4.7-2.1-4.7-4.7v-1.8l17.5-19.4
				c0.8-0.9,2.2-0.9,3.1-0.1c0,0,0.1,0.1,0.1,0.1l13.1,13.6c0.8,0.9,2.2,0.9,3.1,0.1c0,0,0.1-0.1,0.1-0.1l26.9-29.4
				c0.8-0.9,2.2-0.9,3.1-0.1c0.1,0.1,0.2,0.2,0.2,0.2L1060.5,263.1z"/>
			<circle class="st45" cx="998.7" cy="245.4" r="8"/>
			<path class="st47" d="M901.6,303.2h148.6c5.7,0,10.3,4.6,10.3,10.3v63.4c0,5.7-4.6,10.3-10.3,10.3H901.6
				c-5.7,0-10.3-4.6-10.3-10.3v-63.4C891.3,307.8,895.9,303.2,901.6,303.2z"/>
			<path class="st48" d="M904.1,308.3h143.5c3.4,0,6.2,2.8,6.2,6.2v61.5c0,3.4-2.8,6.2-6.2,6.2H904.1c-3.4,0-6.2-2.8-6.2-6.2v-61.5
				C897.9,311,900.7,308.3,904.1,308.3z"/>
			<circle class="st47" cx="975.9" cy="338.5" r="17.6"/>
			<path class="st45" d="M986.3,337.8l-14.6-8.4c-0.4-0.2-0.9-0.1-1.1,0.3c-0.1,0.1-0.1,0.3-0.1,0.4V347c0,0.5,0.4,0.8,0.8,0.8
				c0.1,0,0.3,0,0.4-0.1l14.6-8.4c0.4-0.2,0.5-0.7,0.3-1.1C986.5,338,986.4,337.9,986.3,337.8z"/>
			<path class="st47" d="M1046.4,371.8c0,1.6-1.3,3-3,3l0,0H908.3c-1.7,0-3-1.3-3-3s1.3-3,3-3l0,0h135.1
				C1045.1,368.8,1046.4,370.2,1046.4,371.8z"/>
			<path class="st45" d="M984.3,368.8v6h-76c-1.7,0-3-1.3-3-3s1.3-3,3-3l0,0H984.3z"/>
			<path class="st49" d="M1113.7,242.8h-17.6c-1.5,0-2.8-1.2-2.8-2.8s1.2-2.8,2.8-2.8h17.6c1.5,0,2.8,1.2,2.8,2.8
				S1115.3,242.8,1113.7,242.8z"/>
			<path class="st49" d="M1232.2,242.8h-101.1c-1.5,0-2.8-1.2-2.8-2.8s1.2-2.8,2.8-2.8h101.1c1.5,0,2.8,1.2,2.8,2.8
				S1233.7,242.8,1232.2,242.8z"/>
			<path class="st49" d="M1113.7,284.6h-17.6c-1.5,0-2.8-1.2-2.8-2.8s1.2-2.8,2.8-2.8h17.6c1.5,0,2.8,1.2,2.8,2.8
				S1115.3,284.6,1113.7,284.6z"/>
			<path class="st49" d="M1232.2,284.6h-101.1c-1.5,0-2.8-1.2-2.8-2.8s1.2-2.8,2.8-2.8h101.1c1.5,0,2.8,1.2,2.8,2.8
				S1233.7,284.6,1232.2,284.6z"/>
			<path class="st49" d="M1197,256.8h-100.9c-1.5,0-2.8-1.2-2.8-2.8s1.2-2.8,2.8-2.8H1197c1.5,0,2.8,1.2,2.8,2.8
				S1198.5,256.8,1197,256.8z"/>
			<path class="st49" d="M1232.2,256.8h-18.9c-1.5,0-2.8-1.2-2.8-2.8s1.2-2.8,2.8-2.8h18.9c1.5,0,2.8,1.2,2.8,2.8
				S1233.7,256.8,1232.2,256.8L1232.2,256.8z"/>
			<path class="st49" d="M1197,298.6h-100.9c-1.5,0-2.8-1.2-2.8-2.8s1.2-2.8,2.8-2.8H1197c1.5,0,2.8,1.2,2.8,2.8
				S1198.5,298.6,1197,298.6z"/>
			<path class="st49" d="M1232.2,298.6h-18.9c-1.5,0-2.8-1.2-2.8-2.8s1.2-2.8,2.8-2.8h18.9c1.5,0,2.8,1.2,2.8,2.8
				S1233.7,298.6,1232.2,298.6L1232.2,298.6z"/>
			<path class="st49" d="M1136.7,270.7h-40.6c-1.5,0-2.8-1.2-2.8-2.8s1.2-2.8,2.8-2.8h40.6c1.5,0,2.8,1.2,2.8,2.8
				S1138.3,270.7,1136.7,270.7z"/>
			<path class="st49" d="M1232.2,270.7H1159c-1.5,0-2.8-1.2-2.8-2.8s1.2-2.8,2.8-2.8h73.2c1.5,0,2.8,1.2,2.8,2.8
				S1233.7,270.7,1232.2,270.7z"/>
			<path class="st49" d="M1113.7,322.8h-17.6c-1.5,0-2.8-1.2-2.8-2.8s1.2-2.8,2.8-2.8h17.6c1.5,0,2.8,1.2,2.8,2.8
				S1115.3,322.8,1113.7,322.8z"/>
			<path class="st49" d="M1232.2,322.8h-101.1c-1.5,0-2.8-1.2-2.8-2.8s1.2-2.8,2.8-2.8h101.1c1.5,0,2.8,1.2,2.8,2.8
				S1233.7,322.8,1232.2,322.8z"/>
			<path class="st49" d="M1113.7,364.7h-17.6c-1.5,0-2.8-1.2-2.8-2.8s1.2-2.8,2.8-2.8h17.6c1.5,0,2.8,1.2,2.8,2.8
				S1115.3,364.7,1113.7,364.7z"/>
			<path class="st49" d="M1232.2,364.7h-101.1c-1.5,0-2.8-1.2-2.8-2.8s1.2-2.8,2.8-2.8h101.1c1.5,0,2.8,1.2,2.8,2.8
				S1233.7,364.7,1232.2,364.7z"/>
			<path class="st49" d="M1197,336.8h-100.9c-1.5,0-2.8-1.2-2.8-2.8s1.2-2.8,2.8-2.8H1197c1.5,0,2.8,1.2,2.8,2.8
				S1198.5,336.8,1197,336.8z"/>
			<path class="st49" d="M1232.2,336.8h-18.9c-1.5,0-2.8-1.2-2.8-2.8s1.2-2.8,2.8-2.8h18.9c1.5,0,2.8,1.2,2.8,2.8
				S1233.7,336.8,1232.2,336.8L1232.2,336.8z"/>
			<path class="st49" d="M1197,378.6h-100.9c-1.5,0-2.8-1.2-2.8-2.8s1.2-2.8,2.8-2.8H1197c1.5,0,2.8,1.2,2.8,2.8
				S1198.5,378.6,1197,378.6z"/>
			<path class="st49" d="M1232.2,378.6h-18.9c-1.5,0-2.8-1.2-2.8-2.8s1.2-2.8,2.8-2.8h18.9c1.5,0,2.8,1.2,2.8,2.8
				S1233.7,378.6,1232.2,378.6L1232.2,378.6z"/>
			<path class="st49" d="M1136.7,350.8h-40.6c-1.5,0-2.8-1.2-2.8-2.8s1.2-2.8,2.8-2.8h40.6c1.5,0,2.8,1.2,2.8,2.8
				S1138.3,350.8,1136.7,350.8z"/>
			<path class="st49" d="M1232.2,350.8H1159c-1.5,0-2.8-1.2-2.8-2.8s1.2-2.8,2.8-2.8h73.2c1.5,0,2.8,1.2,2.8,2.8
				S1233.7,350.8,1232.2,350.8z"/>
		</g>
		<g>
			<polygon class="st35" points="882.6,467 890.3,462.8 864.3,505.9 856.6,510.1 			"/>
			<polygon class="st35" points="818.3,371.7 826,367.5 863.8,367.5 856.1,371.7 			"/>
			<polygon class="st35" points="856.1,371.7 863.8,367.5 889.3,407.3 881.6,411.5 			"/>
			<polygon class="st35" points="901.5,439 909.1,434.8 957.5,505.9 949.8,510.1 			"/>
			<polygon class="st36" points="941.9,371.7 901.5,439 949.8,510.1 910.9,510.1 882.6,467 856.6,510.1 817.9,510.1 862.3,438 
				818.3,371.7 856.1,371.7 881.6,411.5 904.3,371.7 			"/>
			<polygon class="st35" points="941.9,371.7 949.6,367.5 909.1,434.8 901.5,439 			"/>
			<polygon class="st35" points="904.3,371.7 912,367.5 949.6,367.5 941.9,371.7 			"/>
		</g>
		<g>
			<circle class="st45" cx="1169.3" cy="218.8" r="4.9"/>
			<circle class="st45" cx="1191.9" cy="218.8" r="4.9"/>
			<circle class="st45" cx="1214.5" cy="218.8" r="4.9"/>
			<circle class="st45" cx="1207.4" cy="264.4" r="7.4"/>
			<path class="st50" d="M1263.8,387.2L1263.8,387.2C1263.8,387.2,1263.8,387.2,1263.8,387.2c0-3.4-2.8-6.2-6.2-6.2h-88.8
				c-3.4,0-6.2,2.8-6.2,6.2l0,0c0,3.4,2.8,6.2,6.2,6.2h88.8C1261,393.4,1263.8,390.6,1263.8,387.2z"/>
			<rect x="1169.8" y="429.9" class="st50" width="89.9" height="9.6"/>
			<rect x="1156.8" y="476" class="st50" width="112.8" height="9.6"/>
			<polygon class="st50" points="1283.3,512.5 1253.1,387.2 1244.8,387.2 1275,512.5 			"/>
			<polygon class="st50" points="1155.5,512.5 1185.7,387.2 1177.4,387.2 1147.2,512.5 			"/>
			
				<linearGradient id="SVGID_3_" gradientUnits="userSpaceOnUse" x1="1141.8744" y1="2110.2197" x2="1435.2814" y2="2110.2197" gradientTransform="matrix(-0.94 -0.33 0.33 -0.94 1679.6108 2643.6199)">
				<stop  offset="0" style="stop-color:#370072"/>
				<stop  offset="1" style="stop-color:#4164E0"/>
			</linearGradient>
			<path class="st51" d="M1014.4,204c-1.3-0.5-2.1-1.9-1.6-3.3l11.8-33.7c0,0,0,0,0,0c0.5-1.3,1.9-2,3.3-1.6l272.2,95c0,0,0,0,0,0
				c1.3,0.5,2,1.9,1.6,3.3l-11.8,33.7c0,0,0,0,0,0c-0.5,1.3-1.9,2-3.3,1.6L1014.4,204C1014.5,204,1014.5,204,1014.4,204z"/>
			<g>
				<defs>
					
						<rect id="SVGID_4_" x="1136.8" y="85.5" transform="matrix(0.3294 -0.9442 0.9442 0.3294 556.8559 1248.4205)" width="40.9" height="293.4"/>
				</defs>
				<clipPath id="SVGID_5_">
					<use xlink:href="#SVGID_4_"  style="overflow:visible;"/>
				</clipPath>
				<g class="st52">
					
						<linearGradient id="SVGID_6_" gradientUnits="userSpaceOnUse" x1="1155.3455" y1="2101.3369" x2="1155.3455" y2="2130.1948" gradientTransform="matrix(-0.9442 -0.3294 0.3294 -0.9442 1682.5875 2644.5608)">
						<stop  offset="0" style="stop-color:#3E85FF"/>
						<stop  offset="1" style="stop-color:#42E4FF"/>
					</linearGradient>
					<polygon class="st53" points="1285.7,280.5 1282,279.2 1291.5,252 1295.2,253.3 					"/>
					
						<linearGradient id="SVGID_7_" gradientUnits="userSpaceOnUse" x1="1164.7035" y1="2113.2883" x2="1164.7035" y2="2130.2151" gradientTransform="matrix(-0.9442 -0.3294 0.3294 -0.9442 1682.6965 2644.5742)">
						<stop  offset="0" style="stop-color:#3E85FF"/>
						<stop  offset="1" style="stop-color:#42E4FF"/>
					</linearGradient>
					<polygon class="st54" points="1280.9,266.3 1277.2,265 1282.7,249 1286.4,250.3 					"/>
					
						<linearGradient id="SVGID_8_" gradientUnits="userSpaceOnUse" x1="1173.9021" y1="2113.2688" x2="1173.9021" y2="2130.1963" gradientTransform="matrix(-0.9442 -0.3294 0.3294 -0.9442 1682.5225 2644.5381)">
						<stop  offset="0" style="stop-color:#3E85FF"/>
						<stop  offset="1" style="stop-color:#42E4FF"/>
					</linearGradient>
					<polygon class="st55" points="1272,263.1 1268.3,261.8 1273.9,245.8 1277.6,247.1 					"/>
					
						<linearGradient id="SVGID_9_" gradientUnits="userSpaceOnUse" x1="1182.4535" y1="2101.3389" x2="1182.4535" y2="2130.197" gradientTransform="matrix(-0.9442 -0.3294 0.3294 -0.9442 1682.5879 2644.5535)">
						<stop  offset="0" style="stop-color:#3E85FF"/>
						<stop  offset="1" style="stop-color:#42E4FF"/>
					</linearGradient>
					<polygon class="st56" points="1260.1,271.6 1256.4,270.3 1265.9,243.1 1269.6,244.4 					"/>
					
						<linearGradient id="SVGID_10_" gradientUnits="userSpaceOnUse" x1="1191.9196" y1="2113.3518" x2="1191.9196" y2="2130.2786" gradientTransform="matrix(-0.9441 -0.3295 0.3295 -0.9441 1682.365 2644.614)">
						<stop  offset="0" style="stop-color:#3E85FF"/>
						<stop  offset="1" style="stop-color:#42E4FF"/>
					</linearGradient>
					<polygon class="st57" points="1255.3,257.2 1251.6,255.9 1257.1,240 1260.8,241.2 					"/>
					
						<linearGradient id="SVGID_11_" gradientUnits="userSpaceOnUse" x1="1201.1813" y1="2113.2905" x2="1201.1813" y2="2130.2173" gradientTransform="matrix(-0.9442 -0.3294 0.3294 -0.9442 1682.6993 2644.5676)">
						<stop  offset="0" style="stop-color:#3E85FF"/>
						<stop  offset="1" style="stop-color:#42E4FF"/>
					</linearGradient>
					<polygon class="st58" points="1246.4,254.2 1242.7,252.9 1248.3,237 1252,238.3 					"/>
					
						<linearGradient id="SVGID_12_" gradientUnits="userSpaceOnUse" x1="1209.5669" y1="2101.3374" x2="1209.5669" y2="2130.1953" gradientTransform="matrix(-0.9442 -0.3294 0.3294 -0.9442 1682.5879 2644.5593)">
						<stop  offset="0" style="stop-color:#3E85FF"/>
						<stop  offset="1" style="stop-color:#42E4FF"/>
					</linearGradient>
					<polygon class="st59" points="1234.5,262.7 1230.8,261.4 1240.3,234.1 1244,235.4 					"/>
					
						<linearGradient id="SVGID_13_" gradientUnits="userSpaceOnUse" x1="1218.8395" y1="2113.2847" x2="1218.8395" y2="2130.2107" gradientTransform="matrix(-0.9442 -0.3294 0.3294 -0.9442 1682.5952 2644.5527)">
						<stop  offset="0" style="stop-color:#3E85FF"/>
						<stop  offset="1" style="stop-color:#42E4FF"/>
					</linearGradient>
					<polygon class="st60" points="1229.7,248.3 1226,247 1231.5,231.1 1235.2,232.4 					"/>
					
						<linearGradient id="SVGID_14_" gradientUnits="userSpaceOnUse" x1="1228.4022" y1="2113.3521" x2="1228.4022" y2="2130.2788" gradientTransform="matrix(-0.9441 -0.3295 0.3295 -0.9441 1682.3918 2644.6221)">
						<stop  offset="0" style="stop-color:#3E85FF"/>
						<stop  offset="1" style="stop-color:#42E4FF"/>
					</linearGradient>
					<polygon class="st61" points="1220.8,245.2 1217.1,243.9 1222.7,228 1226.4,229.2 					"/>
					
						<linearGradient id="SVGID_15_" gradientUnits="userSpaceOnUse" x1="1236.6814" y1="2101.3394" x2="1236.6814" y2="2130.1973" gradientTransform="matrix(-0.9442 -0.3294 0.3294 -0.9442 1682.5884 2644.552)">
						<stop  offset="0" style="stop-color:#3E85FF"/>
						<stop  offset="1" style="stop-color:#42E4FF"/>
					</linearGradient>
					<polygon class="st62" points="1208.9,253.7 1205.2,252.4 1214.7,225.2 1218.4,226.5 					"/>
					
						<linearGradient id="SVGID_16_" gradientUnits="userSpaceOnUse" x1="1246.1447" y1="2113.3503" x2="1246.1447" y2="2130.2771" gradientTransform="matrix(-0.9441 -0.3295 0.3295 -0.9441 1682.3721 2644.6218)">
						<stop  offset="0" style="stop-color:#3E85FF"/>
						<stop  offset="1" style="stop-color:#42E4FF"/>
					</linearGradient>
					<polygon class="st63" points="1204.1,239.4 1200.4,238.1 1205.9,222.1 1209.6,223.4 					"/>
					
						<linearGradient id="SVGID_17_" gradientUnits="userSpaceOnUse" x1="1255.42" y1="2113.2891" x2="1255.42" y2="2130.2158" gradientTransform="matrix(-0.9442 -0.3294 0.3294 -0.9442 1682.7043 2644.5745)">
						<stop  offset="0" style="stop-color:#3E85FF"/>
						<stop  offset="1" style="stop-color:#42E4FF"/>
					</linearGradient>
					<polygon class="st64" points="1195.2,236.4 1191.5,235.1 1197.1,219.1 1200.8,220.4 					"/>
					
						<linearGradient id="SVGID_18_" gradientUnits="userSpaceOnUse" x1="1263.8085" y1="2101.3406" x2="1263.8085" y2="2130.1985" gradientTransform="matrix(-0.9442 -0.3294 0.3294 -0.9442 1682.5883 2644.5479)">
						<stop  offset="0" style="stop-color:#3E85FF"/>
						<stop  offset="1" style="stop-color:#42E4FF"/>
					</linearGradient>
					<polygon class="st65" points="1183.3,244.8 1179.6,243.5 1189.1,216.3 1192.8,217.6 					"/>
					
						<linearGradient id="SVGID_19_" gradientUnits="userSpaceOnUse" x1="1273.1725" y1="2113.2893" x2="1273.1725" y2="2130.2161" gradientTransform="matrix(-0.9442 -0.3294 0.3294 -0.9442 1682.6959 2644.571)">
						<stop  offset="0" style="stop-color:#3E85FF"/>
						<stop  offset="1" style="stop-color:#42E4FF"/>
					</linearGradient>
					<polygon class="st66" points="1178.4,230.5 1174.7,229.2 1180.3,213.3 1184,214.6 					"/>
					
						<linearGradient id="SVGID_20_" gradientUnits="userSpaceOnUse" x1="1282.5311" y1="2113.2903" x2="1282.5311" y2="2130.217" gradientTransform="matrix(-0.9442 -0.3294 0.3294 -0.9442 1682.6937 2644.5664)">
						<stop  offset="0" style="stop-color:#3E85FF"/>
						<stop  offset="1" style="stop-color:#42E4FF"/>
					</linearGradient>
					<polygon class="st67" points="1169.6,227.4 1165.9,226.2 1171.5,210.2 1175.2,211.5 					"/>
					
						<linearGradient id="SVGID_21_" gradientUnits="userSpaceOnUse" x1="1290.9674" y1="2101.3677" x2="1290.9674" y2="2130.2256" gradientTransform="matrix(-0.9442 -0.3294 0.3294 -0.9442 1682.6326 2644.5579)">
						<stop  offset="0" style="stop-color:#3E85FF"/>
						<stop  offset="1" style="stop-color:#42E4FF"/>
					</linearGradient>
					<polygon class="st68" points="1157.7,235.9 1154,234.6 1163.5,207.4 1167.2,208.6 					"/>
					
						<linearGradient id="SVGID_22_" gradientUnits="userSpaceOnUse" x1="1299.7986" y1="2113.2073" x2="1299.7986" y2="2130.1333" gradientTransform="matrix(-0.9443 -0.3292 0.3292 -0.9443 1682.6058 2644.4524)">
						<stop  offset="0" style="stop-color:#3E85FF"/>
						<stop  offset="1" style="stop-color:#42E4FF"/>
					</linearGradient>
					<polygon class="st69" points="1152.9,221.5 1149.2,220.2 1154.7,204.3 1158.4,205.6 					"/>
					
						<linearGradient id="SVGID_23_" gradientUnits="userSpaceOnUse" x1="1309.5466" y1="2113.2844" x2="1309.5466" y2="2130.2104" gradientTransform="matrix(-0.9442 -0.3294 0.3294 -0.9442 1682.5903 2644.552)">
						<stop  offset="0" style="stop-color:#3E85FF"/>
						<stop  offset="1" style="stop-color:#42E4FF"/>
					</linearGradient>
					<polygon class="st70" points="1144,218.5 1140.3,217.2 1145.9,201.2 1149.6,202.5 					"/>
					
						<linearGradient id="SVGID_24_" gradientUnits="userSpaceOnUse" x1="1318.0364" y1="2101.3408" x2="1318.0364" y2="2130.199" gradientTransform="matrix(-0.9442 -0.3294 0.3294 -0.9442 1682.5887 2644.5461)">
						<stop  offset="0" style="stop-color:#3E85FF"/>
						<stop  offset="1" style="stop-color:#42E4FF"/>
					</linearGradient>
					<polygon class="st71" points="1132.1,226.9 1128.4,225.6 1137.9,198.4 1141.6,199.7 					"/>
					
						<linearGradient id="SVGID_25_" gradientUnits="userSpaceOnUse" x1="1327.4202" y1="2113.29" x2="1327.4202" y2="2130.2168" gradientTransform="matrix(-0.9442 -0.3294 0.3294 -0.9442 1682.7164 2644.5754)">
						<stop  offset="0" style="stop-color:#3E85FF"/>
						<stop  offset="1" style="stop-color:#42E4FF"/>
					</linearGradient>
					<polygon class="st72" points="1127.2,212.7 1123.5,211.4 1129.1,195.4 1132.8,196.7 					"/>
					
						<linearGradient id="SVGID_26_" gradientUnits="userSpaceOnUse" x1="1336.65" y1="2113.2827" x2="1336.65" y2="2130.2087" gradientTransform="matrix(-0.9442 -0.3294 0.3294 -0.9442 1682.5808 2644.5547)">
						<stop  offset="0" style="stop-color:#3E85FF"/>
						<stop  offset="1" style="stop-color:#42E4FF"/>
					</linearGradient>
					<polygon class="st73" points="1118.4,209.5 1114.7,208.3 1120.3,192.3 1124,193.6 					"/>
					
						<linearGradient id="SVGID_27_" gradientUnits="userSpaceOnUse" x1="1345.2018" y1="2101.3682" x2="1345.2018" y2="2130.2261" gradientTransform="matrix(-0.9442 -0.3294 0.3294 -0.9442 1682.6331 2644.5564)">
						<stop  offset="0" style="stop-color:#3E85FF"/>
						<stop  offset="1" style="stop-color:#42E4FF"/>
					</linearGradient>
					<polygon class="st74" points="1106.5,218 1102.7,216.7 1112.2,189.5 1116,190.8 					"/>
					
						<linearGradient id="SVGID_28_" gradientUnits="userSpaceOnUse" x1="1354.5095" y1="2113.2891" x2="1354.5095" y2="2130.2158" gradientTransform="matrix(-0.9442 -0.3294 0.3294 -0.9442 1682.6903 2644.5696)">
						<stop  offset="0" style="stop-color:#3E85FF"/>
						<stop  offset="1" style="stop-color:#42E4FF"/>
					</linearGradient>
					<polygon class="st75" points="1101.6,203.7 1097.9,202.5 1103.5,186.5 1107.2,187.8 					"/>
					
						<linearGradient id="SVGID_29_" gradientUnits="userSpaceOnUse" x1="1363.7745" y1="2113.2847" x2="1363.7745" y2="2130.2109" gradientTransform="matrix(-0.9442 -0.3294 0.3294 -0.9442 1682.5908 2644.5505)">
						<stop  offset="0" style="stop-color:#3E85FF"/>
						<stop  offset="1" style="stop-color:#42E4FF"/>
					</linearGradient>
					<polygon class="st76" points="1092.8,200.6 1089.1,199.3 1094.7,183.3 1098.4,184.6 					"/>
					
						<linearGradient id="SVGID_30_" gradientUnits="userSpaceOnUse" x1="1372.2708" y1="2101.3386" x2="1372.2708" y2="2130.1965" gradientTransform="matrix(-0.9442 -0.3294 0.3294 -0.9442 1682.5858 2644.5542)">
						<stop  offset="0" style="stop-color:#3E85FF"/>
						<stop  offset="1" style="stop-color:#42E4FF"/>
					</linearGradient>
					<polygon class="st77" points="1080.9,209.1 1077.1,207.8 1086.7,180.5 1090.4,181.8 					"/>
					
						<linearGradient id="SVGID_31_" gradientUnits="userSpaceOnUse" x1="1381.5387" y1="2113.2852" x2="1381.5387" y2="2130.2112" gradientTransform="matrix(-0.9442 -0.3294 0.3294 -0.9442 1682.5864 2644.5481)">
						<stop  offset="0" style="stop-color:#3E85FF"/>
						<stop  offset="1" style="stop-color:#42E4FF"/>
					</linearGradient>
					<polygon class="st78" points="1076,194.8 1072.3,193.5 1077.9,177.5 1081.6,178.8 					"/>
					
						<linearGradient id="SVGID_32_" gradientUnits="userSpaceOnUse" x1="1390.9965" y1="2113.2893" x2="1390.9965" y2="2130.2161" gradientTransform="matrix(-0.9442 -0.3294 0.3294 -0.9442 1682.7031 2644.5732)">
						<stop  offset="0" style="stop-color:#3E85FF"/>
						<stop  offset="1" style="stop-color:#42E4FF"/>
					</linearGradient>
					<polygon class="st79" points="1067.2,191.7 1063.5,190.4 1069.1,174.4 1072.8,175.7 					"/>
					
						<linearGradient id="SVGID_33_" gradientUnits="userSpaceOnUse" x1="1399.4396" y1="2101.3684" x2="1399.4396" y2="2130.2266" gradientTransform="matrix(-0.9442 -0.3294 0.3294 -0.9442 1682.6428 2644.5581)">
						<stop  offset="0" style="stop-color:#3E85FF"/>
						<stop  offset="1" style="stop-color:#42E4FF"/>
					</linearGradient>
					<polygon class="st80" points="1055.2,200.2 1051.5,198.9 1061,171.6 1064.8,172.9 					"/>
					
						<linearGradient id="SVGID_34_" gradientUnits="userSpaceOnUse" x1="1408.6503" y1="2113.2842" x2="1408.6503" y2="2130.2102" gradientTransform="matrix(-0.9442 -0.3294 0.3294 -0.9442 1682.593 2644.5535)">
						<stop  offset="0" style="stop-color:#3E85FF"/>
						<stop  offset="1" style="stop-color:#42E4FF"/>
					</linearGradient>
					<polygon class="st81" points="1050.4,185.8 1046.7,184.5 1052.3,168.6 1056,169.8 					"/>
					
						<linearGradient id="SVGID_35_" gradientUnits="userSpaceOnUse" x1="1418.1267" y1="2113.2905" x2="1418.1267" y2="2130.2175" gradientTransform="matrix(-0.9442 -0.3294 0.3294 -0.9442 1682.7147 2644.5723)">
						<stop  offset="0" style="stop-color:#3E85FF"/>
						<stop  offset="1" style="stop-color:#42E4FF"/>
					</linearGradient>
					<polygon class="st82" points="1041.6,182.8 1037.9,181.5 1043.5,165.5 1047.2,166.8 					"/>
					
						<linearGradient id="SVGID_36_" gradientUnits="userSpaceOnUse" x1="1426.6002" y1="2101.3306" x2="1426.6002" y2="2130.1892" gradientTransform="matrix(-0.9442 -0.3294 0.3294 -0.9442 1682.6971 2644.5686)">
						<stop  offset="0" style="stop-color:#3E85FF"/>
						<stop  offset="1" style="stop-color:#42E4FF"/>
					</linearGradient>
					<polygon class="st83" points="1029.6,191.3 1025.9,190 1035.4,162.7 1039.1,164 					"/>
				</g>
			</g>
			<path class="st84" d="M1190.7,242.2l-1.5,12.9c0,0-17.4-8.2-21.9-10.1c-4.5-1.9-21-26.2-21-26.2c-4.8-0.7-7.1-4.6-8.2-6.2
				c0,0-3-6.1-3-6.1c-0.6-0.9-0.6-2.1,0.1-2.9c-0.6-1.1-0.4-1.1-0.4-1.1c-0.3-1.4,2-1.4,2.2-1.4c-0.1-0.1-0.1-0.3-0.1-0.5
				c0.1-0.4,0.5-0.7,0.9-0.6c1.9,0.9,3.5,2.1,4.9,3.6c1.8,1.7,4.3,4.6,5.4,5.5c0.3,0.2,0.5,0.3,0.5,0.1c0-0.2,0-0.5-0.2-0.7
				c-1.1-1-2.2-2.2-3.2-3.4c-0.3-0.7-0.7-2.5,0.2-2.4c0.9,0.1,4.4,2.7,4.4,2.7c0.8,0.8,1.5,1.8,1.9,2.9c0.7,1.6-0.5,6.9-0.5,6.9
				s18.5,17.1,22.6,20C1178.1,238.1,1190.7,242.2,1190.7,242.2z"/>
			<path class="st5" d="M1174.5,478.1c2.1,2.2,7,1.8,11.9,2.3c7.9,0.8,16.4,1.2,16.6-1.5c0-0.3,0-0.5,0-0.8c0.1-2.3-0.4-4.6-1.5-6.6
				l-4.1-0.6c-4.1-0.6,0.5,2.4-4.7,2.6c-4.5,0.1-17.5,1.5-18.5,3.7C1174,477.4,1174.2,477.8,1174.5,478.1z"/>
			<path class="st84" d="M1192.9,461.7l0.6,11.6c-2,2,9,0.3,9,0.3l0.7-12.5L1192.9,461.7z"/>
			<path class="st5" d="M1215.7,474.5c1.9,2.3,6.4,2.3,10.9,3.2c7.3,1.4,15.1,2.5,15.4-0.3c0-0.3,0-0.5,0-0.8c0.2-2.3-0.2-4.6-1-6.7
				l-3.8-0.9c-3.8-0.8,0.3,2.5-4.5,2.3c-4.2-0.2-16.3,0.1-17.3,2.3C1215.3,473.9,1215.4,474.3,1215.7,474.5z"/>
			<path class="st84" d="M1232.8,459.6l-0.4,11.7c-1.2,2,9.4,0.8,9.4,0.8l1.4-12.4L1232.8,459.6z"/>
			<path class="st40" d="M1191.1,466l14.9,0.6c6.9-35.9,17.2-111.2,17.2-111.2l2.7,0.2c2,88.6,5.8,110.6,5.8,110.6l13.1,0.3
				c11.3-107.2,8.9-141.5,8.9-141.5c-25,5-57.3-5.3-57.3-5.3C1190.7,352,1191.1,466,1191.1,466z"/>
			<path class="st84" d="M1249,264.5l6.5,15.4c0,0,14.2,15.8,17.9,14.3c10.2-4.1,12.6-36.3,12.6-36.3l-4.7-1c0,0-6,17.3-9.4,19.2
				c-4.6,2.6-9.2-15.9-9.2-15.9L1249,264.5z"/>
			<path class="st85" d="M1197.3,256.7c-0.4,30.4-3.4,57.6-4.2,65.5c0,0,37.6,9.5,64.9,6.9c0,0-0.1-42.1-1.7-64.8
				c3.8-0.4,7.6-1,11.3-1.8c-1.4-4.9-8.4-20.1-17.1-25.3c-7.9-4.5-21.1-4.9-24.6-4.5c-15.6,1.4-29.8,6.7-43.3,3.6
				c-1.9,6.4-3.1,12.9-3.8,19.5C1185,256.9,1191.2,257.3,1197.3,256.7z"/>
			<path class="st84" d="M1232.9,201.4c5.4,8-0.6,21.3-0.6,21.3v10.9c-5,3.2-11.3,3.6-16.7,1v-11.3c0,0-6.5,0-8.4-2.2
				s1.2-8.8,1.2-8.8s-1.4-1.6-1.2-2.3c0.2-0.7,2.6-1.2,3-3.5c0.4-2.3,2-7.4,2-7.4S1227.5,193.4,1232.9,201.4z"/>
			<path class="st5" d="M1210.4,199.6c-0.9-0.3-1.7-0.8-2.5-1.3c2.5,5.8,14,7.6,14,7.6c0.4,2.7,0.3,5.4-0.3,8c1,0.1,0.7-0.2,3.3-2
				c1.7-1.1,3.7,0.6,3.4,3c-0.3,3.1-4.8,2.7-4.8,2.7c2.4,4.4,9.6,8.5,14.4,3.8c8.2-7.9,7.8-17.9,3.2-24.8c1.1-0.1,2.2,0,3.3,0.5
				c-0.5-1.3-3.3-1.9-4.5-2.2c-0.1-1.4-0.6-2.7-1.4-3.9c0.1,0.8,0.2,1.7,0.2,2.5c-1.6-1.6-3.4-2.9-5.4-3.9
				c-10.5-5.1-14.9,1.1-22.1-0.4c-3.7-0.7-5.1,1.4-4.2,5C1207.3,196.6,1208.5,198.5,1210.4,199.6z"/>
			<path class="st84" d="M1285.8,260.1c0,0,3.8-3.6,4.3-5c0.4-1.5-1.8-1.9-1.8-1.9c0.1-1.3-2.9-1.2-2.9-1.2c-1-2.1-2.7-0.3-2.7-0.3
				c-1.6-1.6-2.4-0.3-2.9,0.5c-0.5,1-0.1,3.4-3.2,0.4c-2.2-2.2-1.3,3,0.1,4.3c1.2,1,2.5,1.7,3.9,2.2L1285.8,260.1z"/>
		</g>
		<g>
			<path class="st86" d="M952.4,327.3c-1.4,6.7-4.6,20.7-4.8,21.1c0,0-12.4,14.3-13.2,13.8c-0.8-0.4-4,0.1-4.5,0.3
				c-0.5,0.1-2.6-0.6-2.1,0.4c0.5,1,3.5,0.5,2.8,1.6c-2.2,3.5-4.8,5.1-5.1,5.8c-0.3,0.7,0.7,0.9,0.7,0.9c-0.3,0.2-1.1,1.1-0.6,1.5
				c0.5,0.4,1.5-0.3,1.5-0.3s0.1,0.7,0.5,0.9c0.7,0.3,1.3-0.7,1.3-0.7c0.1,0.4,1.1,0.4,1.5,0.3c0.9-0.2,5.4-4.5,6.6-6.6
				c0.3-0.4,17-13.7,18.3-15.1c0.9-0.9,4.5-10.8,5.8-18.7C959.5,332.1,956.4,329.1,952.4,327.3z"/>
			<path class="st38" d="M960.6,502.9l-5.8-0.3l-4.7,6.7c-1.1,1.5-2.5,2.9-4.1,3.8c-1.9,1.2-4.2,2.9-3.7,4.1
				c0.3,0.8,6.5,0.7,9.7,0.6c1.8-0.1,4.5-2.6,6.6-5.3c0.3,2.5,0.7,5,0.7,5l1.7-0.1c0.5-2,0.6-8.5,0.6-10l0,0
				C961.7,505.8,961.3,504.3,960.6,502.9z"/>
			<path class="st87" d="M947.8,420c-0.6-8.4,0.3-44.4,3-47.9c1.4-1.8,18.4,0,18.4,0.2c0,7.4-4.3,89-4.8,94.6s-3.9,30.9-3.9,30.9
				l0.1,5.1c0,0-7.5,9.5-9.8,8.3c-1.1-0.5,4-8.6,4-8.6l-0.3-5.1C954.5,497.6,948.4,428.4,947.8,420z"/>
			<path class="st38" d="M989.3,506.7L989.3,506.7c-0.1-1.6-0.6-3.1-1.5-4.4l-5.8,0.2l-4.1,7c-1,1.6-2.2,3.1-3.8,4.2
				c-1.8,1.4-3.9,3.3-3.4,4.3c0.4,0.7,6.5,0.1,9.8-0.2c1.8-0.2,4.3-3,6.2-5.8c0.5,2.4,1.1,4.9,1.1,4.9l1.6-0.2
				C989.9,514.7,989.4,508.2,989.3,506.7z"/>
			<path class="st87" d="M968.3,420.7c-1.3-8.3-3.4-44.3-1-48c1.2-1.9,18.3-1.5,18.3-1.3c0.6,7.4,3,89,3,94.7
				c0,5.7-1.3,31.1-1.3,31.1l0.5,5.1c0,0-6.7,10.1-9.1,9.1c-1.1-0.4,3.4-8.9,3.4-8.9l-0.7-5C981.4,497.4,969.5,429,968.3,420.7z"/>
			<path class="st5" d="M960.7,285.7c0,0-4.2,8.7-2.8,15.8c1.4,7,8.7,9.4,8.9,13.9s-3.8,8.8-1.6,13c2.2,4.2,25.1,11.6,31.4,5.8
				c6.4-5.8,7.7-13.3,3.5-19c-4.2-5.7-4.6-9.1-3.1-13.5c1.9-6.8-0.1-14.1-5.4-18.9C984.8,276.7,972.2,274.1,960.7,285.7z"/>
			<path class="st88" d="M953.7,368c-9.2,9.3-6.1,48.4-14.7,64.5c0,0,30.2,11.3,56,3.2c-4.5-11.3-0.7-42-4.8-61.9
				C987.5,360.8,960.4,347.2,953.7,368z"/>
			<path class="st41" d="M946.5,379.5c4,9.6,47.4,5.4,47.4,5.4s-8.9-31-7.3-40.5c2.6,2,5.9,4,5.9,4c2.4-6.3,2.9-13.2,1.5-19.8
				c-2.3-11.2-13.4-14.1-13.4-14.1s-17.9-3.4-27.2,7.7c-1.5,2-2.8,4.1-3.8,6.4l0.9,0.5l0,0c1.9,0.9,4.7,2.3,4.7,2.4
				c-1.1,1.2-1.9,2.8-2.3,4.4c-0.1,2,0.4,4.1,1.3,5.9c1.6,4.3,2.3,8.9,2,13.5C955.8,361.1,946.5,379.5,946.5,379.5z"/>
			<path class="st86" d="M967.9,311.2c-9.5-6.7-4.3-25.1-4.3-25.1l10.3,1.1l4.9,0.2l1.2,7.5c0,0,3.9-2.6,4.3,0.5
				c0.2,2.2-1.8,5.2-1.8,5.2s-1.1,6.3-5.4,9.9c0.3,1.4,0.7,2.7,1.3,4c0,0-5,6.3-8.9,7.9c-3.9,1.6-2.2-5.3-2.2-5.3
				C967.6,315.1,967.8,313.2,967.9,311.2z"/>
			<path class="st5" d="M956.2,294.9c1-1.4,1.4-3.1,1.1-4.8c-0.4-2.9,0.3-7.3,5.1-8.2c1.8-0.3,3.1,1,4.1,2.7
				c2.4-9.3,16.8-7,18.6-5.7c2.1,1.5,11.8,4.1,12.4,16.1c0.2,3.8-7.4,15.5-11.7,13.6c-4.2-1.9-2.2-3.9-2.5-6.4s-6.8-3.9-11.2-6.7
				c-2.6-1.7-4.4-4.5-5-7.6C967.2,287.9,964.5,293.1,956.2,294.9z"/>
			<path class="st89" d="M981.7,340.9c0,0-1.5-0.8-3.5-1.6l2.8-10.1l-4.3,10.5l8.5,4.6L981.7,340.9z"/>
			<path class="st89" d="M955.2,331.6c0,0,3.7-6.9,6-8.6c0,0-6.3,4.6-7.1,8L955.2,331.6z"/>
			<path class="st86" d="M963.4,298.5c-0.6,1.2-1.3,2.3-2,3.4c-0.8,0.8,2.5,1.9,2.5,1.9L963.4,298.5z"/>
			<path class="st5" d="M965.3,385.7H963V383c0.2-9.6-7.4-17.6-17-17.9c-9.6-0.2-17.6,7.4-17.9,17c0,0.3,0,0.6,0,0.9v2.7H926V383
				c-0.3-10.9,8.3-19.9,19.2-20.1s19.9,8.3,20.1,19.2c0,0.3,0,0.6,0,0.9V385.7z"/>
			<path class="st35" d="M964.9,414.4L964.9,414.4v-28.7h-38.6v28.7l0,0l0,0c0,0.8,8.6,3.4,19.3,3.4
				C956.3,417.8,964.9,415.2,964.9,414.4C964.9,414.4,964.9,414.4,964.9,414.4z"/>
			<path class="st90" d="M959.3,384.4c-3.5-0.4-8.3-0.6-13.7-0.6s-10.2,0.2-13.7,0.6c-3.5,0.4-5.7,0.9-5.7,1.4
				c0,0.2,0.2,0.3,0.5,0.4c0.4,0.2,0.9,0.3,1.4,0.4c2.3,0.4,4.7,0.7,7,0.8c3,0.2,6.6,0.3,10.5,0.3h1.7h1.5h0.1c1,0,1.9,0,2.8-0.1
				l2.6-0.1c1.7-0.1,3.2-0.2,4.6-0.3l1.6-0.2l1.4-0.2l0.9-0.2c0.3,0,0.5-0.1,0.7-0.2l0.2-0.1l0.3-0.1l0.4-0.2l0.1-0.1
				c0.1-0.1,0.2-0.2,0.2-0.3C964.9,385.3,962.8,384.8,959.3,384.4z M962.7,386.1l-0.8,0.2l-1.4,0.2l-1.6,0.2
				c-1.4,0.1-2.9,0.2-4.5,0.3c-1.6,0.1-3.5,0.2-5.4,0.2h-0.4l-0.1-0.2l14.5-1l0.1,0.1L962.7,386.1z"/>
			<path class="st36" d="M959.3,384.4c-3.5-0.4-8.3-0.6-13.7-0.6s-10.2,0.2-13.7,0.6c-3.5,0.4-5.7,0.9-5.7,1.4
				c0,0.2,0.2,0.3,0.5,0.4c0.4,0.2,0.9,0.3,1.4,0.4c2.3,0.4,4.7,0.7,7,0.8c3,0.2,6.6,0.3,10.5,0.3h1.7h1.5h0.1c1,0,1.9,0,2.8-0.1
				l2.6-0.1c1.7-0.1,3.2-0.2,4.6-0.3l1.6-0.2l1.4-0.2l0.9-0.2c0.3,0,0.5-0.1,0.7-0.2l0.2-0.1l0.3-0.1c0.1-0.1,0.3-0.1,0.4-0.2
				l0.1-0.1c0.1-0.1,0.2-0.2,0.2-0.3C964.9,385.3,962.8,384.8,959.3,384.4z M962.7,386.1l-0.8,0.2l-1.4,0.2l-1.6,0.2
				c-1.4,0.1-2.9,0.2-4.5,0.3c-1.6,0.1-3.5,0.2-5.4,0.2h-0.4h-1.3h-1.7c-3.7,0-7.3-0.1-10.4-0.3c-2.3-0.1-4.6-0.4-6.9-0.8l-0.7-0.2
				c1.5-0.4,3-0.6,4.5-0.7c3.6-0.4,8.4-0.6,13.6-0.6c5.1,0,10,0.2,13.6,0.6c1.5,0.1,3,0.4,4.5,0.7l-0.2,0.1l-0.3,0.1L962.7,386.1z"
				/>
			<path class="st90" d="M963,385.9l-14.5,1l0.1,0.2h0.4c1.9,0,3.7-0.1,5.4-0.2c1.7-0.1,3.2-0.2,4.5-0.3l1.6-0.2l1.4-0.2l0.8-0.2
				l0.4-0.1L963,385.9z"/>
			<path class="st37" d="M963.8,386.5l-6.2,1.8l-8.7-0.5l0,0l-0.3-0.7h0.4c1.9,0,3.7-0.1,5.4-0.2c1.7-0.1,3.2-0.2,4.5-0.3l1.6-0.2
				l1.4-0.2l0.8-0.2l0.4-0.1L963.8,386.5z"/>
			<path class="st34" d="M963.8,390.7c0,0.3-0.3,0.5-0.6,0.5s-0.6-0.2-0.6-0.5v-0.6c0-0.3-0.3-0.5-0.7-0.5c-0.4,0-0.7,0.2-0.7,0.5
				v12.6c0,0.3-0.2,0.5-0.4,0.7c-0.3,0.2-0.6,0.3-0.9,0.3c-0.7,0-1.3-0.4-1.3-1v-0.5c0-0.4-0.5-0.7-1-0.7c-0.6,0-1,0.3-1,0.7v3.7
				c0,0.3-0.2,0.6-0.4,0.8c-0.3,0.2-0.7,0.3-1.1,0.3c-0.8,0-1.5-0.5-1.5-1.1v-13.7c0-0.4-0.4-0.7-0.9-0.7c-0.5,0-0.9,0.3-0.9,0.7
				v2.8c0,0.5-0.5,0.9-1.2,0.9s-1.2-0.4-1.2-0.9c0,0-0.3-7.7-0.2-7.7c3.8,0,7.4-0.2,10.1-0.4c1.1-0.1,2.2-0.2,3.1-0.3
				c0.6-0.1,1.4-0.2,1.8-0.3C963.9,387.8,963.9,389.2,963.8,390.7z"/>
			<path class="st86" d="M946.4,366.1c1.3-0.3,2.5-0.9,3.5-1.6c-2.4-2.2-2.5-4.7-1.9-4.5c1,0.3,1.6,2.2,3.1,2.4
				c1.1,0.2,2.2,0.4,3.3,0.7c1.1,0.3,2.2,0.4,3.4,0.4l0,0c2.1-0.9,15.7-6.9,18.4-8.6c3-1.8,5.6-14,5.6-14l7.6,5.6
				c0,0-4.1,12.2-6.5,14.5c-2.4,2.3-21.7,6.2-24.2,6.7l0,0c-1.1,0.9-2.1,1.8-3.1,2.8c-1.2,1.3-3.4,2.8-4.6,2.7c-0.7,0-1.4-0.3-2-0.7
				c-1-0.8-0.6-1.3-0.6-1.3c-0.7-0.6-1.2-1.5-1.4-2.4C946.3,368.1,946.1,367.1,946.4,366.1z"/>
		</g>
		<g>
			<path class="st35" d="M618.3,515.3L618.3,515.3V461h53.4v54.4l0,0c0,0,0,0.1,0,0.1c0,1.5-12,2.7-26.7,2.7
				C630.2,518.1,618.3,516.9,618.3,515.3C618.3,515.4,618.3,515.4,618.3,515.3z"/>
			<path class="st90" d="M618.2,461.1c0,0.2,0.1,0.3,0.3,0.4c0.1,0,0.1,0.1,0.2,0.1c0.2,0.1,0.4,0.2,0.6,0.2l0.5,0.2l0.3,0.1
				c0.3,0.1,0.6,0.2,1,0.2s0.8,0.2,1.2,0.2c0.6,0.1,1.2,0.2,1.9,0.3c0.7,0.1,1.5,0.2,2.3,0.3c1.9,0.2,4,0.3,6.4,0.5l3.6,0.2
				c1.3,0,2.6,0.1,3.9,0.1h0.1h2.1h2.4c5.3,0,10.3-0.2,14.5-0.4c3.3-0.2,6.5-0.5,9.7-1.1c0.6-0.1,1.3-0.3,1.9-0.6
				c0.4-0.2,0.7-0.4,0.7-0.6c0-0.8-3-1.4-7.8-1.9c-4.8-0.5-11.5-0.8-18.9-0.8c-7.4,0-14,0.3-18.9,0.8
				C621.3,459.5,618.2,460.3,618.2,461.1z M620.7,461.2l0.2-0.1l20.1,1.4l-0.1,0.3h-0.5c-2.6,0-5.1-0.1-7.5-0.2
				c-2.4-0.1-4.4-0.3-6.3-0.5c-0.8-0.1-1.5-0.2-2.2-0.2c-0.7-0.1-1.3-0.2-1.9-0.3c-0.4-0.1-0.8-0.1-1.2-0.2L620.7,461.2z"/>
			<path class="st36" d="M618.2,461.1c0,0.2,0.1,0.3,0.3,0.4l0.2,0.1c0.2,0.1,0.4,0.2,0.6,0.3l0.5,0.2l0.3,0.1
				c0.3,0.1,0.6,0.2,1,0.2s0.8,0.2,1.2,0.2c0.6,0.1,1.2,0.2,1.9,0.3c0.7,0.1,1.5,0.2,2.3,0.3c1.9,0.2,4,0.3,6.4,0.5l3.6,0.2
				c1.3,0,2.6,0.1,3.9,0.1h0.1h2.1h2.4c5.3,0,10.3-0.2,14.5-0.4c3.3-0.2,6.5-0.5,9.7-1.1c0.6-0.1,1.3-0.3,1.9-0.6
				c0.4-0.2,0.7-0.4,0.7-0.6c0-0.8-3-1.4-7.8-1.9c-4.8-0.5-11.5-0.8-18.9-0.8c-7.4,0-14,0.3-18.9,0.8
				C621.3,459.5,618.2,460.3,618.2,461.1z M620.7,461.2l-0.4-0.1l-0.3-0.1c2-0.5,4.1-0.8,6.1-1c5-0.5,11.7-0.8,18.8-0.8
				c7.1,0,13.8,0.3,18.8,0.8c2.1,0.2,4.1,0.5,6.1,1c-0.2,0.1-0.6,0.2-1,0.2c-3.2,0.6-6.3,1-9.5,1.1c-4.3,0.3-9.3,0.4-14.4,0.4h-2.3
				h-1.8h-0.5c-2.6,0-5.1-0.1-7.5-0.2c-2.4-0.1-4.4-0.3-6.3-0.5c-0.8-0.1-1.5-0.2-2.2-0.2c-0.7-0.1-1.3-0.2-1.9-0.3
				c-0.4-0.1-0.8-0.1-1.2-0.2L620.7,461.2z"/>
			<path class="st90" d="M620.9,461.1l-0.2,0.1l0.6,0.1c0.4,0.1,0.7,0.1,1.2,0.2c0.6,0.1,1.2,0.2,1.9,0.3c0.7,0.1,1.4,0.2,2.2,0.2
				c1.9,0.2,4,0.3,6.3,0.5c2.3,0.1,4.9,0.2,7.5,0.2h0.5l0.1-0.3L620.9,461.1z"/>
			<path class="st37" d="M619.8,462l8.6,2.5l12.1-0.8l0,0l0.4-0.9h-0.5c-2.6,0-5.1-0.1-7.5-0.2c-2.4-0.1-4.4-0.3-6.3-0.5
				c-0.8-0.1-1.5-0.2-2.2-0.2c-0.7-0.1-1.3-0.2-1.9-0.3c-0.4-0.1-0.8-0.1-1.2-0.2l-0.6-0.1L619.8,462z"/>
			<path class="st34" d="M619.8,470.3c-0.1,0.5,0.1,1,0.6,1.1s1-0.1,1.1-0.6c0-0.2,0-0.3,0-0.5v-1.1c0-0.6,0.5-1,1-1
				c0.6,0,1,0.5,1,1V493c0,1,0.8,1.8,1.8,1.8s1.8-0.8,1.8-1.8v-1c-0.1-0.8,0.5-1.5,1.3-1.5c0.8-0.1,1.5,0.5,1.5,1.3
				c0,0.1,0,0.2,0,0.2v7c0,1.1,0.9,2.1,2.1,2.1c1.1,0,2.1-0.9,2.1-2.1v-25.9c0-0.7,0.6-1.3,1.3-1.3c0.7,0,1.3,0.6,1.3,1.3v5.3
				c0.1,0.9,0.9,1.6,1.8,1.6c0.8-0.1,1.5-0.7,1.6-1.6c0,0,0.4-14.6,0.3-14.6c-5.3-0.1-10.2-0.3-14-0.7c-1.6-0.2-3-0.3-4.2-0.5
				c-0.9-0.1-1.9-0.4-2.5-0.5C619.6,462,619.8,470.3,619.8,470.3z"/>
			<path class="st5" d="M618.2,480.7c2.7,3.4,7.6,5.9,15.3,6.2h1.1c23.9,0,36.6-23.6,37-25.8c-0.1,0.4-1,0.8-2.5,1.1
				c-2.3,4.2-5.3,8.1-8.8,11.5c-5.3,5.1-14,11.3-25.7,11.3h-1.1c-7.4-0.2-12.6-2.7-14.9-7.1c-0.2-0.3-0.3-0.6-0.4-1
				c-1-2.6-1-5.4,0-8v-4.2l-0.1,0.1C615,469.6,614.6,476,618.2,480.7z"/>
		</g>
		<path class="st35" d="M639.9,453.4"/>
	</g>
</g>
</svg>
