<?xml version="1.0" encoding="utf-8"?>
<!-- Generator: Adobe Illustrator 20.1.0, SVG Export Plug-In . SVG Version: 6.00 Build 0)  -->
<svg version="1.1" id="Layer_1" xmlns="http://www.w3.org/2000/svg" xmlns:xlink="http://www.w3.org/1999/xlink" x="0px" y="0px"
	 viewBox="0 0 1349 600" style="enable-background:new 0 0 1349 600;" xml:space="preserve">
<style type="text/css">
	.st0{fill:url(#SVGID_1_);}
	.st1{fill:#DFE3FE;}
	.st2{display:none;}
	.st3{display:inline;fill:url(#SVGID_2_);}
	.st4{display:inline;fill:#FFFFFF;}
	.st5{display:inline;}
	.st6{fill:#22377C;}
	.st7{display:inline;fill:#FF5E99;}
	.st8{display:inline;fill:#FCD2C5;}
	.st9{display:inline;fill:#552589;}
	.st10{display:inline;fill:#D2DBEB;}
	.st11{display:inline;fill:#22377C;}
	.st12{display:inline;fill:#2D5DEA;}
	.st13{display:inline;fill:#13265B;}
	.st14{display:inline;fill:#BF8DFF;}
	.st15{display:inline;fill:#29004F;}
	.st16{display:inline;fill:#F0F5FF;}
	.st17{display:inline;fill:#3F82C4;}
	.st18{display:inline;fill:#8FAFFF;}
	.st19{display:inline;fill:#9958ED;}
	.st20{display:inline;fill:#E3EEF7;}
	.st21{display:inline;fill:#AFC4D6;}
	.st22{fill:#D5DBE0;}
	.st23{fill:#F0F0F0;}
	.st24{fill:#D2DBEB;}
	.st25{fill:#3D59A8;}
	.st26{fill:#FFFFFF;}
	.st27{fill:#B0B0F7;}
	.st28{fill:#9958ED;}
	.st29{fill:#FF5E99;}
	.st30{fill:url(#SVGID_3_);}
	.st31{fill:url(#SVGID_4_);}
	.st32{fill:url(#SVGID_5_);}
	.st33{fill:#FCD2C5;}
	.st34{fill:#8FAFFF;}
	.st35{fill:#4D3782;}
	.st36{fill:#2D5DEA;}
	.st37{fill:url(#SVGID_6_);}
	.st38{fill:url(#SVGID_7_);}
	.st39{fill:#13265B;}
	.st40{fill:#5836E5;}
</style>
<radialGradient id="SVGID_1_" cx="965.5323" cy="108.9009" r="302.899" gradientTransform="matrix(1.23 0 0 -7.000000e-02 -254.35 509.56)" gradientUnits="userSpaceOnUse">
	<stop  offset="1.000000e-02" style="stop-color:#77D6EC"/>
	<stop  offset="1" style="stop-color:#FFFFFF"/>
</radialGradient>
<ellipse class="st0" cx="934.7" cy="501.4" rx="371.5" ry="17.2"/>
<path class="st1" d="M527.3,0c0,0,21.2,48.8,107.1,61.8s29.9,83.1,49.1,155.6c9.7,36.6,48.3,109,166.7,64.3
	c83.8-31.7,111.3,11.5,113.2,81.4c2.4,89.4,45.5,119.5,153.9,103.7c108.4-15.9,124.4-2.5,140.4,28.5s69.2,28.9,91.3,8.9
	c0-66,0-503.6,0-503.6L527.3,0z"/>
<g class="st2">
	
		<radialGradient id="SVGID_2_" cx="908.2811" cy="574.3105" r="398.3954" gradientTransform="matrix(1 0 0 -7.000000e-02 0 585.79)" gradientUnits="userSpaceOnUse">
		<stop  offset="1.000000e-02" style="stop-color:#77D6EC"/>
		<stop  offset="1" style="stop-color:#FFFFFF"/>
	</radialGradient>
	<ellipse class="st3" cx="908.3" cy="544.7" rx="396.3" ry="18.6"/>
	<rect x="1162" y="539.6" class="st4" width="65.2" height="5.1"/>
	<path class="st4" d="M1211.2,364.9h-29.3c-1.4,0-2.5,1.1-2.5,2.5v29.3c0,1.4,1.1,2.5,2.5,2.5h29.3c1.4,0,2.5-1.1,2.5-2.5v-29.3
		C1213.8,366,1212.6,364.9,1211.2,364.9z M1208.7,394.1h-24.2v-24.2h24.2L1208.7,394.1z"/>
	
		<rect x="1175.9" y="379.2" transform="matrix(0.7071 -0.7071 0.7071 0.7071 80.4675 957.8074)" class="st4" width="41" height="5.1"/>
	<path class="st4" d="M1211.2,451.8h-29.3c-1.4,0-2.5,1.1-2.5,2.5v29.3c0,1.4,1.1,2.5,2.5,2.5h29.3c1.4,0,2.5-1.1,2.5-2.5v-29.3
		C1213.8,452.9,1212.6,451.8,1211.2,451.8z M1208.7,481.1h-24.2v-24.2h24.2L1208.7,481.1z"/>
	
		<rect x="1193.9" y="448.5" transform="matrix(0.7071 -0.7071 0.7071 0.7071 18.7906 983.3517)" class="st4" width="5.1" height="41"/>
	<path class="st4" d="M1211.2,423.4h-29.3c-1.4,0-2.5,1.1-2.5,2.5v28.4c0,1.4,1.1,2.5,2.5,2.5h29.3c1.4,0,2.5-1.1,2.5-2.5v-28.4
		C1213.8,424.5,1212.6,423.4,1211.2,423.4z M1208.7,451.8h-24.2v-23.3h24.2L1208.7,451.8z"/>
	
		<rect x="1175.9" y="437.5" transform="matrix(0.7071 -0.7071 0.7071 0.7071 39.2765 974.8729)" class="st4" width="41" height="5.1"/>
	<path class="st4" d="M1211.2,394.1h-29.3c-1.4,0-2.5,1.1-2.5,2.5V426c0,1.4,1.1,2.5,2.5,2.5h29.3c1.4,0,2.5-1.1,2.5-2.5v-29.3
		C1213.7,395.3,1212.6,394.1,1211.2,394.1z M1208.7,423.4h-24.2v-24.2h24.2L1208.7,423.4z"/>
	
		<rect x="1193.9" y="390.5" transform="matrix(0.7071 -0.7071 0.7071 0.7071 59.7831 966.3736)" class="st4" width="5.1" height="41"/>
	<g class="st5">
		<path class="st6" d="M1211.2,306.3h-29.3c-1.4,0-2.5,1.1-2.5,2.5v29.3c0,1.4,1.1,2.5,2.5,2.5h29.3c1.4,0,2.5-1.1,2.5-2.5v-29.3
			C1213.8,307.4,1212.6,306.3,1211.2,306.3z M1208.7,335.6h-24.2v-24.2h24.2L1208.7,335.6z"/>
		
			<rect x="1175.9" y="320.7" transform="matrix(0.7071 -0.7071 0.7071 0.7071 121.8825 940.6544)" class="st6" width="41" height="5.1"/>
		<path class="st6" d="M1211.2,277h-29.3c-1.4,0-2.5,1.2-2.5,2.6v29.3c0,1.4,1.1,2.5,2.5,2.5h29.3c1.4,0,2.5-1.1,2.5-2.5v-29.3
			C1213.8,278.2,1212.7,277,1211.2,277C1211.3,277,1211.2,277,1211.2,277z M1208.7,306.3h-24.2v-24.2h24.2L1208.7,306.3z"/>
		
			<rect x="1193.9" y="273.7" transform="matrix(0.7071 -0.7071 0.7071 0.7071 142.3951 932.1404)" class="st6" width="5.1" height="41"/>
		<path class="st6" d="M1211.2,335.6h-29.3c-1.4,0-2.5,1.1-2.5,2.5v29.3c0,1.4,1.1,2.5,2.5,2.5h29.3c1.4,0,2.5-1.1,2.5-2.5v-29.3
			C1213.8,336.7,1212.6,335.6,1211.2,335.6z M1208.7,364.9h-24.2v-24.2h24.2L1208.7,364.9z"/>
		
			<rect x="1193.9" y="332.3" transform="matrix(0.7071 -0.7071 0.7071 0.7071 100.9801 949.2935)" class="st6" width="5.1" height="41"/>
		<path class="st6" d="M1211.2,248.6h-29.3c-1.4,0-2.5,1.2-2.5,2.5v28.4c0,1.4,1.1,2.5,2.5,2.5h29.3c1.4,0,2.5-1.1,2.5-2.5v-28.4
			C1213.8,249.8,1212.7,248.6,1211.2,248.6C1211.3,248.6,1211.2,248.6,1211.2,248.6z M1208.7,277h-24.2v-23.3h24.2L1208.7,277z"/>
		
			<rect x="1175.9" y="262.7" transform="matrix(0.707 -0.7072 0.7072 0.707 162.9838 923.8661)" class="st6" width="41" height="5.1"/>
		<path class="st6" d="M1211.2,219.4h-29.3c-1.4,0-2.5,1.2-2.5,2.5v29.3c0,1.4,1.1,2.5,2.5,2.5h29.3c1.4,0,2.5-1.1,2.5-2.5v-29.3
			C1213.8,220.5,1212.7,219.4,1211.2,219.4C1211.3,219.4,1211.2,219.4,1211.2,219.4z M1208.7,248.6h-24.2v-24.2h24.2L1208.7,248.6z"
			/>
		
			<rect x="1193.9" y="215.8" transform="matrix(0.7071 -0.7071 0.7071 0.7071 183.3671 915.1915)" class="st6" width="5.1" height="41"/>
		<path class="st6" d="M1211.2,191h-29.3c-1.4,0-2.5,1.2-2.5,2.5v28.4c0,1.4,1.1,2.5,2.5,2.5h29.3c1.4,0,2.5-1.1,2.5-2.5v-28.4
			C1213.8,192.1,1212.7,191,1211.2,191C1211.3,191,1211.2,191,1211.2,191z M1208.7,219.4h-24.2V196h24.2L1208.7,219.4z"/>
		
			<rect x="1175.9" y="205" transform="matrix(0.7071 -0.7071 0.7071 0.7071 203.6478 906.7753)" class="st6" width="41" height="5.1"/>
		<path class="st6" d="M1211.2,161.7h-29.3c-1.4,0-2.5,1.2-2.5,2.5v29.3c0,1.4,1.1,2.5,2.5,2.5h29.3c1.4,0,2.5-1.1,2.5-2.5v-29.3
			C1213.8,162.8,1212.7,161.7,1211.2,161.7C1211.3,161.7,1211.2,161.7,1211.2,161.7z M1208.7,191h-24.2v-24.2h24.2L1208.7,191z"/>
		
			<rect x="1193.9" y="158.1" transform="matrix(0.7071 -0.7071 0.7071 0.7071 224.1441 898.3008)" class="st6" width="5.1" height="41"/>
		<path class="st6" d="M1211.2,481.1h-29.3c-1.4,0-2.5,1.2-2.5,2.5v29.3c0,1.4,1.1,2.5,2.5,2.5h29.3c1.4,0,2.5-1.1,2.5-2.5v-29.3
			C1213.8,482.2,1212.7,481.1,1211.2,481.1C1211.3,481.1,1211.2,481.1,1211.2,481.1z M1208.7,510.4h-24.2v-24.2h24.2L1208.7,510.4z"
			/>
		
			<rect x="1175.9" y="495.5" transform="matrix(0.7071 -0.7071 0.7071 0.7071 -1.7118 991.8408)" class="st6" width="41" height="5.1"/>
		<path class="st6" d="M1211.2,510.4h-29.3c-1.4,0-2.5,1.2-2.5,2.5v29.3c0,1.4,1.1,2.5,2.5,2.5h29.3c1.4,0,2.5-1.1,2.5-2.5v-29.3
			C1213.8,511.5,1212.7,510.4,1211.2,510.4C1211.3,510.4,1211.2,510.4,1211.2,510.4z M1208.7,539.6h-24.2v-24.2h24.2L1208.7,539.6z"
			/>
		
			<rect x="1193.9" y="507.1" transform="matrix(0.7071 -0.7071 0.7071 0.7071 -22.6141 1000.5004)" class="st6" width="5.1" height="41"/>
		<path class="st6" d="M1211.2,131.6h-29.3c-1.4,0-2.5,1.2-2.5,2.5v29.3c0,1.3,1.1,2.4,2.5,2.5h29.3c1.4,0,2.5-1.1,2.5-2.5v-29.2
			C1213.8,132.8,1212.6,131.6,1211.2,131.6z M1208.7,160.9h-24.2v-24.1h24.2L1208.7,160.9z"/>
		
			<rect x="1175.9" y="146.3" transform="matrix(0.7071 -0.7071 0.7071 0.7071 245.1894 889.5847)" class="st6" width="41" height="5.1"/>
		<path class="st6" d="M1211.2,103.2h-29.3c-1.4,0-2.5,1.2-2.5,2.5v28.4c0,1.4,1.1,2.6,2.5,2.6c0,0,0,0,0,0h29.3
			c1.4,0,2.5-1.1,2.5-2.5v-28.4C1213.8,104.4,1212.6,103.2,1211.2,103.2z M1208.7,131.6h-24.2v-23.3h24.2L1208.7,131.6z"/>
		
			<rect x="1193.9" y="99.3" transform="matrix(0.7071 -0.7071 0.7071 0.7071 265.6857 881.0895)" class="st6" width="5.1" height="41"/>
		<path class="st6" d="M1181.9,131.6h-29.3c-1.4,0-2.5,1.1-2.5,2.5v29.3c0,1.4,1.2,2.5,2.5,2.5h29.3c1.4,0,2.5-1.1,2.5-2.5v-29.2
			C1184.5,132.8,1183.3,131.6,1181.9,131.6z M1179.5,160.9h-24.3v-24.1h24.3V160.9z"/>
		
			<rect x="1164.9" y="128.3" transform="matrix(0.7071 -0.7071 0.7071 0.7071 236.7004 869.0823)" class="st6" width="5.1" height="41"/>
		<path class="st6" d="M1152.7,131.6h-28.4c-1.4,0-2.5,1.1-2.5,2.5v29.3c0,1.4,1.2,2.5,2.5,2.5h28.4c1.4,0,2.5-1.1,2.5-2.5v-29.2
			C1155.2,132.8,1154.1,131.6,1152.7,131.6C1152.7,131.6,1152.7,131.6,1152.7,131.6z M1150.1,160.9h-23.3v-24.1h23.3V160.9z"/>
		
			<rect x="1117.9" y="146.3" transform="matrix(0.7071 -0.7071 0.7071 0.7071 228.201 848.5963)" class="st6" width="41" height="5.1"/>
		<path class="st6" d="M1124.3,131.6h-29.3c-1.4,0-2.5,1.1-2.5,2.5v29.3c0,1.4,1.2,2.5,2.5,2.5h29.3c1.4,0,2.5-1.1,2.5-2.5v-29.2
			C1126.8,132.8,1125.7,131.7,1124.3,131.6z M1121.8,160.9h-24.2v-24.1h24.2V160.9z"/>
		
			<rect x="1106.9" y="128.3" transform="matrix(0.7071 -0.7071 0.7071 0.7071 219.7223 828.0898)" class="st6" width="5.1" height="41"/>
		<path class="st6" d="M1232.2,131.6h-21c-1.4,0-2.5,1.1-2.5,2.5v29.3c0,1.4,1.2,2.5,2.5,2.5h21c9.4,0,17-7.6,17-17v-0.3
			C1249.2,139.2,1241.6,131.7,1232.2,131.6z M1244.2,148.9c0,6.6-5.4,12-12,12h-18.5v-24.1h18.5c6.6,0,12,5.4,12,12V148.9z"/>
		<rect x="1058.2" y="160.9" class="st6" width="123.3" height="5.1"/>
		<path class="st6" d="M1096.4,132c-0.8-0.5-1.7-0.5-2.5-0.1l-27.5,14.1c-0.8,0.4-1.4,1.3-1.4,2.3v14.6c0,1.4,1.1,2.5,2.5,2.5h27.4
			c1.4,0,2.5-1.1,2.5-2.5v-28.7C1097.5,133.3,1097.1,132.5,1096.4,132z M1092.5,160.4H1070v-10.5l22.4-11.5L1092.5,160.4z"/>
		<rect x="1096.1" y="160.8" class="st6" width="2.9" height="67.2"/>
	</g>
	<path class="st7" d="M1085.9,225.5h23.3c3.2,0,5.8,2.6,5.8,5.8v23.3c0,3.2-2.6,5.8-5.8,5.8h-23.3c-3.2,0-5.8-2.6-5.8-5.8v-23.3
		C1080.1,228.1,1082.7,225.5,1085.9,225.5z"/>
	<path class="st8" d="M1186,386.5c-0.6-0.2-1.3-0.5-1.4,0.3c-0.1,0.5,2.1,1.5,2.7,1.5c1.3-0.6,0.9-1.3,2.2-1.6
		C1188.3,386.8,1187.1,386.8,1186,386.5z"/>
	<path class="st8" d="M1190.4,386.4c-1.3,0.4-2.6,0.9-3.8,1.5c-1.5,0.6-4.7,2.5-4.9,2.6c-0.9,0.5-1.9,1-2.7,1.7
		c-0.3,0.5-0.5,1.2-0.5,1.8c0.1,0.4,0.4,0.6,0.8,0.7c0,0.8,2,0.4,1.9,0.6c-0.2,0.8,0.9,1.3,3.4-0.2c0.1-0.1,6.9-2.6,9-3.5
		C1192.7,389.6,1191.7,387.9,1190.4,386.4z"/>
	<path class="st8" d="M1224.1,362.9c-0.4,0.1-0.9,0.2-1.2,0.5c-6,3.5-26,20.5-32.8,23.2c1.1,1.6,2.1,3.3,2.8,5.2
		c11.2-4.6,37.7-19.4,37.1-24.2C1229.5,363.1,1226.2,362.4,1224.1,362.9z"/>
	<path class="st8" d="M1231.2,326.5c-2.7,5.8-6.3,26.3-10,35.8c-4.4,11.7,5.3,10.6,7.7,7.5c6.5-8.1,20.5-33.5,16.7-37.3
		C1244,330.7,1231.7,325.4,1231.2,326.5z"/>
	<path class="st9" d="M1231.1,324.9c-0.5,0.1-1,0.4-1.2,0.9c-1.5,3-3,9.7-4.7,16.8c-1.7,7.1-5.8,20.7-6,21.4
		c-2.4,1.7-25.6,19.5-29.6,21.1l3.8,7.9c9.8-4.1,31.8-16,36.8-22.5c5.3-6.6,21.8-34,16.5-39.2
		C1244.9,329.6,1233.4,324.4,1231.1,324.9z"/>
	<rect x="1097.9" y="369.6" class="st10" width="145.5" height="126.6"/>
	<rect x="1097.9" y="358.1" class="st11" width="145.5" height="16.2"/>
	<rect x="1110.5" y="382.4" class="st4" width="119.4" height="98.7"/>
	<rect x="1140.4" y="388.8" class="st10" width="85" height="46.2"/>
	<rect x="1144.1" y="462.8" class="st10" width="17.6" height="2.3"/>
	<rect x="1170.5" y="462.8" class="st10" width="38.6" height="2.3"/>
	<rect x="1213.6" y="462.8" class="st10" width="8" height="2.3"/>
	<rect x="1195.1" y="466.5" class="st10" width="26.6" height="2.3"/>
	<rect x="1144.1" y="466.5" class="st10" width="6.4" height="2.3"/>
	<rect x="1153.7" y="466.5" class="st10" width="35.1" height="2.3"/>
	<rect x="1144.1" y="470.1" class="st10" width="21.1" height="2.3"/>
	<rect x="1169.5" y="470.1" class="st10" width="52.1" height="2.3"/>
	<rect x="1144.1" y="443" class="st10" width="17.6" height="2.3"/>
	<rect x="1170.5" y="443" class="st10" width="38.6" height="2.3"/>
	<rect x="1213.6" y="443" class="st10" width="8" height="2.3"/>
	<rect x="1195.1" y="446.6" class="st10" width="26.6" height="2.3"/>
	<rect x="1144.1" y="446.6" class="st10" width="6.4" height="2.3"/>
	<rect x="1153.7" y="446.6" class="st10" width="35.1" height="2.3"/>
	<rect x="1144.1" y="450.2" class="st10" width="21.1" height="2.3"/>
	<rect x="1169.5" y="450.2" class="st10" width="52.1" height="2.3"/>
	<rect x="1115.9" y="389.1" class="st10" width="18.7" height="3.6"/>
	<rect x="1115.9" y="399.1" class="st10" width="18.7" height="3.6"/>
	<rect x="1115.9" y="409" class="st10" width="18.7" height="3.6"/>
	<rect x="1115.9" y="419" class="st10" width="18.7" height="3.6"/>
	<rect x="1115.9" y="428.9" class="st10" width="18.7" height="3.6"/>
	<rect x="1115.9" y="438.9" class="st10" width="18.7" height="3.6"/>
	<rect x="1115.9" y="448.9" class="st10" width="18.7" height="3.6"/>
	<rect x="1115.9" y="458.9" class="st10" width="18.7" height="3.6"/>
	<rect x="1115.9" y="468.8" class="st10" width="18.7" height="3.6"/>
	<circle class="st4" cx="1235.4" cy="369.4" r="1.7"/>
	<circle class="st4" cx="1228.4" cy="369.4" r="1.7"/>
	<path class="st12" d="M1190.5,396.7h-15.3c-7.9,0-14,7.2-14.1,15.1c0,7.9,6.2,14.8,14.1,14.8h15.3c8.2-0.3,14.7-7.2,14.5-15.4
		C1204.8,403.3,1198.4,397,1190.5,396.7z"/>
	<path class="st12" d="M1161.2,411.9C1161.2,411.9,1161.2,411.9,1161.2,411.9c0-0.1,0-0.1,0-0.1V411.9z"/>
	<polygon class="st4" points="1178,420.4 1192.2,412.2 1178,404 	"/>
	<path class="st13" d="M1259,536.1l-4.5-2.5c0,0-1,1.5-1.8,2.4c-1.5,1.8-8.9,3.1-8.9,5.7c0,1.3,2.7,2.5,5,2.6
		c1.8,0.1,3.7-0.2,5.4-0.7c1.3-0.4,4.4-1.7,4.8-2.5c0.5-0.9,0.5-2,0.2-3C1259.3,536.6,1259,536.1,1259,536.1z"/>
	<path class="st8" d="M1253.1,533.4c0.4,0.9,0.2,1.9-0.5,2.6c0.7,1,1.6,1.9,2.6,2.5c1,0.5,3.8-0.5,3.8-0.5c0.1-1.2,0.2-2.3,0.1-3.5
		L1253.1,533.4z"/>
	<path class="st14" d="M1241.6,385c-1.8,28.3-1.7,56.8,0.3,85.1c2,21.7,5.7,43.2,11.3,64.3c0,0.2,4.5,2.6,6.7,0.2
		c0,0-3.5-33.1,0.9-64.3c3.8-27,9.1-52.5,11.2-54.2v-28.6C1261.1,388.2,1245.2,386.6,1241.6,385z"/>
	<path class="st13" d="M1293.4,536.4l-4.7-2.2c0,0-0.9,1.5-1.6,2.5c-1.5,1.9-8.6,3.8-8.4,6.4c0.1,1.3,2.9,2.2,5.2,2.2
		c1.8,0.1,3.7-0.3,5.3-1.2c1.5-1,4.2-2,4.6-2.8c0.4-1,0.4-2.1,0-3C1293.8,536.9,1293.4,536.4,1293.4,536.4z"/>
	<path class="st8" d="M1287.7,534.1c0.2,1,0,2-0.6,2.7c0.7,1,1.7,1.8,2.8,2.3c1,0.5,3.8-0.8,3.8-0.8c0.1-1.5,0-3.6,0-3.6
		L1287.7,534.1z"/>
	<path class="st14" d="M1294.8,387.3c-10.9,1.6-26.8,1.2-30.6-0.1c0.4,28.5,2.8,57,7.1,85.1c3.6,21.4,9.1,42.4,16.2,62.9
		c0.1,0.2,4.7,2.3,6.7-0.3c0,0-6.1-32.7-4.1-64.2C1291.8,443.5,1294.8,387.3,1294.8,387.3z"/>
	<path class="st8" d="M1239.9,307.6c0.1,0.6,2.4,7,1.5,10.7c1,3.2,10.2,2.1,11.9-3.8c-1.2-1.5-3.2-9.7-3.1-12.8
		C1249.5,302.3,1242.2,307.6,1239.9,307.6z"/>
	<path class="st8" d="M1240.6,291.8c-4.2,0.2-8,1.7-8.4,5.7c-0.1,1.5,2.1,13.9,9,15c2.9,0.4,7.8-5.1,7.6-8.4l-0.3-4.6
		C1248.2,295,1245,291.5,1240.6,291.8z"/>
	<path class="st9" d="M1262.9,315.7c-2.3-0.6-9.5-1.3-9.5-1.3s-4.4,4.9-7.5,5.5c-2.2,0.4-4.4-1.7-4.4-1.7s-7.7,3.4-9,4.5
		c-5.2,4-2.4,11.1-1.6,17.3c0.5,3.6,9.5,36.4,7.5,68.5c14.4,5.8,28.3,9.8,47.8-0.7l-1.3-20.7l6.4,19.3c1.3-0.3,4-0.6,5.1-0.8
		C1296.3,345.6,1283.7,321.2,1262.9,315.7z"/>
	<path class="st14" d="M1253.3,314.4c0,0-4.4,4.9-7.5,5.5c-2.2,0.4-4.4-1.7-4.4-1.7s-7.2,3.2-8.8,4.4c1.3,6.5,9.6,12.3,9.6,12.3
		s12.3-13.7,20.7-19.3c-1.5-0.5-3.1-0.8-4.7-0.9L1253.3,314.4z"/>
	<path class="st15" d="M1249.3,284.2c-8.7-6.9-22.9,1-22.7,9.9c0,2,2.2,6.5,20.2,1.5c2.4,3,3.7,10,3.7,10
		C1255.7,300.2,1256,289.4,1249.3,284.2z"/>
	<path class="st8" d="M1249,297.6c-0.7,0-1.3,0.1-1.9,0.4c0.3,1.8,0.8,3.5,1.3,5.3c1.3-0.4,2.3-1.5,2.6-2.8
		C1251.1,299.3,1250.1,297.7,1249,297.6z"/>
	<path class="st8" d="M1195.8,367.4c-0.3,0.5,1.5,2.1,2.1,2.2c1.4-0.1,1.3-0.9,2.6-0.8c-1.2-0.3-2.3-0.7-3.3-1.3
		C1196.6,367.1,1196.1,366.6,1195.8,367.4z"/>
	<path class="st8" d="M1197.3,368.9c-1.6,0.1-5.2,0.8-5.5,0.9c-1.1,0.2-2.1,0.4-3.1,0.7c-0.5,0.4-0.9,0.9-1,1.5
		c0,0.4,0.2,0.7,0.6,0.9c-0.2,0.8,1.7,1,1.7,1.2c-0.4,0.7,0.4,1.5,3.2,0.9c0.2,0,7.4-0.1,9.7-0.4c-0.3-2-0.8-3.9-1.5-5.7
		C1200,368.7,1198.7,368.7,1197.3,368.9z"/>
	<path class="st9" d="M1259.8,323.9c-0.5-0.1-1.1,0.1-1.5,0.5c-2.3,2.4-6,8.2-9.9,14.3c-3.4,5.6-7.2,11.1-11.2,16.4
		c-0.5,0.6-1,1.3-1.5,2c-2.9,0.8-6.7,2.1-10.8,3.5c-8.8,2.9-19.8,6.6-24.1,6.8l1.1,8.7c10.6-0.7,35.3-4.8,42.1-9.3
		c7.2-4.5,31.6-25.1,28.4-31.7C1271.4,332.8,1262.3,324.2,1259.8,323.9z"/>
	<path class="st12" d="M555.7,441.4c-0.5,2.4,0.2,5.3-0.2,7.8c-0.5,3.1-2.5,4-3.9,6c-1.7,3.2-2.4,6.8-1.8,10.4
		c0.5,2.2,1.1,4.3,1.8,6.4c0.7,2.2,0.9,4.6,0.5,6.9c-0.8,3.3-4.8,5.9-4.8,20c0,12.9,9.2,17.9,11.8,21v-83.4l-1.2,1.1
		C556.8,438.6,556,439.9,555.7,441.4z"/>
	<path class="st12" d="M566.5,472c0.7-2.1,1.3-4.2,1.7-6.4c0.6-3.6,0-7.3-1.7-10.4c-1.3-2-3.3-2.9-3.9-6c-0.4-2.5,0.3-5.4-0.2-7.8
		c-0.3-1.4-1.1-2.7-2.2-3.7l-1.2-1.1v83.4c2.6-3.1,11.8-8.2,11.8-21c0-14.1-4-16.7-4.8-20C565.6,476.6,565.8,474.2,566.5,472z"/>
	<path class="st10" d="M571.1,487.8c-0.7,0.9-0.4,2.3-1,3.3c-0.8,1.2-2.5,1.2-3.9,1.7c-1.6,0.7-2.6,2.3-2.6,4c0.1,1,0.4,2.1,0.7,3.1
		c0.3,1,0.2,2.1-0.4,3c-1,1.2-4.6,1.5-6.2,7.4c-1.5,5.4,5.6,9.5,7.5,11.4l9.2-35.1l-1.1,0.2C572.5,486.8,571.7,487.2,571.1,487.8z"
		/>
	<path class="st10" d="M575.9,492.5c-0.1-1.2,0.9-2.2,0.7-3.3c-0.2-0.8-0.7-1.5-1.5-2l-0.8-0.7l-9.2,35.2c2.5-0.8,10.7-0.9,12.1-6.3
		c1.5-5.9-1.5-7.9-1.8-9.5c-0.1-1.1,0.4-2.1,1.2-2.8c0.8-0.7,1.5-1.5,2.1-2.3c0.9-1.5,0.8-3.4-0.3-4.8
		C577.6,494.8,576,494,575.9,492.5z"/>
	<path class="st4" d="M544,517.8c0,0,5.7,6.1,5.7,10.2c-0.1,1.6-0.4,3.2-1,4.7c-1.6,4.9,1.1,10.1,6,11.7c0.9,0.3,1.9,0.4,2.8,0.4
		h15.1c5.1,0,9.3-4.2,9.3-9.3c0-0.9-0.1-1.9-0.4-2.8c-0.5-1.5-0.9-3.1-1-4.7c0-4.1,5.7-10.2,5.7-10.2L544,517.8z"/>
	<path class="st11" d="M924.3,192.8h128.9c18.1,0,32.7,14.6,32.7,32.7l0,0V512c0,18.1-14.6,32.7-32.7,32.7h0H924.3
		c-18.1,0-32.7-14.6-32.7-32.7v0V225.5C891.6,207.4,906.3,192.8,924.3,192.8L924.3,192.8z"/>
	<path class="st16" d="M1053.2,200H924c-14.1,0-25.5,11.4-25.5,25.5v286.7c0,14.3,11.6,25.8,25.9,25.9h128.9
		c14.3,0,25.9-11.6,25.9-25.9V225.9C1079.1,211.6,1067.5,200,1053.2,200z"/>
	<path class="st11" d="M940.7,205.4c0,9.5,7.7,17.1,17.1,17.1l0,0h62c9.5,0,17.1-7.7,17.1-17.1v0v-6.9h-96.3V205.4z"/>
	<path class="st10" d="M970.5,209.7h36.7c1.3,0,2.4,1.1,2.4,2.4v0c0,1.3-1.1,2.4-2.4,2.4h-36.7c-1.3,0-2.4-1.1-2.4-2.4v0
		C968.1,210.8,969.2,209.7,970.5,209.7z"/>
	<circle class="st10" cx="988.8" cy="202.9" r="2.8"/>
	<path class="st17" d="M1039.8,463.2h23.3c3.2,0,5.8,2.6,5.8,5.8v23.3c0,3.2-2.6,5.8-5.8,5.8h-23.3c-3.2,0-5.8-2.6-5.8-5.8v-23.3
		C1034.1,465.8,1036.7,463.2,1039.8,463.2z"/>
	<path class="st7" d="M998.1,463.2h23.3c3.2,0,5.8,2.6,5.8,5.8v23.3c0,3.2-2.6,5.8-5.8,5.8h-23.3c-3.2,0-5.8-2.6-5.8-5.8v-23.3
		C992.3,465.8,994.9,463.2,998.1,463.2z"/>
	<path class="st12" d="M956.3,463.2h23.3c3.2,0,5.8,2.6,5.8,5.8v23.3c0,3.2-2.6,5.8-5.8,5.8h-23.3c-3.2,0-5.8-2.6-5.8-5.8v-23.3
		C950.5,465.8,953.1,463.2,956.3,463.2z"/>
	<path class="st12" d="M914.5,463.2h23.3c3.2,0,5.8,2.6,5.8,5.8v23.3c0,3.2-2.6,5.8-5.8,5.8h-23.3c-3.2,0-5.8-2.6-5.8-5.8v-23.3
		C908.7,465.8,911.3,463.2,914.5,463.2z"/>
	<path class="st17" d="M1039.8,250.1h23.3c3.2,0,5.8,2.6,5.8,5.8v23.3c0,3.2-2.6,5.8-5.8,5.8h-23.3c-3.2,0-5.8-2.6-5.8-5.8v-23.3
		C1034.1,252.6,1036.7,250.1,1039.8,250.1z"/>
	<path class="st10" d="M998.1,250.1h23.3c3.2,0,5.8,2.6,5.8,5.8v23.3c0,3.2-2.6,5.8-5.8,5.8h-23.3c-3.2,0-5.8-2.6-5.8-5.8v-23.3
		C992.3,252.6,994.9,250.1,998.1,250.1z"/>
	<path class="st12" d="M956.3,250.1h23.3c3.2,0,5.8,2.6,5.8,5.8v23.3c0,3.2-2.6,5.8-5.8,5.8h-23.3c-3.2,0-5.8-2.6-5.8-5.8v-23.3
		C950.5,252.6,953.1,250.1,956.3,250.1z"/>
	<path class="st10" d="M914.5,250.1h23.3c3.2,0,5.8,2.6,5.8,5.8v23.3c0,3.2-2.6,5.8-5.8,5.8h-23.3c-3.2,0-5.8-2.6-5.8-5.8v-23.3
		C908.7,252.6,911.3,250.1,914.5,250.1z"/>
	<path class="st7" d="M956.3,295.1h23.3c3.2,0,5.8,2.6,5.8,5.8v23.3c0,3.2-2.6,5.8-5.8,5.8h-23.3c-3.2,0-5.8-2.6-5.8-5.8v-23.3
		C950.5,297.7,953.1,295.1,956.3,295.1z"/>
	<path class="st12" d="M998.1,295.1h23.3c3.2,0,5.8,2.6,5.8,5.8v23.3c0,3.2-2.6,5.8-5.8,5.8h-23.3c-3.2,0-5.8-2.6-5.8-5.8v-23.3
		C992.3,297.7,994.9,295.1,998.1,295.1z"/>
	<path class="st12" d="M914.5,295.1h23.3c3.2,0,5.8,2.6,5.8,5.8v23.3c0,3.2-2.6,5.8-5.8,5.8h-23.3c-3.2,0-5.8-2.6-5.8-5.8v-23.3
		C908.7,297.7,911.3,295.1,914.5,295.1z"/>
	<path class="st7" d="M1039.8,339.9h23.3c3.2,0,5.8,2.6,5.8,5.8V369c0,3.2-2.6,5.8-5.8,5.8h-23.3c-3.2,0-5.8-2.6-5.8-5.8v-23.3
		C1034.1,342.5,1036.7,339.9,1039.8,339.9z"/>
	<path class="st12" d="M956.3,339.9h23.3c3.2,0,5.8,2.6,5.8,5.8V369c0,3.2-2.6,5.8-5.8,5.8h-23.3c-3.2,0-5.8-2.6-5.8-5.8v-23.3
		C950.5,342.5,953.1,339.9,956.3,339.9z"/>
	<path class="st17" d="M914.5,339.9h23.3c3.2,0,5.8,2.6,5.8,5.8V369c0,3.2-2.6,5.8-5.8,5.8h-23.3c-3.2,0-5.8-2.6-5.8-5.8v-23.3
		C908.7,342.5,911.3,339.9,914.5,339.9z"/>
	<path class="st17" d="M914.5,385h23.3c3.2,0,5.8,2.6,5.8,5.8V414c0,3.2-2.6,5.8-5.8,5.8h-23.3c-3.2,0-5.8-2.6-5.8-5.8v-23.3
		C908.7,387.6,911.3,385,914.5,385z"/>
	<path class="st17" d="M956.3,385h23.3c3.2,0,5.8,2.6,5.8,5.8V414c0,3.2-2.6,5.8-5.8,5.8h-23.3c-3.2,0-5.8-2.6-5.8-5.8v-23.3
		C950.5,387.6,953.1,385,956.3,385z"/>
	<path class="st8" d="M1105.3,253.5c-0.5-0.3-2.9-0.3-3,0.2c-0.3,0.8,0.5,0.8,1.1,0.9c1.1,0.3,2.2,0.7,3.3,1.3
		C1105.6,255.1,1106.2,254.6,1105.3,253.5z"/>
	<path class="st8" d="M1105.5,246.5c-1.6-2.4-2.8-2.4-2.9-1.6c0,0.2-1.7-1-2-0.3c-0.4-0.1-0.8,0-1,0.3c-0.3,0.6-0.4,1.2-0.3,1.8
		c0.5,0.9,1.1,1.8,1.8,2.6c0.1,0.2,2.3,3.2,3.4,4.4c0.9,1,1.9,2,2.9,2.9c1.8-0.9,3.4-2,5-3.2
		C1110.8,251.7,1105.6,246.6,1105.5,246.5z"/>
	<path class="st18" d="M1112.7,251.7l-6.8,5.6c2.9,3.1,8.5,13.3,12.9,21.5c2,3.8,3.9,7.3,5.4,9.9c-0.1,0.8-0.2,1.6-0.3,2.4
		c-0.3,5-1.3,22.4-7.5,26.1c-0.5,0.3,13.9,30.6,13.9,30.6s12.5-42.3,6.7-60.5C1134.5,279.6,1120,259.5,1112.7,251.7z"/>
	<path class="st8" d="M1112.4,446.2c0.1,3.9,16.4,86.5,16.4,86.5c1.9,0.2,3.9-0.5,5.3-1.8c0,0-3.8-82.2-3.8-83.9
		C1129,448.6,1114.8,447.7,1112.4,446.2z"/>
	<path class="st12" d="M1100.8,387.9l2.9,28.4c2.3,1.5,4.4,26.9,11,53.4c7.7,30.6,13.1,60.4,13.1,60.4c1.8-1.8,4.5-2.1,6.6-0.9
		c0,0-2.2-141.2-3.7-146.9C1127.5,384.3,1111.8,387.5,1100.8,387.9z"/>
	<path class="st10" d="M1135.2,530.7c-0.4-0.4-0.8-0.8-1.2-1.3c0,0-4.2-1-5.5,2.1c0,0,0,3.6,1,4.9c1.5,1.9,3.3,3.5,5.3,4.9
		c1.8,0.5,3.6,0.6,5.4,0.2c2.2-0.3,4.8-1.8,4.7-3.1C1144.7,535.8,1136.9,532.4,1135.2,530.7z"/>
	<path class="st12" d="M1134.5,534c-1.9-1.3-5,0.9-2.9,3.9c1.1,1.4,2.4,2.5,3.8,3.5c1.3,0.4,2.6,0.4,3.9,0.1
		c1.6-0.2,3.5-1.3,3.4-2.2C1142.6,537.4,1136.5,535.3,1134.5,534z"/>
	<path class="st8" d="M1023.1,281.8c0-0.6,0.3-1.3-0.5-1.3c-0.6,0-1.2,2.3-1.1,2.9c0.7,1.2,1.5,0.7,1.9,2
		C1023.2,284.2,1023.1,283,1023.1,281.8z"/>
	<path class="st8" d="M1018.7,278.1c-0.6-0.9-1.3-1.7-2-2.5c-0.6-0.3-1.2-0.3-1.9-0.2c-0.3,0.2-0.6,0.5-0.5,0.9
		c-0.8,0.1-0.1,2-0.3,2c-0.8,0-1.1,1.1,0.7,3.3c0.1,0.1,3.5,6.5,4.7,8.5c1.6-1.1,3.1-2.4,4.5-3.8c-0.6-1.2-1.2-2.5-1.9-3.6
		C1021.1,281.2,1018.9,278.3,1018.7,278.1z"/>
	<path class="st8" d="M1051.2,315.2c-4.4-5.5-23.8-22.9-27.4-29.3c-1.4,1.3-3,2.5-4.8,3.4c6.1,10.4,24.3,34.7,29,33.5
		c4.3-1.1,4.6-4.4,3.8-6.4C1051.7,315.9,1051.5,315.5,1051.2,315.2z"/>
	<path class="st8" d="M1052,313.4c-12.1-2.8-9.7,6.7-6.3,8.7c8.9,5.3,36,15.8,39.3,11.4c1.5-1.9,5-14.8,3.9-15.1
		C1082.7,316.5,1061.9,315.7,1052,313.4z"/>
	<path class="st18" d="M1072,314.6c-6.6-0.5-13.1-1.4-19.6-2.6c-0.8-0.2-1.6-0.3-2.4-0.4c-2.1-2.2-4.9-5-8-8
		c-6.6-6.6-14.9-14.7-17-18.4l-7.3,4.9c5.4,9.2,20.2,29.3,27.3,33.4c7.3,4.4,26.5,13,33.9,16.1c2.3,1,14.2-23.9,13.6-23.8
		C1087.1,316.7,1079.2,315.3,1072,314.6z"/>
	<path class="st8" d="M1083.1,449.8c0.1,1.7,4.9,83.8,4.9,83.8c1.6,1.1,3.5,1.6,5.5,1.2c0,0,7.7-83.8,7.4-87.7
		C1098.6,448.8,1084.5,451.2,1083.1,449.8z"/>
	<path class="st12" d="M1075.8,385.4c-0.8,5.8,11.6,146.5,11.6,146.5c2-1.5,4.8-1.4,6.7,0.2c0,0,2.3-30.2,6.7-61.4
		c3.8-27,3.3-52.5,5.4-54.2v-28.6C1095.3,388.7,1079.4,387,1075.8,385.4z"/>
	<path class="st10" d="M1115.3,391.7c-11,0.3-21.9,0.1-32.8-0.7c-2.5-0.1-5-0.3-7.4-0.5c-0.4,8.8-0.4,17.6,0.1,26.4
		c1,0,8.9,0.5,8.9,0.5c13.8,1.1,34.7,4.2,44,1.9c1.7-0.4,6.2-2,6.4-2.5c0.8-9.5,0.7-19.1-0.1-28.6
		C1128.3,390.2,1121.9,391.4,1115.3,391.7z"/>
	<path class="st8" d="M1109.5,304.1c-2.2,0.5-10.4-3.3-11.2-3.8c0.7,3,0.4,11.5-0.5,13.2c2.9,5.4,12.1,4.7,12.4,1.4
		C1108.5,311.4,1109.5,304.7,1109.5,304.1z"/>
	<path class="st8" d="M1105.8,288.7c-4.4,0.6-6.8,4.7-6.2,9.1l0.6,4.5c0.5,3.3,6.3,7.8,9.1,6.8c6.6-2.4,6.3-15.1,5.8-16.5
		C1114,288.8,1109.9,288.2,1105.8,288.7z"/>
	<path class="st18" d="M1120.6,310.9c-4.4,6.4-10.4,3.9-10.4,3.9c-2.1,1-4.4,1.3-6.6,1c-4.3-0.6-5.8-2.4-5.8-2.4s-6.8,2.4-9.1,3.1
		c-6.9,2.2-8.7,7.7-8.6,13.8c0,1.5-7,49.2-4.8,80.7c1,0,2.2,0,3.6,0.1l2.4-20.2l2.9,20.5c13.8,1.1,34.6,3.5,44,1.9l1.7-18.3
		l1.6,17.3c0.7-0.4,2.9-1,3.1-1.6c2.9-28.6-6.4-77.1-7.6-80.5C1125.4,326.1,1124.4,305.5,1120.6,310.9z"/>
	<path class="st10" d="M1087.9,532.1c-0.3,0.5-0.7,1-1.1,1.5c-1.5,1.8-8.9,6-8.9,8.6c0,1.3,2.7,2.5,5,2.6c1.8,0.2,3.7,0,5.4-0.7
		c1.9-1.5,3.5-3.4,4.8-5.4c0.8-1.5,0.5-5,0.5-5C1092,530.7,1087.9,532.1,1087.9,532.1z"/>
	<path class="st12" d="M1087.9,536.3c-1.9,1.6-8.1,4.5-8.1,6.5c0,1,2.1,1.9,3.8,1.9c1.4,0.2,2.8,0,4.1-0.6c1.4-1.2,2.6-2.5,3.6-4.1
		C1093.2,536.7,1089.7,534.7,1087.9,536.3z"/>
	<path class="st11" d="M1117.5,289.3c-3.4-6.4-14.6-10.5-20.7-5c-5.4,4.9-4,12.9-0.1,18c2,2.6-1.5,2.3-1.5,2.3
		c1.7,1.7,3.8,2.9,6.1,3.6c10.8,2.7,16.5-11.9,16.5-11.9s-4.4-1-3-1c6.4,0,7.6-2.9,6.7-6.2C1121.7,290.5,1120,294.2,1117.5,289.3z"
		/>
	<path class="st8" d="M935.2,413.5c-1.2,0-2.4-0.2-3.5-0.5c1.2,0.6,0.7,1.3,1.9,2c0.5,0.2,2.9-0.4,2.9-0.9
		C936.6,413.2,935.9,413.4,935.2,413.5z"/>
	<path class="st8" d="M938.7,418c-0.2-0.2-3-2.6-4.4-3.5c-1.1-0.8-2.3-1.5-3.5-2.1c-1.5,1.3-2.9,2.7-4.1,4.3c1.9,1.3,8.1,5,8.2,5.1
		c2.1,1.9,3.3,1.7,3.3,0.8c0-0.2,1.9,0.6,2-0.2c0.4,0,0.7-0.2,0.9-0.5c0.1-0.6,0.1-1.3-0.1-1.9C940.3,419.4,939.6,418.7,938.7,418z"
		/>
	<path class="st8" d="M902.1,346c-0.3-1.1-13.4,1.8-15.3,3.1c-4.5,3,4.5,30.6,9.4,39.8c1.9,3.5,11.2,6.4,9-5.8
		C903.4,373.1,903.6,352.3,902.1,346z"/>
	<path class="st8" d="M903.4,383.8c-0.3-0.3-0.7-0.5-1.1-0.7c-2-0.8-5.3-0.7-6.6,3.5c-1.5,4.6,21.9,24,32,30.7
		c1-1.7,2.3-3.2,3.7-4.6C925,408.8,908.6,388.4,903.4,383.8z"/>
	<path class="st19" d="M913.4,392.9c-2.7-3.1-5.3-6.1-7.3-8.3c0-0.8-0.1-1.6-0.3-2.4c-0.8-6.4-1.2-12.8-1.3-19.3
		c-0.2-7.1-0.5-13.8-1.2-16.9c-0.1-0.5-0.5-0.9-1-1.1c-2.2-1-14.1,1.8-16.1,3.1c-6,3.9,4.4,33.3,8.1,40.6
		c3.5,7.2,22.2,22.9,30.7,28.7l5.2-6.8C926.7,408.3,919.3,399.7,913.4,392.9z"/>
	<path class="st10" d="M979,327.3l-11.8,27.3c-1,2-3.4,2.9-5.5,2l-22.2-9.6c-1.8-0.8-2.7-3-1.9-4.8c0-0.1,0.1-0.2,0.1-0.2l11.7-27.1
		v-0.8c-11.7,0.1-19.1,8-23.8,18.9c-4.7,10.9-2.6,24.6,4.5,33.9l-69,159.2c-2.9,6.8-1,14.7,5.8,17.7l0.2,0.1c7,2.9,15-0.4,18-7.3
		l69.1-159.3c12-1.4,22.4-9,27.5-20c4.7-10.9,5.1-21.9-2.8-30.5C978.9,326.8,979.1,327.1,979,327.3z M876.8,534.5
		c-1.1,2.7-4.2,3.9-6.9,2.7s-3.9-4.2-2.7-6.9c1.1-2.7,4.2-3.9,6.9-2.7c0,0,0,0,0,0C876.7,528.8,877.9,531.8,876.8,534.5z"/>
	<path class="st9" d="M794.3,531.3c0.3-1.2,1-2.8,1-2.8l-4.7-2.3c0,0-0.6,0-1.7,1c-1,0.3-1.9,0.9-2.4,1.9c-0.4,0.8,0.6,3.6,0.7,5.3
		c0.4,1.8,1.2,3.5,2.5,4.8c1.4,1.8,3.9,3.4,4.9,2.6C796.8,540.5,793.6,533.6,794.3,531.3z"/>
	<path class="st8" d="M788.9,527.2c0,0,0.8,2.9,1.8,3.4c1.1,0.5,2.3,0.8,3.6,0.7c0.3-1,0.7-2,1.3-2.9l-4.9-2.9
		C790.7,525.5,789.9,526.2,788.9,527.2z"/>
	<path class="st9" d="M832.5,395.5c-6.2,18.3-8.7,51.7-11.7,77.9c-1.3,11.7-31.6,53.5-31.6,53.5c1.2,1.9,3.4,3,5.6,2.8
		c0,0,39.2-34.9,45.4-52.2c13-36.7,20.7-75.1,20.9-78.1C857.3,400.1,843.1,398.5,832.5,395.5z"/>
	<path class="st8" d="M857.4,447.1c-0.3,3.9,7.4,90.7,7.4,90.7c1.9,0.4,3.9-0.1,5.5-1.2c0,0,4.8-85,4.9-86.7
		C873.7,451.2,859.6,448.8,857.4,447.1z"/>
	<path class="st9" d="M871.4,536.4c-0.8-0.9-1.8-2.4-1.8-2.4l-4.5,2.5c0,0-0.4,0.5-0.1,1.9c-0.4,1-0.3,2.1,0.2,3
		c0.5,0.8,3.5,2,4.8,2.5c1.7,0.6,3.6,0.8,5.4,0.7c2.2-0.1,5-1.3,5-2.6C880.3,539.6,872.9,538.3,871.4,536.4z"/>
	<path class="st8" d="M864.7,536.1c0,0,0.1,1,0.3,2.4c0,0,2.8,1,3.8,0.5c1.1-0.6,2-1.5,2.6-2.5c-0.7-0.8-1.2-1.7-1.6-2.7
		L864.7,536.1z"/>
	<path class="st9" d="M852,387.9v28.6c2.1,1.7,1.6,27.3,5.4,54.2c4.5,31.2,6.8,64.3,6.8,64.3c2.2,2.4,6.6,0,6.7-0.2
		c0,0,12.4-143.6,11.6-149.5C878.8,387,862.9,388.7,852,387.9z"/>
	<path class="st10" d="M829.2,403.2c0,0,13.4,10.4,36.2,14.8l3.9-5.2l0.3,6.1c4.8,1.6,11.9,0.1,14.4-5.6c0.9-2,2.9-9.4,2.9-9.4
		l-51.4-21.5C835.4,382.4,828.7,394.4,829.2,403.2z"/>
	<path class="st8" d="M887.4,316.5c-0.6,3-4.1,10.8-5.6,12c0.6,6.1,9.3,9,10.9,6.1c-0.2-3.8,3.3-9.6,3.5-10.2
		C894,323.9,888,317.2,887.4,316.5z"/>
	<path class="st14" d="M892.8,334.5c0,0-2.6,1.7-4.6,0.8c-3-1.3-6.3-6.9-6.3-6.9s-7.2-0.4-9.6-0.6c-7.2-0.6-12.3,4.4-15.7,9.4
		c-9,13.3-23,48.9-23,48.9c8.3,13.2,45.2,22.3,52.2,21.4c5.2-0.6,8.9-38,16.4-52.2c2.8-4.7,2.2-10.6-1.5-14.7
		C899.7,339.3,892.8,334.5,892.8,334.5z"/>
	<path class="st8" d="M907.3,408.6c-1.2,0-2.3-0.3-3.5-0.7c1.2,0.6,0.7,1.3,1.7,2.1c0.5,0.2,2.9-0.2,2.9-0.8
		C908.6,408.4,907.9,408.6,907.3,408.6z"/>
	<path class="st8" d="M910.6,413.3c-0.2-0.2-2.9-2.7-4.2-3.7c-1.1-0.8-2.2-1.6-3.4-2.3c-1.6,1.2-3,2.6-4.3,4.1
		c1.8,1.5,7.8,5.4,8,5.5c2.1,2,3.2,1.8,3.2,1c0-0.2,1.8,0.7,2-0.1c0.4,0.1,0.8-0.1,0.9-0.5c0.2-0.6,0.2-1.2,0-1.9
		C912.2,414.8,911.4,414,910.6,413.3z"/>
	<path class="st8" d="M877.4,339.6c-0.2-1.2-13.4,1.2-15.4,2.4c-4.6,2.8,3,30.8,7.5,40.2c1.7,3.6,10.9,6.9,9.3-5.5
		C877.4,366.7,878.7,345.9,877.4,339.6z"/>
	<path class="st8" d="M876.9,377.4c-0.3-0.3-0.7-0.5-1.1-0.7c-2-0.9-5.3-1-6.8,3.2c-1.6,4.5,20.7,25.1,30.4,32.2
		c1.1-1.6,2.4-3.1,3.9-4.4C897.3,403.5,881.9,382.3,876.9,377.4z"/>
	<path class="st19" d="M885.9,386.7c-2.6-3.3-5-6.4-6.9-8.6c0-0.8-0.1-1.6-0.1-2.4c-0.6-4.8-0.1-33.1-0.8-36.3
		c-0.1-0.5-0.4-0.9-0.9-1.2c-2.1-1.1-14.2,1.1-16.3,2.3c-6.2,3.6,2.7,33.5,6.1,41c3.2,7.3,21,23.9,29.3,30.1l5.5-6.5
		C898.4,402.7,891.5,393.8,885.9,386.7z"/>
	<path class="st13" d="M896.4,320.4c0.2,3.9-0.4,7.8-2,11.4c-1.6,3.4-4.4,5.4-4.6,14.4c-0.3,13-10.3,24.1-8.1,26.2
		c2.2,2.1,11.7-2.4,16.4-15.5c1.3-3.6,1.7-7.4,1.2-11.2c-0.9-4.8,0-9.7,2.5-13.9c2.1-3.8,3.1-8.1,2.9-12.5
		C903.5,316,896.5,320.2,896.4,320.4z"/>
	<path class="st8" d="M899.7,308.3c-4.4-1.1-9,2.2-10.1,6.4l-1.2,4.4c-0.8,3.2,2.8,9.6,5.8,9.7c7,0.3,11.7-11.5,11.8-12.9
		C906.3,312,903.6,309.3,899.7,308.3z"/>
	<path class="st13" d="M902.8,304.9c0,0,0.1-0.7-3.2-3.5c-4.1-3-9.6-3.1-13.8-0.3c-6.2,3.7-10,10.5-9.9,17.8
		c0.3,5.7-2.2,11.2-6.6,14.7c-4.1,3.2-5.8,8.6-6.4,11.3c-2.9,15.6,7.2,26.6,11.2,26.2c4.4-0.4-1.1-18,7.7-30.3
		c6.1-8.6,3.9-12.4,4.1-16.8c0.2-5.7,4.5-12,7.5-13.9c3.2-2.1,8.3-1.2,8.3-1.2s6.5,3.9,0.7,14.4c4.6-2.2,8-12.5,4.2-16.4
		C905.7,305.9,904.3,305.2,902.8,304.9z"/>
	<path class="st8" d="M890.3,313.1c-1.3-0.2-2.6,0.5-3.1,1.7c-0.3,1.3,0.2,2.7,1.2,3.7c1.2-1.3,2.4-2.8,3.5-4.2
		C891.4,313.8,890.9,313.4,890.3,313.1z"/>
	<path class="st8" d="M663,372.7c-1.6,0.3-5.1,1.5-5.3,1.5c-1,0.3-2,0.6-3,1.1c-0.4,0.5-0.7,1-0.8,1.7c0,0.4,0.3,0.7,0.7,0.8
		c-0.1,0.8,1.9,0.8,1.8,0.9c-0.3,0.8,0.6,1.5,3.3,0.5c0.2,0,7.3-1.1,9.6-1.6c-0.5-1.9-1.2-3.7-2.1-5.5
		C665.7,372.1,664.4,372.3,663,372.7z"/>
	<path class="st8" d="M719.3,321.8c-3.9,5.1-11.7,24.4-17.1,33c-6.7,10.4,2.9,11.4,6,8.9c8.1-6.6,27-28.5,24-33.1
		C731,328.7,720,320.9,719.3,321.8z"/>
	<path class="st17" d="M719.3,321.8c-2.7,3.6-7.8,14.3-13.1,22.7c2.8,2.5,5.8,4.7,9,6.7c1.1,0.7,4.5,3,5.7,3.6
		c7.8-8.7,13.4-21.2,11.4-24.3C731,328.7,720,320.9,719.3,321.8z"/>
	<path class="st8" d="M704.8,356c-0.4,0-0.9,0.1-1.3,0.2c-6.6,2.2-29.6,14.7-36.9,15.9c0.8,1.8,1.3,3.7,1.6,5.7
		c11.9-2.2,40.8-11.1,41.3-16C710.1,357.4,707,356,704.8,356z"/>
	<path class="st8" d="M786.6,401.6c-0.3,0.6-0.8,1.1,0,1.5c0.5,0.2,2-1.7,2-2.3c-0.3-1.4-1-1.2-1.1-2.5
		C787.4,399.4,787.1,400.5,786.6,401.6z"/>
	<path class="st8" d="M793.1,395.2c-1.9,0.5-3.8,1.1-5.6,2c0.1,1.4,0.2,2.7,0.5,4.1c0.3,1.6,1.3,5.1,1.5,5.4c0.3,1,0.6,2,1,3
		c0.4,0.5,1,0.8,1.6,0.9c0.4,0,0.7-0.3,0.8-0.6c0.8,0.2,0.8-1.9,1-1.8c0.7,0.3,1.5-0.6,0.5-3.3C794.4,404.6,793.5,397.5,793.1,395.2
		z"/>
	<path class="st8" d="M762.2,321.8c-0.7-0.9-11.7,6.8-12.9,8.7c-3,4.5,16,26.5,24,33.1c3.1,2.5,12.8,1.5,6-8.9
		C773.9,346.3,766.1,327,762.2,321.8z"/>
	<path class="st17" d="M749.3,330.7c-2,3,3.6,15.4,11.4,24.3c1.2-0.6,4.6-2.9,5.7-3.6c3.1-2,6.1-4.3,9-6.7
		c-5.3-8.4-10.4-19-13.1-22.7C761.5,320.9,750.6,328.7,749.3,330.7z"/>
	<path class="st8" d="M778.1,354.5c-4.4-0.5-5.8,2.4-5.8,4.6c0,0.4,0,0.9,0.2,1.3c2,6.6,14,29.9,15.1,37.2c1.8-0.7,3.7-1.2,5.7-1.5
		C791.2,384.2,782.9,355,778.1,354.5z"/>
	<path class="st8" d="M743.2,447.1c-0.3,3.9,7.4,90.7,7.4,90.7c1.9,0.4,3.9-0.1,5.5-1.2c0,0,4.8-85,4.9-86.7
		C759.5,451.2,745.4,448.8,743.2,447.1z"/>
	<path class="st13" d="M757.2,536.4c-0.8-0.9-1.8-2.4-1.8-2.4l-4.5,2.5c0,0-0.4,0.5-0.1,1.9c-0.4,1-0.3,2.1,0.2,3
		c0.5,0.8,3.3,1.6,4.8,2.5c1.7,0.7,3.6,1,5.4,0.7c2.2-0.1,5-1.3,5-2.6C766,539.6,758.7,538.3,757.2,536.4z"/>
	<path class="st8" d="M750.4,536.1c0,0,0.1,1,0.3,2.4c0,0,2.8,1,3.8,0.5c1.1-0.6,2-1.5,2.6-2.5c-0.7-0.8-1.2-1.7-1.6-2.7
		L750.4,536.1z"/>
	<path class="st10" d="M737.8,387.9v28.6c2.1,1.7,1.6,27.3,5.4,54.2c4.5,31.2,6.8,64.3,6.8,64.3c2.2,2.4,6.6,0,6.7-0.2
		c0,0,12.4-143.6,11.6-149.5C764.6,387,748.7,388.7,737.8,387.9z"/>
	<path class="st8" d="M719.9,449.8c0.1,1.7,4.9,86.7,4.9,86.7c1.6,1.1,3.5,1.6,5.5,1.2c0,0,7.7-86.8,7.4-90.7
		C735.4,448.8,721.3,451.2,719.9,449.8z"/>
	<path class="st13" d="M730,536.5l-4.5-2.5c0,0-1,1.5-1.8,2.4c-1.5,1.8-8.9,3.1-8.9,5.7c0,1.3,2.7,2.5,5,2.6
		c1.8,0.1,3.7-0.2,5.4-0.7c1.3-0.4,4.4-1.7,4.8-2.5c0.5-0.9,0.5-2,0.2-3C730.3,537.1,730,536.5,730,536.5z"/>
	<path class="st8" d="M723.6,536.4c0.6,1.1,1.5,1.9,2.6,2.6c1,0.5,3.8-0.5,3.8-0.5c0.2-1.5,0.3-2.4,0.3-2.4l-5.2-2.3
		C724.8,534.7,724.3,535.6,723.6,536.4z"/>
	<path class="st10" d="M712.6,385.4c-0.8,5.8,11.6,149.5,11.6,149.5c0,0.2,4.5,2.7,6.7,0.2c0,0,2.3-33.1,6.8-64.3
		c3.8-27,3.3-52.5,5.4-54.2v-28.6C732.1,388.7,716.2,387,712.6,385.4z"/>
	<path class="st17" d="M712.6,379.7c0,0-2.2,14.4-0.6,15.9c3.5,3.6,14.9-0.1,25.8-0.6s30.6,3.1,31.3,0.9c0.7-2.2-1.3-13.8-1.3-13.8
		L712.6,379.7z"/>
	<path class="st8" d="M745.7,300.3c-0.8,0.5-9,4.4-11.2,3.8c0,0.6,1,7.3-0.7,10.8c0.4,3.3,9.5,4,12.4-1.4
		C745.3,311.8,745.1,303.3,745.7,300.3z"/>
	<path class="st8" d="M738.2,288.7c-4.1-0.6-8.2,0.1-9.4,3.9c-0.4,1.4-0.7,14.1,5.8,16.5c2.8,1,8.6-3.5,9.1-6.8l0.6-4.5
		C745.1,293.4,742.7,289.4,738.2,288.7z"/>
	<path class="st13" d="M755.4,316.6c-2.3-0.7-9.1-3.1-9.1-3.1s-5.2,3.9-8.5,3.9c-2.2,0-4-2.5-4-2.5s-8.2,1.9-9.7,2.6
		c-5.8,2.9-6.3,8.4-7.1,13c-0.7,4.5-7.3,51.8-6,54.5c3.1,6.5,53.6,6.6,57.7,0c1.6-2.6-4.8-52.1-4.8-54.4
		C763.9,324.3,762.2,318.8,755.4,316.6z"/>
	<path class="st11" d="M732.3,286.6c-7.3,0.8-6.4,11.4-3.3,13.1c-1-7.8,4.4-9.9,4.4-9.9c9.7,0.6,12.2,12.3,11.3,15.3
		c0,0,11.5-8.7,2.9-17.7C742.1,281.4,732.3,286.6,732.3,286.6z"/>
	<path class="st8" d="M744.4,296.1c-0.7,0-1.3,0.2-1.9,0.5c0.4,1.8,1,3.5,1.6,5.2c1.3-0.5,2.2-1.6,2.5-2.9
		C746.6,297.7,745.6,296.1,744.4,296.1z"/>
	<path class="st11" d="M770.2,295.8c0-28.2-23.7-18-23.7-10.6c0,1.8,0.9,2.9,2.5,1.2c2.7-3,11.9-5.3,5.5,11.5
		c-1.7,4.4-8,9.8,4.2,18.9c11,8.2,1.3,10.3,1.7,13.8c1,8.9,25.1-8.5,14-22.4C772.2,305.2,770.2,304.4,770.2,295.8z"/>
	<path class="st12" d="M748,284.8c-0.5-0.3-1-0.5-1.6-0.5c-0.8,0-1.6,0.3-2.2,0.9c2,1,3.7,2.3,5.1,4.1
		C750,287.8,750.1,286.3,748,284.8z"/>
	<path class="st17" d="M684.3,382.7l-21.2-9.7c-2.9-1.3-6.3,0-7.6,2.8l-9.7,21.2c-1.3,2.9,0,6.3,2.8,7.6l21.2,9.7
		c2.9,1.3,6.3,0,7.6-2.8l9.7-21.1C688.4,387.4,687.1,384,684.3,382.7z"/>
	<path class="st8" d="M662.7,371.3c-0.6-0.3-1.1-0.8-1.5,0c-0.2,0.5,2.1,2,2.6,2.2c2.2,1,2.9-0.3,2.2-1.4
		C664.9,372,663.7,371.7,662.7,371.3z"/>
	<path class="st7" d="M637.2,476.2l-23.3-0.6c-3.2,0-5.8,2.4-5.9,5.6l-0.6,23.3c0,3.2,2.4,5.8,5.6,5.9l23.3,0.6
		c3.2,0,5.8-2.4,5.9-5.6l0.6-23.3C642.9,478.9,640.4,476.3,637.2,476.2z"/>
	<path class="st9" d="M641.7,471c-2.3-2.2-5.9-2.1-8.1,0.1L617.4,488c-2.2,2.3-2.1,5.9,0.2,8.1l16.8,16.1c2.3,2.2,5.9,2.1,8.1-0.2
		l16.1-16.8c2.2-2.3,2.1-5.9-0.2-8.1L641.7,471z"/>
	<path class="st12" d="M647.3,485.6h23.3c3.2,0,5.8,2.6,5.8,5.8v23.3c0,3.2-2.6,5.8-5.8,5.8h-23.3c-3.2,0-5.8-2.6-5.8-5.8v-23.3
		C641.6,488.1,644.1,485.6,647.3,485.6z"/>
	<rect x="605.3" y="493.3" class="st4" width="60" height="51.4"/>
	<rect x="665.3" y="493.3" class="st20" width="22" height="51.4"/>
	<polygon class="st21" points="605.3,525.1 655.4,525.1 665.4,493.3 605.3,493.3 	"/>
	<polygon class="st21" points="665.6,494.7 675.3,536.2 687.4,536.2 687.4,493.3 665.3,493.3 	"/>
	<polygon class="st4" points="593.8,514.3 655.4,514.3 665.4,493.2 605.7,493.2 	"/>
	<polygon class="st20" points="665.6,493.2 674.7,518.6 696.4,518.6 687.4,493.2 	"/>
</g>
<g>
	<polygon class="st22" points="684.1,190.7 689.3,202.4 699.9,202.4 701.4,190.7 	"/>
	<g>
		<path class="st22" d="M649.4,158.8l8,14.5l10.2-3.3c0-0.1,0-5.4,0-5.4c0-3.3-2.6-4-5.9-4L649.4,158.8z"/>
		<path class="st22" d="M649.4,193.3l8-14.5l10.2,3.3c0,0.1,0,5.4,0,5.4c0,3.3-2.6,4-5.9,4L649.4,193.3z"/>
	</g>
	<path class="st23" d="M647,176.6c0,0,82.7-0.1,82.8,0C720.1,142.4,651.7,161.4,647,176.6z"/>
	<path class="st22" d="M647,176.6c0,0,82.7,0.1,82.8,0C720.1,210.8,651.7,191.8,647,176.6z"/>
	<path class="st22" d="M696.3,165.3c29.9,0,33.4,11.2,33.7,11.3h-82.8C647.3,176.5,666.3,165.3,696.3,165.3z"/>
	<path class="st23" d="M696.3,188c29.9,0,33.4-11.2,33.7-11.3h-82.8C647.3,176.7,666.3,188,696.3,188z"/>
	<path class="st22" d="M729.8,176.6L729.8,176.6L729.8,176.6z"/>
</g>
<g>
	<path class="st24" d="M567.7,248.9c3.3,0,6.2,1.7,8,4h-16.1C561.5,250.6,564.4,248.9,567.7,248.9z"/>
	<path class="st24" d="M607.1,244.5c3.4,0,6,4.1,9.1,3.3c6.7-1.6,9.6-10.3,17-10.3c5.7,0,9,7.1,14.4,6.6
		c8.3-0.8,12.2-12.1,21.2-12.1c8.3,0,12.4,9.7,20.2,10.5c4.6,0.5,7.9-4.9,12.8-4.9c9.4,0,7.1,4.7,18.7,6.4c6.7,1,4.3,5.6,7.1,5.6
		c3.3,0,6.2,1,8,3.3H593C595.4,248.4,600.8,244.5,607.1,244.5z"/>
</g>
<g>
	<g>
		<g id="XMLID_52_">
			<g>
				<rect x="867.7" y="448.1" class="st25" width="112.1" height="39.4"/>
			</g>
		</g>
		<g id="XMLID_50_">
			<g>
				<path class="st6" d="M1104.1,231.2H743.3c-10.2,0-18.4,8.3-18.4,18.4v196.2c0,10.2,8.3,18.4,18.4,18.4H1104
					c10.2,0,18.4-8.3,18.4-18.4V249.6C1122.6,239.5,1114.2,231.2,1104.1,231.2z"/>
			</g>
		</g>
		<g id="XMLID_49_">
			<g>
				<rect x="737.1" y="241.9" class="st26" width="373.1" height="189.5"/>
			</g>
		</g>
		<g id="XMLID_39_">
			<g>
				<path class="st6" d="M1014.7,487.2H832.8c-4,0-7.2,3.2-7.2,7.2c0,4,3.2,7.2,7.2,7.2h182.1c4,0,7.2-3.2,7.2-7.2
					C1021.8,490.3,1018.7,487.2,1014.7,487.2z"/>
			</g>
		</g>
	</g>
	<g>
		<g>
			<g>
				<g>
					<g>
						<g>
							<rect x="756.4" y="123.5" class="st27" width="334.7" height="308"/>
						</g>
					</g>
				</g>
			</g>
		</g>
		<g id="XMLID_580_">
			<g id="XMLID_2717_">
				<g>
					<rect x="791.9" y="145.1" class="st28" width="55.3" height="5"/>
				</g>
			</g>
			<g id="XMLID_2716_">
				<g>
					<rect x="791.9" y="157.3" class="st28" width="55.3" height="5"/>
				</g>
			</g>
			<g id="XMLID_2715_">
				<g>
					<rect x="830.3" y="169.4" class="st28" width="53.8" height="5"/>
				</g>
			</g>
			<g id="XMLID_2710_">
				<g>
					<rect x="864.1" y="145.1" class="st26" width="32.3" height="5"/>
				</g>
			</g>
			<g id="XMLID_2709_">
				<g>
					<rect x="864.1" y="157.3" class="st26" width="55.3" height="5"/>
				</g>
			</g>
			<g id="XMLID_2708_">
				<g>
					<rect x="911.9" y="145.1" class="st26" width="61.5" height="5"/>
				</g>
			</g>
			<g id="XMLID_2707_">
				<g>
					<rect x="985.6" y="145.1" class="st26" width="32.3" height="5"/>
				</g>
			</g>
			<g id="XMLID_2706_">
				<g>
					<rect x="1031.7" y="145.1" class="st26" width="40" height="5"/>
				</g>
			</g>
			<g id="XMLID_2705_">
				<g>
					<rect x="931.8" y="157.3" class="st26" width="69.9" height="5"/>
				</g>
			</g>
			<g id="XMLID_2704_">
				<g>
					<rect x="1012.2" y="157.3" class="st26" width="20.9" height="5"/>
				</g>
			</g>
			<g id="XMLID_2703_">
				<g>
					<rect x="899.5" y="169.4" class="st26" width="40" height="5"/>
				</g>
			</g>
			<g id="XMLID_2702_">
				<g>
					<rect x="791.9" y="193.6" class="st28" width="55.3" height="5"/>
				</g>
			</g>
			<g id="XMLID_2701_">
				<g>
					<rect x="791.9" y="205.9" class="st28" width="55.3" height="5"/>
				</g>
			</g>
			<g id="XMLID_2700_">
				<g>
					<rect x="864.1" y="193.6" class="st26" width="32.3" height="5"/>
				</g>
			</g>
			<g id="XMLID_2699_">
				<g>
					<rect x="864.1" y="205.9" class="st26" width="49.8" height="5"/>
				</g>
			</g>
			<g id="XMLID_2698_">
				<g>
					<rect x="911.9" y="193.6" class="st26" width="47.3" height="5"/>
				</g>
			</g>
			<g id="XMLID_2697_">
				<g>
					<rect x="968.6" y="193.6" class="st26" width="24.9" height="5"/>
				</g>
			</g>
			<g id="XMLID_2696_">
				<g>
					<rect x="1004.1" y="193.6" class="st26" width="30.7" height="5"/>
				</g>
			</g>
			<g id="XMLID_2695_">
				<g>
					<rect x="962.5" y="205.9" class="st26" width="55.5" height="5"/>
				</g>
			</g>
			<g id="XMLID_2694_">
				<g>
					<rect x="759.1" y="218" class="st28" width="55.3" height="5"/>
				</g>
			</g>
			<g id="XMLID_2693_">
				<g>
					<rect x="791.9" y="230.1" class="st28" width="55.3" height="5"/>
				</g>
			</g>
			<g id="XMLID_2692_">
				<g>
					<rect x="864.1" y="218" class="st26" width="32.3" height="5"/>
				</g>
			</g>
			<g id="XMLID_2691_">
				<g>
					<rect x="864.1" y="230.1" class="st29" width="101.6" height="5"/>
				</g>
			</g>
			<g id="XMLID_2690_">
				<g>
					<rect x="911.9" y="218" class="st26" width="61.5" height="5"/>
				</g>
			</g>
			<g id="XMLID_2689_">
				<g>
					<rect x="985.6" y="218" class="st26" width="32.3" height="5"/>
				</g>
			</g>
			<g id="XMLID_2688_">
				<g>
					<rect x="1031.7" y="218" class="st26" width="40" height="5"/>
				</g>
			</g>
			<g id="XMLID_2687_">
				<g>
					<rect x="977.9" y="230.1" class="st26" width="57" height="5"/>
				</g>
			</g>
			<g id="XMLID_2686_">
				<g>
					<rect x="925.1" y="205.9" class="st26" width="23.5" height="5"/>
				</g>
			</g>
			<g>
				<g>
					<rect x="775" y="254.5" class="st28" width="31.6" height="5"/>
				</g>
			</g>
			<g>
				<g>
					<rect x="775" y="266.6" class="st26" width="67.7" height="5"/>
				</g>
			</g>
			<g id="XMLID_2683_">
				<g>
					
						<linearGradient id="SVGID_3_" gradientUnits="userSpaceOnUse" x1="791.8935" y1="320.8452" x2="847.2112" y2="320.8452" gradientTransform="matrix(1 0 0 -1 0 602)">
						<stop  offset="0" style="stop-color:#9E90F2"/>
						<stop  offset="1" style="stop-color:#A1D8F6"/>
					</linearGradient>
					<rect x="791.9" y="278.7" class="st30" width="55.3" height="5"/>
				</g>
			</g>
			<g id="XMLID_2682_">
				<g>
					
						<linearGradient id="SVGID_4_" gradientUnits="userSpaceOnUse" x1="791.8935" y1="308.5983" x2="847.2112" y2="308.5983" gradientTransform="matrix(1 0 0 -1 0 602)">
						<stop  offset="0" style="stop-color:#9E90F2"/>
						<stop  offset="1" style="stop-color:#A1D8F6"/>
					</linearGradient>
					<rect x="791.9" y="290.9" class="st31" width="55.3" height="5"/>
				</g>
			</g>
			<g id="XMLID_2681_">
				<g>
					
						<linearGradient id="SVGID_5_" gradientUnits="userSpaceOnUse" x1="830.2856" y1="296.489" x2="884.0897" y2="296.489" gradientTransform="matrix(1 0 0 -1 0 602)">
						<stop  offset="0" style="stop-color:#9E90F2"/>
						<stop  offset="1" style="stop-color:#A1D8F6"/>
					</linearGradient>
					<rect x="830.3" y="303" class="st32" width="53.8" height="5"/>
				</g>
			</g>
			<g id="XMLID_2680_">
				<g>
					<rect x="826.4" y="254.5" class="st26" width="55.6" height="5"/>
				</g>
			</g>
			<g id="XMLID_2679_">
				<g>
					<rect x="896.3" y="254.5" class="st26" width="28.1" height="5"/>
				</g>
			</g>
			<g id="XMLID_2678_">
				<g>
					<rect x="942.6" y="254.5" class="st26" width="89.4" height="5"/>
				</g>
			</g>
			<g id="XMLID_2677_">
				<g>
					<rect x="858.5" y="266.6" class="st28" width="56.4" height="5"/>
				</g>
			</g>
			<g id="XMLID_2676_">
				<g>
					<rect x="864.1" y="278.7" class="st26" width="63" height="5"/>
				</g>
			</g>
			<g id="XMLID_2675_">
				<g>
					<rect x="864.1" y="290.9" class="st26" width="43.1" height="5"/>
				</g>
			</g>
			<g id="XMLID_2674_">
				<g>
					<rect x="942.6" y="278.7" class="st26" width="46.9" height="5"/>
				</g>
			</g>
			<g id="XMLID_2673_">
				<g>
					<rect x="919.5" y="290.9" class="st26" width="82.2" height="5"/>
				</g>
			</g>
			<g id="XMLID_2672_">
				<g>
					<rect x="1012.2" y="290.9" class="st26" width="20.9" height="5"/>
				</g>
			</g>
			<g id="XMLID_2671_">
				<g>
					<rect x="899.5" y="303" class="st26" width="40" height="5"/>
				</g>
			</g>
			<g id="XMLID_2670_">
				<g>
					<rect x="948.5" y="303" class="st29" width="74.4" height="5"/>
				</g>
			</g>
			<g id="XMLID_2669_">
				<g>
					<rect x="1034.1" y="303" class="st26" width="22.3" height="5"/>
				</g>
			</g>
			<g id="XMLID_2668_">
				<g>
					<rect x="791.9" y="327.3" class="st28" width="55.3" height="5"/>
				</g>
			</g>
			<g id="XMLID_2667_">
				<g>
					<rect x="791.9" y="339.5" class="st28" width="55.3" height="5"/>
				</g>
			</g>
			<g id="XMLID_2666_">
				<g>
					<rect x="864.1" y="327.3" class="st29" width="91.1" height="5"/>
				</g>
			</g>
			<g id="XMLID_2665_">
				<g>
					<rect x="864.1" y="339.5" class="st26" width="49.8" height="5"/>
				</g>
			</g>
			<g id="XMLID_2664_">
				<g>
					<rect x="968.6" y="327.3" class="st26" width="24.9" height="5"/>
				</g>
			</g>
			<g id="XMLID_2663_">
				<g>
					<rect x="1004.1" y="327.3" class="st26" width="30.7" height="5"/>
				</g>
			</g>
			<g id="XMLID_2662_">
				<g>
					<rect x="962.5" y="339.5" class="st26" width="55.5" height="5"/>
				</g>
			</g>
			<g id="XMLID_2661_">
				<g>
					<rect x="925.1" y="339.5" class="st26" width="23.5" height="5"/>
				</g>
			</g>
			<g>
				<g>
					<rect x="775" y="359.5" class="st28" width="31.6" height="5"/>
				</g>
			</g>
			<g>
				<g>
					<rect x="775" y="371.6" class="st26" width="67.7" height="5"/>
				</g>
			</g>
			<g id="XMLID_2658_">
				<g>
					<rect x="791.9" y="383.7" class="st28" width="55.3" height="5"/>
				</g>
			</g>
			<g id="XMLID_2657_">
				<g>
					<rect x="791.9" y="395.8" class="st28" width="55.3" height="5"/>
				</g>
			</g>
			<g id="XMLID_2656_">
				<g>
					<rect x="830.3" y="408" class="st28" width="53.8" height="5"/>
				</g>
			</g>
			<g id="XMLID_2655_">
				<g>
					<rect x="826.4" y="359.5" class="st26" width="55.6" height="5"/>
				</g>
			</g>
			<g id="XMLID_2654_">
				<g>
					<rect x="896.3" y="359.5" class="st26" width="28.1" height="5"/>
				</g>
			</g>
			<g id="XMLID_2633_">
				<g>
					<rect x="942.6" y="359.5" class="st29" width="129.2" height="5"/>
				</g>
			</g>
			<g id="XMLID_2632_">
				<g>
					<rect x="858.5" y="371.6" class="st28" width="56.4" height="5"/>
				</g>
			</g>
			<g id="XMLID_2631_">
				<g>
					<rect x="864.1" y="383.7" class="st26" width="63" height="5"/>
				</g>
			</g>
			<g id="XMLID_2630_">
				<g>
					<rect x="864.1" y="395.8" class="st26" width="43.1" height="5"/>
				</g>
			</g>
			<g id="XMLID_2629_">
				<g>
					<rect x="942.6" y="383.7" class="st26" width="46.9" height="5"/>
				</g>
			</g>
			<g id="XMLID_2628_">
				<g>
					<rect x="1001.7" y="383.7" class="st26" width="28.5" height="5"/>
				</g>
			</g>
			<g id="XMLID_2627_">
				<g>
					<rect x="1044.1" y="383.7" class="st26" width="27.7" height="5"/>
				</g>
			</g>
			<g id="XMLID_2626_">
				<g>
					<rect x="919.5" y="395.8" class="st26" width="82.2" height="5"/>
				</g>
			</g>
			<g id="XMLID_2567_">
				<g>
					<rect x="1012.2" y="395.8" class="st26" width="20.9" height="5"/>
				</g>
			</g>
			<g id="XMLID_2505_">
				<g>
					<rect x="899.5" y="408" class="st26" width="40" height="5"/>
				</g>
			</g>
		</g>
	</g>
	<g>
		<path class="st33" d="M842.7,408.4c0.1,3.7,15.5,81.7,15.5,81.7c0.1,0.1,3.2,0.1,5-1.7c0,0-3.6-77.6-3.6-79.1
			C858.4,410.6,844.9,409.8,842.7,408.4z"/>
		<path class="st24" d="M855.3,370.7c-7,1.8-14,3.4-21.2,4.7l0.6,4.8c2.2,1.4,4.1,25.5,10.3,50.4c7.3,28.9,12.4,57,12.4,57
			c1.8-1.8,4.5-1.9,6.3-0.8c0,0-1.2-78.7-2.5-117.7C859.3,369.6,857.4,370.2,855.3,370.7z"/>
		<path class="st34" d="M864.3,488.3c-0.8-0.8-1.1-1.2-1.1-1.2s-4-1-5.2,1.9c0,0,0,3.4,1,4.7c0.6,0.7,3.6,3.9,5.1,4.5
			c1.2,0.6,3,0.4,5.1,0.1c2.1-0.3,4.5-1.7,4.4-2.9C873.2,493.1,865.8,489.8,864.3,488.3z"/>
		<path class="st35" d="M863.2,490c-2.1-1.4-5.5,1.1-3.2,4.3c0.4,0.6,3,3.3,4.3,3.9c1,0.4,2.6,0.4,4.3,0.1c1.8-0.3,3.9-1.4,3.7-2.5
			C872.1,493.9,865.4,491.6,863.2,490z"/>
		<g>
			<path class="st33" d="M782.5,224.5c-0.4-0.4-2.2,1-2.5,1.5c-0.1,1.2,0.7,1.4,0.3,2.6c0.4-1,1.1-1.9,1.8-2.8
				C782.5,225.3,783.2,224.9,782.5,224.5z"/>
			<path class="st33" d="M780.9,217.3c-0.1-0.3-0.8-1.1-1.2-1.2c-0.6-0.1-1,0.4-1,0.4c-0.7-0.4-1.2,1.5-1.4,1.4
				c-0.6-0.6-1.5,0.1-1.4,2.9c0,0.1-1.1,6.9-1.4,9.1c1.4,0.3,5.5-0.3,5.5-0.3c0.3-1.2,0.6-2.5,0.7-3.9c0.1-1.5,0.1-5,0.1-5.2
				C781,219.6,781.2,217.9,780.9,217.3z"/>
			<path class="st33" d="M780.2,229c-2.2,0.1-4.1,0.1-5.5-0.1c-1.4,11.3-1.8,39.9,2.3,41.8c3.9,1.7,5.9-0.7,6.6-2.6
				c0.1-0.4,0.3-0.8,0.3-1.2C783.8,260.2,779.2,235.9,780.2,229z"/>
			<path class="st33" d="M785.4,265.9c-7.4-9.1-11.1-0.7-9.8,2.9c3.6,9.2,17.8,32.6,22.7,31.2c2.2-0.6,12.2-8.1,11.7-9.1
				C806.6,286,791.5,273.3,785.4,265.9z"/>
			<path class="st25" d="M785,263.4c-0.3-2.9-0.8-6.6-1.4-10.6c-1.2-8.7-2.6-19.5-2.1-23.5l-8.3-0.6c-1.2,9.9-1.8,33.6,1.1,40.7
				c2.9,7.4,16.1,29,32.2,43.5c1.9,1.8,13.3-26.7,12.8-26.6C805.2,288.3,785.6,263.8,785,263.4z"/>
		</g>
		<g>
			<path class="st33" d="M920.1,281c-0.4,1-1,2.1-1.7,2.9c1-0.8,1.4-0.3,2.5-1c0.3-0.4,0.7-2.8,0.1-2.9
				C920.4,279.8,920.4,280.5,920.1,281z"/>
			<path class="st33" d="M929.9,279.6c0,0,0.3-0.6-0.1-1c-0.3-0.3-1.4-0.6-1.7-0.6c-0.6,0.1-2.1,1.1-2.6,1.4
				c-0.3,0.1-3.3,1.8-4.5,2.8c-1.1,0.7-2.1,1.5-3,2.5c0,0,1.7,4,2.5,5c1.8-1.2,7.2-5.5,7.3-5.5c2.3-1.2,2.6-2.3,1.8-2.6
				C929.2,281.4,930.6,280.1,929.9,279.6z"/>
			<path class="st33" d="M883.4,299.5c-0.3,0.1-0.7,0.4-1,0.8c-1.4,1.5-2.5,4.4,1,7c3.6,2.8,28.5-11.4,37.7-18.2
				c-1-1.1-1.9-2.8-2.9-4.8C912.7,288.6,889.2,296.4,883.4,299.5z"/>
			<path class="st33" d="M883.4,297.7c-9.4-1.8-27.7-8.8-33.7-9.5c-1.1-0.1-2.8,12.4-2.3,14.6c1.2,5,28.6,6.1,38.3,4.8
				C889.3,307,895,299.7,883.4,297.7z"/>
			<path class="st25" d="M885.9,296.8c-0.7-0.3-33.6-10.6-44.4-11.6c-4.1-0.4-11.6,15.1-9.4,16.5c15.8,10.5,45.7,8.1,53.7,7.2
				c7.7-0.8,28.1-12.8,36.2-18.7l-4.5-7C914.1,285.7,888.5,295.7,885.9,296.8z"/>
		</g>
		<path class="st33" d="M815,411.9c0.1,1.7,4.7,79.1,4.7,79.1c1.9,1.7,5.1,1.2,5.1,1.1c0,0,7.3-79.1,7-82.8
			C829.6,410.9,816.4,413.1,815,411.9z"/>
		<path class="st24" d="M808.1,351.1c-0.8,5.5,10.9,138.3,10.9,138.3c1.7-1.2,4.4-1.4,6.3,0.1c0,0,2.2-28.5,6.5-58.1
			c3.6-25.5,3-49.7,5.1-51.2v-27C826.6,354.1,811.6,352.6,808.1,351.1z"/>
		<path class="st23" d="M844.9,357.1c-10.3,1.2-20.6,1.4-31,1.5c-2.3,0-4.7,0.1-7,0c0.3,8.7-0.4,13.9,0.7,21.5
			c20.4,3.4,42.7,4.8,51.2,1.9c1.5-0.6,5.6-2.3,5.9-2.9c0.3-8-0.7-17.5-2.1-27C857.3,354.6,851.3,356.3,844.9,357.1z"/>
		<path class="st33" d="M834.4,271.4c-0.7,0.6-8.1,4.7-10.3,4.4c0,0.6,1.7,5.5,0.3,8.8c0.6,3.2,9.4,5.8,11.8,0.4
			C835.2,283.5,834,274.3,834.4,271.4z"/>
		<path class="st33" d="M826.6,261.1c-3.9-0.3-7.7,0.7-8.5,4.4c-0.3,1.4,0.3,13.3,6.6,15.1c2.8,0.8,7.8-3.9,8.1-7l0.3-4.3
			C833.3,264.9,830.8,261.3,826.6,261.1z"/>
		<path class="st25" d="M835.9,284.3c0,0-2.2,2.3-5.9,2.1c-4.1-0.3-5.6-1.8-5.6-1.8s-7.6,2.8-9.8,3.6c-6.3,2.5-7.7,7.8-7.2,13.6
			c0.1,1.4-4.7,46.8-0.6,76.2c1-0.1,3.6-0.1,4.8-0.1l1-19.1l4.1,19.1c13.1,0.1,32.8,1,41.6-1.2l0.4-17.3l2.8,16.2
			c0.7-0.4,2.6-1.1,2.8-1.7c0.8-27.1-5.6-66.6-6.5-69.9C852.9,284.3,835.9,284.3,835.9,284.3z"/>
		<path class="st34" d="M819.6,489.5c0,0-0.3,0.4-1,1.4c-1.5,1.7-8.4,5.6-8.4,8.1c0,1.2,2.6,2.3,4.7,2.5c2.1,0.1,4,0,5.1-0.7
			c1.4-0.8,4.1-4.3,4.5-5.1c0.8-1.4,0.4-4.7,0.4-4.7C823.4,488.1,819.6,489.5,819.6,489.5z"/>
		<path class="st35" d="M819.7,492.5c-1.9,1.7-8.4,4.8-8.4,6.7c0,1.1,2.2,1.9,4,2.1c1.8,0.1,3.3,0,4.3-0.6c1.2-0.7,3.4-3.6,3.9-4.3
			C825.3,493.1,821.6,490.9,819.7,492.5z"/>
		<path class="st6" d="M834.8,256.2c-6.1-4.8-16.5-0.3-19.3,6.1c-2.1,4.7-3.9,1.4-3.7,0.1c-0.7,3.2,0.7,5.8,6.7,5.4
			c1.2-0.1-2.8,1.1-2.8,1.1s6.3,13.3,16.4,10.2c2.9-1,5.5-3.9,5.5-3.9s-3.2,0.6-1.5-2.1C839.5,268.2,840.2,260.5,834.8,256.2z"/>
	</g>
</g>
<g>
	<g>
		<rect x="1000.4" y="338.3" class="st24" width="228.3" height="163"/>
		<rect x="1000.4" y="324.5" class="st36" width="228.3" height="19.1"/>
		<rect x="1015.3" y="353.6" class="st26" width="195.9" height="129.4"/>
		<g>
			<rect x="1114.5" y="367.2" class="st23" width="17" height="4.1"/>
			<rect x="1133.7" y="367.2" class="st23" width="21.2" height="4.1"/>
			<rect x="1159.2" y="367.2" class="st23" width="7.8" height="4.1"/>
			<rect x="1114.5" y="373.7" class="st23" width="6.2" height="4.1"/>
			<rect x="1123.7" y="373.7" class="st23" width="17.7" height="4.1"/>
		</g>
		<rect x="1024.4" y="402.7" class="st23" width="36.1" height="3.7"/>
		<rect x="1024.4" y="362.1" class="st23" width="36.1" height="33.1"/>
		<rect x="1024.4" y="413" class="st23" width="36.1" height="3.7"/>
		<rect x="1024.4" y="423.4" class="st23" width="36.1" height="3.7"/>
		<rect x="1024.4" y="433.7" class="st23" width="36.1" height="3.7"/>
		<rect x="1024.4" y="443.9" class="st23" width="36.1" height="3.7"/>
		<rect x="1024.4" y="454.3" class="st23" width="36.1" height="3.7"/>
		<circle class="st26" cx="1219.1" cy="337.9" r="2.1"/>
		<circle class="st26" cx="1210.8" cy="337.9" r="2.1"/>
		<rect x="1030.2" y="366.2" class="st26" width="24.5" height="4.2"/>
		<rect x="1030.2" y="373.1" class="st26" width="24.5" height="4.2"/>
		<rect x="1030.2" y="380" class="st26" width="24.5" height="4.2"/>
		<rect x="1030.2" y="386.9" class="st26" width="24.5" height="4.2"/>
		<circle class="st22" cx="1092.2" cy="372.5" r="10.3"/>
		<g>
			<circle class="st22" cx="1195.3" cy="372.5" r="2.8"/>
			<path class="st22" d="M1195.3,367.1c-3,0-5.3,2.3-5.3,5.3s2.3,5.3,5.3,5.3c3,0,5.3-2.3,5.3-5.3
				C1200.6,369.5,1198.3,367.1,1195.3,367.1z M1195.3,376.9c-2.5,0-4.4-2-4.4-4.4c0-2.5,2-4.4,4.4-4.4s4.4,2,4.4,4.4
				C1199.6,374.9,1197.7,376.9,1195.3,376.9z"/>
		</g>
		<g>
			<rect x="1081.8" y="388.1" class="st24" width="120.7" height="85"/>
		</g>
	</g>
	<g>
		<path class="st33" d="M1199.9,399.8c1,0.1,2,0.1,3,0c-1.1,0.4-0.7,1-1.7,1.5c-0.5,0.1-2.3-0.6-2.3-1.1
			C1198.8,399.5,1199.3,399.7,1199.9,399.8z"/>
		<path class="st33" d="M1196.5,404c0.2-0.4,1.4-1.1,1.7-1.4c0.1-0.1,2.2-1.6,3.2-2.2c0.9-0.5,1.7-0.9,2.6-1.2c0,0,2.1,3,2.6,4.2
			c-1.4,0.9-5.8,2.8-5.9,3c-1.6,1.2-2.3,0.9-2.3,0.2c0-0.1-1.4,0.2-1.4-0.5c0,0-0.5,0-0.6-0.5C1196.3,405.1,1196.4,404.3,1196.5,404
			z"/>
		<path class="st33" d="M1216.6,350.5c-0.1-1,11-3.3,12.9-3c4.6,0.7,7.1,25.1,6.7,33.9c-0.2,3.3-6.4,8.7-9-1.4
			C1225.1,371.9,1217.6,356,1216.6,350.5z"/>
		<path class="st26" d="M1229.6,347.6c3.1,0.5,7.5,11.1,8.5,21.1c-1.1,0.4-4.4,1.1-5.5,1.5c-2.7,0.7-6.5,1.4-9.4,1.7
			c-2.1-8.1-5.8-17.4-6.5-21.2C1216.5,349.6,1227.6,347.2,1229.6,347.6z"/>
		<path class="st33" d="M1229.9,378.6c0.2-0.1,0.6-0.4,1-0.5c1.8-0.5,4.6,0,5.2,3.7c0.6,4.1-21.1,17.6-30.3,22.1
			c-0.5-1.2-1.4-2.6-2.6-4.3C1208.9,397,1225,381.8,1229.9,378.6z"/>
	</g>
	<g>
		<g>
			<g>
				<path class="st26" d="M1170.9,405.6l1.2-10.7l28.3,3.3c3,0.4,5.1,3,4.7,5.9v0.1c-0.4,3-3,5.1-5.9,4.7L1170.9,405.6z"/>
			</g>
		</g>
		<g>
			<g>
				<g>
					<path class="st26" d="M1170.9,405.6l1.2-10.7l28.3,3.3c3,0.4,5.1,3,4.7,5.9v0.1c-0.4,3-3,5.1-5.9,4.7L1170.9,405.6z"/>
				</g>
			</g>
		</g>
		<g>
			<g>
				<g>
					
						<linearGradient id="SVGID_6_" gradientUnits="userSpaceOnUse" x1="1181.6362" y1="197.3366" x2="1244.7815" y2="197.3366" gradientTransform="matrix(1 0 0 -1 0 602)">
						<stop  offset="0" style="stop-color:#9E90F2"/>
						<stop  offset="1" style="stop-color:#A1D8F6"/>
					</linearGradient>
					<path class="st37" d="M1181.6,411.4l2.3-19.7l52.1,6c5.4,0.6,9.2,5.5,8.6,11v0.2c-0.6,5.4-5.5,9.2-11,8.6L1181.6,411.4z"/>
				</g>
			</g>
		</g>
		<g>
			<g>
				<g>
					<path class="st26" d="M1170.9,405.6l1.2-10.7l28.3,3.3c3,0.4,5.1,3,4.7,5.9v0.1c-0.4,3-3,5.1-5.9,4.7L1170.9,405.6z"/>
				</g>
			</g>
		</g>
		<g>
			<g>
				<g>
					
						<linearGradient id="SVGID_7_" gradientUnits="userSpaceOnUse" x1="1181.6362" y1="197.3366" x2="1244.7815" y2="197.3366" gradientTransform="matrix(1 0 0 -1 0 602)">
						<stop  offset="0" style="stop-color:#9E90F2"/>
						<stop  offset="1" style="stop-color:#A1D8F6"/>
					</linearGradient>
					<path class="st38" d="M1181.6,411.4l2.3-19.7l52.1,6c5.4,0.6,9.2,5.5,8.6,11v0.2c-0.6,5.4-5.5,9.2-11,8.6L1181.6,411.4z"/>
				</g>
			</g>
		</g>
		<g>
			<path class="st25" d="M1181.6,411.4l2.3-19.7l52.1,6c5.4,0.6,9.2,5.5,8.6,11v0.2c-0.6,5.4-5.5,9.2-11,8.6L1181.6,411.4z"/>
		</g>
		<path class="st25" d="M1136.4,352.9c-10.1-1.2-20.3,1.2-28.8,6.9c-1,0.6-2,1.4-2.8,2.1c-9,7.1-14.7,17.4-16,28.8
			c-1.4,11.3,1.8,22.7,9,31.5c7.5,9.6,18.5,15,29.9,16.1c9.5,0.9,19.2-1.4,27.6-6.9c1-0.6,2-1.4,2.8-2.1c4.7-3.7,8.4-8.1,11.2-13.2
			c0.5-0.9,0.9-1.7,1.2-2.6c1.1-2.5,2-4.9,2.6-7.5c0.5-1.8,0.7-3.7,1-5.5s0.2-3.6,0.2-5.4c-0.1-9.6-3.3-18.6-9.2-26.1
			C1158.1,359.9,1147.9,354.2,1136.4,352.9z M1168.1,395.1c0,1.5,0,3.1-0.2,4.6c-0.2,1.6-0.5,3.2-0.9,4.7c-0.6,2.2-1.4,4.3-2.2,6.4
			c-0.4,0.7-0.7,1.5-1.1,2.2c-2.3,4.3-5.5,8.1-9.5,11.2c-0.7,0.6-1.6,1.2-2.3,1.7c-7.1,4.8-15.4,6.7-23.5,5.9
			c-9.7-0.9-19.1-5.5-25.5-13.7c-6-7.6-8.7-17.2-7.6-27c1.1-9.7,6-18.5,13.7-24.5c0.7-0.6,1.6-1.2,2.5-1.7
			c7.1-4.8,15.9-6.9,24.5-5.9c9.7,1.1,18.5,6,24.5,13.7C1165.4,379.4,1168.1,387,1168.1,395.1z"/>
	</g>
	<g>
		<g>
			<g>
				<g>
					<path class="st27" d="M1149,377.8h-36.1c-2.6,0-4.6,2.1-4.6,4.6v20.1c0,2.6,2.1,4.6,4.6,4.6h19.5v11.3l11.1-11.3h5.7
						c2.6,0,4.6-2.1,4.6-4.6v-20.1C1153.5,379.9,1151.6,377.8,1149,377.8z"/>
				</g>
			</g>
		</g>
		<g>
			<g>
				<g>
					<path class="st26" d="M1122,397.7l-5.2-5.2c-0.2-0.2-0.2-0.7,0-1.1l5.1-5.1l1.1,1.1l-4.6,4.6l4.7,4.7L1122,397.7z"/>
				</g>
			</g>
		</g>
		<g>
			<g>
				<g>
					<path class="st26" d="M1140.5,398l-1.1-1.1l4.8-4.8l-4.8-4.8l1.1-1.1l5.3,5.3c0.1,0.1,0.2,0.4,0.2,0.5c0,0.2-0.1,0.4-0.2,0.5
						L1140.5,398z"/>
				</g>
			</g>
		</g>
		<g>
			<g>
				<g>
					
						<rect x="1121.5" y="391.2" transform="matrix(0.4069 -0.9135 0.9135 0.4069 313.162 1266.1753)" class="st26" width="20.3" height="1.5"/>
				</g>
			</g>
		</g>
	</g>
	<g>
		<path class="st26" d="M1306.6,245.9c-3.7,0-6.5,4.4-9.9,3.6c-7.3-1.7-10.3-11.1-18.4-11.1c-6.2,0-9.7,7.6-15.5,7.1
			c-9-0.9-13.2-13.1-22.9-13.1c-9,0-13.4,10.5-21.8,11.3c-4.9,0.5-8.5-5.3-13.8-5.3c-10.1,0-11,3.9-20.2,6.9c-2.7,0.9-4.7,6-7.6,6
			c-3.6,0-6.7,1.1-8.6,3.6h153.8C1319,250.1,1313.2,245.9,1306.6,245.9z"/>
	</g>
	<g>
		<g>
			<path class="st33" d="M1113.3,380.2c0.2,0.4,2.8-0.9,3.1-1.2c0.4-1.1,0.4-1.5,0.1-2.3c-0.5,0.9-1.2,1.6-2,2.2
				C1113.8,379.5,1112.8,379.7,1113.3,380.2z"/>
			<path class="st33" d="M1116.5,376.8c-0.7,2.8-1.6,3.9-1.5,5.2c0,0.5,5.1,1.7,5.7-0.6c0-0.1,0.4-1.7,0.7-3.6
				C1120.2,377.3,1116.5,376.7,1116.5,376.8z"/>
			<path class="st33" d="M1080.5,327.9c3.8,3.8,19.1,12.6,25.6,18.2c8,6.9,9.9-1.1,8.1-4.1c-4.6-7.5-20.8-26-24.9-24
				C1087.5,319,1079.7,327.3,1080.5,327.9z"/>
			<path class="st33" d="M1107.3,344c0,0.4,0,0.9,0,1.1c1.1,5.8,8.9,26.5,9,32.8c2-0.5,3.6-0.1,4.9-0.1c0.5-3.3-4.6-36.1-8.5-37.1
				C1109.2,339.8,1107.7,342.2,1107.3,344z"/>
			<path class="st39" d="M1122.5,374.7c-0.5-8.7-3.9-29.1-7.6-34.7c-3.7-5.9-21.6-28.3-27-25.6c-1.8,0.9-10.2,13.8-10,14
				c2,2,28.3,18.1,29,18.5c0.7,2.3,1.7,5.5,2.8,8.9c2.5,7.3,5.4,16.4,5.7,19.8L1122.5,374.7z"/>
		</g>
		<path class="st33" d="M1081.3,421.4c-0.2,1.5-8.7,72.9-8.7,72.9c-1.8,1.4-4.7,0.9-4.7,0.7c0,0-1.8-73.6-1.4-76.9
			C1068.3,419.7,1080.1,422.5,1081.3,421.4z"/>
		<path class="st40" d="M1068.2,494l3.9-1.8c0,0,0.7,1.2,1.4,2.1c1.2,1.6,7.3,3.1,7.1,5.3c-0.1,1.1-2.5,2-4.3,1.8
			c-1.8,0-3.4-0.5-4.6-0.9c-1.1-0.5-3.6-1.6-3.9-2.3c-0.6-1.2,0-2.6,0-2.6C1067.9,494.4,1068.2,494,1068.2,494z"/>
		<g>
			<path class="st40" d="M1087.6,487.8l-4.2,1.2c0,0,0.4,1.5,0.4,2.5c0.2,2-3.3,7.3-1.7,8.7c0.7,0.7,3.1-0.2,4.4-1.5
				c1.4-1.4,2.5-2.6,2.7-3.7c0.4-1.5,1.6-3.6,1.4-4.3c-0.4-1.4-1.7-1.8-1.7-1.8C1088.1,487.8,1087.6,487.8,1087.6,487.8z"/>
			<path class="st33" d="M1083.8,491.5c0,0,1.5,0.4,3.1-0.1c0.9-0.2,2-2.6,2-2.6c-0.7-1-1.2-1.6-1.2-1.6l-4.4,1.7
				C1083.2,489,1083.7,490,1083.8,491.5z"/>
			<path class="st35" d="M1046,372.2c3.1,1.2,15.2,1.7,24.4,0.7c2.7,16.1,0.1,44.4-0.9,66.5c-0.5,9.9,19.1,48.9,19.1,48.9
				c-1.7,2.2-5.1,1.7-5.1,1.6c0,0-29-34.4-30.7-49.8C1049.1,408.2,1045.7,374.9,1046,372.2z"/>
		</g>
		<path class="st33" d="M1073.6,494.2c0,0-0.9,1.2-2.3,2c-0.9,0.4-3.2-0.6-3.2-0.6c-0.1-1.2-0.1-2.1-0.1-2.1l4.4-1.7
			C1072.4,491.9,1072.6,493,1073.6,494.2z"/>
		<path class="st35" d="M1092.2,367.4c-3.2,1.1-16.6,1.7-25.9,0.5c0,0-3,47.2-1.1,70.1c2.1,26.6,2.2,54.7,2.2,54.7
			c1.7,2.2,5.5,0.4,5.7,0.2C1073.2,493,1092.6,372.4,1092.2,367.4z"/>
		<path class="st24" d="M1046.2,363.2c0,0-0.9,9.7-0.9,18.2c0,0,8.7,3.6,19,3.6l2.8-8.5c0,0,3.9,8.5,5.4,8.6
			c8.4,0.2,17-0.7,22.8-4.2l-3.2-12.8L1046.2,363.2z"/>
		<path class="st33" d="M1071.6,297.3c0.6,0.5,7.1,4.4,9.1,4.2c0,0.5-1.5,6-0.4,9.1c-0.6,2.8-8.4,2.5-10.3-2.3
			C1071,307.1,1072,299.9,1071.6,297.3z"/>
		<path class="st34" d="M1051.5,321.6c1.6-4.9,4.6-10.2,10.5-11.5c2-0.4,7.9-1.8,7.9-1.8s4.1,3.8,6.8,4.1c1.8,0.2,3.6-1.7,3.6-1.7
			s6.8,2.3,7.9,3.1c4.7,3,5.5,7.8,4.7,11.6c-2.7,13.3,3.2,44.5-0.7,46.2c-5.3,2.2-34.7,3.8-46-3.7c-1-0.6-1.5-1.7-1.4-2.8
			C1045.5,358.1,1048.1,332.7,1051.5,321.6z"/>
		<g>
			<path class="st33" d="M991.7,325.5c-1-0.6-2-1.1-3.1-1.5c-1.2-0.5-4.3-1.5-4.4-1.5c-0.6-0.1-2.1-0.7-2.6-0.7
				c-0.4,0-1.1,0.4-1.4,0.7c-0.2,0.5,0.1,0.9,0.1,0.9c-0.5,0.5,1,1.5,0.7,1.5c-0.6,0.4-0.2,1.2,2.1,2c0.1,0,5.5,2.7,7.4,3.4
				C991,329.2,991.7,325.5,991.7,325.5z"/>
			<path class="st33" d="M1052,315.4c-5.2,1.7-19.8,11.5-27.7,14.8c-9.7,4.1-3.3,9.4,0,9.1c8.7-0.7,32.5-7,32.5-11.6
				C1057,325.7,1053,315.1,1052,315.4z"/>
			<path class="st33" d="M1025.7,332.3c-0.4-0.2-0.7-0.4-1-0.5c-5.7-1.6-27.7-3.9-33.3-6.5c-0.5,2-1,3.6-1.6,4.7
				c9.4,4.1,33.9,11.7,36.5,8.6C1028.6,335.8,1027.1,333.4,1025.7,332.3z"/>
			<path class="st39" d="M991.4,332.2c8.1,3.4,27.8,9.4,34.5,8.6c6.9-0.7,31.7-7,31.7-13.1c0-2.1,3.9-17.5,2-16.8
				c-16.5,6-35.7,19.3-36.2,19.6c-2.5-0.4-5.8-0.9-9.2-1.4c-7.6-1.1-17-2.3-20.3-3.8L991.4,332.2z"/>
		</g>
		<path class="st6" d="M1080.7,320.9c-2-7.4-1.4-10.3-0.7-13.4c0.5-3.2,0.9-6.5,0-9.1c0-0.1,4.7-5.3,6.4-2.7
			c1.1,3.1,1.6,6.9,0.7,10.8c-1.2,5.7,0.4,10,1.4,11.8c1.7,3.1,1.8,7.3,1.7,9.4c-0.7,11.8-7.5,17.6-9.6,16.5
			C1078.1,342.8,1083.6,331.4,1080.7,320.9z"/>
		<path class="st33" d="M1079.6,287.7c3.6-0.1,6.3,1.4,6.9,4.8c0.2,1.2-0.6,11.8-6.4,13.3c-2.5,0.6-6.9-3.7-7-6.5
			c0,0-0.1-3.8-0.1-3.9C1072.8,291.5,1075.8,287.8,1079.6,287.7z"/>
		<path class="st6" d="M1058.7,326.2c-0.2-2.3-0.1-7.1,2.5-10.7c1.5-2.1,3.9-7,1.8-13.6c-2.1-6.5,0.1-12.7,3.7-16.8
			s8.6-5.2,11.3-4.1c3.3,1.5,3.4,3.1,3.4,3.1s1.7-0.4,3.6,0.6c4.1,2.2,3.8,11.5,0.6,14.3c2.1-9.9-4.1-11.5-4.1-11.5s-4.3,0.5-6.4,3
			c-2,2.2-3.8,8.4-2.7,13.1c0.9,3.6,3.7,6.2,0.7,14.5c-4.2,12.1,4.6,25,1,26.4C1070.9,346,1060.2,339.6,1058.7,326.2z"/>
		<path class="st33" d="M1073.1,293.9c0.4,0,1,0.2,1.6,0.6c-0.4,1.2-1.4,3.2-1.8,4.2c-0.9-0.4-1.8-1.8-1.8-2.7
			C1071.1,295,1072.1,293.7,1073.1,293.9z"/>
	</g>
	<g>
		<path class="st33" d="M1286,423.5c0.5,1.4,21.3,70.2,21.3,70.2c2.1,1,4.7,0,4.7-0.1c0,0-11-72.8-12.1-76
			C1298.6,419.7,1287.5,424.3,1286,423.5z"/>
		<path class="st35" d="M1311.5,492.7l-4.2-1.2c0,0-0.5,1.4-1,2.3c-0.9,1.8-6.7,4.3-6.2,6.4c0.2,1.1,2.7,1.5,4.6,1.1
			c1.8-0.4,3.4-0.9,4.3-1.7c1.1-1,3.2-2.2,3.4-3c0.4-1.4-0.5-2.5-0.5-2.5C1312,493.1,1311.5,492.7,1311.5,492.7z"/>
		<path class="st33" d="M1307.2,491.4c0,0-0.1,1.1-0.7,2.5c0,0,1.1,1.1,2.7,1.6c0.9,0.2,3.1-1.1,3.1-1.1c-0.1-1.2-0.2-2.1-0.2-2.1
			L1307.2,491.4z"/>
		<path class="st39" d="M1292.6,368c-8.9,2.7-22.2,4.6-25.5,4.1c0.5,4.9,39.3,120.5,39.3,120.5c0.1,0.2,4.2,1.2,5.5-1.2
			c0,0-4.7-27.7-7.3-54.2C1302.5,414.2,1292.6,368,1292.6,368z"/>
		<path class="st33" d="M1255.3,421.3c0.1,1.5,4.2,73.3,4.2,73.3c1.7,1.5,4.6,1.1,4.6,1c0,0,6.5-73.3,6.3-76.6
			C1268.4,420.4,1256.5,422.4,1255.3,421.3z"/>
		<path class="st35" d="M1263.8,494.6l-3.8-2.1c0,0-0.9,1.2-1.5,2c-1.4,1.5-7.5,2.6-7.5,4.8c0,1.1,2.3,2.1,4.2,2.2
			c1.8,0.1,3.4-0.2,4.6-0.6s3.7-1.4,4.1-2.1c0.7-1.2,0.1-2.6,0.1-2.6C1264.2,494.9,1263.8,494.6,1263.8,494.6z"/>
		<path class="st33" d="M1258.5,494.4c0,0,0.7,1.4,2.2,2.1c0.9,0.5,3.2-0.4,3.2-0.4c0.2-1.2,0.2-2.1,0.2-2.1l-4.3-2
			C1259.9,492.1,1259.5,493.2,1258.5,494.4z"/>
		<path class="st39" d="M1249.2,366.8c-0.7,4.9,9.7,126.3,9.7,126.3c0,0.2,3.8,2.2,5.7,0.1c0,0,2-28,5.8-54.5
			c3.2-22.8,2.7-44.5,4.6-45.8v-24.1C1265.7,369.5,1252.2,368.2,1249.2,366.8z"/>
		<path class="st26" d="M1279.8,352.9l-31.8,33c0,0,0.6,6.3,1.4,6.3c34.7,1.6,47.6-14.9,47.1-16.8
			C1293.5,361.9,1279.8,352.9,1279.8,352.9z"/>
		<path class="st33" d="M1218.7,323.9c-0.1,0.7-2.5,8-4.1,9.1c0.4,0.4,5.2,3.6,6.3,6.5c2.3,1.7,7.9-3.7,6.3-8.5
			C1225.7,330.8,1220.2,326,1218.7,323.9z"/>
		<path class="st33" d="M1216.5,323.3c-2.3-2.8-6.3-3.7-9.2-1.4c-2.7,2.2-4.7,5.2-3,8.1c0.6,1.1,8.4,8.5,13.7,5.8
			c2.2-1.1,2.7-7.4,1-9.5C1219,326.4,1216.5,323.3,1216.5,323.3z"/>
		<path class="st35" d="M1248,328.6c-5.7-2.8-20.7,2.6-20.7,2.6s-0.5,5.5-2.3,7.5c-1.2,1.4-3.8,1-3.8,1s-3.6,6.2-3.9,7.5
			c-1.6,5.3,1.1,9.2,4.1,11.8c22.4,19.3,24.4,29,26.9,29c32.2-0.6,47.3-20.9,42.9-25.7C1272.7,342,1249.8,329.5,1248,328.6z"/>
		<g>
			<path class="st33" d="M1222,396.1c0.1,0.5,2.1,0.5,2.6,0.2c0.9-0.9,0.2-1.4,1.2-2c-0.9,0.5-1.8,0.9-2.8,1
				C1222.4,395.4,1221.8,395.4,1222,396.1z"/>
			<path class="st33" d="M1223.9,396.1c-1,1-2.8,3.4-3,3.6c-0.4,0.5-1.5,1.7-1.6,2.2c-0.1,0.2,0,1.2,0.2,1.6
				c0.2,0.4,0.9,0.2,0.9,0.2c0.2,0.6,1.7-0.4,1.7-0.2c0.1,0.7,1.1,0.7,2.6-1.2c0.1-0.1,4.6-4.2,5.9-5.7c-0.9-0.9-4.1-2.8-4.1-2.8
				C1225.5,394.5,1224.6,395.3,1223.9,396.1z"/>
			<path class="st33" d="M1244.3,333.8c-2-0.4-13.1,2-12.9,3c1,5.4,8.5,21.3,10.6,29.6c2.6,10.2,8.7,4.7,9,1.4
				C1251.6,358.9,1248.9,334.5,1244.3,333.8z"/>
			<path class="st26" d="M1231.5,336.7c-0.6,3.8,4.3,13.1,6.5,21.2c3.8,0.5,10.3-0.6,14.9-3.2c-1-9.9-3.8-18.4-5.7-20.7
				C1242.4,327.9,1232.3,331.9,1231.5,336.7z"/>
			<path class="st33" d="M1245,364.6c-0.4,0.2-0.6,0.5-0.9,0.7c-3.6,4.7-13.7,24.4-18.1,28.7c1.7,1.1,3,2.2,3.8,3.2
				c7.3-7.3,23.2-27.4,21.2-30.9C1249.3,363,1246.6,363.5,1245,364.6z"/>
		</g>
		<path class="st6" d="M1211.8,315.3c-6.9,0.1-9.2,9.2-9.2,9.2c-3.6,5.1,3.4,10.5,6.3,9.5c-5.4-3.8-3.7-8.4-3.7-8.4
			c5.9-5.7,14.7-0.6,16,1.6C1221.2,327.3,1222.3,315.1,1211.8,315.3z"/>
		<path class="st33" d="M1215.4,322.3c-0.2,0.2-0.6,0.9-0.7,1.5c1.1,0.7,3.2,1.6,4.2,2c0.5-0.9,0.2-2.6-0.4-3.2
			C1217.6,322,1216,321.7,1215.4,322.3z"/>
		<path class="st6" d="M1240,310.5c-3.1-0.2-4.7,0.5-10-4.3c-17.6-16.1-24.8,4.4-20.1,8.7c1.1,1,2.3,1.1,2.2-0.9
			c-0.4-3.4,3.4-10.5,10.2,3.1c1.7,3.6,1.6,10.6,14.2,8.1c11.5-2.2,7.1,5.1,9.6,6.8C1252.1,336.4,1255.1,311.5,1240,310.5z"/>
		<path class="st35" d="M1210.3,313.7c-0.6,0.1-1,0.4-1.2,0.7c-0.7,0.7-0.7,1.8-0.7,1.8c2.3-1.1,5.4-0.9,5.4-0.9
			C1213.4,314.2,1212.6,313.2,1210.3,313.7z"/>
	</g>
</g>
<g>
	<g>
		<g>
			<path class="st33" d="M686.3,356.5c0.1,0.5-1.7,1.7-2.1,1.7c-1.2-0.3-1-1-2.2-1.2c1,0,2.1-0.3,3.1-0.7
				C685.6,356.1,686,355.7,686.3,356.5z"/>
			<path class="st33" d="M681.1,356.9c1.2,0.1,2.4,0.4,3.7,0.7c1.4,0.4,4.6,1.4,4.7,1.6c0.7,0.3,2.2,0.8,2.6,1
				c0.3,0.3,0.7,1,0.7,1.6c0,0.5-0.7,0.7-0.7,0.7c0.1,0.7-1.7,0.7-1.7,0.8c0.3,0.7-0.7,1.3-3,0.3c-0.1,0-6.5-1.2-8.5-1.7
				C679.2,360.5,681.1,356.9,681.1,356.9z"/>
			<path class="st33" d="M647.8,341.2c0.4,0,0.8,0.1,1.2,0.3c5.9,2.2,26,14.3,32.5,15.6c-0.9,2-1.4,3.7-1.7,5
				c-10.6-2.5-36.3-11.5-36.5-15.8C643.1,342.2,645.8,341,647.8,341.2z"/>
			<path class="st33" d="M636,310c3.3,4.7,9.6,22.4,14.1,30.2c5.6,9.7-3.1,10.1-5.8,7.7c-6.9-6.3-23.2-26.6-20.4-30.6
				C625.3,315.6,635.4,309.1,636,310z"/>
			<path class="st34" d="M681.7,355.7c-3.8-0.8-27-13.1-29.3-14.3c-0.3-0.7-5.9-12-8.5-18.1c-2.6-6-5.2-12.3-6.9-14.8
				c-0.3-0.4-0.4,0-0.9,0c-2.2-0.1-11.5,6.3-12.8,8c-3.9,5.4,14.8,27.1,20.5,32.2c5.4,5,26.7,12.2,36,14.4L681.7,355.7z"/>
		</g>
		<path class="st35" d="M615.7,493.1l4.1-2.2c0,0,0.9,1.3,1.6,2.1c1.4,1.6,8,2.7,8,5.1c0,1.2-2.5,2.2-4.4,2.4s-3.7-0.3-4.8-0.7
			c-1.2-0.4-3.9-1.4-4.3-2.2c-0.8-1.3-0.1-2.7-0.1-2.7C615.4,493.6,615.7,493.1,615.7,493.1z"/>
		<path class="st33" d="M621.4,493c0,0-0.8,1.4-2.4,2.2c-0.9,0.5-3.4-0.4-3.4-0.4c-0.3-1.3-0.1-3.1-0.1-3.1l5.5-1
			C621,490.7,620.3,491.7,621.4,493z"/>
		<path class="st35" d="M631.3,361.3c-3.3,1.4-17.5,2.9-27.4,2.2v25.7c2,1.6,13.1,30.6,17.9,47.4c0.1,0.5-6.9,49.9-6.9,55.2
			c2,2.2,6,0,6-0.1c0,0,15.4-25,17.9-55.2C641.8,401.4,631.7,364.2,631.3,361.3z"/>
		<path class="st35" d="M584.9,493.4l4.2-2c0,0,0.8,1.4,1.4,2.2c1.3,1.7,7.7,3.4,7.6,5.8c-0.1,1.2-2.6,2-4.6,2c-2-0.1-3.8-0.3-4.7-1
			c-1.3-0.9-3.8-1.8-4.2-2.5c-0.7-1.3,0-2.7,0-2.7C584.5,493.9,584.9,493.4,584.9,493.4z"/>
		<path class="st33" d="M590.5,493.7c0,0-0.9,1.3-2.5,2.1c-0.9,0.4-3.4-0.7-3.4-0.7c-0.1-1.3,0-3.3,0-3.3l5.4-0.5
			C590,491.3,589.6,492.3,590.5,493.7z"/>
		<path class="st35" d="M613.7,363.3c-3.3-4.3-15.6-9-24.1-5.5c-12.2,23.3,3.9,57.3,6,79.2c0,0-11.5,30.2-11.5,55.1
			c1.8,2.4,5.9,0.5,6,0.3c0-10.1,20.2-35.6,22.4-53.9C616.8,403.4,613.8,366.1,613.7,363.3z"/>
		<path class="st33" d="M617.6,288.4c0.7,0.5,7.5,5,9.6,4.7c0,0.5-1.8,6.4-0.7,9.7c-0.8,2.9-9,2.4-10.9-2.7
			C616.5,298.8,617.8,291.2,617.6,288.4z"/>
		<path class="st33" d="M625.7,279c3.8,0,7.3,1,7.9,4.7c0.3,1.3-1,12.6-7.2,13.9c-2.6,0.5-7.2-4.2-7.2-7.2c0,0,0-4.1,0-4.2
			C619,282.4,621.6,279.1,625.7,279z"/>
		<path class="st34" d="M637.1,321.8c-0.1,1.8-1.7,9.6-2.2,21.1c-0.1,2.4-0.3,4.8-0.3,7.6c-0.1,7.1,0.3,15.3,1.3,24.2
			c-2,13.3-26.7,19.4-44.6,11.1l-1.3-18.2l-3.4,17.3c-1.2-0.3-3.7-0.3-4.6-0.4c-3.3-53.9,6.7-76.4,25-82.6c2.1-0.7,8.5-1.7,8.5-1.7
			s4.2,4.1,7.1,4.6c2,0.3,3.8-1.7,3.8-1.7s7.1,2.6,8.4,3.5C639.7,309.6,637.5,316.2,637.1,321.8z"/>
		<path class="st35" d="M626.7,317.9c0,0-11.8-11.6-19.6-16.1c0,0,1.8-0.8,4.2-1c1-0.1,4.3-0.5,4.3-0.5s4.2,4.2,7.1,4.6
			c2,0.3,3.8-1.7,3.8-1.7s5,1.7,6.5,2.6C632.2,311.3,626.7,317.9,626.7,317.9z"/>
		<path class="st6" d="M638.4,280.3c0,1.7-1.6,6-18.1,2.4c-2,2.9-2.7,9.2-2.7,9.2c-4.8-4.3-5.8-14,0-19.1
			C624.9,266,638.1,272.3,638.4,280.3z"/>
		<path class="st33" d="M618.5,284.7c0.4,0,1.2,0,1.7,0.3c-0.1,1.4-0.7,3.7-0.9,4.8c-1-0.1-2.4-1.4-2.5-2.4
			C616.7,286.4,617.4,284.9,618.5,284.7z"/>
	</g>
	<g>
		<g id="XMLID_447_">
			<g>
				<g>
					<path class="st35" d="M731.7,424.5l5.2-3.3l-6.8-11l-5.2,3.3c-3.4-3.7-7.5-6.5-11.9-8.5l1.3-6l-12.6-2.9l-1.3,6
						c-3.8-0.1-7.7,0.3-11.4,1.4c-0.9,0.3-2,0.7-2.9,1H686l-3.3-5.2l-11,6.8l3.3,5.2c-0.9,0.9-1.8,1.8-2.7,2.9
						c-2.4,2.7-4.3,5.9-5.8,9.2l-6-1.3l-2.9,12.6l5.9,1.3c-0.3,4.8,0.5,9.8,2.5,14.4l-5.2,3.3l6.8,11l5.2-3.3
						c3.4,3.7,7.5,6.5,11.9,8.5l-1.3,5.9l12.6,2.9l1.3-6c4.8,0.3,9.8-0.5,14.4-2.5l3.3,5.2l10.9-6.8l-3.3-5.2c0.9-0.9,2-1.8,2.7-2.9
						c2.4-2.7,4.3-5.9,5.8-9.2l6,1.3l2.9-12.6l-5.9-1.3C734.3,434.1,733.5,429.2,731.7,424.5z M718.5,454.6c-1.7,1.8-3.5,3.5-5.9,5
						c-12.2,7.6-28.3,3.9-36-8.2c-6.3-9.9-5-22.5,2.5-31c1.7-1.8,3.5-3.5,5.9-5c1.3-0.8,2.6-1.4,3.9-2.1c0.9-0.4,2-0.8,2.9-1
						c10.9-3,22.8,1.3,29.1,11.3C727.2,433.7,725.8,446.1,718.5,454.6z"/>
				</g>
			</g>
		</g>
		<g>
			<g>
				<g>
					<path class="st22" d="M701.2,416.1l-28.8-84.3c-1.7-4.8-6.4-7.5-11.3-5.8l0,0c-4.8,1.7-7.7,6.8-6,11.6l28.8,84.3
						c-6,6.3-7.7,15.4-5.1,23.2c2.6,7.9,9.8,12.8,17.8,13.6c0-0.1-0.3-0.3-0.3-0.4l-6.7-19.5c-0.5-1.4,0.4-3,1.8-3.5l11.9-4.1
						c1.4-0.5,3,0.3,3.5,1.7l6.7,19.5c0,0.1,0.1,0.3,0.1,0.4c6-5.5,8.4-13.7,5.8-21.6C716.9,423.7,708.8,417.7,701.2,416.1z
						 M665.1,338c-1.8,0.7-3.9-0.4-4.6-2.2s0.4-3.9,2.2-4.6c1.8-0.7,3.9,0.4,4.6,2.2C668,335.3,666.9,337.4,665.1,338z"/>
				</g>
			</g>
		</g>
		<g>
			<g>
				<rect x="655.4" y="446.5" class="st23" width="64.1" height="55"/>
			</g>
			<g>
				<rect x="719.5" y="446.5" class="st23" width="23.6" height="55"/>
			</g>
		</g>
		<g>
			<polygon class="st22" points="655.4,480.5 708.9,480.5 719.5,446.5 655.4,446.5 			"/>
		</g>
		<g>
			<polygon class="st22" points="719.8,447.9 730.1,492.3 743.1,492.3 743.1,446.5 719.5,446.5 			"/>
		</g>
		<g>
			<polygon class="st23" points="643,468.9 708.9,468.9 719.7,446.4 655.8,446.4 			"/>
		</g>
		<g>
			<polygon class="st23" points="719.8,446.4 729.5,473.5 752.8,473.5 743.1,446.4 			"/>
		</g>
	</g>
	<g>
		<path class="st33" d="M662.1,360.4c-0.9,0.4-2.1,0.7-3,0.8c1.2,0.1,1,0.8,2.2,1c0.5,0,2.4-1.3,2.1-1.7
			C663.1,359.7,662.6,360.1,662.1,360.4z"/>
		<path class="st33" d="M666.5,363.1c-0.3-0.1-3.4-1.2-4.8-1.4c-1.2-0.3-2.5-0.5-3.7-0.5c-0.1,0-1.7,3.7-2,5c2,0.5,8.4,1.4,8.5,1.6
			c2.5,0.9,3.3,0.3,3-0.4c-0.1-0.1,1.7-0.1,1.6-0.8c0,0,0.5-0.1,0.7-0.8c0-0.4-0.5-1.3-0.8-1.4C668.7,363.8,667.2,363.4,666.5,363.1
			z"/>
		<path class="st34" d="M629,346.4c-0.3-0.7-0.7-1.3-1-2c-2.4-3.8-5.2-9.9-8-16c-2.7-5.9-5.2-11.5-7.1-14c-0.3-0.4-0.8-0.7-1.2-0.7
			c-2.2,0-11.4,6.5-12.7,8.4c-3.8,5.5,15.4,26.7,21.3,31.7c5.5,4.8,27,11.5,36.4,13.5l2.1-7.6c-3.8-0.7-13.1-5.4-20.5-9
			C634.7,349.1,631.5,347.4,629,346.4z"/>
	</g>
</g>
</svg>
