<?xml version="1.0" encoding="utf-8"?>
<!-- Generator: Adobe Illustrator 20.1.0, SVG Export Plug-In . SVG Version: 6.00 Build 0)  -->
<svg version="1.1" id="Layer_1" xmlns="http://www.w3.org/2000/svg" xmlns:xlink="http://www.w3.org/1999/xlink" x="0px" y="0px"
	 viewBox="0 0 1349 600" style="enable-background:new 0 0 1349 600;" xml:space="preserve">
<style type="text/css">
	.st0{fill:#DFE3FE;}
	.st1{display:none;}
	.st2{display:inline;}
	.st3{fill:url(#SVGID_1_);}
	.st4{fill:#FFFFFF;}
	.st5{fill:#47C2C6;}
	.st6{fill:#FCD2C5;}
	.st7{fill:#4763AE;}
	.st8{fill:#D3DBEA;}
	.st9{fill:#194868;}
	.st10{fill:#E1E8F3;}
	.st11{fill:#CDD8E2;}
	.st12{fill:#EAF2FB;}
	.st13{fill:#E3EDF6;}
	.st14{fill:#AFC4D5;}
	.st15{fill:url(#SVGID_2_);}
	.st16{fill:#22377C;}
	.st17{fill:#FF5E99;}
	.st18{fill:#552589;}
	.st19{fill:#D2DBEB;}
	.st20{fill:#2D5DEA;}
	.st21{fill:#13265B;}
	.st22{fill:#BF8DFF;}
	.st23{fill:#29004F;}
	.st24{fill:#F0F5FF;}
	.st25{fill:#3F82C4;}
	.st26{fill:#8FAFFF;}
	.st27{fill:#9958ED;}
	.st28{fill:#E3EEF7;}
	.st29{fill:#AFC4D6;}
</style>
<path class="st0" d="M527.3-0.5c0,0,21.2,48.8,107.1,61.8s29.9,83.1,49.1,155.6c9.7,36.6,48.3,109,166.7,64.3
	c83.8-31.7,111.3,11.5,113.2,81.4c2.4,89.4,45.5,119.5,153.9,103.7c108.4-15.9,124.4-2.5,140.4,28.5s69.2,28.9,91.3,8.9
	c0-66,0-503.6,0-503.6L527.3-0.5z"/>
<g class="st1">
	<g class="st2">
		
			<radialGradient id="SVGID_1_" cx="914.548" cy="3927.2749" r="376.0132" gradientTransform="matrix(1 0 0 -6.800000e-02 0 777.0532)" gradientUnits="userSpaceOnUse">
			<stop  offset="5.400000e-03" style="stop-color:#7CD1E7"/>
			<stop  offset="1" style="stop-color:#FFFFFF"/>
		</radialGradient>
		<path class="st3" d="M914.5,492.5c-206.5,0-373.8,7.8-373.8,17.5c0,9.7,167.4,17.5,373.8,17.5c206.5,0,373.8-7.8,373.8-17.5
			C1288.4,500.3,1121,492.5,914.5,492.5z"/>
	</g>
	<g class="st2">
		<g>
			<rect x="1153.9" y="505.2" class="st4" width="61.5" height="4.8"/>
		</g>
		<g>
			<g>
				<path class="st4" d="M1200.3,285.1h-27.6c-1.3,0-2.4,1.1-2.4,2.4v27.6c0,1.3,1.1,2.4,2.4,2.4h27.6c1.3,0,2.4-1.1,2.4-2.4v-27.6
					C1202.7,286.1,1201.7,285.1,1200.3,285.1z M1197.9,312.7h-22.8v-22.8h22.8V312.7z"/>
			</g>
			<g>
				
					<rect x="1167" y="298.6" transform="matrix(0.7072 -0.707 0.707 0.7072 134.5288 926.9029)" class="st4" width="38.7" height="4.8"/>
			</g>
		</g>
		<g>
			<g>
				<path class="st4" d="M1200.3,257.5h-27.6c-1.3,0-2.4,1.1-2.4,2.4v27.6c0,1.3,1.1,2.4,2.4,2.4h27.6c1.3,0,2.4-1.1,2.4-2.4v-27.6
					C1202.7,258.5,1201.7,257.5,1200.3,257.5z M1197.9,285.1h-22.8v-22.8h22.8V285.1z"/>
			</g>
			<g>
				
					<rect x="1184" y="254.3" transform="matrix(0.7071 -0.7071 0.7071 0.7071 153.9738 919.0597)" class="st4" width="4.8" height="38.7"/>
			</g>
		</g>
		<g>
			<g>
				<path class="st4" d="M1200.3,340.3h-27.6c-1.3,0-2.4,1.1-2.4,2.4v27.6c0,1.3,1.1,2.4,2.4,2.4h27.6c1.3,0,2.4-1.1,2.4-2.4v-27.6
					C1202.7,341.4,1201.7,340.3,1200.3,340.3z M1197.9,367.9h-22.8v-22.8h22.8V367.9z"/>
			</g>
			<g>
				<polygon class="st4" points="1171,368.3 1174.4,371.6 1201.7,344.3 1198.3,340.9 				"/>
			</g>
		</g>
		<g>
			<g>
				<path class="st4" d="M1200.3,312.7h-27.6c-1.3,0-2.4,1.1-2.4,2.4v27.6c0,1.3,1.1,2.4,2.4,2.4h27.6c1.3,0,2.4-1.1,2.4-2.4v-27.6
					C1202.7,313.8,1201.7,312.7,1200.3,312.7z M1197.9,340.3h-22.8v-22.8h22.8V340.3z"/>
			</g>
			<g>
				
					<rect x="1184" y="309.6" transform="matrix(0.7071 -0.7071 0.7071 0.7071 114.8827 935.2286)" class="st4" width="4.8" height="38.7"/>
			</g>
		</g>
		<g>
			<g>
				<path class="st4" d="M1200.3,230.7h-27.6c-1.3,0-2.4,1.1-2.4,2.4v26.8c0,1.3,1.1,2.4,2.4,2.4h27.6c1.3,0,2.4-1.1,2.4-2.4v-26.8
					C1202.7,231.7,1201.7,230.7,1200.3,230.7z M1197.9,257.5h-22.8v-22h22.8V257.5z"/>
			</g>
			<g>
				
					<rect x="1167" y="244" transform="matrix(0.7072 -0.707 0.707 0.7072 173.1918 910.8917)" class="st4" width="38.7" height="4.8"/>
			</g>
		</g>
		<g>
			<g>
				<path class="st4" d="M1200.3,203.1h-27.6c-1.3,0-2.4,1.1-2.4,2.4v27.6c0,1.3,1.1,2.4,2.4,2.4h27.6c1.3,0,2.4-1.1,2.4-2.4v-27.6
					C1202.7,204.1,1201.7,203.1,1200.3,203.1z M1197.9,230.7h-22.8v-22.8h22.8V230.7z"/>
			</g>
			<g>
				
					<rect x="1183.9" y="199.6" transform="matrix(0.7071 -0.7072 0.7072 0.7071 192.7077 903.0446)" class="st4" width="4.8" height="38.7"/>
			</g>
		</g>
		<g>
			<g>
				<path class="st4" d="M1200.3,176.3h-27.6c-1.3,0-2.4,1.1-2.4,2.4v26.8c0,1.3,1.1,2.4,2.4,2.4h27.6c1.3,0,2.4-1.1,2.4-2.4v-26.8
					C1202.7,177.3,1201.7,176.3,1200.3,176.3z M1197.9,203.1h-22.8v-22h22.8V203.1z"/>
			</g>
			<g>
				<polygon class="st4" points="1171,203.9 1174.4,207.3 1201.7,179.9 1198.3,176.6 				"/>
			</g>
		</g>
		<g>
			<g>
				<path class="st4" d="M1200.3,148.7h-27.6c-1.3,0-2.4,1.1-2.4,2.4v27.6c0,1.3,1.1,2.4,2.4,2.4h27.6c1.3,0,2.4-1.1,2.4-2.4V151
					C1202.7,149.7,1201.7,148.7,1200.3,148.7z M1197.9,176.3h-22.8v-22.8h22.8V176.3z"/>
			</g>
			<g>
				
					<rect x="1184" y="145.2" transform="matrix(0.7071 -0.7071 0.7071 0.7071 231.1257 887.1158)" class="st4" width="4.8" height="38.7"/>
			</g>
		</g>
		<g>
			<g>
				<path class="st4" d="M1200.3,450h-27.6c-1.3,0-2.4,1.1-2.4,2.4V480c0,1.3,1.1,2.4,2.4,2.4h27.6c1.3,0,2.4-1.1,2.4-2.4v-27.6
					C1202.7,451,1201.7,450,1200.3,450z M1197.9,477.6h-22.8v-22.8h22.8V477.6z"/>
			</g>
			<g>
				
					<rect x="1167" y="463.5" transform="matrix(0.707 -0.7072 0.7072 0.707 18.0947 975.5173)" class="st4" width="38.7" height="4.8"/>
			</g>
		</g>
		<g>
			<g>
				<path class="st4" d="M1200.3,422.3h-27.6c-1.3,0-2.4,1.1-2.4,2.4v27.6c0,1.3,1.1,2.4,2.4,2.4h27.6c1.3,0,2.4-1.1,2.4-2.4v-27.6
					C1202.7,423.4,1201.7,422.3,1200.3,422.3z M1197.9,450h-22.8v-22.8h22.8V450z"/>
			</g>
			<g>
				
					<rect x="1184" y="419.3" transform="matrix(0.7071 -0.7071 0.7071 0.7071 37.3432 967.3287)" class="st4" width="4.8" height="38.7"/>
			</g>
		</g>
		<g>
			<g>
				<path class="st4" d="M1200.3,477.6h-27.6c-1.3,0-2.4,1.1-2.4,2.4v27.6c0,1.3,1.1,2.4,2.4,2.4h27.6c1.3,0,2.4-1.1,2.4-2.4V480
					C1202.7,478.7,1201.7,477.6,1200.3,477.6z M1197.9,505.2h-22.8v-22.8h22.8V505.2z"/>
			</g>
			<g>
				
					<rect x="1183.9" y="474.5" transform="matrix(0.7071 -0.7071 0.7071 0.7071 -1.7534 983.487)" class="st4" width="4.8" height="38.7"/>
			</g>
		</g>
		<g>
			<g>
				<path class="st4" d="M1200.3,395.6h-27.6c-1.3,0-2.4,1.1-2.4,2.4v26.8c0,1.3,1.1,2.4,2.4,2.4h27.6c1.3,0,2.4-1.1,2.4-2.4V398
					C1202.7,396.6,1201.7,395.6,1200.3,395.6z M1197.9,422.3h-22.8v-22h22.8V422.3z"/>
			</g>
			<g>
				
					<rect x="1167" y="408.8" transform="matrix(0.7068 -0.7074 0.7074 0.7068 56.9289 959.8181)" class="st4" width="38.7" height="4.8"/>
			</g>
		</g>
		<g>
			<g>
				<path class="st4" d="M1200.3,367.9h-27.6c-1.3,0-2.4,1.1-2.4,2.4V398c0,1.3,1.1,2.4,2.4,2.4h27.6c1.3,0,2.4-1.1,2.4-2.4v-27.6
					C1202.7,369,1201.7,367.9,1200.3,367.9z M1197.9,395.6h-22.8v-22.8h22.8V395.6z"/>
			</g>
			<g>
				
					<rect x="1184" y="364.5" transform="matrix(0.7071 -0.7071 0.7071 0.7071 76.0635 951.3573)" class="st4" width="4.8" height="38.7"/>
			</g>
		</g>
		<g>
			<g>
				<path class="st4" d="M1200.3,120.3h-27.6c-1.3,0-2.4,1.1-2.4,2.4v27.6c0,1.3,1.1,2.4,2.4,2.4h27.6c1.3,0,2.4-1.1,2.4-2.4v-27.6
					C1202.7,121.4,1201.7,120.3,1200.3,120.3z M1197.9,147.9h-22.8v-22.8h22.8V147.9z"/>
			</g>
			<g>
				
					<rect x="1167" y="134.1" transform="matrix(0.7072 -0.707 0.707 0.7072 250.834 878.7383)" class="st4" width="38.7" height="4.8"/>
			</g>
		</g>
		<g>
			<g>
				<path class="st4" d="M1200.3,93.5h-27.6c-1.3,0-2.4,1.1-2.4,2.4v26.8c0,1.3,1.1,2.4,2.4,2.4h27.6c1.3,0,2.4-1.1,2.4-2.4V95.9
					C1202.7,94.6,1201.7,93.5,1200.3,93.5z M1197.9,120.3h-22.8v-22h22.8V120.3z"/>
			</g>
			<g>
				
					<rect x="1184" y="89.8" transform="matrix(0.7071 -0.7071 0.7071 0.7071 270.3192 870.8866)" class="st4" width="4.8" height="38.7"/>
			</g>
		</g>
		<g>
			<g>
				<path class="st4" d="M1172.7,120.3h-27.6c-1.3,0-2.4,1.1-2.4,2.4v27.6c0,1.3,1.1,2.4,2.4,2.4h27.6c1.3,0,2.4-1.1,2.4-2.4v-27.6
					C1175.1,121.4,1174,120.3,1172.7,120.3z M1170.3,147.9h-22.8v-22.8h22.8V147.9z"/>
			</g>
			<g>
				<polygon class="st4" points="1143.7,124.5 1171,151.9 1174.4,148.5 1147,121.2 				"/>
			</g>
		</g>
		<g>
			<g>
				<path class="st4" d="M1145.1,120.3h-26.8c-1.3,0-2.4,1.1-2.4,2.4v27.6c0,1.3,1.1,2.4,2.4,2.4h26.8c1.3,0,2.4-1.1,2.4-2.4v-27.6
					C1147.5,121.4,1146.4,120.3,1145.1,120.3z M1142.7,147.9h-22v-22.8h22V147.9z"/>
			</g>
			<g>
				<polygon class="st4" points="1116.3,148.5 1119.7,151.9 1147,124.5 1143.7,121.2 				"/>
			</g>
		</g>
		<g>
			<g>
				<path class="st4" d="M1118.3,120.3h-27.6c-1.3,0-2.4,1.1-2.4,2.4v27.6c0,1.3,1.1,2.4,2.4,2.4h27.6c1.3,0,2.4-1.1,2.4-2.4v-27.6
					C1120.7,121.4,1119.6,120.3,1118.3,120.3z M1115.9,147.9h-22.8v-22.8h22.8V147.9z"/>
			</g>
			<g>
				
					<rect x="1101.9" y="117.2" transform="matrix(0.7071 -0.7071 0.7071 0.7071 226.8901 820.8548)" class="st4" width="4.8" height="38.7"/>
			</g>
		</g>
		<g>
			<path class="st4" d="M1220.1,120.3h-19.8c-1.3,0-2.4,1.1-2.4,2.4v27.6c0,1.3,1.1,2.4,2.4,2.4h19.8c8.9,0,16.1-7.2,16.1-16.1v-0.3
				C1236.2,127.5,1229,120.3,1220.1,120.3z M1231.4,136.6c0,6.2-5.1,11.3-11.3,11.3h-17.4v-22.8h17.4c6.2,0,11.3,5.1,11.3,11.3
				V136.6z"/>
		</g>
		<g>
			<rect x="1056" y="147.9" class="st4" width="116.3" height="4.8"/>
		</g>
		<g>
			<path class="st4" d="M1091.9,120.7c-0.7-0.4-1.6-0.5-2.3-0.1l-25.9,13.3c-0.8,0.4-1.3,1.2-1.3,2.1v13.8c0,1.3,1.1,2.4,2.4,2.4
				h25.9c1.3,0,2.4-1.1,2.4-2.4v-27.1C1093.1,121.9,1092.7,121.1,1091.9,120.7z M1088.3,147.4h-21.2v-9.9l21.2-10.9V147.4z"/>
		</g>
		<g>
			<rect x="1091.7" y="147.8" class="st4" width="2.8" height="63.4"/>
		</g>
		<g>
			<path class="st5" d="M1104.1,208.8h-22c-3,0-5.4,2.4-5.4,5.4v22c0,3,2.4,5.4,5.4,5.4h22c3,0,5.4-2.4,5.4-5.4v-22
				C1109.5,211.3,1107.1,208.8,1104.1,208.8z"/>
		</g>
	</g>
	<g class="st2">
		<g>
			<path class="st6" d="M1176.5,360.8c-0.6-0.1-1.2-0.5-1.3,0.3c-0.1,0.5,2,1.4,2.5,1.4c1.2-0.5,0.9-1.2,2.1-1.6
				C1178.8,361,1177.6,361,1176.5,360.8z"/>
			<path class="st6" d="M1180.7,360.6c-1.2,0.3-2.4,0.8-3.6,1.3c-1.4,0.6-4.4,2.3-4.6,2.5c-0.6,0.4-2.2,1.2-2.6,1.6
				c-0.2,0.3-0.5,1.3-0.4,1.7c0.1,0.6,0.8,0.6,0.8,0.6c0,0.7,1.9,0.3,1.8,0.5c-0.1,0.8,0.8,1.2,3.2-0.2c0.1-0.1,6.5-2.4,8.5-3.3
				C1183.3,364,1180.8,360.6,1180.7,360.6z"/>
			<path class="st6" d="M1212.5,338.4c-0.5,0.1-0.9,0.3-1.2,0.4c-5.7,3.3-24.5,19.3-30.9,21.9c1.2,1.9,2.2,3.5,2.6,4.9
				c10.5-4.4,35.5-18.3,35-22.8C1217.5,338.7,1214.5,338,1212.5,338.4z"/>
			<path class="st6" d="M1219.2,304.1c-2.6,5.5-6,24.8-9.4,33.8c-4.2,11,5,10,7.3,7c6.2-7.7,19.4-31.6,15.7-35.2
				C1231.2,308.1,1219.6,303.1,1219.2,304.1z"/>
			<path class="st7" d="M1219.1,302.6c-0.5,0.1-0.9,0.4-1.1,0.9c-1.3,2.9-2.9,9.2-4.5,15.8c-1.6,6.7-5.5,19.5-5.7,20.2
				c-2.3,1.6-24.2,18.4-27.9,19.9l3.6,7.4c9.3-3.9,30-15.1,34.7-21.2c5-6.3,20.5-32.1,15.6-37
				C1232.1,307.1,1221.3,302.2,1219.1,302.6z"/>
		</g>
		<g>
			<rect x="1093.5" y="344.8" class="st8" width="137.2" height="119.5"/>
			<rect x="1093.5" y="333.9" class="st9" width="137.2" height="15.3"/>
			<rect x="1105.3" y="356.9" class="st4" width="112.7" height="93.1"/>
			<rect x="1133.5" y="362.9" class="st8" width="80.2" height="43.6"/>
			<g>
				<rect x="1137" y="432.8" class="st8" width="16.6" height="2.2"/>
				<rect x="1161.9" y="432.8" class="st8" width="36.4" height="2.2"/>
				<rect x="1202.6" y="432.8" class="st8" width="7.6" height="2.2"/>
				<rect x="1185.1" y="436.2" class="st8" width="25.1" height="2.2"/>
				<rect x="1137" y="436.2" class="st8" width="6" height="2.2"/>
				<rect x="1146.1" y="436.2" class="st8" width="33.1" height="2.2"/>
				<rect x="1137" y="439.6" class="st8" width="19.9" height="2.2"/>
				<rect x="1161" y="439.6" class="st8" width="49.2" height="2.2"/>
			</g>
			<g>
				<rect x="1137" y="414" class="st8" width="16.6" height="2.2"/>
				<rect x="1161.9" y="414" class="st8" width="36.4" height="2.2"/>
				<rect x="1202.6" y="414" class="st8" width="7.6" height="2.2"/>
				<rect x="1185.1" y="417.5" class="st8" width="25.1" height="2.2"/>
				<rect x="1137" y="417.5" class="st8" width="6" height="2.2"/>
				<rect x="1146.1" y="417.5" class="st8" width="33.1" height="2.2"/>
				<rect x="1137" y="420.9" class="st8" width="19.9" height="2.2"/>
				<rect x="1161" y="420.9" class="st8" width="49.2" height="2.2"/>
			</g>
			<rect x="1110.4" y="363.2" class="st8" width="17.6" height="3.4"/>
			<rect x="1110.4" y="372.6" class="st8" width="17.6" height="3.3"/>
			<rect x="1110.4" y="382" class="st8" width="17.6" height="3.4"/>
			<rect x="1110.4" y="391.4" class="st8" width="17.6" height="3.3"/>
			<rect x="1110.4" y="400.8" class="st8" width="17.6" height="3.4"/>
			<rect x="1110.4" y="410.2" class="st8" width="17.6" height="3.4"/>
			<rect x="1110.4" y="419.6" class="st8" width="17.6" height="3.4"/>
			<rect x="1110.4" y="429" class="st8" width="17.6" height="3.4"/>
			<rect x="1110.4" y="438.4" class="st8" width="17.6" height="3.4"/>
			<path class="st4" d="M1223.1,343c-0.9,0-1.6,0.7-1.6,1.6c0,0.9,0.7,1.6,1.6,1.6c0.9,0,1.6-0.7,1.6-1.6
				C1224.7,343.7,1224,343,1223.1,343z"/>
			<path class="st4" d="M1216.6,343c-0.9,0-1.6,0.7-1.6,1.6c0,0.9,0.7,1.6,1.6,1.6c0.9,0,1.6-0.7,1.6-1.6
				C1218.2,343.7,1217.5,343,1216.6,343z"/>
			<g>
				<path class="st9" d="M1180.8,370.4h-14.4c-7.5,0-13.2,6.7-13.3,14.2c0,7.5,5.8,14,13.3,14h14.4c7.5,0,13.6-6.6,13.6-14.1
					C1194.4,377,1188.3,370.4,1180.8,370.4z"/>
				<path class="st7" d="M1153.1,384.6C1153.1,384.6,1153.1,384.6,1153.1,384.6c0-0.1,0-0.1,0-0.1V384.6z"/>
				<polygon class="st4" points="1169,392.7 1182.4,385 1169,377.3 				"/>
			</g>
		</g>
		<path class="st9" d="M1245.4,501.9l-4.3-2.4c0,0-0.9,1.4-1.7,2.3c-1.4,1.7-8.4,3-8.4,5.4c0,1.2,2.6,2.3,4.7,2.4
			c2.1,0.1,3.8-0.3,5.1-0.7c1.2-0.4,4.1-1.6,4.5-2.3c0.8-1.3,0.2-2.8,0.2-2.8C1245.7,502.3,1245.4,501.9,1245.4,501.9z"/>
		<path class="st6" d="M1239.9,499.4c0,0,0.6,1-0.4,2.4c0,0,0.9,1.5,2.5,2.4c0.9,0.5,3.6-0.4,3.6-0.4c0.2-1.4,0.1-3.3,0.1-3.3
			L1239.9,499.4z"/>
		<path class="st4" d="M1229,359.3c-0.4,3-2.7,43.5,0.3,80.3c2.6,31.7,10.6,60.7,10.6,60.7c0.1,0.2,4.2,2.5,6.3,0.2
			c0,0-3.3-31.2,0.9-60.7c3.6-25.4,8.6-49.6,10.6-51.2v-27C1247.4,362.4,1232.4,360.8,1229,359.3z"/>
		<path class="st9" d="M1277.8,502.2l-4.5-2c0,0-0.8,1.4-1.5,2.4c-1.3,1.8-8.1,3.6-7.9,6c0.1,1.2,2.8,2.1,4.9,2
			c2.1-0.1,3.9-0.4,5-1.1c1.3-0.9,3.9-1.9,4.3-2.7c0.7-1.4-0.1-2.8-0.1-2.8C1278.2,502.6,1277.8,502.2,1277.8,502.2z"/>
		<path class="st6" d="M1272.5,500c0,0,0.4,1.1-0.6,2.6c0,0,1,1.4,2.7,2.2c1,0.4,3.5-0.7,3.5-0.7c0.1-1.4,0.1-3.4,0.1-3.4
			L1272.5,500z"/>
		<path class="st4" d="M1279.2,361.4c-10.2,1.5-25.3,1.1-28.8-0.1c-0.2,3,0.7,43.8,6.7,80.3c5.1,31.3,15.3,59.4,15.3,59.4
			c0.1,0.2,4.4,2.2,6.3-0.3c0,0-5.7-30.9-3.9-60.6C1276.4,414.5,1279.2,361.4,1279.2,361.4z"/>
		<path class="st6" d="M1227.4,286.3c0.1,0.6,2.3,6.6,1.4,10.1c1,3,9.6,1.9,11.3-3.6c-1.2-1.4-3-9.2-3-12.1
			C1236.5,281.3,1229.6,286.3,1227.4,286.3z"/>
		<path class="st6" d="M1228,271.4c-3.9,0.2-7.6,1.6-8,5.4c-0.1,1.4,1.9,13.1,8.5,14.1c2.8,0.4,7.3-4.8,7.1-8c0,0-0.3-4.3-0.3-4.3
			C1235.2,274.4,1232.2,271.1,1228,271.4z"/>
		<path class="st7" d="M1249,294c-2.2-0.6-9-1.2-9-1.2s-4.1,4.6-7.1,5.2c-2.1,0.4-4.1-1.6-4.1-1.6s-7.2,3.2-8.5,4.2
			c-4.9,3.8-2.3,10.5-1.5,16.3c0.5,3.4,9,34.4,7.1,64.7c13.6,5.5,26.7,9.2,45.1-0.6l-1.2-19.5l6,18.2c1.2-0.3,3.8-0.5,4.8-0.7
			C1280.6,322.2,1268.7,299.1,1249,294z"/>
		<path class="st9" d="M1240.1,292.8c0,0-4.1,4.6-7.1,5.2c-2.1,0.4-4.1-1.6-4.1-1.6s-6.8,3-8.3,4.1c1.2,6.1,9,11.7,9,11.7
			s11.6-13,19.5-18.2c0,0-2-0.7-4.4-0.9C1243.5,293,1240.1,292.8,1240.1,292.8z"/>
		<path class="st9" d="M1236.3,264.2c-8.3-6.5-21.6,1-21.4,9.3c0.1,1.8,2.1,6.2,19.1,1.3c2.3,2.8,3.5,9.4,3.5,9.4
			C1242.3,279.3,1242.6,269.2,1236.3,264.2z"/>
		<path class="st6" d="M1236,276.9c-0.4,0-1.2,0-1.8,0.4c0.2,1.5,0.9,3.8,1.2,5c1-0.2,2.4-1.6,2.5-2.7
			C1238,278.5,1237.1,277,1236,276.9z"/>
		<g>
			<path class="st6" d="M1185.8,342.7c-0.3,0.5,1.4,2,1.9,2.1c1.3-0.1,1.2-0.9,2.5-0.8c-1.1-0.2-2.1-0.7-3.1-1.2
				C1186.6,342.5,1186.1,341.9,1185.8,342.7z"/>
			<path class="st6" d="M1187.3,344.1c-1.5,0.1-4.9,0.8-5.2,0.8c-0.7,0.2-2.5,0.4-2.9,0.7c-0.3,0.2-0.9,1-1,1.5
				c-0.1,0.6,0.5,0.8,0.5,0.8c-0.2,0.7,1.7,0.9,1.6,1.1c-0.4,0.7,0.4,1.4,3.1,0.8c0.2,0,7-0.1,9.1-0.4c0-1.3-1.3-5.4-1.3-5.4
				C1189.9,344,1188.6,344,1187.3,344.1z"/>
			<path class="st7" d="M1246.2,301.7c-0.5-0.1-1,0.1-1.4,0.5c-2.2,2.3-5.7,7.7-9.4,13.5c-3.7,5.8-7.5,11.8-10.6,15.4
				c-0.5,0.6-1,1.2-1.4,1.8c-2.7,0.8-6.3,2-10.2,3.3c-8.3,2.8-18.7,6.3-22.7,6.4l1,8.2c10-0.6,33.3-4.5,39.8-8.8
				c6.8-4.3,29.8-23.7,26.7-29.9C1257.1,310.1,1248.5,302,1246.2,301.7z"/>
		</g>
	</g>
	<g class="st2">
		<g>
			<path class="st5" d="M582,412.4c-0.5,2.3,0.2,5-0.2,7.4c-0.5,3-2.4,3.8-3.6,5.7c-1.5,2.2-2.2,6.3-1.6,9.9c0.3,2.2,1.1,4,1.6,6
				c0.6,2,0.9,4.5,0.4,6.5c-0.7,3.1-4.5,5.6-4.5,18.9c0,12.1,8.7,16.9,11.1,19.8v-78.7l-1.1,1.1C583.2,409.8,582.3,410.7,582,412.4z
				"/>
			<path class="st5" d="M592.1,441.3c0.6-2,1.3-3.8,1.6-6c0.5-3.5-0.1-7.7-1.6-9.9c-1.3-1.9-3.1-2.7-3.6-5.7
				c-0.4-2.4,0.3-5.1-0.2-7.4c-0.4-1.7-1.3-2.7-2.1-3.5l-1.1-1.1v78.7c2.5-3,11.1-7.7,11.1-19.8c0-13.3-3.8-15.7-4.5-18.9
				C591.2,445.8,591.5,443.3,592.1,441.3z"/>
		</g>
		<g>
			<path class="st8" d="M596.5,456.3c-0.7,0.9-0.4,2.2-1,3.1c-0.7,1.1-2.4,1.1-3.6,1.6c-1.5,0.6-2.5,2.2-2.4,3.8
				c0,1,0.5,1.9,0.7,2.9c0.2,1,0.3,2.1-0.3,2.9c-0.9,1.2-4.4,1.4-5.8,7c-1.3,5.1,5.3,9,7,10.8l8.6-33.2l-1,0.2
				C597.8,455.4,597,455.6,596.5,456.3z"/>
			<path class="st8" d="M601,460.8c-0.1-1.1,0.8-2.1,0.7-3.1c-0.1-0.8-0.8-1.4-1.4-1.9l-0.8-0.7l-8.6,33.2c2.4-0.7,10.1-0.8,11.4-6
				c1.5-5.6-1.4-7.5-1.7-8.9c-0.2-1,0.4-1.9,1.1-2.7c0.7-0.7,1.5-1.3,2-2.2c0.8-1.4,0.7-3.3-0.3-4.5
				C602.6,462.9,601.1,462.1,601,460.8z"/>
		</g>
		<path class="st8" d="M570.9,484.6c0,0,5.4,5.8,5.4,9.7c0,1-0.4,2.6-0.9,4.4c-1.8,5.7,2.4,11.4,8.4,11.4H598
			c5.9,0,10.1-5.8,8.4-11.4c-0.5-1.8-0.9-3.4-0.9-4.4c0-3.9,5.4-9.7,5.4-9.7H570.9z"/>
	</g>
	<g class="st2">
		<path class="st4" d="M1051.3,178H929.7c-17,0-30.9,13.9-30.9,30.9v270.3c0,17,13.9,30.9,30.9,30.9h121.6c17,0,30.9-13.9,30.9-30.9
			V208.9C1082.2,191.9,1068.3,178,1051.3,178z"/>
		<path class="st9" d="M1051.3,184.8H929.4c-13.2,0-24.1,10.8-24.1,24.1v270.5c0,13.4,11,24.4,24.4,24.4h121.6
			c13.4,0,24.5-11,24.5-24.5V209.2C1075.8,195.8,1064.8,184.8,1051.3,184.8z"/>
		<path class="st4" d="M945.1,189.9c0,8.9,7.2,16.2,16.2,16.2h58.5c8.9,0,16.2-7.2,16.2-16.2v-6.5h-90.8V189.9z"/>
		<path class="st9" d="M1007.8,194h-34.6c-1.2,0-2.2,1-2.2,2.2v0c0,1.2,1,2.2,2.2,2.2h34.6c1.2,0,2.2-1,2.2-2.2v0
			C1010,195,1009,194,1007.8,194z"/>
		<path class="st9" d="M990.5,184.9c-1.4,0-2.6,1.2-2.6,2.6c0,1.4,1.2,2.6,2.6,2.6c1.4,0,2.6-1.2,2.6-2.6
			C993.1,186.1,992,184.9,990.5,184.9z"/>
		<g>
			<path class="st5" d="M1060.6,433.1h-22c-3,0-5.4,2.4-5.4,5.4v22c0,3,2.4,5.4,5.4,5.4h22c3,0,5.4-2.4,5.4-5.4v-22
				C1066,435.5,1063.6,433.1,1060.6,433.1z"/>
		</g>
		<g>
			<path class="st5" d="M1021.2,433.1h-22c-3,0-5.4,2.4-5.4,5.4v22c0,3,2.4,5.4,5.4,5.4h22c3,0,5.4-2.4,5.4-5.4v-22
				C1026.6,435.5,1024.2,433.1,1021.2,433.1z"/>
		</g>
		<g>
			<path class="st7" d="M981.8,433.1h-22c-3,0-5.4,2.4-5.4,5.4v22c0,3,2.4,5.4,5.4,5.4h22c3,0,5.4-2.4,5.4-5.4v-22
				C987.2,435.5,984.8,433.1,981.8,433.1z"/>
		</g>
		<g>
			<path class="st7" d="M942.4,433.1h-22c-3,0-5.4,2.4-5.4,5.4v22c0,3,2.4,5.4,5.4,5.4h22c3,0,5.4-2.4,5.4-5.4v-22
				C947.8,435.5,945.4,433.1,942.4,433.1z"/>
		</g>
		<g>
			<path class="st5" d="M1060.6,232h-22c-3,0-5.4,2.4-5.4,5.4v22c0,3,2.4,5.4,5.4,5.4h22c3,0,5.4-2.4,5.4-5.4v-22
				C1066,234.4,1063.6,232,1060.6,232z"/>
		</g>
		<g>
			<path class="st8" d="M1021.2,232h-22c-3,0-5.4,2.4-5.4,5.4v22c0,3,2.4,5.4,5.4,5.4h22c3,0,5.4-2.4,5.4-5.4v-22
				C1026.6,234.4,1024.2,232,1021.2,232z"/>
		</g>
		<g>
			<path class="st7" d="M981.8,232h-22c-3,0-5.4,2.4-5.4,5.4v22c0,3,2.4,5.4,5.4,5.4h22c3,0,5.4-2.4,5.4-5.4v-22
				C987.2,234.4,984.8,232,981.8,232z"/>
		</g>
		<g>
			<path class="st8" d="M942.4,232h-22c-3,0-5.4,2.4-5.4,5.4v22c0,3,2.4,5.4,5.4,5.4h22c3,0,5.4-2.4,5.4-5.4v-22
				C947.8,234.4,945.4,232,942.4,232z"/>
		</g>
		<g>
			<path class="st5" d="M981.8,274.5h-22c-3,0-5.4,2.4-5.4,5.4v22c0,3,2.4,5.4,5.4,5.4h22c3,0,5.4-2.4,5.4-5.4v-22
				C987.2,277,984.8,274.5,981.8,274.5z"/>
		</g>
		<g>
			<path class="st7" d="M1021.2,274.5h-22c-3,0-5.4,2.4-5.4,5.4v22c0,3,2.4,5.4,5.4,5.4h22c3,0,5.4-2.4,5.4-5.4v-22
				C1026.6,277,1024.2,274.5,1021.2,274.5z"/>
		</g>
		<g>
			<path class="st4" d="M942.4,274.5h-22c-3,0-5.4,2.4-5.4,5.4v22c0,3,2.4,5.4,5.4,5.4h22c3,0,5.4-2.4,5.4-5.4v-22
				C947.8,277,945.4,274.5,942.4,274.5z"/>
		</g>
		<g>
			<path class="st5" d="M1060.6,316.8h-22c-3,0-5.4,2.4-5.4,5.4v22c0,3,2.4,5.4,5.4,5.4h22c3,0,5.4-2.4,5.4-5.4v-22
				C1066,319.2,1063.6,316.8,1060.6,316.8z"/>
		</g>
		<g>
			<path class="st7" d="M981.8,316.8h-22c-3,0-5.4,2.4-5.4,5.4v22c0,3,2.4,5.4,5.4,5.4h22c3,0,5.4-2.4,5.4-5.4v-22
				C987.2,319.2,984.8,316.8,981.8,316.8z"/>
		</g>
		<g>
			<path class="st5" d="M942.4,316.8h-22c-3,0-5.4,2.4-5.4,5.4v22c0,3,2.4,5.4,5.4,5.4h22c3,0,5.4-2.4,5.4-5.4v-22
				C947.8,319.2,945.4,316.8,942.4,316.8z"/>
		</g>
		<g>
			<path class="st5" d="M942.4,359.3h-22c-3,0-5.4,2.4-5.4,5.4v22c0,3,2.4,5.4,5.4,5.4h22c3,0,5.4-2.4,5.4-5.4v-22
				C947.8,361.7,945.4,359.3,942.4,359.3z"/>
		</g>
		<g>
			<path class="st5" d="M981.8,359.3h-22c-3,0-5.4,2.4-5.4,5.4v22c0,3,2.4,5.4,5.4,5.4h22c3,0,5.4-2.4,5.4-5.4v-22
				C987.2,361.7,984.8,359.3,981.8,359.3z"/>
		</g>
	</g>
	<g class="st2">
		<path class="st6" d="M1100.4,235.3c-0.4-0.3-2.7-0.3-2.9,0.2c-0.2,0.8,0.4,0.7,1,0.8c1.1,0.3,2.2,0.7,3.1,1.2
			C1100.7,236.8,1101.3,236.3,1100.4,235.3z"/>
		<path class="st6" d="M1100.6,228.7c-1.5-2.2-2.6-2.3-2.8-1.5c0,0.2-1.6-1-1.9-0.3c0,0-0.6-0.2-1,0.2c-0.3,0.4-0.4,1.4-0.3,1.7
			c0.2,0.5,1.3,1.9,1.7,2.5c0.1,0.2,2.2,3,3.2,4.1c0.9,1,1.8,1.9,2.8,2.7c0.1,0,3.7-2.1,4.7-3
			C1105.6,233.5,1100.7,228.8,1100.6,228.7z"/>
		<path class="st5" d="M1107.4,233.6l-6.4,5.3c2.8,2.9,8,12.5,12.1,20.3c1.9,3.5,3.7,6.9,5.1,9.4c-0.1,0.7-0.2,1.5-0.3,2.3
			c-0.3,4.7-1.2,21.2-7.1,24.6c-0.4,0.3,13.1,28.9,13.1,28.9s11.8-39.8,6.3-57.1C1128,259.9,1114.3,240.9,1107.4,233.6z"/>
		<path class="st6" d="M1107.1,417.1c0.1,3.7,15.5,81.6,15.5,81.6c0.1,0.1,3.2,0.1,5-1.7c0,0-3.6-77.5-3.6-79.1
			C1122.8,419.3,1109.3,418.5,1107.1,417.1z"/>
		<path class="st7" d="M1096.2,362.1l2.8,26.8c2.2,1.4,4.1,25.4,10.4,50.3c7.2,28.9,12.4,57,12.4,57c1.8-1.8,4.6-1.9,6.3-0.8
			c0,0-2.1-133.2-3.4-138.6C1121.3,358.6,1106.6,361.7,1096.2,362.1z"/>
		<path class="st9" d="M1128.6,496.8c-0.8-0.8-1.2-1.2-1.2-1.2s-3.9-0.9-5.2,2c0,0,0,3.4,0.9,4.6c0.5,0.7,3.5,3.9,5,4.6
			c1.2,0.5,3,0.5,5.1,0.2c2.1-0.3,4.5-1.7,4.4-2.9C1137.6,501.6,1130.3,498.3,1128.6,496.8z"/>
		<path class="st7" d="M1128,499.8c-1.8-1.2-4.8,0.9-2.7,3.7c0.4,0.5,2.6,2.8,3.6,3.3c0.9,0.4,2.2,0.3,3.7,0.1
			c1.5-0.2,3.3-1.2,3.2-2.1C1135.6,503.1,1129.8,501.1,1128,499.8z"/>
		<path class="st6" d="M1022.9,262c0.1-0.6,0.3-1.2-0.5-1.2c-0.5,0-1.1,2.2-1,2.7c0.7,1.1,1.3,0.7,1.8,1.8
			C1022.9,264.2,1022.9,263.1,1022.9,262z"/>
		<path class="st6" d="M1018.7,258.5c-0.5-0.5-1.4-2-1.9-2.3c-0.3-0.2-1.3-0.4-1.7-0.2c-0.5,0.2-0.5,0.8-0.5,0.8
			c-0.7,0.1-0.1,1.9-0.3,1.9c-0.8,0-1.1,1,0.6,3.1c0.1,0.1,3.3,6.1,4.4,8c1.2-0.6,4.2-3.6,4.2-3.6c-0.5-1.1-1.1-2.3-1.8-3.4
			C1021,261.4,1018.9,258.7,1018.7,258.5z"/>
		<path class="st6" d="M1049.3,293.4c-4.1-5.2-22.5-21.6-25.9-27.7c-1.7,1.5-3.2,2.6-4.5,3.2c5.8,9.8,22.9,32.7,27.4,31.6
			c4-1,4.3-4.1,3.6-6.1C1049.8,294.1,1049.6,293.7,1049.3,293.4z"/>
		<path class="st6" d="M1050.1,291.8c-11.4-2.6-9.2,6.3-6,8.2c8.4,5,34,14.9,37.1,10.8c1.3-1.8,4.7-14,3.7-14.3
			C1079.1,294.7,1059.4,293.9,1050.1,291.8z"/>
		<path class="st5" d="M1069,292.9c-6.9-0.7-14-1.4-18.5-2.4c-0.8-0.2-1.5-0.3-2.3-0.4c-1.9-2.1-4.7-4.7-7.5-7.6
			c-6.3-6.2-14-13.9-16-17.4l-6.9,4.6c5.1,8.7,19.1,27.7,25.8,31.5c6.9,4.1,25,12.2,32,15.2c2.1,0.9,13.3-22.5,12.9-22.4
			C1083.3,294.9,1075.8,293.6,1069,292.9z"/>
		<path class="st6" d="M1079.5,420.5c0.1,1.6,4.6,79.1,4.6,79.1c2,1.6,5.1,1.3,5.1,1.1c0,0,7.2-79.1,7-82.8
			C1094.1,419.5,1080.8,421.8,1079.5,420.5z"/>
		<path class="st7" d="M1072.6,359.7c-0.8,5.5,10.9,138.2,10.9,138.2c1.6-1.3,4.4-1.4,6.3,0.2c0,0,2.2-28.5,6.4-58
			c3.6-25.4,3.1-49.6,5.1-51.1v-27C1091,362.8,1076,361.2,1072.6,359.7z"/>
		<path class="st8" d="M1109.9,365.6c-10.4,0.6-20.7-0.1-31-0.6c-2.4-0.1-4.7-0.2-7-0.5c-0.4,8.6-0.4,17.3,0.1,24.9
			c1,0,8.4,0.4,8.4,0.4c13,1,32.7,3.9,41.5,1.8c1.6-0.4,5.8-1.9,6.1-2.4c0.8-7.9,0.6-17.4-0.1-27
			C1122.4,364.2,1116.3,365.3,1109.9,365.6z"/>
		<path class="st6" d="M1104.4,283c-2.1,0.5-9.8-3.1-10.6-3.6c0.6,2.8,0.4,10.9-0.5,12.4c2.8,5.1,11.4,4.5,11.7,1.3
			C1103.4,289.9,1104.4,283.6,1104.4,283z"/>
		<path class="st6" d="M1100.9,268.5c-4.2,0.6-6.4,4.4-5.9,8.6c0,0,0.6,4.3,0.6,4.3c0.4,3.1,5.9,7.3,8.6,6.4
			c6.2-2.3,5.9-14.2,5.5-15.5C1108.6,268.6,1104.7,268,1100.9,268.5z"/>
		<path class="st5" d="M1114.9,289.4c-4.2,6-9.8,3.7-9.8,3.7s-2.6,1.4-6.3,0.9c-4.1-0.6-5.5-2.2-5.5-2.2s-6.4,2.3-8.6,3
			c-6.5,2.1-8.3,7.3-8.2,13.1c0,1.4-6.6,46.4-4.5,76.1c1,0,2.1,0,3.4,0.1l2.3-19l2.7,19.4c13,1,32.6,3.3,41.5,1.8l1.6-17.3l1.5,16.4
			c0.7-0.3,2.7-1,2.9-1.5c2.7-27-6-72.7-7.2-75.9C1119.4,303.7,1118.4,284.4,1114.9,289.4z"/>
		<path class="st9" d="M1084,498.1c0,0-0.3,0.4-1,1.3c-1.4,1.7-8.4,5.7-8.4,8.1c0,1.2,2.6,2.3,4.7,2.4c2.1,0.1,3.9,0,5.1-0.7
			c1.4-0.8,4.1-4.3,4.5-5.1c0.8-1.3,0.4-4.7,0.4-4.7C1087.8,496.8,1084,498.1,1084,498.1z"/>
		<path class="st7" d="M1084,502c-1.7,1.5-7.6,4.3-7.6,6.1c0,0.9,2,1.8,3.6,1.8c1.6,0.1,3,0,3.9-0.5c1.1-0.6,3.1-3.3,3.4-3.8
			C1089,502.4,1085.7,500.6,1084,502z"/>
		<path class="st9" d="M1111.9,269.1c-3.2-6.1-13.8-9.9-19.6-4.7c-5.1,4.6-3.8,12.2-0.1,17c1.9,2.5-1.4,2.2-1.4,2.2s2.8,2.7,5.8,3.4
			c10.1,2.5,15.6-11.3,15.6-11.3s-4.1-0.9-2.9-0.9c6,0,7.1-2.8,6.3-5.8C1115.9,270.2,1114.2,273.6,1111.9,269.1z"/>
	</g>
	<g class="st2">
		<path class="st6" d="M940,386.2c-1.1,0-2.3-0.1-3.3-0.5c1.1,0.6,0.7,1.2,1.7,1.9c0.5,0.2,2.7-0.3,2.7-0.9
			C941.2,385.9,940.6,386.2,940,386.2z"/>
		<path class="st6" d="M943.3,390.5c-0.2-0.2-2.8-2.4-4.1-3.3c-1.1-0.7-2.2-1.4-3.3-2c-0.1,0-3.1,2.9-3.8,4c1.8,1.3,7.6,4.7,7.8,4.8
			c2,1.8,3.1,1.6,3.1,0.8c0-0.2,1.7,0.6,1.9-0.2c0,0,0.6,0.1,0.9-0.5c0.2-0.4,0.1-1.4-0.1-1.7C945.2,392.1,943.8,391,943.3,390.5z"
			/>
		<path class="st6" d="M908.7,322.6c-0.3-1.1-12.6,1.7-14.5,2.9c-4.2,2.9,4.3,28.9,8.9,37.5c1.7,3.3,10.5,6,8.5-5.6
			C909.9,348.1,910.2,328.5,908.7,322.6z"/>
		<path class="st6" d="M909.9,358.2c-0.3-0.2-0.6-0.5-1.1-0.6c-1.9-0.8-5-0.7-6.2,3.3c-1.3,4.4,20.6,22.7,30.2,28.9
			c0.7-1.3,1.9-2.7,3.5-4.3C930.4,381.8,914.9,362.5,909.9,358.2z"/>
		<path class="st10" d="M919.4,366.8c-2.6-3-5-5.8-6.9-7.8c0-0.7-0.1-1.5-0.2-2.2c-0.7-4.5-1-11.5-1.2-18.2c-0.2-6.7-0.4-13-1.2-16
			c-0.1-0.5-0.4-0.9-0.9-1.1c-2.1-0.9-13.3,1.7-15.2,2.9c-5.7,3.7,4.1,31.4,7.6,38.3c3.3,6.7,20.9,21.6,29,27.1l4.9-6.4
			C932,381.3,925,373.2,919.4,366.8z"/>
		<path class="st11" d="M981.3,304.8l-11.2,25.7c-0.8,1.9-3.2,2.7-5.1,1.9l-21-9.1c-1.9-0.8-2.5-2.9-1.6-4.8l11.1-25.6v-0.8
			c-11,0.1-18,7.5-22.5,17.8c-4.4,10.2-2.5,23.2,4.2,32l-65.1,150.2c-2.8,6.5-0.9,13.9,5.5,16.7l0.2,0.1c6.5,2.8,14.2-0.5,17-6.9
			l65.1-150.2c11-1.1,21.6-8.7,26-18.9c4.5-10.3,4.9-20.7-2.7-28.8C981.2,304.4,981.4,304.7,981.3,304.8z M884.8,500.3
			c-1.1,2.5-4,3.6-6.5,2.6c-2.5-1.1-3.7-4-2.6-6.5c1.1-2.5,4-3.6,6.5-2.6C884.8,494.9,885.9,497.8,884.8,500.3z"/>
		<path class="st9" d="M807,497.4c0.3-1.1,0.9-2.7,0.9-2.7l-4.4-2.2c0,0-0.6,0-1.6,0.9c0,0-1.6,0.4-2.2,1.8c-0.4,0.8,0.6,3.4,0.7,5
			c0.1,1.3,1.1,2.9,2.3,4.6c1.3,1.7,3.7,3.2,4.7,2.5C809.4,505.9,806.4,499.5,807,497.4z"/>
		<path class="st6" d="M801.9,493.5c0,0,0.7,2.7,1.7,3.2c1.7,0.8,3.4,0.7,3.4,0.7c0.5-1.7,1.2-2.7,1.2-2.7l-4.6-2.7
			C803.6,491.9,802.9,492.5,801.9,493.5z"/>
		<path class="st5" d="M843.1,369.2c-5.8,17.3-8.2,48.8-11,73.5c-1.3,10.9-29.8,50.4-29.8,50.4c1.6,2.7,5.2,2.9,5.3,2.6
			c0,0,37-32.9,42.8-49.2c12.2-34.6,19.5-70.8,19.7-73.7C866.4,373.6,853.1,372,843.1,369.2z"/>
		<path class="st6" d="M866.6,417.9c-0.3,3.7,7,85.5,7,85.5c0.1,0.2,3.2,0.5,5.1-1.1c0,0,4.5-80.2,4.6-81.8
			C881.9,421.8,868.7,419.5,866.6,417.9z"/>
		<path class="st9" d="M879.8,502.2c-0.8-0.9-1.7-2.3-1.7-2.3l-4.3,2.4c0,0-0.3,0.5-0.1,1.8c0,0-0.6,1.5,0.2,2.8
			c0.4,0.8,3.3,1.9,4.5,2.3c1.2,0.4,3,0.8,5.1,0.7c2.1-0.1,4.7-1.2,4.7-2.4C888.1,505.1,881.2,503.9,879.8,502.2z"/>
		<path class="st6" d="M873.4,501.9c0,0,0.1,0.9,0.3,2.3c0,0,2.7,0.9,3.6,0.4c1.6-0.9,2.5-2.4,2.5-2.4c-1.1-1.4-1.5-2.5-1.5-2.5
			L873.4,501.9z"/>
		<path class="st5" d="M861.4,362.1v27c2,1.6,1.5,25.7,5.1,51.2c4.2,29.5,6.4,60.7,6.4,60.7c2.1,2.3,6.3,0,6.3-0.2
			c0,0,11.7-135.5,10.9-141C886.8,361.2,871.8,362.8,861.4,362.1z"/>
		<path class="st9" d="M839.9,376.5c0,0,12.6,9.8,34.1,14l3.7-4.9l0.3,5.8c4.5,1.5,11.2,0.1,13.6-5.2c0.8-1.9,2.7-8.9,2.7-8.9
			l-48.5-20.3C845.8,356.8,839.5,368.2,839.9,376.5z"/>
		<path class="st6" d="M894.9,294.7c-0.5,2.9-3.8,10.2-5.3,11.3c0.6,5.8,8.8,8.5,10.3,5.7c-0.2-3.6,3.1-9.1,3.3-9.6
			C901.1,301.7,895.4,295.4,894.9,294.7z"/>
		<path class="st10" d="M899.9,311.7c0,0-2.4,1.6-4.4,0.8c-2.8-1.2-6-6.5-6-6.5s-6.8-0.4-9-0.6c-6.8-0.6-11.6,4.1-14.9,8.9
			c-8.5,12.5-21.7,46.1-21.7,46.1c7.8,12.5,42.6,21,49.3,20.2c4.9-0.6,8.4-35.8,15.5-49.2c2-3.8,2.7-9.2-1.4-13.9
			C906.4,316.3,899.9,311.7,899.9,311.7z"/>
		<g>
			<path class="st6" d="M913.6,381.6c-1.1-0.1-2.2-0.2-3.3-0.6c1.1,0.6,0.6,1.2,1.7,2c0.5,0.2,2.7-0.2,2.8-0.7
				C914.9,381.4,914.2,381.6,913.6,381.6z"/>
			<path class="st6" d="M916.7,386.1c-0.2-0.2-2.7-2.5-3.9-3.5c-1-0.8-2.1-1.5-3.2-2.1c-0.1,0-3.3,2.7-4,3.8
				c1.7,1.3,7.4,5.1,7.5,5.2c1.9,1.9,3,1.7,3,1c0-0.2,1.7,0.6,1.9-0.1c0,0,0.6,0.1,0.9-0.4c0.2-0.4,0.1-1.4,0-1.8
				C918.6,387.7,917.2,386.6,916.7,386.1z"/>
			<path class="st6" d="M885.4,316.5c-0.2-1.1-12.7,1.1-14.6,2.2c-4.4,2.6,2.9,29,7.1,37.9c1.6,3.4,10.2,6.5,8.7-5.1
				C885.4,342.1,886.6,322.5,885.4,316.5z"/>
			<path class="st6" d="M884.9,352.2c-0.3-0.2-0.6-0.5-1-0.7c-1.9-0.9-5-0.9-6.4,3c-1.5,4.3,19.5,23.6,28.7,30.4
				c0.7-1.2,2-2.6,3.7-4.2C904.2,376.7,889.7,356.7,884.9,352.2z"/>
			<path class="st10" d="M893.4,360.9c-2.4-3.1-4.7-6-6.5-8.1c0-0.7-0.1-1.5-0.1-2.2c-0.5-4.5-0.1-31.2-0.7-34.2
				c-0.1-0.5-0.4-0.9-0.9-1.1c-2-1-13.4,1-15.4,2.2c-5.9,3.4,2.5,31.6,5.7,38.7c3,6.9,19.8,22.5,27.7,28.4l5.2-6.1
				C905.3,376,898.7,367.6,893.4,360.9z"/>
		</g>
		<path class="st7" d="M903.4,298.3c0.2,3-0.3,7.5-1.9,10.8c-1.6,3.2-4.2,5.1-4.4,13.6c-0.3,12.2-9.7,22.8-7.7,24.8
			c1.9,1.8,11-2.2,15.5-14.6c0.8-2.1,1.9-6.7,1.1-10.5c-0.5-2.3-0.9-7.4,2.3-13.1c2.2-3.9,2.9-8.1,2.7-11.8
			C910,294.2,903.4,298.2,903.4,298.3z"/>
		<path class="st6" d="M906.4,286.9c-4.1-1.1-8.5,2-9.5,6.1c0,0-1.1,4.2-1.1,4.2c-0.8,3,2.6,9.1,5.4,9.2c6.6,0.3,11-10.8,11.1-12.2
			C912.7,290.4,910.2,287.9,906.4,286.9z"/>
		<path class="st7" d="M909.4,283.8c0,0,0.1-0.7-3-3.3c-2.5-2.1-7.8-3.5-13-0.3c-5.2,3.2-9.5,9.2-9.3,16.8
			c0.2,7.6-3.9,12.1-6.2,13.9c-3.8,3-5.5,8.1-6,10.6c-2.7,14.8,6.8,25.1,10.6,24.7c4.2-0.4-1.1-17,7.3-28.6
			c5.8-8.1,3.6-11.7,3.8-15.8c0.2-5.4,4.2-11.3,7-13.1c3.1-2,7.8-1.1,7.8-1.1s6.1,3.6,0.7,13.6c4.3-2,7.6-11.8,3.9-15.5
			C911.4,283.9,909.4,283.8,909.4,283.8z"/>
		<path class="st6" d="M897.5,291.5c-1-0.4-2.5,0.6-2.9,1.6c-0.4,1,0.2,2.9,1.1,3.5c0.8-0.9,2.4-2.8,3.3-4
			C898.6,292,897.9,291.6,897.5,291.5z"/>
	</g>
	<g class="st2">
		<g>
			<path class="st6" d="M683.2,347.7c-1.5,0.3-4.8,1.4-5,1.4c-0.7,0.3-2.4,0.7-2.8,1c-0.3,0.2-0.8,1.1-0.8,1.6
				c0,0.6,0.6,0.8,0.6,0.8c-0.1,0.7,1.8,0.7,1.7,0.9c-0.3,0.7,0.6,1.3,3.1,0.4c0.2-0.1,6.9-1,9-1.5c-0.2-1.3-1.9-5.2-2-5.2
				C685.8,347.2,684.5,347.4,683.2,347.7z"/>
			<path class="st6" d="M736.3,299.8c-3.7,4.9-11,23.1-16.2,31.1c-6.4,9.9,2.8,10.8,5.7,8.4c7.6-6.2,25.5-26.9,22.7-31.2
				C747.3,306.2,737,298.9,736.3,299.8z"/>
			<path class="st5" d="M736.3,299.8c-2.6,3.4-7.4,13.5-12.4,21.4c2.3,2.1,5.8,4.7,8.5,6.4c1.1,0.7,4.3,2.9,5.4,3.4
				c7.4-8.3,12.6-20,10.7-22.9C747.3,306.2,737,298.9,736.3,299.8z"/>
			<path class="st6" d="M722.6,332c-0.5,0-0.9,0.1-1.2,0.2c-6.2,2.1-28,13.8-34.8,15c0.8,2.1,1.4,3.9,1.5,5.3
				c11.2-2.1,38.5-10.5,39-15C727.5,333.3,724.7,332,722.6,332z"/>
			<path class="st6" d="M799.8,375c-0.3,0.5-0.7,1,0,1.3c0.5,0.2,1.8-1.6,1.9-2.1c-0.2-1.3-1-1.1-1-2.4
				C800.6,372.9,800.2,374,799.8,375z"/>
			<path class="st6" d="M805.9,369c-1.3,0.2-5.2,1.8-5.2,1.9c0.1,1.2,0.2,2.5,0.5,3.8c0.3,1.5,1.3,4.8,1.3,5.1
				c0.2,0.7,0.6,2.4,1,2.9c0.2,0.3,1.1,0.8,1.5,0.8c0.6,0,0.8-0.6,0.8-0.6c0.7,0.2,0.8-1.7,0.9-1.7c0.7,0.3,1.4-0.6,0.5-3.1
				C807.1,377.8,806.3,371.1,805.9,369z"/>
			<path class="st6" d="M776.7,299.8c-0.7-0.9-11,6.4-12.2,8.3c-2.8,4.3,15.1,25,22.7,31.2c2.9,2.4,12,1.5,5.7-8.4
				C787.7,322.8,780.4,304.6,776.7,299.8z"/>
			<path class="st5" d="M764.5,308.1c-1.9,2.9,3.4,14.6,10.7,22.9c1.1-0.6,4.3-2.8,5.4-3.4c2.6-1.7,6.1-4.3,8.5-6.4
				c-5-7.9-9.8-17.9-12.4-21.4C776.1,298.9,765.8,306.2,764.5,308.1z"/>
			<path class="st6" d="M791.8,330.5c-4.1-0.5-5.5,2.3-5.5,4.4c0,0.5,0,0.9,0.2,1.2c2,6.3,13.3,28.2,14.3,35.1
				c2.1-0.8,3.9-1.3,5.4-1.4C804.1,358.6,796.3,331.1,791.8,330.5z"/>
			<path class="st6" d="M758.8,417.9c-0.3,3.7,7,85.5,7,85.5c0.1,0.2,3.2,0.5,5.1-1.1c0,0,4.5-80.2,4.6-81.8
				C774.2,421.8,760.9,419.5,758.8,417.9z"/>
			<path class="st9" d="M772,502.2c-0.8-0.9-1.7-2.3-1.7-2.3l-4.3,2.4c0,0-0.3,0.5-0.1,1.8c0,0-0.6,1.5,0.2,2.8
				c0.5,0.8,3.1,1.5,4.5,2.3c1.1,0.7,3,0.8,5.1,0.7c2.1-0.1,4.7-1.2,4.7-2.4C780.4,505.1,773.4,503.9,772,502.2z"/>
			<path class="st6" d="M765.6,501.8c0,0,0.1,0.9,0.3,2.3c0,0,2.7,1,3.6,0.4c1.6-0.9,2.5-2.4,2.5-2.4c-1.1-1.4-1.5-2.5-1.5-2.5
				L765.6,501.8z"/>
			<path class="st12" d="M753.7,362.1v27c2,1.6,1.5,25.7,5.1,51.1c4.2,29.5,6.4,60.7,6.4,60.7c2.1,2.3,6.3,0,6.3-0.2
				c0,0,11.7-135.5,10.9-141C779,361.2,764,362.8,753.7,362.1z"/>
			<path class="st6" d="M736.9,420.5c0.1,1.6,4.6,81.8,4.6,81.8c2,1.6,5.1,1.3,5.1,1.1c0,0,7.2-81.8,7-85.5
				C751.5,419.5,738.2,421.8,736.9,420.5z"/>
			<path class="st9" d="M746.3,502.3l-4.3-2.4c0,0-0.9,1.4-1.7,2.3c-1.4,1.7-8.4,3-8.4,5.4c0,1.2,2.6,2.3,4.7,2.4
				c2.1,0.1,3.8-0.3,5.1-0.7c1.2-0.4,4.1-1.6,4.5-2.3c0.8-1.3,0.2-2.8,0.2-2.8C746.7,502.8,746.3,502.3,746.3,502.3z"/>
			<path class="st6" d="M740.4,502.2c0,0,0.9,1.5,2.5,2.4c0.9,0.5,3.6-0.4,3.6-0.4c0.2-1.4,0.3-2.3,0.3-2.3l-4.9-2.2
				C741.9,499.7,741.5,500.8,740.4,502.2z"/>
			<path class="st12" d="M729.9,359.7c-0.8,5.5,10.9,141,10.9,141c0.1,0.2,4.2,2.5,6.3,0.2c0,0,2.2-31.2,6.4-60.7
				c3.6-25.4,3.1-49.6,5.1-51.1v-27C748.4,362.8,733.4,361.2,729.9,359.7z"/>
			<path class="st5" d="M729.9,354.3c0,0-2,13.6-0.6,15c3.3,3.3,14.1-0.1,24.3-0.6c10.3-0.5,28.9,2.9,29.5,0.9
				c0.6-2.1-1.3-13.1-1.3-13.1L729.9,354.3z"/>
			<path class="st6" d="M761.2,279.4c-0.8,0.5-8.5,4.1-10.6,3.6c0,0.6,1,6.9-0.7,10.2c0.4,3.2,9,3.8,11.7-1.3
				C760.8,290.3,760.6,282.2,761.2,279.4z"/>
			<path class="st6" d="M754.1,268.5c-3.9-0.5-7.7,0.1-8.9,3.7c-0.4,1.3-0.7,13.3,5.5,15.5c2.6,1,8.1-3.3,8.6-6.4
				c0,0,0.6-4.2,0.6-4.3C760.6,272.9,758.3,269.1,754.1,268.5z"/>
			<path class="st9" d="M770.3,294.8c-2.2-0.7-8.6-3-8.6-3s-4.9,3.7-8,3.7c-2.1,0-3.7-2.4-3.7-2.4s-7.7,1.8-9.2,2.4
				c-5.6,2.7-5.9,7.9-6.6,12.2c-0.7,4.4-6.8,48.9-5.6,51.4c2.9,6.1,50.5,6.2,54.5,0c1.5-2.4-4.5-49.2-4.5-51.4
				C778.4,302.1,776.8,296.9,770.3,294.8z"/>
			<path class="st8" d="M748.5,266.4c-6.8,0.8-6.1,10.8-3.1,12.4c-0.9-7.3,4.1-9.3,4.1-9.3c9.1,0.5,11.5,11.6,10.7,14.4
				c0,0,10.8-8.3,2.8-16.7C757.7,261.6,748.5,266.4,748.5,266.4z"/>
			<path class="st6" d="M760,275.4c-0.4,0-1.2,0.1-1.8,0.5c0.3,1.4,1.1,3.8,1.5,4.9c1-0.2,2.3-1.8,2.4-2.8
				C762,276.9,761,275.4,760,275.4z"/>
			<path class="st8" d="M784.3,275.2c0-26.6-22.3-17-22.3-10c0,1.7,0.9,2.8,2.4,1.1c2.6-2.9,11.2-5,5.2,10.8
				c-1.6,4.2-7.5,9.3,3.9,17.8c10.4,7.7,1.2,9.8,1.6,13c1,8.4,23.7-8,13.2-21.2C786.2,284.1,784.3,283.2,784.3,275.2z"/>
			<path class="st7" d="M763.3,264.8c-0.5-0.4-1.1-0.5-1.5-0.5c-1.2,0-2.1,0.8-2.1,0.8c2.7,1.1,4.8,3.8,4.8,3.8
				C765.2,267.6,765.3,266.2,763.3,264.8z"/>
			<g>
				<path class="st5" d="M703.2,357.1l-20-9.1c-2.7-1.2-6,0-7.2,2.7l-9.1,20c-1.2,2.7,0,6,2.7,7.2l20,9.1c2.7,1.2,6,0,7.2-2.7
					l9.1-20C707.1,361.6,705.9,358.4,703.2,357.1z"/>
			</g>
			<path class="st6" d="M682.8,346.4c-0.5-0.3-1.1-0.7-1.3,0.1c-0.2,0.5,1.9,1.8,2.4,2.1c2.1,1,2.7-0.2,2.1-1.3
				C685,347.1,683.9,346.8,682.8,346.4z"/>
		</g>
		<g>
			<g>
				<path class="st5" d="M658.8,445.3l-21.9-0.6c-3-0.1-5.5,2.3-5.6,5.3l-0.6,21.9c-0.1,3,2.3,5.5,5.3,5.6l21.9,0.6
					c3,0.1,5.5-2.3,5.6-5.3l0.6-21.9C664.2,447.9,661.8,445.4,658.8,445.3z"/>
			</g>
			<g>
				<path class="st9" d="M663,440.5c-2.2-2.1-5.6-2-7.7,0.1l-15.2,15.8c-2.1,2.2-2,5.6,0.1,7.7l15.8,15.2c2.2,2.1,5.6,2,7.7-0.1
					l15.2-15.8c2.1-2.2,2-5.6-0.1-7.7L663,440.5z"/>
			</g>
			<g>
				<path class="st7" d="M690.3,454.2h-22c-3,0-5.4,2.4-5.4,5.4v22c0,3,2.4,5.4,5.4,5.4h22c3,0,5.4-2.4,5.4-5.4v-22
					C695.7,456.6,693.3,454.2,690.3,454.2z"/>
			</g>
			<g>
				<g>
					<rect x="628.8" y="461.5" class="st8" width="56.6" height="48.5"/>
				</g>
				<g>
					<rect x="685.4" y="461.5" class="st13" width="20.8" height="48.5"/>
				</g>
			</g>
			<g>
				<polygon class="st14" points="628.8,491.5 676,491.5 685.4,461.5 628.8,461.5 				"/>
			</g>
			<g>
				<polygon class="st14" points="685.6,462.8 694.8,501.9 706.1,501.9 706.1,461.5 685.4,461.5 				"/>
			</g>
			<g>
				<polygon class="st4" points="617.9,481.3 676,481.3 685.5,461.4 629.1,461.4 				"/>
			</g>
			<g>
				<polygon class="st13" points="685.7,461.4 694.2,485.4 714.7,485.4 706.2,461.4 				"/>
			</g>
		</g>
	</g>
</g>
<g>
	
		<radialGradient id="SVGID_2_" cx="908.2822" cy="565.9533" r="398.3954" gradientTransform="matrix(1 0 0 -7.000000e-02 0 584.72)" gradientUnits="userSpaceOnUse">
		<stop  offset="1.000000e-02" style="stop-color:#77D6EC"/>
		<stop  offset="1" style="stop-color:#FFFFFF"/>
	</radialGradient>
	<ellipse class="st15" cx="908.3" cy="544.2" rx="396.3" ry="18.6"/>
	<rect x="1162" y="539.2" class="st4" width="65.2" height="5.1"/>
	<path class="st4" d="M1211.2,364.4h-29.3c-1.4,0-2.5,1.1-2.5,2.5v29.3c0,1.4,1.1,2.5,2.5,2.5h29.3c1.4,0,2.5-1.1,2.5-2.5v-29.3
		C1213.8,365.5,1212.6,364.4,1211.2,364.4z M1208.7,393.7h-24.2v-24.2h24.2L1208.7,393.7z"/>
	
		<rect x="1175.9" y="378.8" transform="matrix(0.7071 -0.7071 0.7071 0.7071 80.8108 957.6661)" class="st4" width="41" height="5.1"/>
	<path class="st4" d="M1211.2,451.3h-29.3c-1.4,0-2.5,1.1-2.5,2.5v29.3c0,1.4,1.1,2.5,2.5,2.5h29.3c1.4,0,2.5-1.1,2.5-2.5v-29.3
		C1213.8,452.5,1212.6,451.3,1211.2,451.3z M1208.7,480.6h-24.2v-24.2h24.2L1208.7,480.6z"/>
	
		<rect x="1193.9" y="448" transform="matrix(0.7071 -0.7071 0.7071 0.7071 19.1339 983.2104)" class="st4" width="5.1" height="41"/>
	<path class="st4" d="M1211.2,422.9h-29.3c-1.4,0-2.5,1.1-2.5,2.5v28.4c0,1.4,1.1,2.5,2.5,2.5h29.3c1.4,0,2.5-1.1,2.5-2.5v-28.4
		C1213.8,424.1,1212.6,422.9,1211.2,422.9z M1208.7,451.3h-24.2V428h24.2L1208.7,451.3z"/>
	
		<rect x="1175.9" y="437" transform="matrix(0.7071 -0.7071 0.7071 0.7071 39.6198 974.7316)" class="st4" width="41" height="5.1"/>
	<path class="st4" d="M1211.2,393.7h-29.3c-1.4,0-2.5,1.1-2.5,2.5v29.3c0,1.4,1.1,2.5,2.5,2.5h29.3c1.4,0,2.5-1.1,2.5-2.5v-29.3
		C1213.7,394.8,1212.6,393.7,1211.2,393.7z M1208.7,422.9h-24.2v-24.2h24.2L1208.7,422.9z"/>
	
		<rect x="1193.9" y="390" transform="matrix(0.7071 -0.7071 0.7071 0.7071 60.1264 966.2323)" class="st4" width="5.1" height="41"/>
	<g>
		<path class="st16" d="M1211.2,305.8h-29.3c-1.4,0-2.5,1.1-2.5,2.5v29.3c0,1.4,1.1,2.5,2.5,2.5h29.3c1.4,0,2.5-1.1,2.5-2.5v-29.3
			C1213.8,306.9,1212.6,305.8,1211.2,305.8z M1208.7,335.1h-24.2v-24.2h24.2L1208.7,335.1z"/>
		
			<rect x="1175.9" y="320.2" transform="matrix(0.7071 -0.7071 0.7071 0.7071 122.2258 940.5131)" class="st16" width="41" height="5.1"/>
		<path class="st16" d="M1211.2,276.5h-29.3c-1.4,0-2.5,1.2-2.5,2.6v29.3c0,1.4,1.1,2.5,2.5,2.5h29.3c1.4,0,2.5-1.1,2.5-2.5v-29.3
			C1213.8,277.7,1212.7,276.6,1211.2,276.5C1211.3,276.5,1211.3,276.5,1211.2,276.5z M1208.7,305.8h-24.2v-24.2h24.2L1208.7,305.8z"
			/>
		
			<rect x="1193.9" y="273.2" transform="matrix(0.7071 -0.7071 0.7071 0.7071 142.7384 931.9992)" class="st16" width="5.1" height="41"/>
		<path class="st16" d="M1211.2,335.1h-29.3c-1.4,0-2.5,1.1-2.5,2.5v29.3c0,1.4,1.1,2.5,2.5,2.5h29.3c1.4,0,2.5-1.1,2.5-2.5v-29.3
			C1213.8,336.2,1212.6,335.1,1211.2,335.1z M1208.7,364.4h-24.2v-24.2h24.2L1208.7,364.4z"/>
		
			<rect x="1193.9" y="331.8" transform="matrix(0.7071 -0.7071 0.7071 0.7071 101.3234 949.1522)" class="st16" width="5.1" height="41"/>
		<path class="st16" d="M1211.2,248.1h-29.3c-1.4,0-2.5,1.2-2.5,2.5v28.4c0,1.4,1.1,2.5,2.5,2.5h29.3c1.4,0,2.5-1.1,2.5-2.5v-28.4
			C1213.8,249.3,1212.7,248.1,1211.2,248.1C1211.3,248.1,1211.2,248.1,1211.2,248.1z M1208.7,276.5h-24.2v-23.3h24.2L1208.7,276.5z"
			/>
		
			<rect x="1175.9" y="262.2" transform="matrix(0.707 -0.7072 0.7072 0.707 163.3272 923.7248)" class="st16" width="41" height="5.1"/>
		<path class="st16" d="M1211.2,218.9h-29.3c-1.4,0-2.5,1.2-2.5,2.5v29.3c0,1.4,1.1,2.5,2.5,2.5h29.3c1.4,0,2.5-1.1,2.5-2.5v-29.3
			C1213.8,220,1212.7,218.9,1211.2,218.9C1211.3,218.9,1211.2,218.9,1211.2,218.9z M1208.7,248.1h-24.2v-24.2h24.2L1208.7,248.1z"/>
		
			<rect x="1193.9" y="215.3" transform="matrix(0.7071 -0.7071 0.7071 0.7071 183.7104 915.0502)" class="st16" width="5.1" height="41"/>
		<path class="st16" d="M1211.2,190.5h-29.3c-1.4,0-2.5,1.2-2.5,2.5v28.4c0,1.4,1.1,2.5,2.5,2.5h29.3c1.4,0,2.5-1.1,2.5-2.5V193
			C1213.8,191.6,1212.7,190.5,1211.2,190.5C1211.3,190.5,1211.2,190.5,1211.2,190.5z M1208.7,218.9h-24.2v-23.3h24.2L1208.7,218.9z"
			/>
		
			<rect x="1175.9" y="204.5" transform="matrix(0.7071 -0.7071 0.7071 0.7071 203.9911 906.634)" class="st16" width="41" height="5.1"/>
		<path class="st16" d="M1211.2,161.2h-29.3c-1.4,0-2.5,1.2-2.5,2.5V193c0,1.4,1.1,2.5,2.5,2.5h29.3c1.4,0,2.5-1.1,2.5-2.5v-29.3
			C1213.8,162.3,1212.7,161.2,1211.2,161.2C1211.3,161.2,1211.2,161.2,1211.2,161.2z M1208.7,190.5h-24.2v-24.2h24.2L1208.7,190.5z"
			/>
		
			<rect x="1193.9" y="157.6" transform="matrix(0.7071 -0.7071 0.7071 0.7071 224.4874 898.1595)" class="st16" width="5.1" height="41"/>
		<path class="st16" d="M1211.2,480.6h-29.3c-1.4,0-2.5,1.2-2.5,2.5v29.3c0,1.4,1.1,2.5,2.5,2.5h29.3c1.4,0,2.5-1.1,2.5-2.5v-29.3
			C1213.8,481.7,1212.7,480.6,1211.2,480.6C1211.3,480.6,1211.2,480.6,1211.2,480.6z M1208.7,509.9h-24.2v-24.2h24.2L1208.7,509.9z"
			/>
		
			<rect x="1175.9" y="495" transform="matrix(0.7071 -0.7071 0.7071 0.7071 -1.3685 991.6995)" class="st16" width="41" height="5.1"/>
		<path class="st16" d="M1211.2,509.9h-29.3c-1.4,0-2.5,1.2-2.5,2.5v29.3c0,1.4,1.1,2.5,2.5,2.5h29.3c1.4,0,2.5-1.1,2.5-2.5v-29.3
			C1213.8,511,1212.7,509.9,1211.2,509.9C1211.3,509.9,1211.2,509.9,1211.2,509.9z M1208.7,539.2h-24.2V515h24.2L1208.7,539.2z"/>
		
			<rect x="1193.9" y="506.6" transform="matrix(0.7071 -0.7071 0.7071 0.7071 -22.2708 1000.3591)" class="st16" width="5.1" height="41"/>
		<path class="st16" d="M1211.2,131.2h-29.3c-1.4,0-2.5,1.2-2.5,2.5V163c0,1.3,1.1,2.4,2.5,2.5h29.3c1.4,0,2.5-1.1,2.5-2.5v-29.2
			C1213.8,132.3,1212.6,131.2,1211.2,131.2z M1208.7,160.4h-24.2v-24.1h24.2L1208.7,160.4z"/>
		
			<rect x="1175.9" y="145.8" transform="matrix(0.7071 -0.7071 0.7071 0.7071 245.5327 889.4434)" class="st16" width="41" height="5.1"/>
		<path class="st16" d="M1211.2,102.8h-29.3c-1.4,0-2.5,1.2-2.5,2.5v28.4c0,1.4,1.1,2.6,2.5,2.6c0,0,0,0,0,0h29.3
			c1.4,0,2.5-1.1,2.5-2.5v-28.4C1213.8,103.9,1212.6,102.8,1211.2,102.8z M1208.7,131.2h-24.2v-23.3h24.2L1208.7,131.2z"/>
		
			<rect x="1193.9" y="98.9" transform="matrix(0.7071 -0.7071 0.7071 0.7071 266.029 880.9482)" class="st16" width="5.1" height="41"/>
		<path class="st16" d="M1181.9,131.2h-29.3c-1.4,0-2.5,1.1-2.5,2.5V163c0,1.4,1.2,2.5,2.5,2.5h29.3c1.4,0,2.5-1.1,2.5-2.5v-29.2
			C1184.5,132.3,1183.3,131.2,1181.9,131.2z M1179.5,160.4h-24.3v-24.1h24.3V160.4z"/>
		
			<rect x="1164.9" y="127.8" transform="matrix(0.7071 -0.7071 0.7071 0.7071 237.0437 868.941)" class="st16" width="5.1" height="41"/>
		<path class="st16" d="M1152.7,131.2h-28.4c-1.4,0-2.5,1.1-2.5,2.5V163c0,1.4,1.2,2.5,2.5,2.5h28.4c1.4,0,2.5-1.1,2.5-2.5v-29.2
			C1155.2,132.3,1154.1,131.2,1152.7,131.2C1152.7,131.2,1152.7,131.2,1152.7,131.2z M1150.1,160.4h-23.3v-24.1h23.3V160.4z"/>
		
			<rect x="1118" y="145.8" transform="matrix(0.7071 -0.7071 0.7071 0.7071 228.5443 848.4551)" class="st16" width="41" height="5.1"/>
		<path class="st16" d="M1124.3,131.2h-29.3c-1.4,0-2.5,1.1-2.5,2.5V163c0,1.4,1.2,2.5,2.5,2.5h29.3c1.4,0,2.5-1.1,2.5-2.5v-29.2
			C1126.8,132.3,1125.7,131.2,1124.3,131.2z M1121.8,160.4h-24.2v-24.1h24.2V160.4z"/>
		
			<rect x="1106.9" y="127.8" transform="matrix(0.7071 -0.7071 0.7071 0.7071 220.0656 827.9485)" class="st16" width="5.1" height="41"/>
		<path class="st16" d="M1232.2,131.2h-21c-1.4,0-2.5,1.1-2.5,2.5V163c0,1.4,1.2,2.5,2.5,2.5h21c9.4,0,17-7.6,17-17v-0.3
			C1249.2,138.7,1241.6,131.2,1232.2,131.2z M1244.2,148.5c0,6.6-5.4,12-12,12h-18.5v-24.1h18.5c6.6,0,12,5.4,12,12V148.5z"/>
		<rect x="1058.2" y="160.4" class="st16" width="123.3" height="5.1"/>
		<path class="st16" d="M1096.4,131.5c-0.8-0.5-1.7-0.5-2.5-0.1l-27.5,14.1c-0.8,0.4-1.4,1.3-1.4,2.3v14.6c0,1.4,1.1,2.5,2.5,2.5
			h27.4c1.4,0,2.5-1.1,2.5-2.5v-28.7C1097.5,132.8,1097.1,132,1096.4,131.5z M1092.5,159.9H1070v-10.5l22.4-11.5L1092.5,159.9z"/>
		<rect x="1096.1" y="160.3" class="st16" width="2.9" height="67.2"/>
	</g>
	<path class="st17" d="M1085.9,225h23.3c3.2,0,5.8,2.6,5.8,5.8V254c0,3.2-2.6,5.8-5.8,5.8h-23.3c-3.2,0-5.8-2.6-5.8-5.8v-23.3
		C1080.1,227.6,1082.7,225,1085.9,225z"/>
	<path class="st6" d="M1186,386c-0.6-0.2-1.3-0.5-1.4,0.3c-0.1,0.5,2.1,1.5,2.7,1.5c1.3-0.6,0.9-1.3,2.2-1.6
		C1188.3,386.3,1187.1,386.3,1186,386z"/>
	<path class="st6" d="M1190.4,385.9c-1.3,0.4-2.6,0.9-3.8,1.5c-1.5,0.6-4.7,2.5-4.9,2.6c-0.9,0.5-1.9,1-2.7,1.7
		c-0.3,0.5-0.5,1.2-0.5,1.8c0.1,0.4,0.4,0.6,0.8,0.7c0,0.8,2,0.4,1.9,0.6c-0.2,0.8,0.9,1.3,3.4-0.2c0.1-0.1,6.9-2.6,9-3.5
		C1192.7,389.1,1191.7,387.5,1190.4,385.9z"/>
	<path class="st6" d="M1224.1,362.4c-0.4,0.1-0.9,0.2-1.2,0.5c-6,3.5-26,20.5-32.8,23.2c1.1,1.6,2.1,3.3,2.8,5.2
		c11.2-4.6,37.7-19.4,37.1-24.2C1229.5,362.7,1226.2,361.9,1224.1,362.4z"/>
	<path class="st6" d="M1231.2,326c-2.7,5.8-6.3,26.3-10,35.8c-4.4,11.7,5.3,10.6,7.7,7.5c6.5-8.1,20.5-33.5,16.7-37.3
		C1244,330.3,1231.7,324.9,1231.2,326z"/>
	<path class="st18" d="M1231.1,324.4c-0.5,0.1-1,0.4-1.2,0.9c-1.5,3-3,9.7-4.7,16.8c-1.7,7.1-5.8,20.7-6,21.4
		c-2.4,1.7-25.6,19.5-29.6,21.1l3.8,7.9c9.8-4.1,31.8-16,36.8-22.5c5.3-6.6,21.8-34,16.5-39.2
		C1244.9,329.1,1233.4,323.9,1231.1,324.4z"/>
	<rect x="1097.9" y="369.2" class="st19" width="145.5" height="126.6"/>
	<rect x="1097.9" y="357.6" class="st16" width="145.5" height="16.2"/>
	<rect x="1110.5" y="381.9" class="st4" width="119.4" height="98.7"/>
	<rect x="1140.4" y="388.3" class="st19" width="85" height="46.2"/>
	<rect x="1144.1" y="462.4" class="st19" width="17.6" height="2.3"/>
	<rect x="1170.5" y="462.4" class="st19" width="38.6" height="2.3"/>
	<rect x="1213.6" y="462.4" class="st19" width="8" height="2.3"/>
	<rect x="1195.1" y="466" class="st19" width="26.6" height="2.3"/>
	<rect x="1144.1" y="466" class="st19" width="6.4" height="2.3"/>
	<rect x="1153.7" y="466" class="st19" width="35.1" height="2.3"/>
	<rect x="1144.1" y="469.6" class="st19" width="21.1" height="2.3"/>
	<rect x="1169.5" y="469.6" class="st19" width="52.1" height="2.3"/>
	<rect x="1144.1" y="442.5" class="st19" width="17.6" height="2.3"/>
	<rect x="1170.5" y="442.5" class="st19" width="38.6" height="2.3"/>
	<rect x="1213.6" y="442.5" class="st19" width="8" height="2.3"/>
	<rect x="1195.1" y="446.1" class="st19" width="26.6" height="2.3"/>
	<rect x="1144.1" y="446.1" class="st19" width="6.4" height="2.3"/>
	<rect x="1153.7" y="446.1" class="st19" width="35.1" height="2.3"/>
	<rect x="1144.1" y="449.8" class="st19" width="21.1" height="2.3"/>
	<rect x="1169.5" y="449.8" class="st19" width="52.1" height="2.3"/>
	<rect x="1115.9" y="388.6" class="st19" width="18.7" height="3.6"/>
	<rect x="1115.9" y="398.6" class="st19" width="18.7" height="3.6"/>
	<rect x="1115.9" y="408.5" class="st19" width="18.7" height="3.6"/>
	<rect x="1115.9" y="418.5" class="st19" width="18.7" height="3.6"/>
	<rect x="1115.9" y="428.5" class="st19" width="18.7" height="3.6"/>
	<rect x="1115.9" y="438.4" class="st19" width="18.7" height="3.6"/>
	<rect x="1115.9" y="448.4" class="st19" width="18.7" height="3.6"/>
	<rect x="1115.9" y="458.4" class="st19" width="18.7" height="3.6"/>
	<rect x="1115.9" y="468.3" class="st19" width="18.7" height="3.6"/>
	<circle class="st4" cx="1235.4" cy="368.9" r="1.7"/>
	<circle class="st4" cx="1228.4" cy="368.9" r="1.7"/>
	<path class="st20" d="M1190.5,396.2h-15.3c-7.9,0-14,7.2-14.1,15.1s6.2,14.8,14.1,14.8h15.3c8.2-0.3,14.7-7.2,14.5-15.4
		C1204.8,402.8,1198.4,396.5,1190.5,396.2z"/>
	<path class="st20" d="M1161.2,411.4C1161.2,411.4,1161.2,411.4,1161.2,411.4c0-0.1,0-0.1,0-0.1V411.4z"/>
	<polygon class="st4" points="1178,419.9 1192.2,411.7 1178,403.5 	"/>
	<path class="st21" d="M1259,535.6l-4.5-2.5c0,0-1,1.5-1.8,2.4c-1.5,1.8-8.9,3.1-8.9,5.7c0,1.3,2.7,2.5,5,2.6
		c1.8,0.1,3.7-0.2,5.4-0.7c1.3-0.4,4.4-1.7,4.8-2.5c0.5-0.9,0.5-2,0.2-3C1259.3,536.1,1259,535.6,1259,535.6z"/>
	<path class="st6" d="M1253.1,533c0.4,0.9,0.2,1.9-0.5,2.6c0.7,1,1.6,1.9,2.6,2.5c1,0.5,3.8-0.5,3.8-0.5c0.1-1.2,0.2-2.3,0.1-3.5
		L1253.1,533z"/>
	<path class="st22" d="M1241.6,384.5c-1.8,28.3-1.7,56.8,0.3,85.1c2,21.7,5.7,43.2,11.3,64.3c0,0.2,4.5,2.6,6.7,0.2
		c0,0-3.5-33.1,0.9-64.3c3.8-27,9.1-52.5,11.2-54.2v-28.6C1261.1,387.7,1245.2,386.1,1241.6,384.5z"/>
	<path class="st21" d="M1293.4,535.9l-4.7-2.2c0,0-0.9,1.5-1.6,2.5c-1.5,1.9-8.6,3.8-8.4,6.4c0.1,1.3,2.9,2.2,5.2,2.2
		c1.8,0.1,3.7-0.3,5.3-1.2c1.5-1,4.2-2,4.6-2.8c0.4-1,0.4-2.1,0-3C1293.8,536.4,1293.4,535.9,1293.4,535.9z"/>
	<path class="st6" d="M1287.7,533.6c0.2,1,0,2-0.6,2.7c0.7,1,1.7,1.8,2.8,2.3c1,0.5,3.8-0.8,3.8-0.8c0.1-1.5,0-3.6,0-3.6
		L1287.7,533.6z"/>
	<path class="st22" d="M1294.8,386.8c-10.9,1.6-26.8,1.2-30.6-0.1c0.4,28.5,2.8,57,7.1,85.1c3.6,21.4,9.1,42.4,16.2,62.9
		c0.1,0.2,4.7,2.3,6.7-0.3c0,0-6.1-32.7-4.1-64.2C1291.8,443,1294.8,386.8,1294.8,386.8z"/>
	<path class="st6" d="M1239.9,307.1c0.1,0.6,2.4,7,1.5,10.7c1,3.2,10.2,2.1,11.9-3.8c-1.2-1.5-3.2-9.7-3.1-12.8
		C1249.5,301.8,1242.2,307.1,1239.9,307.1z"/>
	<path class="st6" d="M1240.6,291.3c-4.2,0.2-8,1.7-8.4,5.7c-0.1,1.5,2.1,13.9,9,15c2.9,0.4,7.8-5.1,7.6-8.4l-0.3-4.6
		C1248.2,294.5,1245,291,1240.6,291.3z"/>
	<path class="st18" d="M1262.9,315.2c-2.3-0.6-9.5-1.3-9.5-1.3s-4.4,4.9-7.5,5.5c-2.2,0.4-4.4-1.7-4.4-1.7s-7.7,3.4-9,4.5
		c-5.2,4-2.4,11.1-1.6,17.3c0.5,3.6,9.5,36.4,7.5,68.5c14.4,5.8,28.3,9.8,47.8-0.7l-1.3-20.7l6.4,19.3c1.3-0.3,4-0.6,5.1-0.8
		C1296.3,345.2,1283.7,320.7,1262.9,315.2z"/>
	<path class="st22" d="M1253.3,314c0,0-4.4,4.9-7.5,5.5c-2.2,0.4-4.4-1.7-4.4-1.7s-7.2,3.2-8.8,4.4c1.3,6.5,9.6,12.3,9.6,12.3
		s12.3-13.7,20.7-19.3c-1.5-0.5-3.1-0.8-4.7-0.9L1253.3,314z"/>
	<path class="st23" d="M1249.3,283.7c-8.7-6.9-22.9,1-22.7,9.9c0,2,2.2,6.5,20.2,1.5c2.4,3,3.7,10,3.7,10
		C1255.7,299.7,1256,288.9,1249.3,283.7z"/>
	<path class="st6" d="M1249,297.1c-0.7,0-1.3,0.1-1.9,0.4c0.3,1.8,0.8,3.5,1.3,5.3c1.3-0.4,2.3-1.5,2.6-2.8
		C1251.1,298.8,1250.1,297.2,1249,297.1z"/>
	<path class="st6" d="M1195.8,366.9c-0.3,0.5,1.5,2.1,2.1,2.2c1.4-0.1,1.3-0.9,2.6-0.8c-1.2-0.3-2.3-0.7-3.3-1.3
		C1196.6,366.6,1196.1,366.1,1195.8,366.9z"/>
	<path class="st6" d="M1197.3,368.4c-1.6,0.1-5.2,0.8-5.5,0.9c-1.1,0.2-2.1,0.4-3.1,0.7c-0.5,0.4-0.9,0.9-1,1.5
		c0,0.4,0.2,0.7,0.6,0.9c-0.2,0.8,1.7,1,1.7,1.2c-0.4,0.7,0.4,1.5,3.2,0.9c0.2,0,7.4-0.1,9.7-0.4c-0.3-2-0.8-3.9-1.5-5.7
		C1200,368.2,1198.7,368.3,1197.3,368.4z"/>
	<path class="st18" d="M1259.8,323.4c-0.5-0.1-1.1,0.1-1.5,0.5c-2.3,2.4-6,8.2-9.9,14.3c-3.4,5.6-7.2,11.1-11.2,16.4
		c-0.5,0.6-1,1.3-1.5,2c-2.9,0.8-6.7,2.1-10.8,3.5c-8.8,2.9-19.8,6.6-24.1,6.8l1.1,8.7c10.6-0.7,35.3-4.8,42.1-9.3
		c7.2-4.5,31.6-25.1,28.4-31.7C1271.4,332.4,1262.3,323.7,1259.8,323.4z"/>
	<path class="st20" d="M555.7,440.9c-0.5,2.4,0.2,5.3-0.2,7.8c-0.5,3.1-2.5,4-3.9,6c-1.7,3.2-2.4,6.8-1.8,10.4
		c0.5,2.2,1.1,4.3,1.8,6.4c0.7,2.2,0.9,4.6,0.5,6.9c-0.8,3.3-4.8,5.9-4.8,20c0,12.9,9.2,17.9,11.8,21V436l-1.2,1.1
		C556.8,438.1,556,439.4,555.7,440.9z"/>
	<path class="st20" d="M566.5,471.5c0.7-2.1,1.3-4.2,1.7-6.4c0.6-3.6,0-7.3-1.7-10.4c-1.3-2-3.3-2.9-3.9-6c-0.4-2.5,0.3-5.4-0.2-7.8
		c-0.3-1.4-1.1-2.7-2.2-3.7L559,436v83.4c2.6-3.1,11.8-8.2,11.8-21c0-14.1-4-16.7-4.8-20C565.6,476.1,565.8,473.7,566.5,471.5z"/>
	<path class="st19" d="M571.1,487.3c-0.7,0.9-0.4,2.3-1,3.3c-0.8,1.2-2.5,1.2-3.9,1.7c-1.6,0.7-2.6,2.3-2.6,4c0.1,1,0.4,2.1,0.7,3.1
		c0.3,1,0.2,2.1-0.4,3c-1,1.2-4.6,1.5-6.2,7.4c-1.5,5.4,5.6,9.5,7.5,11.4l9.2-35.1l-1.1,0.2C572.5,486.3,571.7,486.7,571.1,487.3z"
		/>
	<path class="st19" d="M575.9,492.1c-0.1-1.2,0.9-2.2,0.7-3.3c-0.2-0.8-0.7-1.5-1.5-2l-0.8-0.7l-9.2,35.2c2.5-0.8,10.7-0.9,12.1-6.3
		c1.5-5.9-1.5-7.9-1.8-9.5c-0.1-1.1,0.4-2.1,1.2-2.8c0.8-0.7,1.5-1.5,2.1-2.3c0.9-1.5,0.8-3.4-0.3-4.8
		C577.6,494.3,576,493.5,575.9,492.1z"/>
	<path class="st4" d="M544,517.3c0,0,5.7,6.1,5.7,10.2c-0.1,1.6-0.4,3.2-1,4.7c-1.6,4.9,1.1,10.1,6,11.7c0.9,0.3,1.9,0.4,2.8,0.4
		h15.1c5.1,0,9.3-4.2,9.3-9.3c0-0.9-0.1-1.9-0.4-2.8c-0.5-1.5-0.9-3.1-1-4.7c0-4.1,5.7-10.2,5.7-10.2L544,517.3z"/>
	<path class="st16" d="M924.3,192.3h128.9c18.1,0,32.7,14.6,32.7,32.7l0,0v286.5c0,18.1-14.6,32.7-32.7,32.7h0H924.3
		c-18.1,0-32.7-14.6-32.7-32.7v0V225C891.6,206.9,906.3,192.3,924.3,192.3L924.3,192.3z"/>
	<path class="st24" d="M1053.2,199.5H924c-14.1,0-25.5,11.4-25.5,25.5v286.7c0,14.3,11.6,25.8,25.9,25.9h128.9
		c14.3,0,25.9-11.6,25.9-25.9V225.4C1079.1,211.1,1067.5,199.5,1053.2,199.5z"/>
	<path class="st16" d="M940.7,204.9c0,9.5,7.7,17.1,17.1,17.1l0,0h62c9.5,0,17.1-7.7,17.1-17.1v0V198h-96.3V204.9z"/>
	<path class="st19" d="M970.5,209.2h36.7c1.3,0,2.4,1.1,2.4,2.4v0c0,1.3-1.1,2.4-2.4,2.4h-36.7c-1.3,0-2.4-1.1-2.4-2.4v0
		C968.1,210.3,969.2,209.2,970.5,209.2z"/>
	<circle class="st19" cx="988.8" cy="202.4" r="2.8"/>
	<path class="st25" d="M1039.8,462.7h23.3c3.2,0,5.8,2.6,5.8,5.8v23.3c0,3.2-2.6,5.8-5.8,5.8h-23.3c-3.2,0-5.8-2.6-5.8-5.8v-23.3
		C1034.1,465.3,1036.7,462.7,1039.8,462.7z"/>
	<path class="st17" d="M998.1,462.7h23.3c3.2,0,5.8,2.6,5.8,5.8v23.3c0,3.2-2.6,5.8-5.8,5.8h-23.3c-3.2,0-5.8-2.6-5.8-5.8v-23.3
		C992.3,465.3,994.9,462.7,998.1,462.7z"/>
	<path class="st20" d="M956.3,462.7h23.3c3.2,0,5.8,2.6,5.8,5.8v23.3c0,3.2-2.6,5.8-5.8,5.8h-23.3c-3.2,0-5.8-2.6-5.8-5.8v-23.3
		C950.5,465.3,953.1,462.7,956.3,462.7z"/>
	<path class="st20" d="M914.5,462.7h23.3c3.2,0,5.8,2.6,5.8,5.8v23.3c0,3.2-2.6,5.8-5.8,5.8h-23.3c-3.2,0-5.8-2.6-5.8-5.8v-23.3
		C908.7,465.3,911.3,462.7,914.5,462.7z"/>
	<path class="st25" d="M1039.8,249.6h23.3c3.2,0,5.8,2.6,5.8,5.8v23.3c0,3.2-2.6,5.8-5.8,5.8h-23.3c-3.2,0-5.8-2.6-5.8-5.8v-23.3
		C1034.1,252.2,1036.7,249.6,1039.8,249.6z"/>
	<path class="st19" d="M998.1,249.6h23.3c3.2,0,5.8,2.6,5.8,5.8v23.3c0,3.2-2.6,5.8-5.8,5.8h-23.3c-3.2,0-5.8-2.6-5.8-5.8v-23.3
		C992.3,252.2,994.9,249.6,998.1,249.6z"/>
	<path class="st20" d="M956.3,249.6h23.3c3.2,0,5.8,2.6,5.8,5.8v23.3c0,3.2-2.6,5.8-5.8,5.8h-23.3c-3.2,0-5.8-2.6-5.8-5.8v-23.3
		C950.5,252.2,953.1,249.6,956.3,249.6z"/>
	<path class="st19" d="M914.5,249.6h23.3c3.2,0,5.8,2.6,5.8,5.8v23.3c0,3.2-2.6,5.8-5.8,5.8h-23.3c-3.2,0-5.8-2.6-5.8-5.8v-23.3
		C908.7,252.2,911.3,249.6,914.5,249.6z"/>
	<path class="st17" d="M956.3,294.6h23.3c3.2,0,5.8,2.6,5.8,5.8v23.3c0,3.2-2.6,5.8-5.8,5.8h-23.3c-3.2,0-5.8-2.6-5.8-5.8v-23.3
		C950.5,297.2,953.1,294.6,956.3,294.6z"/>
	<path class="st20" d="M998.1,294.6h23.3c3.2,0,5.8,2.6,5.8,5.8v23.3c0,3.2-2.6,5.8-5.8,5.8h-23.3c-3.2,0-5.8-2.6-5.8-5.8v-23.3
		C992.3,297.2,994.9,294.6,998.1,294.6z"/>
	<path class="st20" d="M914.5,294.6h23.3c3.2,0,5.8,2.6,5.8,5.8v23.3c0,3.2-2.6,5.8-5.8,5.8h-23.3c-3.2,0-5.8-2.6-5.8-5.8v-23.3
		C908.7,297.2,911.3,294.6,914.5,294.6z"/>
	<path class="st17" d="M1039.8,339.4h23.3c3.2,0,5.8,2.6,5.8,5.8v23.3c0,3.2-2.6,5.8-5.8,5.8h-23.3c-3.2,0-5.8-2.6-5.8-5.8v-23.3
		C1034.1,342,1036.7,339.4,1039.8,339.4z"/>
	<path class="st20" d="M956.3,339.4h23.3c3.2,0,5.8,2.6,5.8,5.8v23.3c0,3.2-2.6,5.8-5.8,5.8h-23.3c-3.2,0-5.8-2.6-5.8-5.8v-23.3
		C950.5,342,953.1,339.4,956.3,339.4z"/>
	<path class="st25" d="M914.5,339.4h23.3c3.2,0,5.8,2.6,5.8,5.8v23.3c0,3.2-2.6,5.8-5.8,5.8h-23.3c-3.2,0-5.8-2.6-5.8-5.8v-23.3
		C908.7,342,911.3,339.4,914.5,339.4z"/>
	<path class="st25" d="M914.5,384.5h23.3c3.2,0,5.8,2.6,5.8,5.8v23.3c0,3.2-2.6,5.8-5.8,5.8h-23.3c-3.2,0-5.8-2.6-5.8-5.8v-23.3
		C908.7,387.1,911.3,384.5,914.5,384.5z"/>
	<path class="st25" d="M956.3,384.5h23.3c3.2,0,5.8,2.6,5.8,5.8v23.3c0,3.2-2.6,5.8-5.8,5.8h-23.3c-3.2,0-5.8-2.6-5.8-5.8v-23.3
		C950.5,387.1,953.1,384.5,956.3,384.5z"/>
	<path class="st6" d="M1105.3,253.1c-0.5-0.3-2.9-0.3-3,0.2c-0.3,0.8,0.5,0.8,1.1,0.9c1.1,0.3,2.2,0.7,3.3,1.3
		C1105.6,254.6,1106.2,254.1,1105.3,253.1z"/>
	<path class="st6" d="M1105.5,246c-1.6-2.4-2.8-2.4-2.9-1.6c0,0.2-1.7-1-2-0.3c-0.4-0.1-0.8,0-1,0.3c-0.3,0.6-0.4,1.2-0.3,1.8
		c0.5,0.9,1.1,1.8,1.8,2.6c0.1,0.2,2.3,3.2,3.4,4.4c0.9,1,1.9,2,2.9,2.9c1.8-0.9,3.4-2,5-3.2C1110.8,251.2,1105.6,246.1,1105.5,246z
		"/>
	<path class="st26" d="M1112.7,251.3l-6.8,5.6c2.9,3.1,8.5,13.3,12.9,21.5c2,3.8,3.9,7.3,5.4,9.9c-0.1,0.8-0.2,1.6-0.3,2.4
		c-0.3,5-1.3,22.4-7.5,26.1c-0.5,0.3,13.9,30.6,13.9,30.6s12.5-42.3,6.7-60.5C1134.5,279.1,1120,259,1112.7,251.3z"/>
	<path class="st6" d="M1112.4,445.7c0.1,3.9,16.4,86.5,16.4,86.5c1.9,0.2,3.9-0.5,5.3-1.8c0,0-3.8-82.2-3.8-83.9
		C1129,448.2,1114.8,447.2,1112.4,445.7z"/>
	<path class="st20" d="M1100.8,387.5l2.9,28.4c2.3,1.5,4.4,26.9,11,53.4c7.7,30.6,13.1,60.4,13.1,60.4c1.8-1.8,4.5-2.1,6.6-0.9
		c0,0-2.2-141.2-3.7-146.9C1127.5,383.8,1111.8,387,1100.8,387.5z"/>
	<path class="st19" d="M1135.2,530.2c-0.4-0.4-0.8-0.8-1.2-1.3c0,0-4.2-1-5.5,2.1c0,0,0,3.6,1,4.9c1.5,1.9,3.3,3.5,5.3,4.9
		c1.8,0.5,3.6,0.6,5.4,0.2c2.2-0.3,4.8-1.8,4.7-3.1C1144.7,535.3,1136.9,531.9,1135.2,530.2z"/>
	<path class="st20" d="M1134.6,533.5c-1.9-1.3-5,0.9-2.9,3.9c1.1,1.4,2.4,2.5,3.8,3.5c1.3,0.4,2.6,0.4,3.9,0.1
		c1.6-0.2,3.5-1.3,3.4-2.2C1142.6,537,1136.5,534.8,1134.6,533.5z"/>
	<path class="st6" d="M1023.2,281.3c0-0.6,0.3-1.3-0.5-1.3c-0.6,0-1.2,2.3-1.1,2.9c0.7,1.2,1.5,0.7,1.9,2
		C1023.2,283.8,1023.1,282.5,1023.2,281.3z"/>
	<path class="st6" d="M1018.7,277.6c-0.6-0.9-1.3-1.7-2-2.5c-0.6-0.3-1.2-0.3-1.9-0.2c-0.3,0.2-0.6,0.5-0.5,0.9
		c-0.8,0.1-0.1,2-0.3,2c-0.8,0-1.1,1.1,0.7,3.3c0.1,0.1,3.5,6.5,4.7,8.5c1.6-1.1,3.1-2.4,4.5-3.8c-0.6-1.2-1.2-2.5-1.9-3.6
		C1021.1,280.7,1018.9,277.8,1018.7,277.6z"/>
	<path class="st6" d="M1051.2,314.7c-4.4-5.5-23.8-22.9-27.4-29.3c-1.4,1.3-3,2.5-4.8,3.4c6.1,10.4,24.3,34.7,29,33.5
		c4.3-1.1,4.6-4.4,3.8-6.4C1051.7,315.5,1051.5,315.1,1051.2,314.7z"/>
	<path class="st6" d="M1052,312.9c-12.1-2.8-9.7,6.7-6.3,8.7c8.9,5.3,36,15.8,39.3,11.4c1.5-1.9,5-14.8,3.9-15.1
		C1082.7,316,1061.9,315.2,1052,312.9z"/>
	<path class="st26" d="M1072,314.1c-6.6-0.5-13.1-1.4-19.6-2.6c-0.8-0.2-1.6-0.3-2.4-0.4c-2.1-2.2-4.9-5-8-8
		c-6.6-6.6-14.9-14.7-17-18.4l-7.3,4.9c5.4,9.2,20.2,29.3,27.3,33.4c7.3,4.4,26.5,13,33.9,16.1c2.3,1,14.2-23.9,13.6-23.8
		C1087.1,316.2,1079.2,314.8,1072,314.1z"/>
	<path class="st6" d="M1083.1,449.3c0.1,1.7,4.9,83.8,4.9,83.8c1.6,1.1,3.5,1.6,5.5,1.2c0,0,7.7-83.8,7.4-87.7
		C1098.6,448.3,1084.5,450.7,1083.1,449.3z"/>
	<path class="st20" d="M1075.8,384.9c-0.8,5.8,11.6,146.5,11.6,146.5c2-1.5,4.8-1.4,6.7,0.2c0,0,2.3-30.2,6.7-61.4
		c3.8-27,3.3-52.5,5.4-54.2v-28.6C1095.3,388.2,1079.4,386.6,1075.8,384.9z"/>
	<path class="st19" d="M1115.3,391.2c-11,0.3-21.9,0.1-32.8-0.7c-2.5-0.1-5-0.3-7.4-0.5c-0.4,8.8-0.4,17.6,0.1,26.4
		c1,0,8.9,0.5,8.9,0.5c13.8,1.1,34.7,4.2,44,1.9c1.7-0.4,6.2-2,6.4-2.5c0.8-9.5,0.7-19.1-0.1-28.6
		C1128.3,389.7,1121.9,390.9,1115.3,391.2z"/>
	<path class="st6" d="M1109.5,303.6c-2.2,0.5-10.4-3.3-11.2-3.8c0.7,3,0.4,11.5-0.5,13.2c2.9,5.4,12.1,4.7,12.4,1.4
		C1108.5,310.9,1109.5,304.2,1109.5,303.6z"/>
	<path class="st6" d="M1105.8,288.3c-4.4,0.6-6.8,4.7-6.2,9.1l0.6,4.5c0.5,3.3,6.3,7.8,9.1,6.8c6.6-2.4,6.3-15.1,5.8-16.5
		C1114,288.3,1109.9,287.7,1105.8,288.3z"/>
	<path class="st26" d="M1120.6,310.4c-4.4,6.4-10.4,3.9-10.4,3.9c-2.1,1-4.4,1.3-6.6,1c-4.3-0.6-5.8-2.4-5.8-2.4s-6.8,2.4-9.1,3.1
		c-6.9,2.2-8.7,7.7-8.6,13.8c0,1.5-7,49.2-4.8,80.7c1,0,2.2,0,3.6,0.1l2.4-20.2l2.9,20.5c13.8,1.1,34.6,3.5,44,1.9l1.7-18.3
		l1.6,17.3c0.7-0.4,2.9-1,3.1-1.6c2.9-28.6-6.4-77.1-7.6-80.5C1125.4,325.6,1124.4,305.1,1120.6,310.4z"/>
	<path class="st19" d="M1087.9,531.6c-0.3,0.5-0.7,1-1.1,1.5c-1.5,1.8-8.9,6-8.9,8.6c0,1.3,2.7,2.5,5,2.6c1.8,0.2,3.7,0,5.4-0.7
		c1.9-1.5,3.5-3.4,4.8-5.4c0.8-1.5,0.5-5,0.5-5C1092,530.2,1087.9,531.6,1087.9,531.6z"/>
	<path class="st20" d="M1087.9,535.8c-1.9,1.6-8.1,4.5-8.1,6.5c0,1,2.1,1.9,3.8,1.9c1.4,0.2,2.8,0,4.1-0.6c1.4-1.2,2.6-2.5,3.6-4.1
		C1093.2,536.2,1089.7,534.2,1087.9,535.8z"/>
	<path class="st16" d="M1117.5,288.9c-3.4-6.4-14.6-10.5-20.7-5c-5.4,4.9-4,12.9-0.1,18c2,2.6-1.5,2.3-1.5,2.3
		c1.7,1.7,3.8,2.9,6.1,3.6c10.8,2.7,16.5-11.9,16.5-11.9s-4.4-1-3-1c6.4,0,7.6-2.9,6.7-6.2C1121.7,290.1,1120,293.7,1117.5,288.9z"
		/>
	<path class="st6" d="M935.2,413c-1.2,0-2.4-0.2-3.5-0.5c1.2,0.6,0.7,1.3,1.9,2c0.5,0.2,2.9-0.4,2.9-0.9
		C936.6,412.7,935.9,413,935.2,413z"/>
	<path class="st6" d="M938.7,417.5c-0.2-0.2-3-2.6-4.4-3.5c-1.1-0.8-2.3-1.5-3.5-2.1c-1.5,1.3-2.9,2.7-4.1,4.3
		c1.9,1.3,8.1,5,8.2,5.1c2.1,1.9,3.3,1.7,3.3,0.8c0-0.2,1.9,0.6,2-0.2c0.4,0,0.7-0.2,0.9-0.5c0.1-0.6,0.1-1.3-0.1-1.9
		C940.3,418.9,939.6,418.2,938.7,417.5z"/>
	<path class="st6" d="M902.1,345.6c-0.3-1.1-13.4,1.8-15.3,3.1c-4.5,3,4.5,30.6,9.4,39.8c1.9,3.5,11.2,6.4,9-5.8
		C903.4,372.6,903.6,351.8,902.1,345.6z"/>
	<path class="st6" d="M903.4,383.3c-0.3-0.3-0.7-0.5-1.1-0.7c-2-0.8-5.3-0.7-6.6,3.5c-1.5,4.6,21.9,24,32,30.7
		c1-1.7,2.3-3.2,3.7-4.6C925,408.3,908.6,387.9,903.4,383.3z"/>
	<path class="st27" d="M913.4,392.4c-2.7-3.1-5.3-6.1-7.3-8.3c0-0.8-0.1-1.6-0.3-2.4c-0.8-6.4-1.2-12.8-1.3-19.3
		c-0.2-7.1-0.5-13.8-1.2-16.9c-0.1-0.5-0.5-0.9-1-1.1c-2.2-1-14.1,1.8-16.1,3.1c-6,3.9,4.4,33.3,8.1,40.6
		c3.5,7.2,22.2,22.9,30.7,28.7l5.2-6.8C926.7,407.8,919.3,399.2,913.4,392.4z"/>
	<path class="st19" d="M979.1,326.8l-11.8,27.3c-1,2-3.4,2.9-5.5,2l-22.2-9.6c-1.8-0.8-2.7-3-1.9-4.8c0-0.1,0.1-0.2,0.1-0.2
		l11.7-27.1v-0.8c-11.7,0.1-19.1,8-23.8,18.9c-4.7,10.9-2.6,24.6,4.5,33.9l-69,159.2c-2.9,6.8-1,14.7,5.8,17.7l0.2,0.1
		c7,2.9,15-0.4,18-7.3l69.1-159.3c12-1.4,22.4-9,27.5-20c4.7-10.9,5.1-21.9-2.8-30.5C978.9,326.3,979.1,326.6,979.1,326.8z
		 M876.8,534c-1.1,2.7-4.2,3.9-6.9,2.7s-3.9-4.2-2.7-6.9s4.2-3.9,6.9-2.7c0,0,0,0,0,0C876.7,528.3,878,531.4,876.8,534z"/>
	<path class="st18" d="M794.3,530.8c0.3-1.2,1-2.8,1-2.8l-4.7-2.3c0,0-0.6,0-1.7,1c-1,0.3-1.9,0.9-2.4,1.9c-0.4,0.8,0.6,3.6,0.7,5.3
		c0.4,1.8,1.2,3.5,2.5,4.8c1.4,1.8,3.9,3.4,4.9,2.6C796.8,540,793.6,533.1,794.3,530.8z"/>
	<path class="st6" d="M788.9,526.7c0,0,0.8,2.9,1.8,3.4c1.1,0.5,2.3,0.8,3.6,0.7c0.3-1,0.7-2,1.3-2.9l-4.9-2.9
		C790.7,525,789.9,525.7,788.9,526.7z"/>
	<path class="st18" d="M832.5,395c-6.2,18.3-8.7,51.7-11.7,77.9c-1.3,11.7-31.6,53.5-31.6,53.5c1.2,1.9,3.4,3,5.6,2.8
		c0,0,39.2-34.9,45.4-52.2c13-36.7,20.7-75.1,20.9-78.1C857.3,399.7,843.1,398,832.5,395z"/>
	<path class="st6" d="M857.4,446.6c-0.3,3.9,7.4,90.7,7.4,90.7c1.9,0.4,3.9-0.1,5.5-1.2c0,0,4.8-85,4.9-86.7
		C873.7,450.7,859.7,448.3,857.4,446.6z"/>
	<path class="st18" d="M871.4,536c-0.8-0.9-1.8-2.4-1.8-2.4l-4.5,2.5c0,0-0.4,0.5-0.1,1.9c-0.4,1-0.3,2.1,0.2,3
		c0.5,0.8,3.5,2,4.8,2.5c1.7,0.6,3.6,0.8,5.4,0.7c2.2-0.1,5-1.3,5-2.6C880.3,539.1,872.9,537.8,871.4,536z"/>
	<path class="st6" d="M864.7,535.6c0,0,0.1,1,0.3,2.4c0,0,2.8,1,3.8,0.5c1.1-0.6,2-1.5,2.6-2.5c-0.7-0.8-1.2-1.7-1.6-2.7
		L864.7,535.6z"/>
	<path class="st18" d="M852,387.5v28.6c2.1,1.7,1.6,27.3,5.4,54.2c4.5,31.2,6.8,64.3,6.8,64.3c2.2,2.4,6.6,0,6.7-0.2
		c0,0,12.4-143.6,11.6-149.5C878.8,386.6,862.9,388.2,852,387.5z"/>
	<path class="st19" d="M829.2,402.7c0,0,13.4,10.4,36.2,14.8l3.9-5.2l0.3,6.1c4.8,1.6,11.9,0.1,14.4-5.6c0.9-2,2.9-9.4,2.9-9.4
		l-51.4-21.5C835.4,381.9,828.7,393.9,829.2,402.7z"/>
	<path class="st6" d="M887.4,316c-0.6,3-4.1,10.8-5.6,12c0.6,6.1,9.3,9,10.9,6.1c-0.2-3.8,3.3-9.6,3.5-10.2
		C894,323.4,888,316.8,887.4,316z"/>
	<path class="st22" d="M892.8,334c0,0-2.6,1.7-4.6,0.8c-3-1.3-6.3-6.9-6.3-6.9s-7.2-0.4-9.6-0.6c-7.2-0.6-12.3,4.4-15.7,9.4
		c-9,13.3-23,48.9-23,48.9c8.3,13.2,45.2,22.3,52.2,21.4c5.2-0.6,8.9-38,16.4-52.2c2.8-4.7,2.2-10.6-1.5-14.7
		C899.7,338.9,892.8,334,892.8,334z"/>
	<path class="st6" d="M907.3,408.1c-1.2,0-2.3-0.3-3.5-0.7c1.2,0.6,0.7,1.3,1.7,2.1c0.5,0.2,2.9-0.2,2.9-0.8
		C908.6,407.9,907.9,408.1,907.3,408.1z"/>
	<path class="st6" d="M910.6,412.9c-0.2-0.2-2.9-2.7-4.2-3.7c-1.1-0.8-2.2-1.6-3.4-2.3c-1.6,1.2-3,2.6-4.3,4.1
		c1.8,1.5,7.8,5.4,8,5.5c2.1,2,3.2,1.8,3.2,1c0-0.2,1.8,0.7,2-0.1c0.4,0.1,0.8-0.1,0.9-0.5c0.2-0.6,0.2-1.2,0-1.9
		C912.2,414.3,911.4,413.5,910.6,412.9z"/>
	<path class="st6" d="M877.4,339.1c-0.2-1.2-13.4,1.2-15.4,2.4c-4.6,2.8,3,30.8,7.5,40.2c1.7,3.6,10.9,6.9,9.3-5.5
		C877.4,366.2,878.7,345.5,877.4,339.1z"/>
	<path class="st6" d="M876.9,376.9c-0.3-0.3-0.7-0.5-1.1-0.7c-2-0.9-5.3-1-6.8,3.2c-1.6,4.5,20.7,25.1,30.4,32.2
		c1.1-1.6,2.4-3.1,3.9-4.4C897.3,403,881.9,381.8,876.9,376.9z"/>
	<path class="st27" d="M885.9,386.2c-2.6-3.3-5-6.4-6.9-8.6c0-0.8-0.1-1.6-0.1-2.4c-0.6-4.8-0.1-33.1-0.8-36.3
		c-0.1-0.5-0.4-0.9-0.9-1.2c-2.1-1.1-14.2,1.1-16.3,2.3c-6.2,3.6,2.7,33.5,6.1,41c3.2,7.3,21,23.9,29.3,30.1l5.5-6.5
		C898.4,402.2,891.5,393.3,885.9,386.2z"/>
	<path class="st21" d="M896.4,319.9c0.2,3.9-0.4,7.8-2,11.4c-1.6,3.4-4.4,5.4-4.6,14.4c-0.3,13-10.3,24.1-8.1,26.2
		c2.2,2.1,11.7-2.4,16.4-15.5c1.3-3.6,1.7-7.4,1.2-11.2c-0.9-4.8,0-9.7,2.5-13.9c2.1-3.8,3.1-8.1,2.9-12.5
		C903.5,315.5,896.5,319.8,896.4,319.9z"/>
	<path class="st6" d="M899.7,307.8c-4.4-1.1-9,2.2-10.1,6.4l-1.2,4.4c-0.8,3.2,2.8,9.6,5.8,9.7c7,0.3,11.7-11.5,11.8-12.9
		C906.3,311.5,903.6,308.8,899.7,307.8z"/>
	<path class="st21" d="M902.8,304.4c0,0,0.1-0.7-3.2-3.5c-4.1-3-9.6-3.1-13.8-0.3c-6.2,3.7-10,10.5-9.9,17.8
		c0.3,5.7-2.2,11.2-6.6,14.7c-4.1,3.2-5.8,8.6-6.4,11.3c-2.9,15.6,7.2,26.6,11.2,26.2c4.4-0.4-1.1-18,7.7-30.3
		c6.1-8.6,3.9-12.4,4.1-16.8c0.2-5.7,4.5-12,7.5-13.9c3.2-2.1,8.3-1.2,8.3-1.2s6.5,3.9,0.7,14.4c4.6-2.2,8-12.5,4.2-16.4
		C905.7,305.4,904.3,304.7,902.8,304.4z"/>
	<path class="st6" d="M890.3,312.6c-1.3-0.2-2.6,0.5-3.1,1.7c-0.3,1.3,0.2,2.7,1.2,3.7c1.2-1.3,2.4-2.8,3.5-4.2
		C891.4,313.3,890.9,312.9,890.3,312.6z"/>
	<path class="st6" d="M663,372.2c-1.6,0.3-5.1,1.5-5.3,1.5c-1,0.3-2,0.6-3,1.1c-0.4,0.5-0.7,1-0.8,1.7c0,0.4,0.3,0.7,0.7,0.8
		c-0.1,0.8,1.9,0.8,1.8,0.9c-0.3,0.8,0.6,1.5,3.3,0.5c0.2,0,7.3-1.1,9.6-1.6c-0.5-1.9-1.2-3.7-2.1-5.5
		C665.7,371.7,664.4,371.9,663,372.2z"/>
	<path class="st6" d="M719.3,321.4c-3.9,5.1-11.7,24.4-17.1,33c-6.7,10.4,2.9,11.4,6,8.9c8.1-6.6,27-28.5,24-33.1
		C731,328.2,720,320.5,719.3,321.4z"/>
	<path class="st25" d="M719.3,321.4c-2.7,3.6-7.8,14.3-13.1,22.7c2.8,2.5,5.8,4.7,9,6.7c1.1,0.7,4.5,3,5.7,3.6
		c7.8-8.7,13.4-21.2,11.4-24.3C731,328.2,720,320.5,719.3,321.4z"/>
	<path class="st6" d="M704.9,355.6c-0.4,0-0.9,0.1-1.3,0.2c-6.6,2.2-29.6,14.7-36.9,15.9c0.8,1.8,1.3,3.7,1.6,5.7
		c11.9-2.2,40.8-11.1,41.3-16C710.1,356.9,707,355.6,704.9,355.6z"/>
	<path class="st6" d="M786.6,401.1c-0.3,0.6-0.8,1.1,0,1.5c0.5,0.2,2-1.7,2-2.3c-0.3-1.4-1-1.2-1.1-2.5
		C787.4,398.9,787.1,400,786.6,401.1z"/>
	<path class="st6" d="M793.1,394.7c-1.9,0.5-3.8,1.1-5.6,2c0.1,1.4,0.2,2.7,0.5,4.1c0.3,1.6,1.3,5.1,1.5,5.4c0.3,1,0.6,2,1,3
		c0.4,0.5,1,0.8,1.6,0.9c0.4,0,0.7-0.3,0.8-0.6c0.8,0.2,0.8-1.9,1-1.8c0.7,0.3,1.5-0.6,0.5-3.3C794.4,404.2,793.5,397,793.1,394.7z"
		/>
	<path class="st6" d="M762.2,321.4c-0.7-0.9-11.7,6.8-12.9,8.7c-3,4.5,16,26.5,24,33.1c3.1,2.5,12.8,1.5,6-8.9
		C773.9,345.8,766.1,326.6,762.2,321.4z"/>
	<path class="st25" d="M749.3,330.2c-2,3,3.6,15.4,11.4,24.3c1.2-0.6,4.6-2.9,5.7-3.6c3.1-2,6.1-4.3,9-6.7
		c-5.3-8.4-10.4-19-13.1-22.7C761.5,320.5,750.6,328.2,749.3,330.2z"/>
	<path class="st6" d="M778.1,354c-4.4-0.5-5.8,2.4-5.8,4.6c0,0.4,0,0.9,0.2,1.3c2,6.6,14,29.9,15.1,37.2c1.8-0.7,3.7-1.2,5.7-1.5
		C791.2,383.7,782.9,354.6,778.1,354z"/>
	<path class="st6" d="M743.2,446.6c-0.3,3.9,7.4,90.7,7.4,90.7c1.9,0.4,3.9-0.1,5.5-1.2c0,0,4.8-85,4.9-86.7
		C759.5,450.7,745.4,448.3,743.2,446.6z"/>
	<path class="st21" d="M757.2,535.9c-0.8-0.9-1.8-2.4-1.8-2.4l-4.5,2.5c0,0-0.4,0.5-0.1,1.9c-0.4,1-0.3,2.1,0.2,3
		c0.5,0.8,3.3,1.6,4.8,2.5c1.7,0.7,3.6,1,5.4,0.7c2.2-0.1,5-1.3,5-2.6C766,539.1,758.7,537.8,757.2,535.9z"/>
	<path class="st6" d="M750.4,535.6c0,0,0.1,1,0.3,2.4c0,0,2.8,1,3.8,0.5c1.1-0.6,2-1.5,2.6-2.5c-0.7-0.8-1.2-1.7-1.6-2.7
		L750.4,535.6z"/>
	<path class="st19" d="M737.8,387.5v28.6c2.1,1.7,1.6,27.3,5.4,54.2c4.5,31.2,6.8,64.3,6.8,64.3c2.2,2.4,6.6,0,6.7-0.2
		c0,0,12.4-143.6,11.6-149.5C764.6,386.6,748.7,388.2,737.8,387.5z"/>
	<path class="st6" d="M719.9,449.3c0.1,1.7,4.9,86.7,4.9,86.7c1.6,1.1,3.5,1.6,5.5,1.2c0,0,7.7-86.8,7.4-90.7
		C735.4,448.3,721.3,450.7,719.9,449.3z"/>
	<path class="st21" d="M730,536.1l-4.5-2.5c0,0-1,1.5-1.8,2.4c-1.5,1.8-8.9,3.1-8.9,5.7c0,1.3,2.7,2.5,5,2.6
		c1.8,0.1,3.7-0.2,5.4-0.7c1.3-0.4,4.4-1.7,4.8-2.5c0.5-0.9,0.5-2,0.2-3C730.3,536.6,730,536.1,730,536.1z"/>
	<path class="st6" d="M723.7,535.9c0.6,1.1,1.5,1.9,2.6,2.6c1,0.5,3.8-0.5,3.8-0.5c0.2-1.5,0.3-2.4,0.3-2.4l-5.2-2.3
		C724.8,534.3,724.3,535.1,723.7,535.9z"/>
	<path class="st19" d="M712.6,384.9c-0.8,5.8,11.6,149.5,11.6,149.5c0,0.2,4.5,2.7,6.7,0.2c0,0,2.3-33.1,6.8-64.3
		c3.8-27,3.3-52.5,5.4-54.2v-28.6C732.1,388.2,716.2,386.6,712.6,384.9z"/>
	<path class="st25" d="M712.6,379.2c0,0-2.2,14.4-0.6,15.9c3.5,3.6,14.9-0.1,25.8-0.6s30.6,3.1,31.3,0.9c0.7-2.2-1.3-13.8-1.3-13.8
		L712.6,379.2z"/>
	<path class="st6" d="M745.7,299.8c-0.8,0.5-9,4.4-11.2,3.8c0,0.6,1,7.3-0.7,10.8c0.4,3.3,9.5,4,12.4-1.4
		C745.3,311.3,745.1,302.8,745.7,299.8z"/>
	<path class="st6" d="M738.2,288.3c-4.1-0.6-8.2,0.1-9.4,3.9c-0.4,1.4-0.7,14.1,5.8,16.5c2.8,1,8.6-3.5,9.1-6.8l0.6-4.5
		C745.1,292.9,742.7,288.9,738.2,288.3z"/>
	<path class="st21" d="M755.4,316.1c-2.3-0.7-9.1-3.1-9.1-3.1s-5.2,3.9-8.5,3.9c-2.2,0-4-2.5-4-2.5s-8.2,1.9-9.7,2.6
		c-5.8,2.9-6.3,8.4-7.1,13c-0.7,4.5-7.3,51.8-6,54.5c3.1,6.5,53.6,6.6,57.7,0c1.6-2.6-4.8-52.1-4.8-54.4
		C763.9,323.8,762.2,318.3,755.4,316.1z"/>
	<path class="st16" d="M732.3,286.1c-7.3,0.8-6.4,11.4-3.3,13.1c-1-7.8,4.4-9.9,4.4-9.9c9.7,0.6,12.2,12.3,11.3,15.3
		c0,0,11.5-8.7,2.9-17.7C742.1,280.9,732.3,286.1,732.3,286.1z"/>
	<path class="st6" d="M744.4,295.6c-0.7,0-1.3,0.2-1.9,0.5c0.4,1.8,1,3.5,1.6,5.2c1.3-0.5,2.2-1.6,2.5-2.9
		C746.6,297.2,745.6,295.6,744.4,295.6z"/>
	<path class="st16" d="M770.2,295.4c0-28.2-23.7-18-23.7-10.6c0,1.8,0.9,2.9,2.5,1.2c2.7-3,11.9-5.3,5.5,11.5
		c-1.7,4.4-8,9.8,4.2,18.9c11,8.2,1.3,10.3,1.7,13.8c1,8.9,25.1-8.5,14-22.4C772.2,304.8,770.2,303.9,770.2,295.4z"/>
	<path class="st20" d="M748,284.3c-0.5-0.3-1-0.5-1.6-0.5c-0.8,0-1.6,0.3-2.2,0.9c2,1,3.7,2.3,5.1,4.1
		C750,287.3,750.1,285.8,748,284.3z"/>
	<path class="st25" d="M684.3,382.2l-21.2-9.7c-2.9-1.3-6.3,0-7.6,2.8l-9.7,21.2c-1.3,2.9,0,6.3,2.8,7.6l21.2,9.7
		c2.9,1.3,6.3,0,7.6-2.8l9.7-21.1C688.4,387,687.1,383.5,684.3,382.2z"/>
	<path class="st6" d="M662.7,370.8c-0.6-0.3-1.1-0.8-1.5,0c-0.2,0.5,2.1,2,2.6,2.2c2.2,1,2.9-0.3,2.2-1.4
		C664.9,371.5,663.7,371.2,662.7,370.8z"/>
	<path class="st17" d="M637.2,475.7l-23.3-0.6c-3.2,0-5.8,2.4-5.9,5.6l-0.6,23.3c0,3.2,2.4,5.8,5.6,5.9l23.3,0.6
		c3.2,0,5.8-2.4,5.9-5.6l0.6-23.3C642.9,478.4,640.4,475.8,637.2,475.7z"/>
	<path class="st18" d="M641.7,470.5c-2.3-2.2-5.9-2.1-8.1,0.1l-16.2,16.8c-2.2,2.3-2.1,5.9,0.2,8.1l16.8,16.1
		c2.3,2.2,5.9,2.1,8.1-0.2l16.1-16.8c2.2-2.3,2.1-5.9-0.2-8.1L641.7,470.5z"/>
	<path class="st20" d="M647.3,485.1h23.3c3.2,0,5.8,2.6,5.8,5.8v23.3c0,3.2-2.6,5.8-5.8,5.8h-23.3c-3.2,0-5.8-2.6-5.8-5.8v-23.3
		C641.6,487.6,644.1,485.1,647.3,485.1z"/>
	<rect x="605.3" y="492.8" class="st4" width="60" height="51.4"/>
	<rect x="665.3" y="492.8" class="st28" width="22" height="51.4"/>
	<polygon class="st29" points="605.3,524.6 655.4,524.6 665.4,492.8 605.3,492.8 	"/>
	<polygon class="st29" points="665.6,494.2 675.3,535.7 687.4,535.7 687.4,492.8 665.3,492.8 	"/>
	<polygon class="st4" points="593.8,513.8 655.4,513.8 665.4,492.7 605.7,492.7 	"/>
	<polygon class="st28" points="665.6,492.7 674.7,518.1 696.4,518.1 687.4,492.7 	"/>
</g>
</svg>
