<?xml version="1.0" encoding="utf-8"?>
<!-- Generator: Adobe Illustrator 20.1.0, SVG Export Plug-In . SVG Version: 6.00 Build 0)  -->
<svg version="1.1" id="Layer_1" xmlns="http://www.w3.org/2000/svg" xmlns:xlink="http://www.w3.org/1999/xlink" x="0px" y="0px"
	 viewBox="0 0 1349 600" style="enable-background:new 0 0 1349 600;" xml:space="preserve">
<style type="text/css">
	.st0{fill:#DFE3FE;}
	.st1{display:none;}
	.st2{display:inline;fill:url(#SVGID_1_);}
	.st3{display:inline;fill:#FFFFFF;}
	.st4{display:inline;}
	.st5{fill:#22377C;}
	.st6{display:inline;fill:#FF5E99;}
	.st7{display:inline;fill:#FCD2C5;}
	.st8{display:inline;fill:#552589;}
	.st9{display:inline;fill:#D2DBEB;}
	.st10{display:inline;fill:#22377C;}
	.st11{display:inline;fill:#2D5DEA;}
	.st12{display:inline;fill:#13265B;}
	.st13{display:inline;fill:#BF8DFF;}
	.st14{display:inline;fill:#29004F;}
	.st15{display:inline;fill:#F0F5FF;}
	.st16{display:inline;fill:#3F82C4;}
	.st17{display:inline;fill:#8FAFFF;}
	.st18{display:inline;fill:#9958ED;}
	.st19{display:inline;fill:#E3EEF7;}
	.st20{display:inline;fill:#AFC4D6;}
	.st21{fill:#194767;}
	.st22{fill:#FCD2C5;}
	.st23{fill:#13265B;}
	.st24{fill:#8FAFFF;}
	.st25{fill:#2D5DEA;}
	.st26{fill:#D2DBEB;}
	.st27{fill:#FFFFFF;}
	.st28{fill:#FF5E99;}
	.st29{fill:#552589;}
	.st30{fill:url(#SVGID_2_);}
	.st31{fill:#9958ED;}
	.st32{fill:#5936E5;}
	.st33{fill:#2050BA;}
	.st34{fill:#3EC6C9;}
	.st35{fill:#BFCBDD;}
	.st36{fill:#4D3782;}
	.st37{fill:#97B2E8;}
</style>
<path class="st0" d="M527.3,0c0,0,21.2,48.8,107.1,61.8s29.9,83.1,49.1,155.6c9.7,36.6,48.3,109,166.7,64.3
	c83.8-31.7,111.3,11.5,113.2,81.4c2.4,89.4,45.5,119.5,153.9,103.7c108.4-15.9,124.4-2.5,140.4,28.5s69.2,28.9,91.3,8.9
	c0-66,0-503.6,0-503.6L527.3,0z"/>
<g class="st1">
	
		<radialGradient id="SVGID_1_" cx="908.2811" cy="574.3105" r="398.3954" gradientTransform="matrix(1 0 0 -7.000000e-02 0 585.79)" gradientUnits="userSpaceOnUse">
		<stop  offset="1.000000e-02" style="stop-color:#77D6EC"/>
		<stop  offset="1" style="stop-color:#FFFFFF"/>
	</radialGradient>
	<ellipse class="st2" cx="908.3" cy="544.7" rx="396.3" ry="18.6"/>
	<rect x="1162" y="539.6" class="st3" width="65.2" height="5.1"/>
	<path class="st3" d="M1211.2,364.9h-29.3c-1.4,0-2.5,1.1-2.5,2.5v29.3c0,1.4,1.1,2.5,2.5,2.5h29.3c1.4,0,2.5-1.1,2.5-2.5v-29.3
		C1213.8,366,1212.6,364.9,1211.2,364.9z M1208.7,394.1h-24.2v-24.2h24.2L1208.7,394.1z"/>
	
		<rect x="1175.9" y="379.2" transform="matrix(0.7071 -0.7071 0.7071 0.7071 80.4675 957.8074)" class="st3" width="41" height="5.1"/>
	<path class="st3" d="M1211.2,451.8h-29.3c-1.4,0-2.5,1.1-2.5,2.5v29.3c0,1.4,1.1,2.5,2.5,2.5h29.3c1.4,0,2.5-1.1,2.5-2.5v-29.3
		C1213.8,452.9,1212.6,451.8,1211.2,451.8z M1208.7,481.1h-24.2v-24.2h24.2L1208.7,481.1z"/>
	
		<rect x="1193.9" y="448.5" transform="matrix(0.7071 -0.7071 0.7071 0.7071 18.7906 983.3517)" class="st3" width="5.1" height="41"/>
	<path class="st3" d="M1211.2,423.4h-29.3c-1.4,0-2.5,1.1-2.5,2.5v28.4c0,1.4,1.1,2.5,2.5,2.5h29.3c1.4,0,2.5-1.1,2.5-2.5v-28.4
		C1213.8,424.5,1212.6,423.4,1211.2,423.4z M1208.7,451.8h-24.2v-23.3h24.2L1208.7,451.8z"/>
	
		<rect x="1175.9" y="437.5" transform="matrix(0.7071 -0.7071 0.7071 0.7071 39.2765 974.8729)" class="st3" width="41" height="5.1"/>
	<path class="st3" d="M1211.2,394.1h-29.3c-1.4,0-2.5,1.1-2.5,2.5V426c0,1.4,1.1,2.5,2.5,2.5h29.3c1.4,0,2.5-1.1,2.5-2.5v-29.3
		C1213.7,395.3,1212.6,394.1,1211.2,394.1z M1208.7,423.4h-24.2v-24.2h24.2L1208.7,423.4z"/>
	
		<rect x="1193.9" y="390.5" transform="matrix(0.7071 -0.7071 0.7071 0.7071 59.7831 966.3736)" class="st3" width="5.1" height="41"/>
	<g class="st4">
		<path class="st5" d="M1211.2,306.3h-29.3c-1.4,0-2.5,1.1-2.5,2.5v29.3c0,1.4,1.1,2.5,2.5,2.5h29.3c1.4,0,2.5-1.1,2.5-2.5v-29.3
			C1213.8,307.4,1212.6,306.3,1211.2,306.3z M1208.7,335.6h-24.2v-24.2h24.2L1208.7,335.6z"/>
		
			<rect x="1175.9" y="320.7" transform="matrix(0.7071 -0.7071 0.7071 0.7071 121.8825 940.6544)" class="st5" width="41" height="5.1"/>
		<path class="st5" d="M1211.2,277h-29.3c-1.4,0-2.5,1.2-2.5,2.6v29.3c0,1.4,1.1,2.5,2.5,2.5h29.3c1.4,0,2.5-1.1,2.5-2.5v-29.3
			C1213.8,278.2,1212.7,277,1211.2,277C1211.3,277,1211.2,277,1211.2,277z M1208.7,306.3h-24.2v-24.2h24.2L1208.7,306.3z"/>
		
			<rect x="1193.9" y="273.7" transform="matrix(0.7071 -0.7071 0.7071 0.7071 142.3951 932.1404)" class="st5" width="5.1" height="41"/>
		<path class="st5" d="M1211.2,335.6h-29.3c-1.4,0-2.5,1.1-2.5,2.5v29.3c0,1.4,1.1,2.5,2.5,2.5h29.3c1.4,0,2.5-1.1,2.5-2.5v-29.3
			C1213.8,336.7,1212.6,335.6,1211.2,335.6z M1208.7,364.9h-24.2v-24.2h24.2L1208.7,364.9z"/>
		
			<rect x="1193.9" y="332.3" transform="matrix(0.7071 -0.7071 0.7071 0.7071 100.9801 949.2935)" class="st5" width="5.1" height="41"/>
		<path class="st5" d="M1211.2,248.6h-29.3c-1.4,0-2.5,1.2-2.5,2.5v28.4c0,1.4,1.1,2.5,2.5,2.5h29.3c1.4,0,2.5-1.1,2.5-2.5v-28.4
			C1213.8,249.8,1212.7,248.6,1211.2,248.6C1211.3,248.6,1211.2,248.6,1211.2,248.6z M1208.7,277h-24.2v-23.3h24.2L1208.7,277z"/>
		
			<rect x="1175.9" y="262.7" transform="matrix(0.707 -0.7072 0.7072 0.707 162.9838 923.8661)" class="st5" width="41" height="5.1"/>
		<path class="st5" d="M1211.2,219.4h-29.3c-1.4,0-2.5,1.2-2.5,2.5v29.3c0,1.4,1.1,2.5,2.5,2.5h29.3c1.4,0,2.5-1.1,2.5-2.5v-29.3
			C1213.8,220.5,1212.7,219.4,1211.2,219.4C1211.3,219.4,1211.2,219.4,1211.2,219.4z M1208.7,248.6h-24.2v-24.2h24.2L1208.7,248.6z"
			/>
		
			<rect x="1193.9" y="215.8" transform="matrix(0.7071 -0.7071 0.7071 0.7071 183.3671 915.1915)" class="st5" width="5.1" height="41"/>
		<path class="st5" d="M1211.2,191h-29.3c-1.4,0-2.5,1.2-2.5,2.5v28.4c0,1.4,1.1,2.5,2.5,2.5h29.3c1.4,0,2.5-1.1,2.5-2.5v-28.4
			C1213.8,192.1,1212.7,191,1211.2,191C1211.3,191,1211.2,191,1211.2,191z M1208.7,219.4h-24.2V196h24.2L1208.7,219.4z"/>
		
			<rect x="1175.9" y="205" transform="matrix(0.7071 -0.7071 0.7071 0.7071 203.6478 906.7753)" class="st5" width="41" height="5.1"/>
		<path class="st5" d="M1211.2,161.7h-29.3c-1.4,0-2.5,1.2-2.5,2.5v29.3c0,1.4,1.1,2.5,2.5,2.5h29.3c1.4,0,2.5-1.1,2.5-2.5v-29.3
			C1213.8,162.8,1212.7,161.7,1211.2,161.7C1211.3,161.7,1211.2,161.7,1211.2,161.7z M1208.7,191h-24.2v-24.2h24.2L1208.7,191z"/>
		
			<rect x="1193.9" y="158.1" transform="matrix(0.7071 -0.7071 0.7071 0.7071 224.1441 898.3008)" class="st5" width="5.1" height="41"/>
		<path class="st5" d="M1211.2,481.1h-29.3c-1.4,0-2.5,1.2-2.5,2.5v29.3c0,1.4,1.1,2.5,2.5,2.5h29.3c1.4,0,2.5-1.1,2.5-2.5v-29.3
			C1213.8,482.2,1212.7,481.1,1211.2,481.1C1211.3,481.1,1211.2,481.1,1211.2,481.1z M1208.7,510.4h-24.2v-24.2h24.2L1208.7,510.4z"
			/>
		
			<rect x="1175.9" y="495.5" transform="matrix(0.7071 -0.7071 0.7071 0.7071 -1.7118 991.8408)" class="st5" width="41" height="5.1"/>
		<path class="st5" d="M1211.2,510.4h-29.3c-1.4,0-2.5,1.2-2.5,2.5v29.3c0,1.4,1.1,2.5,2.5,2.5h29.3c1.4,0,2.5-1.1,2.5-2.5v-29.3
			C1213.8,511.5,1212.7,510.4,1211.2,510.4C1211.3,510.4,1211.2,510.4,1211.2,510.4z M1208.7,539.6h-24.2v-24.2h24.2L1208.7,539.6z"
			/>
		
			<rect x="1193.9" y="507.1" transform="matrix(0.7071 -0.7071 0.7071 0.7071 -22.6141 1000.5004)" class="st5" width="5.1" height="41"/>
		<path class="st5" d="M1211.2,131.6h-29.3c-1.4,0-2.5,1.2-2.5,2.5v29.3c0,1.3,1.1,2.4,2.5,2.5h29.3c1.4,0,2.5-1.1,2.5-2.5v-29.2
			C1213.8,132.8,1212.6,131.6,1211.2,131.6z M1208.7,160.9h-24.2v-24.1h24.2L1208.7,160.9z"/>
		
			<rect x="1175.9" y="146.3" transform="matrix(0.7071 -0.7071 0.7071 0.7071 245.1894 889.5847)" class="st5" width="41" height="5.1"/>
		<path class="st5" d="M1211.2,103.2h-29.3c-1.4,0-2.5,1.2-2.5,2.5v28.4c0,1.4,1.1,2.6,2.5,2.6c0,0,0,0,0,0h29.3
			c1.4,0,2.5-1.1,2.5-2.5v-28.4C1213.8,104.4,1212.6,103.2,1211.2,103.2z M1208.7,131.6h-24.2v-23.3h24.2L1208.7,131.6z"/>
		
			<rect x="1193.9" y="99.3" transform="matrix(0.7071 -0.7071 0.7071 0.7071 265.6857 881.0895)" class="st5" width="5.1" height="41"/>
		<path class="st5" d="M1181.9,131.6h-29.3c-1.4,0-2.5,1.1-2.5,2.5v29.3c0,1.4,1.2,2.5,2.5,2.5h29.3c1.4,0,2.5-1.1,2.5-2.5v-29.2
			C1184.5,132.8,1183.3,131.6,1181.9,131.6z M1179.5,160.9h-24.3v-24.1h24.3V160.9z"/>
		
			<rect x="1164.9" y="128.3" transform="matrix(0.7071 -0.7071 0.7071 0.7071 236.7004 869.0823)" class="st5" width="5.1" height="41"/>
		<path class="st5" d="M1152.7,131.6h-28.4c-1.4,0-2.5,1.1-2.5,2.5v29.3c0,1.4,1.2,2.5,2.5,2.5h28.4c1.4,0,2.5-1.1,2.5-2.5v-29.2
			C1155.2,132.8,1154.1,131.6,1152.7,131.6C1152.7,131.6,1152.7,131.6,1152.7,131.6z M1150.1,160.9h-23.3v-24.1h23.3V160.9z"/>
		
			<rect x="1117.9" y="146.3" transform="matrix(0.7071 -0.7071 0.7071 0.7071 228.201 848.5963)" class="st5" width="41" height="5.1"/>
		<path class="st5" d="M1124.3,131.6h-29.3c-1.4,0-2.5,1.1-2.5,2.5v29.3c0,1.4,1.2,2.5,2.5,2.5h29.3c1.4,0,2.5-1.1,2.5-2.5v-29.2
			C1126.8,132.8,1125.7,131.7,1124.3,131.6z M1121.8,160.9h-24.2v-24.1h24.2V160.9z"/>
		
			<rect x="1106.9" y="128.3" transform="matrix(0.7071 -0.7071 0.7071 0.7071 219.7223 828.0898)" class="st5" width="5.1" height="41"/>
		<path class="st5" d="M1232.2,131.6h-21c-1.4,0-2.5,1.1-2.5,2.5v29.3c0,1.4,1.2,2.5,2.5,2.5h21c9.4,0,17-7.6,17-17v-0.3
			C1249.2,139.2,1241.6,131.7,1232.2,131.6z M1244.2,148.9c0,6.6-5.4,12-12,12h-18.5v-24.1h18.5c6.6,0,12,5.4,12,12V148.9z"/>
		<rect x="1058.2" y="160.9" class="st5" width="123.3" height="5.1"/>
		<path class="st5" d="M1096.4,132c-0.8-0.5-1.7-0.5-2.5-0.1l-27.5,14.1c-0.8,0.4-1.4,1.3-1.4,2.3v14.6c0,1.4,1.1,2.5,2.5,2.5h27.4
			c1.4,0,2.5-1.1,2.5-2.5v-28.7C1097.5,133.3,1097.1,132.5,1096.4,132z M1092.5,160.4H1070v-10.5l22.4-11.5L1092.5,160.4z"/>
		<rect x="1096.1" y="160.8" class="st5" width="2.9" height="67.2"/>
	</g>
	<path class="st6" d="M1085.9,225.5h23.3c3.2,0,5.8,2.6,5.8,5.8v23.3c0,3.2-2.6,5.8-5.8,5.8h-23.3c-3.2,0-5.8-2.6-5.8-5.8v-23.3
		C1080.1,228.1,1082.7,225.5,1085.9,225.5z"/>
	<path class="st7" d="M1186,386.5c-0.6-0.2-1.3-0.5-1.4,0.3c-0.1,0.5,2.1,1.5,2.7,1.5c1.3-0.6,0.9-1.3,2.2-1.6
		C1188.3,386.8,1187.1,386.8,1186,386.5z"/>
	<path class="st7" d="M1190.4,386.4c-1.3,0.4-2.6,0.9-3.8,1.5c-1.5,0.6-4.7,2.5-4.9,2.6c-0.9,0.5-1.9,1-2.7,1.7
		c-0.3,0.5-0.5,1.2-0.5,1.8c0.1,0.4,0.4,0.6,0.8,0.7c0,0.8,2,0.4,1.9,0.6c-0.2,0.8,0.9,1.3,3.4-0.2c0.1-0.1,6.9-2.6,9-3.5
		C1192.7,389.6,1191.7,387.9,1190.4,386.4z"/>
	<path class="st7" d="M1224.1,362.9c-0.4,0.1-0.9,0.2-1.2,0.5c-6,3.5-26,20.5-32.8,23.2c1.1,1.6,2.1,3.3,2.8,5.2
		c11.2-4.6,37.7-19.4,37.1-24.2C1229.5,363.1,1226.2,362.4,1224.1,362.9z"/>
	<path class="st7" d="M1231.2,326.5c-2.7,5.8-6.3,26.3-10,35.8c-4.4,11.7,5.3,10.6,7.7,7.5c6.5-8.1,20.5-33.5,16.7-37.3
		C1244,330.7,1231.7,325.4,1231.2,326.5z"/>
	<path class="st8" d="M1231.1,324.9c-0.5,0.1-1,0.4-1.2,0.9c-1.5,3-3,9.7-4.7,16.8c-1.7,7.1-5.8,20.7-6,21.4
		c-2.4,1.7-25.6,19.5-29.6,21.1l3.8,7.9c9.8-4.1,31.8-16,36.8-22.5c5.3-6.6,21.8-34,16.5-39.2
		C1244.9,329.6,1233.4,324.4,1231.1,324.9z"/>
	<rect x="1097.9" y="369.6" class="st9" width="145.5" height="126.6"/>
	<rect x="1097.9" y="358.1" class="st10" width="145.5" height="16.2"/>
	<rect x="1110.5" y="382.4" class="st3" width="119.4" height="98.7"/>
	<rect x="1140.4" y="388.8" class="st9" width="85" height="46.2"/>
	<rect x="1144.1" y="462.8" class="st9" width="17.6" height="2.3"/>
	<rect x="1170.5" y="462.8" class="st9" width="38.6" height="2.3"/>
	<rect x="1213.6" y="462.8" class="st9" width="8" height="2.3"/>
	<rect x="1195.1" y="466.5" class="st9" width="26.6" height="2.3"/>
	<rect x="1144.1" y="466.5" class="st9" width="6.4" height="2.3"/>
	<rect x="1153.7" y="466.5" class="st9" width="35.1" height="2.3"/>
	<rect x="1144.1" y="470.1" class="st9" width="21.1" height="2.3"/>
	<rect x="1169.5" y="470.1" class="st9" width="52.1" height="2.3"/>
	<rect x="1144.1" y="443" class="st9" width="17.6" height="2.3"/>
	<rect x="1170.5" y="443" class="st9" width="38.6" height="2.3"/>
	<rect x="1213.6" y="443" class="st9" width="8" height="2.3"/>
	<rect x="1195.1" y="446.6" class="st9" width="26.6" height="2.3"/>
	<rect x="1144.1" y="446.6" class="st9" width="6.4" height="2.3"/>
	<rect x="1153.7" y="446.6" class="st9" width="35.1" height="2.3"/>
	<rect x="1144.1" y="450.2" class="st9" width="21.1" height="2.3"/>
	<rect x="1169.5" y="450.2" class="st9" width="52.1" height="2.3"/>
	<rect x="1115.9" y="389.1" class="st9" width="18.7" height="3.6"/>
	<rect x="1115.9" y="399.1" class="st9" width="18.7" height="3.6"/>
	<rect x="1115.9" y="409" class="st9" width="18.7" height="3.6"/>
	<rect x="1115.9" y="419" class="st9" width="18.7" height="3.6"/>
	<rect x="1115.9" y="428.9" class="st9" width="18.7" height="3.6"/>
	<rect x="1115.9" y="438.9" class="st9" width="18.7" height="3.6"/>
	<rect x="1115.9" y="448.9" class="st9" width="18.7" height="3.6"/>
	<rect x="1115.9" y="458.9" class="st9" width="18.7" height="3.6"/>
	<rect x="1115.9" y="468.8" class="st9" width="18.7" height="3.6"/>
	<circle class="st3" cx="1235.4" cy="369.4" r="1.7"/>
	<circle class="st3" cx="1228.4" cy="369.4" r="1.7"/>
	<path class="st11" d="M1190.5,396.7h-15.3c-7.9,0-14,7.2-14.1,15.1c0,7.9,6.2,14.8,14.1,14.8h15.3c8.2-0.3,14.7-7.2,14.5-15.4
		C1204.8,403.3,1198.4,397,1190.5,396.7z"/>
	<path class="st11" d="M1161.2,411.9C1161.2,411.9,1161.2,411.9,1161.2,411.9c0-0.1,0-0.1,0-0.1V411.9z"/>
	<polygon class="st3" points="1178,420.4 1192.2,412.2 1178,404 	"/>
	<path class="st12" d="M1259,536.1l-4.5-2.5c0,0-1,1.5-1.8,2.4c-1.5,1.8-8.9,3.1-8.9,5.7c0,1.3,2.7,2.5,5,2.6
		c1.8,0.1,3.7-0.2,5.4-0.7c1.3-0.4,4.4-1.7,4.8-2.5c0.5-0.9,0.5-2,0.2-3C1259.3,536.6,1259,536.1,1259,536.1z"/>
	<path class="st7" d="M1253.1,533.4c0.4,0.9,0.2,1.9-0.5,2.6c0.7,1,1.6,1.9,2.6,2.5c1,0.5,3.8-0.5,3.8-0.5c0.1-1.2,0.2-2.3,0.1-3.5
		L1253.1,533.4z"/>
	<path class="st13" d="M1241.6,385c-1.8,28.3-1.7,56.8,0.3,85.1c2,21.7,5.7,43.2,11.3,64.3c0,0.2,4.5,2.6,6.7,0.2
		c0,0-3.5-33.1,0.9-64.3c3.8-27,9.1-52.5,11.2-54.2v-28.6C1261.1,388.2,1245.2,386.6,1241.6,385z"/>
	<path class="st12" d="M1293.4,536.4l-4.7-2.2c0,0-0.9,1.5-1.6,2.5c-1.5,1.9-8.6,3.8-8.4,6.4c0.1,1.3,2.9,2.2,5.2,2.2
		c1.8,0.1,3.7-0.3,5.3-1.2c1.5-1,4.2-2,4.6-2.8c0.4-1,0.4-2.1,0-3C1293.8,536.9,1293.4,536.4,1293.4,536.4z"/>
	<path class="st7" d="M1287.7,534.1c0.2,1,0,2-0.6,2.7c0.7,1,1.7,1.8,2.8,2.3c1,0.5,3.8-0.8,3.8-0.8c0.1-1.5,0-3.6,0-3.6
		L1287.7,534.1z"/>
	<path class="st13" d="M1294.8,387.3c-10.9,1.6-26.8,1.2-30.6-0.1c0.4,28.5,2.8,57,7.1,85.1c3.6,21.4,9.1,42.4,16.2,62.9
		c0.1,0.2,4.7,2.3,6.7-0.3c0,0-6.1-32.7-4.1-64.2C1291.8,443.5,1294.8,387.3,1294.8,387.3z"/>
	<path class="st7" d="M1239.9,307.6c0.1,0.6,2.4,7,1.5,10.7c1,3.2,10.2,2.1,11.9-3.8c-1.2-1.5-3.2-9.7-3.1-12.8
		C1249.5,302.3,1242.2,307.6,1239.9,307.6z"/>
	<path class="st7" d="M1240.6,291.8c-4.2,0.2-8,1.7-8.4,5.7c-0.1,1.5,2.1,13.9,9,15c2.9,0.4,7.8-5.1,7.6-8.4l-0.3-4.6
		C1248.2,295,1245,291.5,1240.6,291.8z"/>
	<path class="st8" d="M1262.9,315.7c-2.3-0.6-9.5-1.3-9.5-1.3s-4.4,4.9-7.5,5.5c-2.2,0.4-4.4-1.7-4.4-1.7s-7.7,3.4-9,4.5
		c-5.2,4-2.4,11.1-1.6,17.3c0.5,3.6,9.5,36.4,7.5,68.5c14.4,5.8,28.3,9.8,47.8-0.7l-1.3-20.7l6.4,19.3c1.3-0.3,4-0.6,5.1-0.8
		C1296.3,345.6,1283.7,321.2,1262.9,315.7z"/>
	<path class="st13" d="M1253.3,314.4c0,0-4.4,4.9-7.5,5.5c-2.2,0.4-4.4-1.7-4.4-1.7s-7.2,3.2-8.8,4.4c1.3,6.5,9.6,12.3,9.6,12.3
		s12.3-13.7,20.7-19.3c-1.5-0.5-3.1-0.8-4.7-0.9L1253.3,314.4z"/>
	<path class="st14" d="M1249.3,284.2c-8.7-6.9-22.9,1-22.7,9.9c0,2,2.2,6.5,20.2,1.5c2.4,3,3.7,10,3.7,10
		C1255.7,300.2,1256,289.4,1249.3,284.2z"/>
	<path class="st7" d="M1249,297.6c-0.7,0-1.3,0.1-1.9,0.4c0.3,1.8,0.8,3.5,1.3,5.3c1.3-0.4,2.3-1.5,2.6-2.8
		C1251.1,299.3,1250.1,297.7,1249,297.6z"/>
	<path class="st7" d="M1195.8,367.4c-0.3,0.5,1.5,2.1,2.1,2.2c1.4-0.1,1.3-0.9,2.6-0.8c-1.2-0.3-2.3-0.7-3.3-1.3
		C1196.6,367.1,1196.1,366.6,1195.8,367.4z"/>
	<path class="st7" d="M1197.3,368.9c-1.6,0.1-5.2,0.8-5.5,0.9c-1.1,0.2-2.1,0.4-3.1,0.7c-0.5,0.4-0.9,0.9-1,1.5
		c0,0.4,0.2,0.7,0.6,0.9c-0.2,0.8,1.7,1,1.7,1.2c-0.4,0.7,0.4,1.5,3.2,0.9c0.2,0,7.4-0.1,9.7-0.4c-0.3-2-0.8-3.9-1.5-5.7
		C1200,368.7,1198.7,368.7,1197.3,368.9z"/>
	<path class="st8" d="M1259.8,323.9c-0.5-0.1-1.1,0.1-1.5,0.5c-2.3,2.4-6,8.2-9.9,14.3c-3.4,5.6-7.2,11.1-11.2,16.4
		c-0.5,0.6-1,1.3-1.5,2c-2.9,0.8-6.7,2.1-10.8,3.5c-8.8,2.9-19.8,6.6-24.1,6.8l1.1,8.7c10.6-0.7,35.3-4.8,42.1-9.3
		c7.2-4.5,31.6-25.1,28.4-31.7C1271.4,332.8,1262.3,324.2,1259.8,323.9z"/>
	<path class="st11" d="M555.7,441.4c-0.5,2.4,0.2,5.3-0.2,7.8c-0.5,3.1-2.5,4-3.9,6c-1.7,3.2-2.4,6.8-1.8,10.4
		c0.5,2.2,1.1,4.3,1.8,6.4c0.7,2.2,0.9,4.6,0.5,6.9c-0.8,3.3-4.8,5.9-4.8,20c0,12.9,9.2,17.9,11.8,21v-83.4l-1.2,1.1
		C556.8,438.6,556,439.9,555.7,441.4z"/>
	<path class="st11" d="M566.5,472c0.7-2.1,1.3-4.2,1.7-6.4c0.6-3.6,0-7.3-1.7-10.4c-1.3-2-3.3-2.9-3.9-6c-0.4-2.5,0.3-5.4-0.2-7.8
		c-0.3-1.4-1.1-2.7-2.2-3.7l-1.2-1.1v83.4c2.6-3.1,11.8-8.2,11.8-21c0-14.1-4-16.7-4.8-20C565.6,476.6,565.8,474.2,566.5,472z"/>
	<path class="st9" d="M571.1,487.8c-0.7,0.9-0.4,2.3-1,3.3c-0.8,1.2-2.5,1.2-3.9,1.7c-1.6,0.7-2.6,2.3-2.6,4c0.1,1,0.4,2.1,0.7,3.1
		c0.3,1,0.2,2.1-0.4,3c-1,1.2-4.6,1.5-6.2,7.4c-1.5,5.4,5.6,9.5,7.5,11.4l9.2-35.1l-1.1,0.2C572.5,486.8,571.7,487.2,571.1,487.8z"
		/>
	<path class="st9" d="M575.9,492.5c-0.1-1.2,0.9-2.2,0.7-3.3c-0.2-0.8-0.7-1.5-1.5-2l-0.8-0.7l-9.2,35.2c2.5-0.8,10.7-0.9,12.1-6.3
		c1.5-5.9-1.5-7.9-1.8-9.5c-0.1-1.1,0.4-2.1,1.2-2.8c0.8-0.7,1.5-1.5,2.1-2.3c0.9-1.5,0.8-3.4-0.3-4.8
		C577.6,494.8,576,494,575.9,492.5z"/>
	<path class="st3" d="M544,517.8c0,0,5.7,6.1,5.7,10.2c-0.1,1.6-0.4,3.2-1,4.7c-1.6,4.9,1.1,10.1,6,11.7c0.9,0.3,1.9,0.4,2.8,0.4
		h15.1c5.1,0,9.3-4.2,9.3-9.3c0-0.9-0.1-1.9-0.4-2.8c-0.5-1.5-0.9-3.1-1-4.7c0-4.1,5.7-10.2,5.7-10.2L544,517.8z"/>
	<path class="st10" d="M924.3,192.8h128.9c18.1,0,32.7,14.6,32.7,32.7l0,0V512c0,18.1-14.6,32.7-32.7,32.7h0H924.3
		c-18.1,0-32.7-14.6-32.7-32.7v0V225.5C891.6,207.4,906.3,192.8,924.3,192.8L924.3,192.8z"/>
	<path class="st15" d="M1053.2,200H924c-14.1,0-25.5,11.4-25.5,25.5v286.7c0,14.3,11.6,25.8,25.9,25.9h128.9
		c14.3,0,25.9-11.6,25.9-25.9V225.9C1079.1,211.6,1067.5,200,1053.2,200z"/>
	<path class="st10" d="M940.7,205.4c0,9.5,7.7,17.1,17.1,17.1l0,0h62c9.5,0,17.1-7.7,17.1-17.1v0v-6.9h-96.3V205.4z"/>
	<path class="st9" d="M970.5,209.7h36.7c1.3,0,2.4,1.1,2.4,2.4v0c0,1.3-1.1,2.4-2.4,2.4h-36.7c-1.3,0-2.4-1.1-2.4-2.4v0
		C968.1,210.8,969.2,209.7,970.5,209.7z"/>
	<circle class="st9" cx="988.8" cy="202.9" r="2.8"/>
	<path class="st16" d="M1039.8,463.2h23.3c3.2,0,5.8,2.6,5.8,5.8v23.3c0,3.2-2.6,5.8-5.8,5.8h-23.3c-3.2,0-5.8-2.6-5.8-5.8v-23.3
		C1034.1,465.8,1036.7,463.2,1039.8,463.2z"/>
	<path class="st6" d="M998.1,463.2h23.3c3.2,0,5.8,2.6,5.8,5.8v23.3c0,3.2-2.6,5.8-5.8,5.8h-23.3c-3.2,0-5.8-2.6-5.8-5.8v-23.3
		C992.3,465.8,994.9,463.2,998.1,463.2z"/>
	<path class="st11" d="M956.3,463.2h23.3c3.2,0,5.8,2.6,5.8,5.8v23.3c0,3.2-2.6,5.8-5.8,5.8h-23.3c-3.2,0-5.8-2.6-5.8-5.8v-23.3
		C950.5,465.8,953.1,463.2,956.3,463.2z"/>
	<path class="st11" d="M914.5,463.2h23.3c3.2,0,5.8,2.6,5.8,5.8v23.3c0,3.2-2.6,5.8-5.8,5.8h-23.3c-3.2,0-5.8-2.6-5.8-5.8v-23.3
		C908.7,465.8,911.3,463.2,914.5,463.2z"/>
	<path class="st16" d="M1039.8,250.1h23.3c3.2,0,5.8,2.6,5.8,5.8v23.3c0,3.2-2.6,5.8-5.8,5.8h-23.3c-3.2,0-5.8-2.6-5.8-5.8v-23.3
		C1034.1,252.6,1036.7,250.1,1039.8,250.1z"/>
	<path class="st9" d="M998.1,250.1h23.3c3.2,0,5.8,2.6,5.8,5.8v23.3c0,3.2-2.6,5.8-5.8,5.8h-23.3c-3.2,0-5.8-2.6-5.8-5.8v-23.3
		C992.3,252.6,994.9,250.1,998.1,250.1z"/>
	<path class="st11" d="M956.3,250.1h23.3c3.2,0,5.8,2.6,5.8,5.8v23.3c0,3.2-2.6,5.8-5.8,5.8h-23.3c-3.2,0-5.8-2.6-5.8-5.8v-23.3
		C950.5,252.6,953.1,250.1,956.3,250.1z"/>
	<path class="st9" d="M914.5,250.1h23.3c3.2,0,5.8,2.6,5.8,5.8v23.3c0,3.2-2.6,5.8-5.8,5.8h-23.3c-3.2,0-5.8-2.6-5.8-5.8v-23.3
		C908.7,252.6,911.3,250.1,914.5,250.1z"/>
	<path class="st6" d="M956.3,295.1h23.3c3.2,0,5.8,2.6,5.8,5.8v23.3c0,3.2-2.6,5.8-5.8,5.8h-23.3c-3.2,0-5.8-2.6-5.8-5.8v-23.3
		C950.5,297.7,953.1,295.1,956.3,295.1z"/>
	<path class="st11" d="M998.1,295.1h23.3c3.2,0,5.8,2.6,5.8,5.8v23.3c0,3.2-2.6,5.8-5.8,5.8h-23.3c-3.2,0-5.8-2.6-5.8-5.8v-23.3
		C992.3,297.7,994.9,295.1,998.1,295.1z"/>
	<path class="st11" d="M914.5,295.1h23.3c3.2,0,5.8,2.6,5.8,5.8v23.3c0,3.2-2.6,5.8-5.8,5.8h-23.3c-3.2,0-5.8-2.6-5.8-5.8v-23.3
		C908.7,297.7,911.3,295.1,914.5,295.1z"/>
	<path class="st6" d="M1039.8,339.9h23.3c3.2,0,5.8,2.6,5.8,5.8V369c0,3.2-2.6,5.8-5.8,5.8h-23.3c-3.2,0-5.8-2.6-5.8-5.8v-23.3
		C1034.1,342.5,1036.7,339.9,1039.8,339.9z"/>
	<path class="st11" d="M956.3,339.9h23.3c3.2,0,5.8,2.6,5.8,5.8V369c0,3.2-2.6,5.8-5.8,5.8h-23.3c-3.2,0-5.8-2.6-5.8-5.8v-23.3
		C950.5,342.5,953.1,339.9,956.3,339.9z"/>
	<path class="st16" d="M914.5,339.9h23.3c3.2,0,5.8,2.6,5.8,5.8V369c0,3.2-2.6,5.8-5.8,5.8h-23.3c-3.2,0-5.8-2.6-5.8-5.8v-23.3
		C908.7,342.5,911.3,339.9,914.5,339.9z"/>
	<path class="st16" d="M914.5,385h23.3c3.2,0,5.8,2.6,5.8,5.8V414c0,3.2-2.6,5.8-5.8,5.8h-23.3c-3.2,0-5.8-2.6-5.8-5.8v-23.3
		C908.7,387.6,911.3,385,914.5,385z"/>
	<path class="st16" d="M956.3,385h23.3c3.2,0,5.8,2.6,5.8,5.8V414c0,3.2-2.6,5.8-5.8,5.8h-23.3c-3.2,0-5.8-2.6-5.8-5.8v-23.3
		C950.5,387.6,953.1,385,956.3,385z"/>
	<path class="st7" d="M1105.3,253.5c-0.5-0.3-2.9-0.3-3,0.2c-0.3,0.8,0.5,0.8,1.1,0.9c1.1,0.3,2.2,0.7,3.3,1.3
		C1105.6,255.1,1106.2,254.6,1105.3,253.5z"/>
	<path class="st7" d="M1105.5,246.5c-1.6-2.4-2.8-2.4-2.9-1.6c0,0.2-1.7-1-2-0.3c-0.4-0.1-0.8,0-1,0.3c-0.3,0.6-0.4,1.2-0.3,1.8
		c0.5,0.9,1.1,1.8,1.8,2.6c0.1,0.2,2.3,3.2,3.4,4.4c0.9,1,1.9,2,2.9,2.9c1.8-0.9,3.4-2,5-3.2
		C1110.8,251.7,1105.6,246.6,1105.5,246.5z"/>
	<path class="st17" d="M1112.7,251.7l-6.8,5.6c2.9,3.1,8.5,13.3,12.9,21.5c2,3.8,3.9,7.3,5.4,9.9c-0.1,0.8-0.2,1.6-0.3,2.4
		c-0.3,5-1.3,22.4-7.5,26.1c-0.5,0.3,13.9,30.6,13.9,30.6s12.5-42.3,6.7-60.5C1134.5,279.6,1120,259.5,1112.7,251.7z"/>
	<path class="st7" d="M1112.4,446.2c0.1,3.9,16.4,86.5,16.4,86.5c1.9,0.2,3.9-0.5,5.3-1.8c0,0-3.8-82.2-3.8-83.9
		C1129,448.6,1114.8,447.7,1112.4,446.2z"/>
	<path class="st11" d="M1100.8,387.9l2.9,28.4c2.3,1.5,4.4,26.9,11,53.4c7.7,30.6,13.1,60.4,13.1,60.4c1.8-1.8,4.5-2.1,6.6-0.9
		c0,0-2.2-141.2-3.7-146.9C1127.5,384.3,1111.8,387.5,1100.8,387.9z"/>
	<path class="st9" d="M1135.2,530.7c-0.4-0.4-0.8-0.8-1.2-1.3c0,0-4.2-1-5.5,2.1c0,0,0,3.6,1,4.9c1.5,1.9,3.3,3.5,5.3,4.9
		c1.8,0.5,3.6,0.6,5.4,0.2c2.2-0.3,4.8-1.8,4.7-3.1C1144.7,535.8,1136.9,532.4,1135.2,530.7z"/>
	<path class="st11" d="M1134.5,534c-1.9-1.3-5,0.9-2.9,3.9c1.1,1.4,2.4,2.5,3.8,3.5c1.3,0.4,2.6,0.4,3.9,0.1
		c1.6-0.2,3.5-1.3,3.4-2.2C1142.6,537.4,1136.5,535.3,1134.5,534z"/>
	<path class="st7" d="M1023.1,281.8c0-0.6,0.3-1.3-0.5-1.3c-0.6,0-1.2,2.3-1.1,2.9c0.7,1.2,1.5,0.7,1.9,2
		C1023.2,284.2,1023.1,283,1023.1,281.8z"/>
	<path class="st7" d="M1018.7,278.1c-0.6-0.9-1.3-1.7-2-2.5c-0.6-0.3-1.2-0.3-1.9-0.2c-0.3,0.2-0.6,0.5-0.5,0.9
		c-0.8,0.1-0.1,2-0.3,2c-0.8,0-1.1,1.1,0.7,3.3c0.1,0.1,3.5,6.5,4.7,8.5c1.6-1.1,3.1-2.4,4.5-3.8c-0.6-1.2-1.2-2.5-1.9-3.6
		C1021.1,281.2,1018.9,278.3,1018.7,278.1z"/>
	<path class="st7" d="M1051.2,315.2c-4.4-5.5-23.8-22.9-27.4-29.3c-1.4,1.3-3,2.5-4.8,3.4c6.1,10.4,24.3,34.7,29,33.5
		c4.3-1.1,4.6-4.4,3.8-6.4C1051.7,315.9,1051.5,315.5,1051.2,315.2z"/>
	<path class="st7" d="M1052,313.4c-12.1-2.8-9.7,6.7-6.3,8.7c8.9,5.3,36,15.8,39.3,11.4c1.5-1.9,5-14.8,3.9-15.1
		C1082.7,316.5,1061.9,315.7,1052,313.4z"/>
	<path class="st17" d="M1072,314.6c-6.6-0.5-13.1-1.4-19.6-2.6c-0.8-0.2-1.6-0.3-2.4-0.4c-2.1-2.2-4.9-5-8-8
		c-6.6-6.6-14.9-14.7-17-18.4l-7.3,4.9c5.4,9.2,20.2,29.3,27.3,33.4c7.3,4.4,26.5,13,33.9,16.1c2.3,1,14.2-23.9,13.6-23.8
		C1087.1,316.7,1079.2,315.3,1072,314.6z"/>
	<path class="st7" d="M1083.1,449.8c0.1,1.7,4.9,83.8,4.9,83.8c1.6,1.1,3.5,1.6,5.5,1.2c0,0,7.7-83.8,7.4-87.7
		C1098.6,448.8,1084.5,451.2,1083.1,449.8z"/>
	<path class="st11" d="M1075.8,385.4c-0.8,5.8,11.6,146.5,11.6,146.5c2-1.5,4.8-1.4,6.7,0.2c0,0,2.3-30.2,6.7-61.4
		c3.8-27,3.3-52.5,5.4-54.2v-28.6C1095.3,388.7,1079.4,387,1075.8,385.4z"/>
	<path class="st9" d="M1115.3,391.7c-11,0.3-21.9,0.1-32.8-0.7c-2.5-0.1-5-0.3-7.4-0.5c-0.4,8.8-0.4,17.6,0.1,26.4
		c1,0,8.9,0.5,8.9,0.5c13.8,1.1,34.7,4.2,44,1.9c1.7-0.4,6.2-2,6.4-2.5c0.8-9.5,0.7-19.1-0.1-28.6
		C1128.3,390.2,1121.9,391.4,1115.3,391.7z"/>
	<path class="st7" d="M1109.5,304.1c-2.2,0.5-10.4-3.3-11.2-3.8c0.7,3,0.4,11.5-0.5,13.2c2.9,5.4,12.1,4.7,12.4,1.4
		C1108.5,311.4,1109.5,304.7,1109.5,304.1z"/>
	<path class="st7" d="M1105.8,288.7c-4.4,0.6-6.8,4.7-6.2,9.1l0.6,4.5c0.5,3.3,6.3,7.8,9.1,6.8c6.6-2.4,6.3-15.1,5.8-16.5
		C1114,288.8,1109.9,288.2,1105.8,288.7z"/>
	<path class="st17" d="M1120.6,310.9c-4.4,6.4-10.4,3.9-10.4,3.9c-2.1,1-4.4,1.3-6.6,1c-4.3-0.6-5.8-2.4-5.8-2.4s-6.8,2.4-9.1,3.1
		c-6.9,2.2-8.7,7.7-8.6,13.8c0,1.5-7,49.2-4.8,80.7c1,0,2.2,0,3.6,0.1l2.4-20.2l2.9,20.5c13.8,1.1,34.6,3.5,44,1.9l1.7-18.3
		l1.6,17.3c0.7-0.4,2.9-1,3.1-1.6c2.9-28.6-6.4-77.1-7.6-80.5C1125.4,326.1,1124.4,305.5,1120.6,310.9z"/>
	<path class="st9" d="M1087.9,532.1c-0.3,0.5-0.7,1-1.1,1.5c-1.5,1.8-8.9,6-8.9,8.6c0,1.3,2.7,2.5,5,2.6c1.8,0.2,3.7,0,5.4-0.7
		c1.9-1.5,3.5-3.4,4.8-5.4c0.8-1.5,0.5-5,0.5-5C1092,530.7,1087.9,532.1,1087.9,532.1z"/>
	<path class="st11" d="M1087.9,536.3c-1.9,1.6-8.1,4.5-8.1,6.5c0,1,2.1,1.9,3.8,1.9c1.4,0.2,2.8,0,4.1-0.6c1.4-1.2,2.6-2.5,3.6-4.1
		C1093.2,536.7,1089.7,534.7,1087.9,536.3z"/>
	<path class="st10" d="M1117.5,289.3c-3.4-6.4-14.6-10.5-20.7-5c-5.4,4.9-4,12.9-0.1,18c2,2.6-1.5,2.3-1.5,2.3
		c1.7,1.7,3.8,2.9,6.1,3.6c10.8,2.7,16.5-11.9,16.5-11.9s-4.4-1-3-1c6.4,0,7.6-2.9,6.7-6.2C1121.7,290.5,1120,294.2,1117.5,289.3z"
		/>
	<path class="st7" d="M935.2,413.5c-1.2,0-2.4-0.2-3.5-0.5c1.2,0.6,0.7,1.3,1.9,2c0.5,0.2,2.9-0.4,2.9-0.9
		C936.6,413.2,935.9,413.4,935.2,413.5z"/>
	<path class="st7" d="M938.7,418c-0.2-0.2-3-2.6-4.4-3.5c-1.1-0.8-2.3-1.5-3.5-2.1c-1.5,1.3-2.9,2.7-4.1,4.3c1.9,1.3,8.1,5,8.2,5.1
		c2.1,1.9,3.3,1.7,3.3,0.8c0-0.2,1.9,0.6,2-0.2c0.4,0,0.7-0.2,0.9-0.5c0.1-0.6,0.1-1.3-0.1-1.9C940.3,419.4,939.6,418.7,938.7,418z"
		/>
	<path class="st7" d="M902.1,346c-0.3-1.1-13.4,1.8-15.3,3.1c-4.5,3,4.5,30.6,9.4,39.8c1.9,3.5,11.2,6.4,9-5.8
		C903.4,373.1,903.6,352.3,902.1,346z"/>
	<path class="st7" d="M903.4,383.8c-0.3-0.3-0.7-0.5-1.1-0.7c-2-0.8-5.3-0.7-6.6,3.5c-1.5,4.6,21.9,24,32,30.7
		c1-1.7,2.3-3.2,3.7-4.6C925,408.8,908.6,388.4,903.4,383.8z"/>
	<path class="st18" d="M913.4,392.9c-2.7-3.1-5.3-6.1-7.3-8.3c0-0.8-0.1-1.6-0.3-2.4c-0.8-6.4-1.2-12.8-1.3-19.3
		c-0.2-7.1-0.5-13.8-1.2-16.9c-0.1-0.5-0.5-0.9-1-1.1c-2.2-1-14.1,1.8-16.1,3.1c-6,3.9,4.4,33.3,8.1,40.6
		c3.5,7.2,22.2,22.9,30.7,28.7l5.2-6.8C926.7,408.3,919.3,399.7,913.4,392.9z"/>
	<path class="st9" d="M979,327.3l-11.8,27.3c-1,2-3.4,2.9-5.5,2l-22.2-9.6c-1.8-0.8-2.7-3-1.9-4.8c0-0.1,0.1-0.2,0.1-0.2l11.7-27.1
		v-0.8c-11.7,0.1-19.1,8-23.8,18.9c-4.7,10.9-2.6,24.6,4.5,33.9l-69,159.2c-2.9,6.8-1,14.7,5.8,17.7l0.2,0.1c7,2.9,15-0.4,18-7.3
		l69.1-159.3c12-1.4,22.4-9,27.5-20c4.7-10.9,5.1-21.9-2.8-30.5C978.9,326.8,979.1,327.1,979,327.3z M876.8,534.5
		c-1.1,2.7-4.2,3.9-6.9,2.7s-3.9-4.2-2.7-6.9c1.1-2.7,4.2-3.9,6.9-2.7c0,0,0,0,0,0C876.7,528.8,877.9,531.8,876.8,534.5z"/>
	<path class="st8" d="M794.3,531.3c0.3-1.2,1-2.8,1-2.8l-4.7-2.3c0,0-0.6,0-1.7,1c-1,0.3-1.9,0.9-2.4,1.9c-0.4,0.8,0.6,3.6,0.7,5.3
		c0.4,1.8,1.2,3.5,2.5,4.8c1.4,1.8,3.9,3.4,4.9,2.6C796.8,540.5,793.6,533.6,794.3,531.3z"/>
	<path class="st7" d="M788.9,527.2c0,0,0.8,2.9,1.8,3.4c1.1,0.5,2.3,0.8,3.6,0.7c0.3-1,0.7-2,1.3-2.9l-4.9-2.9
		C790.7,525.5,789.9,526.2,788.9,527.2z"/>
	<path class="st8" d="M832.5,395.5c-6.2,18.3-8.7,51.7-11.7,77.9c-1.3,11.7-31.6,53.5-31.6,53.5c1.2,1.9,3.4,3,5.6,2.8
		c0,0,39.2-34.9,45.4-52.2c13-36.7,20.7-75.1,20.9-78.1C857.3,400.1,843.1,398.5,832.5,395.5z"/>
	<path class="st7" d="M857.4,447.1c-0.3,3.9,7.4,90.7,7.4,90.7c1.9,0.4,3.9-0.1,5.5-1.2c0,0,4.8-85,4.9-86.7
		C873.7,451.2,859.6,448.8,857.4,447.1z"/>
	<path class="st8" d="M871.4,536.4c-0.8-0.9-1.8-2.4-1.8-2.4l-4.5,2.5c0,0-0.4,0.5-0.1,1.9c-0.4,1-0.3,2.1,0.2,3
		c0.5,0.8,3.5,2,4.8,2.5c1.7,0.6,3.6,0.8,5.4,0.7c2.2-0.1,5-1.3,5-2.6C880.3,539.6,872.9,538.3,871.4,536.4z"/>
	<path class="st7" d="M864.7,536.1c0,0,0.1,1,0.3,2.4c0,0,2.8,1,3.8,0.5c1.1-0.6,2-1.5,2.6-2.5c-0.7-0.8-1.2-1.7-1.6-2.7
		L864.7,536.1z"/>
	<path class="st8" d="M852,387.9v28.6c2.1,1.7,1.6,27.3,5.4,54.2c4.5,31.2,6.8,64.3,6.8,64.3c2.2,2.4,6.6,0,6.7-0.2
		c0,0,12.4-143.6,11.6-149.5C878.8,387,862.9,388.7,852,387.9z"/>
	<path class="st9" d="M829.2,403.2c0,0,13.4,10.4,36.2,14.8l3.9-5.2l0.3,6.1c4.8,1.6,11.9,0.1,14.4-5.6c0.9-2,2.9-9.4,2.9-9.4
		l-51.4-21.5C835.4,382.4,828.7,394.4,829.2,403.2z"/>
	<path class="st7" d="M887.4,316.5c-0.6,3-4.1,10.8-5.6,12c0.6,6.1,9.3,9,10.9,6.1c-0.2-3.8,3.3-9.6,3.5-10.2
		C894,323.9,888,317.2,887.4,316.5z"/>
	<path class="st13" d="M892.8,334.5c0,0-2.6,1.7-4.6,0.8c-3-1.3-6.3-6.9-6.3-6.9s-7.2-0.4-9.6-0.6c-7.2-0.6-12.3,4.4-15.7,9.4
		c-9,13.3-23,48.9-23,48.9c8.3,13.2,45.2,22.3,52.2,21.4c5.2-0.6,8.9-38,16.4-52.2c2.8-4.7,2.2-10.6-1.5-14.7
		C899.7,339.3,892.8,334.5,892.8,334.5z"/>
	<path class="st7" d="M907.3,408.6c-1.2,0-2.3-0.3-3.5-0.7c1.2,0.6,0.7,1.3,1.7,2.1c0.5,0.2,2.9-0.2,2.9-0.8
		C908.6,408.4,907.9,408.6,907.3,408.6z"/>
	<path class="st7" d="M910.6,413.3c-0.2-0.2-2.9-2.7-4.2-3.7c-1.1-0.8-2.2-1.6-3.4-2.3c-1.6,1.2-3,2.6-4.3,4.1
		c1.8,1.5,7.8,5.4,8,5.5c2.1,2,3.2,1.8,3.2,1c0-0.2,1.8,0.7,2-0.1c0.4,0.1,0.8-0.1,0.9-0.5c0.2-0.6,0.2-1.2,0-1.9
		C912.2,414.8,911.4,414,910.6,413.3z"/>
	<path class="st7" d="M877.4,339.6c-0.2-1.2-13.4,1.2-15.4,2.4c-4.6,2.8,3,30.8,7.5,40.2c1.7,3.6,10.9,6.9,9.3-5.5
		C877.4,366.7,878.7,345.9,877.4,339.6z"/>
	<path class="st7" d="M876.9,377.4c-0.3-0.3-0.7-0.5-1.1-0.7c-2-0.9-5.3-1-6.8,3.2c-1.6,4.5,20.7,25.1,30.4,32.2
		c1.1-1.6,2.4-3.1,3.9-4.4C897.3,403.5,881.9,382.3,876.9,377.4z"/>
	<path class="st18" d="M885.9,386.7c-2.6-3.3-5-6.4-6.9-8.6c0-0.8-0.1-1.6-0.1-2.4c-0.6-4.8-0.1-33.1-0.8-36.3
		c-0.1-0.5-0.4-0.9-0.9-1.2c-2.1-1.1-14.2,1.1-16.3,2.3c-6.2,3.6,2.7,33.5,6.1,41c3.2,7.3,21,23.9,29.3,30.1l5.5-6.5
		C898.4,402.7,891.5,393.8,885.9,386.7z"/>
	<path class="st12" d="M896.4,320.4c0.2,3.9-0.4,7.8-2,11.4c-1.6,3.4-4.4,5.4-4.6,14.4c-0.3,13-10.3,24.1-8.1,26.2
		c2.2,2.1,11.7-2.4,16.4-15.5c1.3-3.6,1.7-7.4,1.2-11.2c-0.9-4.8,0-9.7,2.5-13.9c2.1-3.8,3.1-8.1,2.9-12.5
		C903.5,316,896.5,320.2,896.4,320.4z"/>
	<path class="st7" d="M899.7,308.3c-4.4-1.1-9,2.2-10.1,6.4l-1.2,4.4c-0.8,3.2,2.8,9.6,5.8,9.7c7,0.3,11.7-11.5,11.8-12.9
		C906.3,312,903.6,309.3,899.7,308.3z"/>
	<path class="st12" d="M902.8,304.9c0,0,0.1-0.7-3.2-3.5c-4.1-3-9.6-3.1-13.8-0.3c-6.2,3.7-10,10.5-9.9,17.8
		c0.3,5.7-2.2,11.2-6.6,14.7c-4.1,3.2-5.8,8.6-6.4,11.3c-2.9,15.6,7.2,26.6,11.2,26.2c4.4-0.4-1.1-18,7.7-30.3
		c6.1-8.6,3.9-12.4,4.1-16.8c0.2-5.7,4.5-12,7.5-13.9c3.2-2.1,8.3-1.2,8.3-1.2s6.5,3.9,0.7,14.4c4.6-2.2,8-12.5,4.2-16.4
		C905.7,305.9,904.3,305.2,902.8,304.9z"/>
	<path class="st7" d="M890.3,313.1c-1.3-0.2-2.6,0.5-3.1,1.7c-0.3,1.3,0.2,2.7,1.2,3.7c1.2-1.3,2.4-2.8,3.5-4.2
		C891.4,313.8,890.9,313.4,890.3,313.1z"/>
	<path class="st7" d="M663,372.7c-1.6,0.3-5.1,1.5-5.3,1.5c-1,0.3-2,0.6-3,1.1c-0.4,0.5-0.7,1-0.8,1.7c0,0.4,0.3,0.7,0.7,0.8
		c-0.1,0.8,1.9,0.8,1.8,0.9c-0.3,0.8,0.6,1.5,3.3,0.5c0.2,0,7.3-1.1,9.6-1.6c-0.5-1.9-1.2-3.7-2.1-5.5
		C665.7,372.1,664.4,372.3,663,372.7z"/>
	<path class="st7" d="M719.3,321.8c-3.9,5.1-11.7,24.4-17.1,33c-6.7,10.4,2.9,11.4,6,8.9c8.1-6.6,27-28.5,24-33.1
		C731,328.7,720,320.9,719.3,321.8z"/>
	<path class="st16" d="M719.3,321.8c-2.7,3.6-7.8,14.3-13.1,22.7c2.8,2.5,5.8,4.7,9,6.7c1.1,0.7,4.5,3,5.7,3.6
		c7.8-8.7,13.4-21.2,11.4-24.3C731,328.7,720,320.9,719.3,321.8z"/>
	<path class="st7" d="M704.8,356c-0.4,0-0.9,0.1-1.3,0.2c-6.6,2.2-29.6,14.7-36.9,15.9c0.8,1.8,1.3,3.7,1.6,5.7
		c11.9-2.2,40.8-11.1,41.3-16C710.1,357.4,707,356,704.8,356z"/>
	<path class="st7" d="M786.6,401.6c-0.3,0.6-0.8,1.1,0,1.5c0.5,0.2,2-1.7,2-2.3c-0.3-1.4-1-1.2-1.1-2.5
		C787.4,399.4,787.1,400.5,786.6,401.6z"/>
	<path class="st7" d="M793.1,395.2c-1.9,0.5-3.8,1.1-5.6,2c0.1,1.4,0.2,2.7,0.5,4.1c0.3,1.6,1.3,5.1,1.5,5.4c0.3,1,0.6,2,1,3
		c0.4,0.5,1,0.8,1.6,0.9c0.4,0,0.7-0.3,0.8-0.6c0.8,0.2,0.8-1.9,1-1.8c0.7,0.3,1.5-0.6,0.5-3.3C794.4,404.6,793.5,397.5,793.1,395.2
		z"/>
	<path class="st7" d="M762.2,321.8c-0.7-0.9-11.7,6.8-12.9,8.7c-3,4.5,16,26.5,24,33.1c3.1,2.5,12.8,1.5,6-8.9
		C773.9,346.3,766.1,327,762.2,321.8z"/>
	<path class="st16" d="M749.3,330.7c-2,3,3.6,15.4,11.4,24.3c1.2-0.6,4.6-2.9,5.7-3.6c3.1-2,6.1-4.3,9-6.7
		c-5.3-8.4-10.4-19-13.1-22.7C761.5,320.9,750.6,328.7,749.3,330.7z"/>
	<path class="st7" d="M778.1,354.5c-4.4-0.5-5.8,2.4-5.8,4.6c0,0.4,0,0.9,0.2,1.3c2,6.6,14,29.9,15.1,37.2c1.8-0.7,3.7-1.2,5.7-1.5
		C791.2,384.2,782.9,355,778.1,354.5z"/>
	<path class="st7" d="M743.2,447.1c-0.3,3.9,7.4,90.7,7.4,90.7c1.9,0.4,3.9-0.1,5.5-1.2c0,0,4.8-85,4.9-86.7
		C759.5,451.2,745.4,448.8,743.2,447.1z"/>
	<path class="st12" d="M757.2,536.4c-0.8-0.9-1.8-2.4-1.8-2.4l-4.5,2.5c0,0-0.4,0.5-0.1,1.9c-0.4,1-0.3,2.1,0.2,3
		c0.5,0.8,3.3,1.6,4.8,2.5c1.7,0.7,3.6,1,5.4,0.7c2.2-0.1,5-1.3,5-2.6C766,539.6,758.7,538.3,757.2,536.4z"/>
	<path class="st7" d="M750.4,536.1c0,0,0.1,1,0.3,2.4c0,0,2.8,1,3.8,0.5c1.1-0.6,2-1.5,2.6-2.5c-0.7-0.8-1.2-1.7-1.6-2.7
		L750.4,536.1z"/>
	<path class="st9" d="M737.8,387.9v28.6c2.1,1.7,1.6,27.3,5.4,54.2c4.5,31.2,6.8,64.3,6.8,64.3c2.2,2.4,6.6,0,6.7-0.2
		c0,0,12.4-143.6,11.6-149.5C764.6,387,748.7,388.7,737.8,387.9z"/>
	<path class="st7" d="M719.9,449.8c0.1,1.7,4.9,86.7,4.9,86.7c1.6,1.1,3.5,1.6,5.5,1.2c0,0,7.7-86.8,7.4-90.7
		C735.4,448.8,721.3,451.2,719.9,449.8z"/>
	<path class="st12" d="M730,536.5l-4.5-2.5c0,0-1,1.5-1.8,2.4c-1.5,1.8-8.9,3.1-8.9,5.7c0,1.3,2.7,2.5,5,2.6
		c1.8,0.1,3.7-0.2,5.4-0.7c1.3-0.4,4.4-1.7,4.8-2.5c0.5-0.9,0.5-2,0.2-3C730.3,537.1,730,536.5,730,536.5z"/>
	<path class="st7" d="M723.6,536.4c0.6,1.1,1.5,1.9,2.6,2.6c1,0.5,3.8-0.5,3.8-0.5c0.2-1.5,0.3-2.4,0.3-2.4l-5.2-2.3
		C724.8,534.7,724.3,535.6,723.6,536.4z"/>
	<path class="st9" d="M712.6,385.4c-0.8,5.8,11.6,149.5,11.6,149.5c0,0.2,4.5,2.7,6.7,0.2c0,0,2.3-33.1,6.8-64.3
		c3.8-27,3.3-52.5,5.4-54.2v-28.6C732.1,388.7,716.2,387,712.6,385.4z"/>
	<path class="st16" d="M712.6,379.7c0,0-2.2,14.4-0.6,15.9c3.5,3.6,14.9-0.1,25.8-0.6s30.6,3.1,31.3,0.9c0.7-2.2-1.3-13.8-1.3-13.8
		L712.6,379.7z"/>
	<path class="st7" d="M745.7,300.3c-0.8,0.5-9,4.4-11.2,3.8c0,0.6,1,7.3-0.7,10.8c0.4,3.3,9.5,4,12.4-1.4
		C745.3,311.8,745.1,303.3,745.7,300.3z"/>
	<path class="st7" d="M738.2,288.7c-4.1-0.6-8.2,0.1-9.4,3.9c-0.4,1.4-0.7,14.1,5.8,16.5c2.8,1,8.6-3.5,9.1-6.8l0.6-4.5
		C745.1,293.4,742.7,289.4,738.2,288.7z"/>
	<path class="st12" d="M755.4,316.6c-2.3-0.7-9.1-3.1-9.1-3.1s-5.2,3.9-8.5,3.9c-2.2,0-4-2.5-4-2.5s-8.2,1.9-9.7,2.6
		c-5.8,2.9-6.3,8.4-7.1,13c-0.7,4.5-7.3,51.8-6,54.5c3.1,6.5,53.6,6.6,57.7,0c1.6-2.6-4.8-52.1-4.8-54.4
		C763.9,324.3,762.2,318.8,755.4,316.6z"/>
	<path class="st10" d="M732.3,286.6c-7.3,0.8-6.4,11.4-3.3,13.1c-1-7.8,4.4-9.9,4.4-9.9c9.7,0.6,12.2,12.3,11.3,15.3
		c0,0,11.5-8.7,2.9-17.7C742.1,281.4,732.3,286.6,732.3,286.6z"/>
	<path class="st7" d="M744.4,296.1c-0.7,0-1.3,0.2-1.9,0.5c0.4,1.8,1,3.5,1.6,5.2c1.3-0.5,2.2-1.6,2.5-2.9
		C746.6,297.7,745.6,296.1,744.4,296.1z"/>
	<path class="st10" d="M770.2,295.8c0-28.2-23.7-18-23.7-10.6c0,1.8,0.9,2.9,2.5,1.2c2.7-3,11.9-5.3,5.5,11.5
		c-1.7,4.4-8,9.8,4.2,18.9c11,8.2,1.3,10.3,1.7,13.8c1,8.9,25.1-8.5,14-22.4C772.2,305.2,770.2,304.4,770.2,295.8z"/>
	<path class="st11" d="M748,284.8c-0.5-0.3-1-0.5-1.6-0.5c-0.8,0-1.6,0.3-2.2,0.9c2,1,3.7,2.3,5.1,4.1
		C750,287.8,750.1,286.3,748,284.8z"/>
	<path class="st16" d="M684.3,382.7l-21.2-9.7c-2.9-1.3-6.3,0-7.6,2.8l-9.7,21.2c-1.3,2.9,0,6.3,2.8,7.6l21.2,9.7
		c2.9,1.3,6.3,0,7.6-2.8l9.7-21.1C688.4,387.4,687.1,384,684.3,382.7z"/>
	<path class="st7" d="M662.7,371.3c-0.6-0.3-1.1-0.8-1.5,0c-0.2,0.5,2.1,2,2.6,2.2c2.2,1,2.9-0.3,2.2-1.4
		C664.9,372,663.7,371.7,662.7,371.3z"/>
	<path class="st6" d="M637.2,476.2l-23.3-0.6c-3.2,0-5.8,2.4-5.9,5.6l-0.6,23.3c0,3.2,2.4,5.8,5.6,5.9l23.3,0.6
		c3.2,0,5.8-2.4,5.9-5.6l0.6-23.3C642.9,478.9,640.4,476.3,637.2,476.2z"/>
	<path class="st8" d="M641.7,471c-2.3-2.2-5.9-2.1-8.1,0.1L617.4,488c-2.2,2.3-2.1,5.9,0.2,8.1l16.8,16.1c2.3,2.2,5.9,2.1,8.1-0.2
		l16.1-16.8c2.2-2.3,2.1-5.9-0.2-8.1L641.7,471z"/>
	<path class="st11" d="M647.3,485.6h23.3c3.2,0,5.8,2.6,5.8,5.8v23.3c0,3.2-2.6,5.8-5.8,5.8h-23.3c-3.2,0-5.8-2.6-5.8-5.8v-23.3
		C641.6,488.1,644.1,485.6,647.3,485.6z"/>
	<rect x="605.3" y="493.3" class="st3" width="60" height="51.4"/>
	<rect x="665.3" y="493.3" class="st19" width="22" height="51.4"/>
	<polygon class="st20" points="605.3,525.1 655.4,525.1 665.4,493.3 605.3,493.3 	"/>
	<polygon class="st20" points="665.6,494.7 675.3,536.2 687.4,536.2 687.4,493.3 665.3,493.3 	"/>
	<polygon class="st3" points="593.8,514.3 655.4,514.3 665.4,493.2 605.7,493.2 	"/>
	<polygon class="st19" points="665.6,493.2 674.7,518.6 696.4,518.6 687.4,493.2 	"/>
</g>
<g>
	<path class="st21" d="M629.5,515l4.9-2.7c0,0,1.1,1.6,1.9,2.6c1.6,2,9.6,3.4,9.6,6.1c0,1.4-2.9,2.7-5.3,2.8c-2,0.1-3.9-0.2-5.8-0.8
		c-1.4-0.5-4.7-1.8-5.2-2.7c-0.5-1-0.6-2.2-0.2-3.2C629,515.5,629.5,515,629.5,515z"/>
	<path class="st22" d="M636.2,514.9c-0.7,1.1-1.7,2.1-2.8,2.7c-1.1,0.6-4.1-0.5-4.1-0.5c-0.2-1.3-0.2-2.5-0.1-3.8l6.6-1.2
		C635.3,513.1,635.5,514.2,636.2,514.9z"/>
	<path class="st23" d="M648.2,352.4c-3.9,1.7-21,3.5-32.8,2.7v30.8c2.3,1.8,8,29.3,12.1,58.4c4.8,33.6,1,69.2,1,69.2
		c2.4,2.6,7.2,0,7.2-0.2c5.9-22.7,10-45.9,12.1-69.2C650,413.5,650.1,382.9,648.2,352.4z"/>
	<path class="st21" d="M599.2,515.8c-0.8-1.1-1.7-2.7-1.7-2.7l-5.1,2.3c0,0-0.4,0.5-0.3,2.1c-0.5,1-0.5,2.2,0,3.2
		c0.4,0.9,3.4,2,4.9,3c1.8,0.9,3.7,1.3,5.7,1.3c2.4,0.1,5.4-0.9,5.6-2.3C608.5,519.9,600.7,517.8,599.2,515.8z"/>
	<path class="st22" d="M598.6,512.8l-6.5,0.7c0,0,0,2.3,0,3.9c0,0,2.9,1.3,4,0.8c1.2-0.6,2.2-1.4,3-2.5
		C598.5,514.9,598.3,513.8,598.6,512.8z"/>
	<path class="st23" d="M590.9,354.8c0,0,3.2,60.5,5.1,89.8c2.1,33.9-4.4,69.1-4.4,69.1c2.2,2.8,7.1,0.6,7.2,0.4
		c7.7-22.1,13.5-44.7,17.4-67.7c4.6-30.3,7.2-60.9,7.6-91.6C619.8,356.1,602.6,356.5,590.9,354.8z"/>
	<path class="st22" d="M638.9,262.7c0,3.3-2,12.2-3.4,13.8c1.9,6.3,11.7,7.5,12.8,4.1c-1.1-4,1.4-10.8,1.6-11.5
		C647.5,269.1,639.7,263.4,638.9,262.7z"/>
	<path class="st22" d="M649.2,252.1c-4.8-0.3-8.2,3.5-8.5,8.2l-0.3,4.9c-0.2,3.6,5,9.6,8.1,9.1c7.5-1.1,9.8-14.6,9.7-16.1
		C657.9,253.9,653.7,252.4,649.2,252.1z"/>
	<path class="st24" d="M658.1,285.4c-1.4-1.1-9.7-4.8-9.7-4.8s-2.4,2.3-4.7,1.8c-3.5-0.7-8.1-5.9-8.1-5.9s-7.7,0.7-10.3,1.4
		c-22.4,5.9-36.1,32.2-36.1,96.9c1.1,0.2,4.1,0.5,5.5,0.8l6.9-20.8l-1.4,22.3c20.9,11.3,35.9,7,51.4,0.7
		c-2.1-34.5,7.6-69.9,8.1-73.7C660.7,297.3,663.7,289.7,658.1,285.4z"/>
	<g>
		<path class="st25" d="M625.6,301.5c0.4-5.1-13-5.2-13.2,3.1c-0.3,10.9,16.2,33.7,17.5,35.3c3.6,4.4,23.1,8.2,23.1,8.2
			S624.4,317.3,625.6,301.5z"/>
	</g>
	<path class="st23" d="M643.7,282.4c-3.5-0.7-8.1-5.9-8.1-5.9l-5.2,0.4c-1.7,0.1-3.4,0.5-5,1c9.1,5.9,22.3,20.7,22.3,20.7
		s8.9-6.4,10.3-13.3c-1.8-1.2-9.5-4.7-9.5-4.7S646,282.8,643.7,282.4z"/>
	<path class="st5" d="M639.9,243.9c-7.2,5.7-6.9,17.3-1.4,22.8c0,0,1.4-7.5,4-10.7c19.4,5.5,21.7,0.6,21.8-1.6
		C664.6,245,649.3,236.5,639.9,243.9z"/>
	<path class="st22" d="M640.2,258.4c-1.2,0.1-2.3,1.9-2.2,3.1c0.4,1.4,1.4,2.6,2.8,3c0.6-1.9,1-3.8,1.4-5.7
		C641.6,258.5,640.9,258.3,640.2,258.4z"/>
	<rect x="752.7" y="189.2" class="st26" width="384.5" height="234.8"/>
	<rect x="752.7" y="174.6" class="st23" width="384.5" height="24.8"/>
	<rect x="772.7" y="209.6" class="st27" width="343.4" height="191.3"/>
	<rect x="914.2" y="233.4" class="st26" width="11.7" height="3.5"/>
	<rect x="931.7" y="233.4" class="st26" width="25.5" height="3.5"/>
	<rect x="960.2" y="233.4" class="st26" width="5.3" height="3.5"/>
	<rect x="947.9" y="238.9" class="st26" width="17.5" height="3.5"/>
	<rect x="914.2" y="238.9" class="st26" width="4.2" height="3.5"/>
	<rect x="920.6" y="238.9" class="st26" width="23.2" height="3.5"/>
	<rect x="914.2" y="244.5" class="st26" width="14" height="3.5"/>
	<rect x="931" y="244.5" class="st26" width="34.4" height="3.5"/>
	<rect x="914.2" y="250" class="st26" width="35" height="3.5"/>
	<rect x="955.5" y="250" class="st26" width="9.9" height="3.5"/>
	<rect x="914.2" y="255.6" class="st26" width="5.5" height="3.5"/>
	<rect x="941.8" y="255.6" class="st26" width="23.7" height="3.5"/>
	<rect x="922.2" y="255.6" class="st26" width="16.2" height="3.5"/>
	<rect x="914.2" y="261.1" class="st26" width="15.9" height="3.5"/>
	<rect x="932.5" y="261.1" class="st26" width="26.5" height="3.5"/>
	<rect x="914.2" y="266.6" class="st26" width="29.2" height="3.5"/>
	<rect x="946.4" y="266.6" class="st26" width="19" height="3.5"/>
	<rect x="914.2" y="272.2" class="st26" width="12" height="3.5"/>
	<rect x="932.5" y="272.2" class="st26" width="32.9" height="3.5"/>
	<rect x="937.1" y="277.7" class="st26" width="15.1" height="3.5"/>
	<rect x="914.2" y="277.7" class="st26" width="20.1" height="3.5"/>
	<rect x="955.2" y="277.7" class="st26" width="10.3" height="3.5"/>
	<rect x="979.3" y="302.5" class="st26" width="130.2" height="23.9"/>
	<rect x="979.3" y="218.5" class="st26" width="130.2" height="70.9"/>
	<rect x="985" y="307.1" class="st27" width="27" height="3.5"/>
	<rect x="1025.4" y="307.1" class="st27" width="59.2" height="3.5"/>
	<rect x="1091.5" y="307.1" class="st27" width="12.3" height="3.5"/>
	<rect x="1063.1" y="312.7" class="st27" width="40.7" height="3.5"/>
	<rect x="985" y="312.7" class="st27" width="9.7" height="3.5"/>
	<rect x="999.7" y="312.7" class="st27" width="53.8" height="3.5"/>
	<rect x="985" y="318.2" class="st27" width="32.4" height="3.5"/>
	<rect x="1023.9" y="318.2" class="st27" width="79.9" height="3.5"/>
	<rect x="985" y="369.7" class="st26" width="27" height="3.5"/>
	<rect x="1025.4" y="369.7" class="st26" width="59.2" height="3.5"/>
	<rect x="1091.5" y="369.7" class="st26" width="12.3" height="3.5"/>
	<rect x="1063.1" y="375.2" class="st26" width="40.7" height="3.5"/>
	<rect x="985" y="375.2" class="st26" width="9.7" height="3.5"/>
	<rect x="999.7" y="375.2" class="st26" width="53.8" height="3.5"/>
	<rect x="985" y="380.7" class="st26" width="32.4" height="3.5"/>
	<rect x="1023.9" y="380.7" class="st26" width="79.9" height="3.5"/>
	<rect x="985" y="339.3" class="st26" width="27" height="3.5"/>
	<rect x="1025.4" y="339.3" class="st26" width="59.2" height="3.5"/>
	<rect x="1091.5" y="339.3" class="st26" width="12.3" height="3.5"/>
	<rect x="1063.1" y="344.8" class="st26" width="40.7" height="3.5"/>
	<rect x="985" y="344.8" class="st26" width="9.7" height="3.5"/>
	<rect x="999.7" y="344.8" class="st26" width="53.8" height="3.5"/>
	<rect x="985" y="350.3" class="st26" width="32.4" height="3.5"/>
	<rect x="1023.9" y="350.3" class="st26" width="79.9" height="3.5"/>
	<rect x="830.6" y="302.6" class="st26" width="14.6" height="3.5"/>
	<rect x="847.3" y="302.6" class="st26" width="32.1" height="3.5"/>
	<rect x="883.1" y="302.6" class="st26" width="6.7" height="3.5"/>
	<rect x="830.6" y="308.1" class="st26" width="5.3" height="3.5"/>
	<rect x="838.6" y="308.1" class="st26" width="29.1" height="3.5"/>
	<rect x="830.6" y="313.7" class="st26" width="17.5" height="3.5"/>
	<rect x="783.9" y="272.5" class="st26" width="28.7" height="4.8"/>
	<rect x="783.9" y="220" class="st26" width="28.7" height="42.9"/>
	<rect x="783.9" y="285.8" class="st26" width="28.7" height="4.8"/>
	<rect x="783.9" y="299.2" class="st26" width="28.7" height="4.8"/>
	<rect x="783.9" y="312.6" class="st26" width="28.7" height="4.8"/>
	<rect x="783.9" y="326" class="st26" width="28.7" height="4.8"/>
	<rect x="783.9" y="339.3" class="st26" width="28.7" height="4.8"/>
	<rect x="783.9" y="352.7" class="st26" width="28.7" height="4.8"/>
	<rect x="783.9" y="366.1" class="st26" width="28.7" height="4.8"/>
	<rect x="783.9" y="379.5" class="st26" width="28.7" height="4.8"/>
	<circle class="st27" cx="1124.8" cy="191.9" r="2.7"/>
	<circle class="st27" cx="1114.2" cy="191.9" r="2.7"/>
	<path class="st28" d="M1056.1,231.6h-23.5c-12.1,0.1-21.7,10-21.6,22.1c0,0.1,0,0.1,0,0.2v-0.2c-0.2,11.9,9.2,21.7,21.1,22
		c0.2,0,0.3,0,0.5,0h23.5c12.1,0,22-9.8,22-22C1078.1,241.5,1068.2,231.6,1056.1,231.6L1056.1,231.6z"/>
	<polygon class="st27" points="1034.6,236.9 1034.6,272 1064.9,254.4 	"/>
	<rect x="788.4" y="225.2" class="st27" width="19.5" height="5.4"/>
	<rect x="788.4" y="234.1" class="st27" width="19.5" height="5.4"/>
	<rect x="788.4" y="243" class="st27" width="19.5" height="5.4"/>
	<rect x="788.4" y="251.9" class="st27" width="19.5" height="5.4"/>
	<rect x="826.6" y="220" class="st25" width="33.5" height="33.5"/>
	<rect x="826.6" y="260.5" class="st26" width="33.5" height="33.5"/>
	<rect x="867.4" y="220" class="st29" width="33.5" height="33.5"/>
	<rect x="867.4" y="260.5" class="st28" width="33.5" height="33.5"/>
	<rect x="826.6" y="330.7" class="st28" width="63.1" height="15.8"/>
	<rect x="898.1" y="330.7" class="st29" width="71.9" height="15.8"/>
	<rect x="934.3" y="355.1" class="st25" width="35.7" height="15.8"/>
	<rect x="826.6" y="355.1" class="st29" width="93.4" height="15.8"/>
	
		<radialGradient id="SVGID_2_" cx="924.4431" cy="-179.0147" r="351.6616" gradientTransform="matrix(1.0615 0 0 -7.000000e-02 -55.1832 509.56)" gradientUnits="userSpaceOnUse">
		<stop  offset="1.000000e-02" style="stop-color:#77D6EC"/>
		<stop  offset="1" style="stop-color:#FFFFFF"/>
	</radialGradient>
	<ellipse class="st30" cx="927.6" cy="521.4" rx="372.2" ry="20"/>
	<path class="st22" d="M1036.2,290.4c-0.6,0-1.3,2.5-1.1,3.1c0.8,1.3,1.6,0.8,2.1,2.1c-0.3-1.2-0.4-2.5-0.4-3.8
		C1036.9,291.1,1037.1,290.4,1036.2,290.4z"/>
	<path class="st22" d="M1038.1,297c-0.5-1.1-1.1-2.1-1.8-3.1c-0.8-1.2-3-3.6-3.1-3.8c-0.6-0.7-1.3-1.4-2-2c-0.6-0.2-1.3-0.2-1.9,0
		c-0.4,0.1-0.6,0.5-0.6,0.8c-0.8,0.2-0.2,1.8-0.4,1.8c-0.9,0-1.3,1,0.5,2.9c0.1,0.1,3.2,5.5,4.4,7.2
		C1034.9,299.6,1036.6,298.4,1038.1,297z"/>
	<path class="st22" d="M1077.2,288.1c-3.8,5.8-10.9,27-16.2,36.6c-6.5,11.7,4,12.1,7.1,9.2c8.2-7.6,27.1-32.5,23.5-37.2
		C1090.1,294.6,1077.9,287,1077.2,288.1z"/>
	<path class="st26" d="M1074.7,319.9c1.3,0.7,5,2.9,6.4,3.5c7.8-10,12.9-23.7,10.6-26.8c-1.6-2-13.8-9.6-14.5-8.6
		c-2.7,4.1-7.4,15.9-12.5,25.2C1067.8,315.8,1071.2,318,1074.7,319.9z"/>
	<path class="st22" d="M1067.9,328.7c-0.2-0.5-0.4-0.9-0.7-1.3c-4.7-5.8-25.8-24.5-29.8-31.4c-1.5,1.5-3.2,2.7-5.1,3.7
		c6.7,11.2,26.5,37.1,31.5,35.8C1068.4,334.4,1068.7,330.9,1067.9,328.7z"/>
	<path class="st22" d="M1105.2,422.6c0.2,1.8,5.3,93.3,5.3,93.3c1.7,1.2,3.8,1.7,5.9,1.3c0,0,8.2-93.4,7.9-97.6
		C1121.9,421.5,1106.7,424.1,1105.2,422.6z"/>
	<path class="st21" d="M1116,515.9l-4.9-2.7c0,0-1.1,1.6-1.9,2.6c-1.6,2-9.6,3.4-9.6,6.1c0,1.4,2.9,2.7,5.3,2.8c2,0.2,4,0,5.8-0.8
		c1.6-0.9,4.7-1.8,5.2-2.7c0.5-1,0.6-2.2,0.2-3.2C1116.4,516.5,1116,515.9,1116,515.9z"/>
	<path class="st22" d="M1109.2,515.8c0.7,1.1,1.7,2.1,2.8,2.7c1.1,0.6,4.1-0.5,4.1-0.5c0.3-1.6,0.4-2.6,0.4-2.6l-5.6-2.5
		C1110.5,514,1109.9,514.9,1109.2,515.8z"/>
	<path class="st31" d="M1097.3,353.4c3.9,1.7,21,3.5,32.8,2.7c0,0-1.7,60.1-5.8,89.1c-4.8,33.6-7.3,69.2-7.3,69.2
		c-2.4,2.6-7.2,0-7.2-0.2C1109.8,514.1,1096.4,359.7,1097.3,353.4z"/>
	<path class="st22" d="M1079.7,422.6c0.2,1.8,5.3,93.3,5.3,93.3c1.7,1.2,3.8,1.7,5.9,1.3c0,0,8.2-93.4,7.9-97.6
		C1096.3,421.5,1081.2,424.1,1079.7,422.6z"/>
	<path class="st21" d="M1090.5,515.9l-4.9-2.7c0,0-1.1,1.6-1.9,2.6c-1.6,2-9.6,3.4-9.6,6.1c0,1.4,2.9,2.7,5.3,2.8
		c2,0.1,3.9-0.2,5.8-0.8c1.4-0.5,4.7-1.8,5.2-2.7c0.5-1,0.6-2.2,0.2-3.2C1090.8,516.5,1090.5,515.9,1090.5,515.9z"/>
	<path class="st22" d="M1083.6,515.8c0.7,1.1,1.7,2.1,2.8,2.7c1.1,0.6,4.1-0.5,4.1-0.5c0.3-1.6,0.4-2.6,0.4-2.6l-5.6-2.5
		C1084.9,514,1084.4,514.9,1083.6,515.8z"/>
	<path class="st31" d="M1071.7,353.4c3.9,1.7,21,3.5,32.8,2.7v30.8c-2.3,1.8-1.7,29.3-5.8,58.4c-4.8,33.6-7.3,69.2-7.3,69.2
		c-2.4,2.6-7.2,0-7.2-0.2C1084.2,514.1,1070.9,359.7,1071.7,353.4z"/>
	<path class="st26" d="M1132.2,347.1c0,0,2.9,14.1,1.3,20.6c-0.6,2.4-22,0-33.6,1.4c-11.7,1.4-26.9,4.7-31,1.2
		c-1.8-1.6,1.9-19.6,1.9-19.6L1132.2,347.1z"/>
	<path class="st22" d="M1101.1,266.9c-0.8,0.6-9.3,5.3-11.7,5c0,0.7,1.6,7.8,0.1,11.6c0.7,3.6,10.5,3.6,13.3-2.4
		C1101.5,279.3,1100.6,270.2,1101.1,266.9z"/>
	<path class="st22" d="M1092.2,255.1c-4.5-0.3-8.8,0.7-9.8,5c-0.4,1.6,0.3,15.1,7.6,17.3c3.1,0.9,9-4.4,9.2-8l0.3-4.9
		C1099.9,259.6,1097,255.4,1092.2,255.1z"/>
	<path class="st32" d="M1126.1,296.9c-2.7-7.5-5.9-11.5-13.4-13.3c-2.5-0.6-10-2.7-10-2.7s-5.3,4.6-8.8,4.9
		c-2.4,0.2-4.4-2.4-4.4-2.4s-8.7,2.6-10.2,3.5c-6.1,3.5-6.3,9.5-6.6,14.5c-3.6,49.4-5.8,56.6-4.2,59.4c3.8,6.7,66.8,2.3,65.6-6
		C1130.1,327.3,1127,299.3,1126.1,296.9z"/>
	<path class="st5" d="M1085.6,253.2c-7.7,1.5-6,12.7-2.5,14.4c-1.7-8.3,4-11,4-11c10.4-0.2,14.1,12.3,13.4,15.5
		c0,0,11.6-10.4,1.8-19.2C1095.7,246.9,1085.6,253.2,1085.6,253.2z"/>
	<path class="st22" d="M1099.4,262.4c-0.7,0.1-1.4,0.3-2,0.7c0.6,1.9,1.3,3.7,2.1,5.5c1.3-0.6,2.3-1.9,2.4-3.4
		C1101.8,264,1100.6,262.4,1099.4,262.4z"/>
	<path class="st22" d="M1042.2,253c-0.6,0-1.1,2.6-0.9,3.1c0.9,1.2,1.6,0.7,2.2,1.9c-0.4-1.2-0.6-2.5-0.6-3.7
		C1042.8,253.8,1043.1,253,1042.2,253z"/>
	<path class="st22" d="M1044,259.1c-0.7-1.3-1.5-2.5-2.3-3.7c-1-1.4-3.7-4.4-3.8-4.6c-0.7-0.9-1.5-1.7-2.4-2.5
		c-0.6-0.2-1.3-0.3-2-0.1c-0.4,0.2-0.6,0.6-0.5,1c-0.8,0.2,0,2.2-0.2,2.2c-0.9,0-1.1,1.2,1,3.5c0.1,0.1,4.2,6.7,5.7,8.7
		C1041.1,262.3,1042.6,260.8,1044,259.1z"/>
	<path class="st22" d="M1116.1,288.6c-6.8-1.6-29.1-0.8-39.9-2.5c-13.2-2.1-9.9,7.8-6.1,9.8c10,5,39.9,14.1,43,9.2
		C1114.5,303,1117.4,288.9,1116.1,288.6z"/>
	<path class="st26" d="M1084.3,304.5c12.1,3.8,23.4,4.8,27.1,3.8c9.7-2.5,10-16.3,4.7-19.7c-4.1-2.7-17.5-1.5-28-3
		C1085.2,291.4,1083.8,298,1084.3,304.5z"/>
	<path class="st22" d="M1076.2,289.3c-0.2-0.4-0.4-0.8-0.8-1.2c-5.1-5.5-27.4-22.8-31.7-29.4c-1.4,1.6-3.1,2.9-4.8,4.1
		c7.4,10.7,28.8,35.3,33.7,33.7C1077.2,295,1077.2,291.4,1076.2,289.3z"/>
	<path class="st5" d="M1127.1,260.2c-2.2-30.3-26.8-17.5-26.2-9.6c0.1,2,1.2,3.1,2.8,1c2.7-3.5,12.4-6.6,6.8,11.9
		c-1.5,4.9-7.8,11.2,5.9,19.9c12.5,8,2.2,11,2.9,14.7c1.8,9.4,26.3-11,13.3-25.1C1129.9,270.2,1127.7,269.4,1127.1,260.2z"/>
	<path class="st21" d="M1102.3,250.1c-0.5-0.3-1.1-0.5-1.8-0.5c-0.9,0.1-1.7,0.5-2.3,1.1c2.2,0.9,4.2,2.2,5.8,4
		C1104.7,253.2,1104.7,251.5,1102.3,250.1z"/>
	<path class="st27" d="M619.5,517v4c0,2.2,1.7,4,3.9,4c0,0,0,0,0,0h161.1c2.2,0,3.9-1.8,3.9-4c0,0,0,0,0,0v-4H619.5z"/>
	<path class="st26" d="M777,517v-84.5c0.1-4.6-3.7-8.4-8.3-8.5c0,0,0,0,0,0H639.3c-4.6,0.1-8.4,3.9-8.3,8.5c0,0,0,0,0,0V517H777z"/>
	<rect x="638.2" y="432.1" class="st27" width="131.5" height="78.4"/>
	<ellipse class="st27" cx="704" cy="428.1" rx="2.1" ry="2.2"/>
	<g id="_Group__1_">
		<path class="st33" d="M732.4,473.1L732.4,473.1c-0.6,0-1.1-0.5-1-1.1c0,0,0,0,0,0c0-0.7,0-1.4,0-2c0-0.5,0.3-1,0.8-1.1l2.1-0.5
			c0.6-0.2,1.2,0.1,1.3,0.7c0.2,0.6-0.1,1.2-0.7,1.3c-0.1,0-0.1,0-0.2,0l-1.2,0.3c0,0.4,0,0.9,0,1.3
			C733.5,472.7,733,473.1,732.4,473.1C732.4,473.1,732.4,473.1,732.4,473.1z"/>
		<path class="st34" d="M735.1,470.4c-0.6,0-1.1-0.5-1-1.1c0-0.5,0.3-0.9,0.8-1l1-0.2l-0.2-1c-0.2-0.6,0.1-1.2,0.7-1.3
			c0.6-0.2,1.2,0.1,1.3,0.7c0,0.1,0,0.1,0,0.2l0.5,2.1c0.1,0.6-0.2,1.1-0.8,1.3l-2.1,0.5L735.1,470.4z"/>
		<path class="st34" d="M735.2,461.8c-0.5,0-0.9-0.3-1-0.8l-0.2-1l-1,0.2c-0.6,0.2-1.2-0.1-1.3-0.7c-0.2-0.6,0.1-1.2,0.7-1.3
			c0.1,0,0.1,0,0.2,0l2.1-0.5c0.6-0.1,1.1,0.2,1.3,0.8l0.5,2.1c0.1,0.6-0.2,1.1-0.8,1.3L735.2,461.8z"/>
		<path class="st34" d="M730,460.9c-0.4,0-0.8-0.2-1-0.6c-0.3-0.6-0.6-1.2-0.9-1.8c-0.2-0.5,0-1.2,0.6-1.4c0.5-0.2,1,0,1.3,0.4
			c0.2,0.4,0.4,0.8,0.6,1.2l1.2-0.3c0.6-0.1,1.1,0.3,1.2,0.9c0.1,0.5-0.2,1-0.7,1.2l-2.1,0.5L730,460.9z"/>
		<path class="st33" d="M724.6,452.8c-0.3,0-0.6-0.1-0.8-0.3c-0.5-0.5-1-1-1.5-1.4c-0.4-0.3-0.5-0.9-0.2-1.3l1.1-1.8
			c0.3-0.5,0.9-0.8,1.4-0.5c0.5,0.3,0.8,0.9,0.5,1.4c0,0.1-0.1,0.1-0.1,0.2l-0.7,1.1l0.9,0.9c0.4,0.4,0.4,1.1-0.1,1.5
			C725.1,452.7,724.9,452.8,724.6,452.8z"/>
		<path class="st33" d="M724.6,448.9c-0.6,0-1.1-0.5-1-1.1c0-0.2,0-0.3,0.1-0.5l0.6-0.9l-0.9-0.6c-0.5-0.3-0.8-0.9-0.5-1.4
			c0.3-0.5,0.9-0.8,1.4-0.5c0.1,0,0.1,0.1,0.2,0.1l1.8,1.1c0.5,0.3,0.6,1,0.3,1.5l-1.1,1.8C725.3,448.8,724.9,449,724.6,448.9z"/>
		<path class="st33" d="M715.8,443.5c-0.6,0-1.1-0.5-1-1.1c0-0.2,0-0.3,0.1-0.5l1.1-1.8c0.3-0.5,1-0.6,1.5-0.3l1.8,1.1
			c0.5,0.4,0.5,1,0.2,1.5c-0.3,0.4-0.8,0.5-1.3,0.3l-0.9-0.6l-0.6,0.9C716.4,443.3,716.1,443.5,715.8,443.5z"/>
		<path class="st33" d="M714.3,445.9c-0.1,0-0.3,0-0.4,0c-0.6-0.3-1.3-0.5-1.9-0.7c-0.6-0.1-1-0.7-0.9-1.2s0.7-1,1.2-0.9
			c0.1,0,0.2,0,0.2,0.1l1.3,0.4l0.7-1.1c0.3-0.5,0.9-0.8,1.4-0.5s0.8,0.9,0.5,1.4c0,0.1-0.1,0.1-0.1,0.2l-1.1,1.8
			C715,445.8,714.6,445.9,714.3,445.9z"/>
		<path class="st34" d="M702.6,443.9c-0.5,0-0.9-0.3-1-0.8l-0.5-2.1c-0.1-0.6,0.3-1.1,0.9-1.2c0.5-0.1,1,0.2,1.2,0.7l0.3,1.2h1.3
			c0.6,0.1,1,0.6,0.9,1.2c-0.1,0.5-0.4,0.9-0.9,0.9c-0.6,0-1.3,0-1.9,0L702.6,443.9z"/>
		<path class="st33" d="M702,441.2c-0.5,0-0.9-0.3-1-0.8l-0.2-1l-1,0.2c-0.6,0.2-1.2-0.1-1.3-0.7c-0.2-0.6,0.1-1.2,0.7-1.3
			c0.1,0,0.1,0,0.2,0l2.1-0.5c0.6-0.1,1.1,0.2,1.3,0.8l0.5,2.1c0.1,0.6-0.2,1.1-0.8,1.3L702,441.2z"/>
		<path class="st33" d="M691.9,443.6c-0.5,0-0.9-0.3-1-0.8l-0.5-2.1c-0.1-0.6,0.2-1.1,0.8-1.3l2.1-0.5c0.6-0.2,1.2,0.1,1.3,0.7
			c0.2,0.6-0.1,1.2-0.7,1.3c-0.1,0-0.1,0-0.2,0l-1,0.3l0.2,1c0.1,0.6-0.2,1.1-0.8,1.3L691.9,443.6z"/>
		<path class="st33" d="M690.6,447.2c-0.6,0-1.1-0.5-1.1-1.1c0-0.4,0.2-0.8,0.6-0.9l1.2-0.6l-0.3-1.2c-0.2-0.6,0.1-1.2,0.7-1.3
			c0.6-0.2,1.2,0.1,1.3,0.7c0,0.1,0,0.1,0,0.2l0.5,2.1c0.1,0.5-0.1,1-0.6,1.2c-0.6,0.3-1.2,0.6-1.9,0.9
			C691,447.2,690.8,447.2,690.6,447.2z"/>
		<path class="st33" d="M683,453.2c-0.2,0-0.4-0.1-0.6-0.2l-1.8-1.1c-0.5-0.3-0.8-0.9-0.5-1.4c0.3-0.5,0.9-0.8,1.4-0.5
			c0.1,0,0.1,0.1,0.2,0.1l1.1,0.7l0.9-0.9c0.4-0.4,1.1-0.4,1.5,0.1c0.4,0.4,0.4,1.1-0.1,1.5c-0.5,0.5-1,1-1.4,1.5
			C683.5,453.1,683.3,453.2,683,453.2z"/>
		<path class="st33" d="M677.7,452.4c-0.2,0-0.4-0.1-0.6-0.2c-0.5-0.3-0.6-1-0.3-1.5l1.1-1.8c0.3-0.5,1-0.6,1.5-0.3l1.8,1.1
			c0.5,0.3,0.8,0.9,0.5,1.4c-0.3,0.5-0.9,0.8-1.4,0.5c-0.1,0-0.1-0.1-0.2-0.1l-0.9-0.6l-0.6,0.9C678.4,452.2,678,452.4,677.7,452.4z
			"/>
		<path class="st33" d="M675.1,460.5c-0.2,0-0.4-0.1-0.6-0.2l-1.9-1.1c-0.5-0.3-0.6-1-0.3-1.5l1.1-1.8c0.4-0.5,1-0.5,1.5-0.2
			c0.4,0.3,0.5,0.8,0.3,1.3l-0.6,0.9l0.9,0.6c0.5,0.3,0.6,1,0.3,1.5C675.7,460.4,675.4,460.5,675.1,460.5L675.1,460.5z"/>
		<path class="st33" d="M676.8,464c-0.1,0-0.2,0-0.3,0c-0.6-0.2-0.9-0.8-0.7-1.3c0,0,0,0,0,0c0.1-0.4,0.3-0.8,0.4-1.3l-1.1-0.7
			c-0.5-0.3-0.8-0.9-0.5-1.4c0.3-0.5,0.9-0.8,1.4-0.5c0.1,0,0.1,0.1,0.2,0.1l1.8,1.1c0.4,0.3,0.6,0.8,0.4,1.3
			c-0.3,0.6-0.5,1.3-0.7,1.9C677.6,463.7,677.2,464,676.8,464z"/>
		<path class="st33" d="M673.5,474.2c-0.6,0-1.1-0.5-1-1.1c0-0.5,0.3-0.9,0.8-1l1.2-0.3c0-0.4,0-0.9,0-1.3c0-0.6,0.5-1,1.1-1
			c0,0,0,0,0,0c0.6,0,1.1,0.5,1,1.1c0,0,0,0,0,0c0,0.7,0,1.4,0,2c0,0.5-0.3,1-0.8,1.1l-2.1,0.5L673.5,474.2z"/>
		<path class="st33" d="M671.3,476.8c-0.5,0-0.9-0.3-1-0.8l-0.5-2.1c-0.1-0.6,0.2-1.1,0.8-1.3l2.1-0.5c0.6-0.2,1.2,0.1,1.3,0.7
			c0.2,0.6-0.1,1.2-0.7,1.3c-0.1,0-0.1,0-0.2,0l-1,0.2l0.2,1c0.1,0.6-0.2,1.1-0.8,1.3L671.3,476.8z"/>
		<path class="st33" d="M673.2,484.9c-0.5,0-0.9-0.3-1-0.8l-0.5-2.1c-0.2-0.6,0.1-1.2,0.7-1.3s1.2,0.1,1.3,0.7c0,0.1,0,0.1,0,0.2
			l0.2,1l1-0.2c0.6-0.2,1.2,0.1,1.3,0.7s-0.1,1.2-0.7,1.3c-0.1,0-0.1,0-0.2,0l-2.1,0.5L673.2,484.9z"/>
		<path class="st33" d="M678.9,485.7c-0.4,0-0.8-0.2-0.9-0.6c-0.2-0.4-0.4-0.8-0.6-1.2l-1.2,0.3c-0.6,0.2-1.2-0.1-1.3-0.7
			c-0.2-0.6,0.1-1.2,0.7-1.3c0.1,0,0.1,0,0.2,0l2.1-0.5c0.5-0.1,1,0.1,1.2,0.6c0.3,0.6,0.6,1.2,0.9,1.8c0.3,0.5,0.1,1.2-0.4,1.4
			C679.2,485.6,679,485.7,678.9,485.7L678.9,485.7z"/>
		<path class="st33" d="M683.7,495.1c-0.6,0-1-0.5-1-1.1c0-0.2,0-0.3,0.1-0.5l0.7-1.1l-0.9-0.9c-0.4-0.4-0.4-1.1,0.1-1.5
			c0.4-0.4,1.1-0.4,1.5,0.1c0.5,0.5,1,1,1.5,1.4c0.4,0.3,0.5,0.9,0.2,1.3l-1.1,1.8C684.4,495,684,495.2,683.7,495.1z"/>
		<path class="st33" d="M684.1,498.6c-0.2,0-0.4-0.1-0.6-0.2l-1.8-1.1c-0.5-0.3-0.6-1-0.3-1.5l1.1-1.8c0.4-0.5,1-0.5,1.5-0.2
			c0.4,0.3,0.5,0.8,0.3,1.3l-0.6,0.9l0.9,0.6c0.5,0.3,0.6,1,0.3,1.5C684.7,498.4,684.4,498.6,684.1,498.6L684.1,498.6z"/>
		<path class="st33" d="M691.1,503c-0.2,0-0.4-0.1-0.6-0.2l-1.8-1.1c-0.5-0.4-0.5-1-0.2-1.5c0.3-0.4,0.8-0.5,1.3-0.3l0.9,0.6
			l0.6-0.9c0.4-0.5,1-0.5,1.5-0.2c0.4,0.3,0.5,0.8,0.3,1.3l-1.1,1.8C691.8,502.8,691.4,503,691.1,503z"/>
		<path class="st33" d="M692.5,500.6c-0.6,0-1-0.5-1-1.1c0-0.2,0-0.3,0.1-0.5l1.1-1.8c0.3-0.4,0.8-0.6,1.3-0.4
			c0.6,0.3,1.3,0.5,1.9,0.7c0.5,0.2,0.8,0.9,0.5,1.4c-0.2,0.5-0.7,0.7-1.2,0.6l-1.3-0.4l-0.7,1.1
			C693.2,500.4,692.9,500.6,692.5,500.6z"/>
		<path class="st33" d="M705.8,502.8c-0.5,0-0.9-0.3-1-0.8l-0.3-1.2h-1.3c-0.6,0-1.1-0.5-1-1.1c0,0,0,0,0,0c0-0.6,0.5-1,1.1-1
			c0.7,0,1.4,0,2,0c0.5,0,1,0.3,1.1,0.8l0.5,2.1c0.1,0.6-0.2,1.1-0.8,1.3L705.8,502.8z"/>
		<path class="st33" d="M706.4,505.5c-0.5,0-0.9-0.3-1-0.8l-0.5-2.1c-0.2-0.6,0.1-1.2,0.7-1.3s1.2,0.1,1.3,0.7c0,0.1,0,0.1,0,0.2
			l0.2,1l1-0.2c0.6-0.2,1.2,0.1,1.3,0.7c0.2,0.6-0.1,1.2-0.7,1.3c-0.1,0-0.1,0-0.2,0l-2.1,0.5L706.4,505.5z"/>
		<path class="st33" d="M714.4,503.6c-0.6,0-1.1-0.5-1-1.1c0-0.5,0.3-0.9,0.8-1l1-0.2l-0.2-1c-0.1-0.6,0.3-1.1,0.9-1.2
			c0.5-0.1,1,0.2,1.2,0.7l0.5,2.1c0.1,0.6-0.2,1.1-0.8,1.3l-2.1,0.5L714.4,503.6z"/>
		<path class="st33" d="M715.9,500.4c-0.5,0-0.9-0.3-1-0.8l-0.5-2.1c-0.1-0.5,0.1-1,0.6-1.2c0.6-0.3,1.3-0.6,1.9-0.9
			c0.5-0.3,1.2-0.2,1.5,0.3c0.3,0.5,0.2,1.2-0.3,1.5c0,0-0.1,0.1-0.2,0.1l-1.2,0.6l0.3,1.2c0.1,0.6-0.2,1.1-0.8,1.3L715.9,500.4z"/>
		<path class="st33" d="M723.5,493c-0.6,0-1.1-0.5-1.1-1.1c0-0.3,0.1-0.6,0.3-0.8c0.5-0.5,1-1,1.4-1.5c0.3-0.4,0.9-0.5,1.3-0.2
			l1.8,1.1c0.5,0.3,0.8,0.9,0.5,1.4c-0.3,0.5-0.9,0.8-1.4,0.5c-0.1,0-0.1-0.1-0.2-0.1l-1.1-0.7l-0.9,0.9
			C724,492.9,723.8,493,723.5,493z"/>
		<path class="st33" d="M729.1,494c-0.2,0-0.4-0.1-0.6-0.2l-1.8-1.1c-0.5-0.4-0.5-1-0.2-1.5c0.3-0.4,0.8-0.5,1.3-0.3l0.9,0.6
			l0.6-0.9c0.4-0.5,1-0.5,1.5-0.2c0.4,0.3,0.5,0.8,0.3,1.3l-1.1,1.8C729.9,493.8,729.5,494,729.1,494z"/>
		<path class="st33" d="M733.5,487c-0.2,0-0.4-0.1-0.6-0.2c-0.5-0.3-0.6-1-0.3-1.5l0.6-0.9l-0.9-0.6c-0.5-0.3-0.8-0.9-0.5-1.4
			s0.9-0.8,1.4-0.5c0.1,0,0.1,0.1,0.2,0.1l1.8,1.1c0.5,0.3,0.6,1,0.3,1.5l-1.1,1.8C734.2,486.8,733.9,487,733.5,487z"/>
		<path class="st33" d="M732.3,483.7c-0.2,0-0.4-0.1-0.6-0.2l-1.8-1.1c-0.4-0.3-0.6-0.8-0.4-1.3c0.3-0.6,0.5-1.3,0.7-1.9
			c0.1-0.6,0.7-1,1.2-0.9c0.6,0.1,1,0.7,0.9,1.2c0,0.1,0,0.2-0.1,0.2c-0.1,0.4-0.3,0.8-0.4,1.3l1.1,0.7c0.5,0.3,0.6,1,0.3,1.5
			C733,483.6,732.6,483.8,732.3,483.7L732.3,483.7z"/>
		<path class="st33" d="M703,493.3L703,493.3c-1.5-0.1-3-0.3-4.5-0.7c-0.6-0.2-0.8-0.8-0.6-1.4c0.2-0.5,0.7-0.8,1.2-0.7
			c1.3,0.3,2.7,0.5,4.1,0.6c0.6,0.1,1,0.6,0.9,1.2C704,492.8,703.6,493.2,703,493.3L703,493.3z M710.5,492.2c-0.6,0-1.1-0.5-1-1.1
			c0-0.4,0.3-0.8,0.7-1c1.3-0.4,2.6-1,3.8-1.7c0.5-0.3,1.2-0.1,1.5,0.4c0.3,0.5,0.2,1.1-0.3,1.4c0,0,0,0,0,0H715
			c-1.3,0.8-2.7,1.4-4.1,1.8C710.7,492.2,710.6,492.2,710.5,492.2z M691.8,489.4c-0.2,0-0.4-0.1-0.6-0.2c-1.2-0.9-2.4-1.9-3.4-3
			c-0.4-0.4-0.4-1.1,0-1.5c0.4-0.4,1.1-0.4,1.5,0c0,0,0,0,0.1,0.1c0.9,1,2,1.9,3.1,2.7c0.5,0.3,0.6,1,0.2,1.5
			C692.5,489.3,692.2,489.4,691.8,489.4L691.8,489.4z M720.3,485.5c-0.6,0-1.1-0.5-1.1-1.1c0-0.2,0.1-0.5,0.2-0.7
			c0.9-1.1,1.6-2.2,2.2-3.5c0.3-0.5,0.9-0.8,1.4-0.5c0.5,0.3,0.8,0.9,0.5,1.4c0,0,0,0,0,0c-0.7,1.4-1.5,2.6-2.5,3.8
			C720.9,485.4,720.6,485.5,720.3,485.5L720.3,485.5z M684.5,480.2c-0.4,0-0.8-0.3-1-0.7c-0.4-1-0.8-2.1-1-3.1
			c-0.1-0.4-0.2-0.8-0.2-1.2c-0.2-0.6,0.2-1.2,0.7-1.3s1.2,0.2,1.3,0.7c0,0.1,0,0.2,0,0.2c0.1,0.4,0.1,0.7,0.2,1.1
			c0.2,1,0.5,2,0.9,2.9c0.2,0.5-0.1,1.2-0.6,1.4C684.8,480.2,684.6,480.3,684.5,480.2L684.5,480.2z M724.8,474.6h-0.1
			c-0.6-0.1-1-0.6-0.9-1.2c0.1-1.4,0.1-2.8,0-4.1c0-0.6,0.5-1.1,1-1.1c0.5,0,1,0.4,1.1,0.9c0.2,1.5,0.2,3,0,4.6
			C725.8,474.2,725.4,474.6,724.8,474.6L724.8,474.6z M683.4,468.4h-0.2c-0.6-0.1-1-0.7-0.8-1.2c0.3-1.5,0.7-3,1.3-4.4
			c0.2-0.6,0.8-0.9,1.3-0.7c0.6,0.2,0.9,0.8,0.7,1.3c0,0.1,0,0.1-0.1,0.2c-0.5,1.3-0.9,2.6-1.2,4
			C684.3,468.1,683.9,468.4,683.4,468.4L683.4,468.4z M722.8,463c-0.4,0-0.8-0.2-1-0.6c-0.6-1.2-1.4-2.4-2.2-3.5
			c-0.3-0.5-0.2-1.2,0.3-1.5c0.4-0.3,1-0.2,1.3,0.2c0.9,1.2,1.8,2.5,2.4,3.9c0.3,0.5,0.1,1.2-0.4,1.4C723.1,463,722.9,463,722.8,463
			L722.8,463z M688.8,457.9c-0.6,0-1.1-0.5-1-1.1c0-0.3,0.1-0.5,0.3-0.7c1-1.1,2.2-2.1,3.5-3c0.4-0.4,1.1-0.3,1.5,0.1
			c0.4,0.4,0.3,1.1-0.1,1.5c-0.1,0.1-0.1,0.1-0.2,0.1c-1.1,0.8-2.2,1.7-3.1,2.7C689.3,457.8,689,457.9,688.8,457.9L688.8,457.9z
			 M714.7,454.3c-0.2,0-0.4,0-0.5-0.1c-1.2-0.7-2.4-1.3-3.7-1.7c-0.6-0.1-0.9-0.7-0.8-1.3c0.1-0.6,0.7-0.9,1.3-0.8
			c0.1,0,0.1,0,0.2,0.1c1.4,0.5,2.8,1.1,4.1,1.9c0.5,0.3,0.7,1,0.4,1.5C715.4,454.1,715.1,454.3,714.7,454.3L714.7,454.3z M699,452
			c-0.6,0-1.1-0.5-1.1-1.1c0-0.5,0.3-0.9,0.8-1h0.2c1.2-0.3,2.5-0.5,3.7-0.5h0.5c0.6,0,1.1,0.4,1.1,1c0,0,0,0,0,0
			c0,0.6-0.4,1.1-1,1.1h-0.5c-1.1,0.1-2.3,0.2-3.4,0.5h-0.2L699,452z"/>
	</g>
	<path class="st27" d="M821.1,475.9c5.8,0,11.6,1,17,2.9c4.8-9.9,14.9-16.1,25.9-16.1c0.9,0,1.8,0,2.7,0.1
		c-3.8-27.4,15.3-52.7,42.6-56.5c24.1-3.4,47.1,11,54.6,34.2c17.9-15.3,44.8-13.1,60.1,4.8c5.7,6.7,9.2,15,10,23.8
		c10,1.7,17.9,9.4,19.8,19.4c6.8-4.2,14.6-6.4,22.6-6.4c23.6,0.2,42.6,19.3,42.6,42.9H772.4C772.5,498,794.2,476.2,821.1,475.9z"/>
	<path class="st35" d="M852,469.7c0,2.5,0.2,4.9,0.5,7.4c-0.9-0.1-1.8-0.1-2.7-0.1c-11,0-21.1,6.3-25.9,16.2c-5.5-2-11.2-3-17-3
		c-9.4,0-18.6,2.8-26.5,8c9-13.7,24.2-22.1,40.6-22.1c5.8,0,11.5,0.9,17,2.9c3-6.1,8-10.9,14.1-13.6
		C852.1,466.7,852,468.2,852,469.7z"/>
	<path class="st35" d="M1062.2,496.2c-8,0-15.8,2.2-22.6,6.4c-1.8-10-9.7-17.7-19.7-19.4c-2.1-23.4-22.8-40.7-46.3-38.6
		c-8.8,0.8-17.1,4.3-23.8,10c-8.3-26.4-36.4-41-62.8-32.8c-4.5,1.4-8.7,3.4-12.6,6c15.2-23.1,46.3-29.4,69.4-14.2
		c9.6,6.3,16.7,15.8,20.2,26.7c17.9-15.3,44.8-13.1,60.1,4.8c5.7,6.7,9.2,15,10,23.8c10,1.7,17.9,9.5,19.7,19.5
		c6.8-4.2,14.6-6.4,22.6-6.4c23.6,0.2,42.6,19.3,42.6,42.9h-16.6C1096.4,507.9,1080.3,496.4,1062.2,496.2z"/>
	<g id="_Group_2_1_">
		<rect x="1151.6" y="499.1" class="st26" width="50.4" height="23"/>
	</g>
	<g id="_Group_3_1_">
		<path class="st23" d="M1096.3,397.9h162.1c4.6,0,8.3,3.7,8.3,8.3v88.2c0,4.6-3.7,8.3-8.3,8.3h-162.1c-4.6,0-8.3-3.7-8.3-8.3v-88.2
			C1088,401.6,1091.7,397.9,1096.3,397.9z"/>
	</g>
	<g id="_Group_4_1_">
		<rect x="1093.5" y="402.7" class="st27" width="167.7" height="85.2"/>
	</g>
	<g id="_Group_5_1_">
		<path class="st27" d="M1134.4,518.8h81.8c1.7,0,3.1,1.4,3.1,3.1l0,0c0,1.7-1.4,3.1-3.1,3.1h-81.8c-1.7,0-3.1-1.4-3.1-3.1l0,0
			C1131.3,520.3,1132.7,518.9,1134.4,518.8z"/>
	</g>
	<g id="_Group_6_1_">
		<path class="st36" d="M1205,444l4.7-1.1l-2.3-9.8l-4.7,1.1c-1.6-3.5-3.8-6.7-6.7-9.3l2.5-4.1l-8.6-5.3l-2.5,4.1
			c-2.8-1.1-5.8-1.7-8.8-1.9c-0.8,0-1.6,0-2.4,0h0l-1.1-4.7l-9.9,2.4l1.1,4.7c-0.9,0.4-1.9,0.9-2.7,1.4c-2.5,1.4-4.7,3.2-6.6,5.3
			l-4.1-2.5l-5.3,8.6l4.1,2.5c-1.4,3.6-2,7.5-1.9,11.3l-4.7,1.1l2.3,9.8l4.7-1.1c1.6,3.5,3.8,6.7,6.7,9.3l-2.5,4.1l8.6,5.3l2.5-4.1
			c3.6,1.4,7.5,2,11.3,1.9l1.1,4.7l9.8-2.3l-1.1-4.7c3.5-1.5,6.7-3.8,9.3-6.7l4.1,2.5l5.3-8.6l-4.1-2.5
			C1204.5,451.7,1205.1,447.9,1205,444z M1187.6,462.9c-9.8,5.6-22.2,2.1-27.8-7.6c-5.6-9.8-2.1-22.2,7.6-27.8
			c2.7-1.5,5.6-2.4,8.7-2.6c0.8-0.1,1.6-0.1,2.4,0c11.2,0.6,19.9,10.2,19.3,21.4C1197.5,453.2,1193.6,459.5,1187.6,462.9
			L1187.6,462.9z"/>
	</g>
	<circle class="st28" cx="1177.3" cy="445.3" r="8.7"/>
	<path class="st22" d="M1147.9,382.8c0,0.6,2.5,1.3,3.1,1.2c1.3-0.8,0.8-1.6,2.1-2.1c-1.2,0.3-2.5,0.4-3.8,0.3
		C1148.6,382.1,1147.9,381.8,1147.9,382.8z"/>
	<path class="st22" d="M1154,381.4c-1.3,0.6-2.6,1.3-3.9,2.1c-1.6,0.9-4.7,3.3-4.9,3.5c-0.9,0.7-1.8,1.4-2.7,2.2
		c-0.3,0.6-0.4,1.3-0.3,2c0.2,0.4,0.5,0.6,1,0.6c0.1,0.8,2.2,0.1,2.1,0.3c0,0.9,1.1,1.2,3.5-0.7c0.1-0.1,7-3.7,9.1-5
		C1156.9,384.5,1155.5,382.9,1154,381.4z"/>
	<path class="st22" d="M1188.8,311.6c-2.1,6.6-2.9,29-5.4,39.6c-3,13,7.1,10.5,9.4,6.9c5.8-9.6,17-38.7,12.4-42.2
		C1203,314.3,1189.1,310.4,1188.8,311.6z"/>
	<path class="st22" d="M1186.5,351.5c-0.5,0.2-0.9,0.4-1.3,0.7c-5.9,4.7-24.7,25.6-31.6,29.5c1.4,1.6,2.7,3.3,3.7,5.1
		c11.2-6.6,37.4-26.1,36.1-31.1C1192.2,350.9,1188.6,350.7,1186.5,351.5z"/>
	<path class="st25" d="M1160.1,386.9c9.6-5.8,30.5-21.6,34.7-29.1c4.5-7.7,17.3-38.7,11-43.2c-2.1-1.6-14.8-5.1-17.3-4.2
		c-0.5,0.2-0.9,0.6-1.1,1.2c-1,3.4-1.6,10.6-2.3,18.1c-0.4,6.9-1.2,13.8-2.4,20.6c-0.2,0.8-0.3,1.7-0.4,2.5
		c-2.3,2.2-5.2,5.2-8.3,8.5c-6.8,7-15.2,15.8-19.1,18L1160.1,386.9z"/>
	<path class="st26" d="M1304.3,507l-5,2.5c0,0,0.7,1.8,1,3c0.7,2.5-2.7,9.8-0.4,11.4c1.1,0.8,3.9-0.9,5.3-2.8
		c1.3-1.5,2.2-3.3,2.7-5.2c0.1-1.9,1.2-4.8,0.8-5.8c-0.5-1-1.4-1.7-2.5-2C1305,507,1304.3,507,1304.3,507z"/>
	<path class="st22" d="M1300.3,512.5c1.3,0.1,2.7-0.2,3.9-0.8c1.1-0.5,1.9-3.7,1.9-3.7c-1.1-1.1-1.9-1.8-1.9-1.8l-5.2,3.1
		C1299.6,510.4,1300,511.4,1300.3,512.5z"/>
	<path class="st26" d="M1228.4,370.5c4.2,0.9,19.4-0.9,30.8-4.2c6.6,19.7,9.3,55.6,12.5,83.8c1.4,12.5,34,57.5,34,57.5
		c-1.3,2-3.6,3.2-6.1,3c0,0-43.3-37.2-48.8-56.2C1239.5,414.9,1228.6,373.8,1228.4,370.5z"/>
	<path class="st22" d="M1213.3,423.2c0.2,1.8,5.3,93.3,5.3,93.3c1.7,1.2,3.8,1.7,5.9,1.3c0,0,8.2-93.4,7.9-97.6
		C1230,422.1,1214.8,424.7,1213.3,423.2z"/>
	<path class="st26" d="M1224.1,516.5l-4.9-2.7c0,0-1.1,1.6-1.9,2.6c-1.6,2-9.6,3.4-9.6,6.1c0,1.4,2.9,2.7,5.3,2.8
		c2,0.1,3.9-0.2,5.8-0.8c1.4-0.5,4.7-1.8,5.2-2.7c0.5-1,0.6-2.2,0.2-3.2C1224.5,517.1,1224.1,516.5,1224.1,516.5z"/>
	<path class="st22" d="M1217.3,516.5c0.7,1.1,1.7,2.1,2.8,2.7c1.1,0.6,4.1-0.5,4.1-0.5c0.3-1.6,0.4-2.6,0.4-2.6l-5.6-2.5
		C1218.6,514.7,1218.1,515.6,1217.3,516.5z"/>
	<path class="st26" d="M1205.4,353.9c3.9,1.7,21,3.5,32.8,2.7v30.8c-2.3,1.8-1.7,29.3-5.8,58.4c-4.8,33.6-7.3,69.2-7.3,69.2
		c-2.4,2.6-7.2,0-7.2-0.2C1217.9,514.8,1204.5,360.2,1205.4,353.9z"/>
	<path class="st5" d="M1258.4,354.5c0,0,6.5,13.3,5.5,22.7c0,0-15,10.4-39.7,13.9l-3.9-5.9l-0.6,6.5c-5.2,1.5-12.8-0.6-15.1-6.8
		c-0.8-2.2-2.5-10.3-2.5-10.3L1258.4,354.5z"/>
	<path class="st22" d="M1206.2,280.7c-0.6,0.8-7.6,7.6-10,7.8c0.2,0.6,3.7,7.1,3.1,11.2c1.6,3.2,11.1,0.6,12.1-5.9
		C1210,292.5,1206.6,284,1206.2,280.7z"/>
	<path class="st25" d="M1238.2,304.8c-3.4-5.6-8.6-11.3-16.4-11c-2.6,0.1-10.4,0.1-10.4,0.1s-3.9,5.8-7.2,7
		c-2.3,0.8-4.9-1.1-4.9-1.1s-7.6,4.8-8.9,6.1c-4.1,4.1-5.1,10.5-2.4,15.7c7.3,15.7,9.2,56,14.7,57c7.5,1.3,47.7-6.3,57.4-20
		C1260.1,358.6,1247.2,319.6,1238.2,304.8z"/>
	<path class="st21" d="M1226.6,356.8c-4,5.8-14.1,11.7-24.7,16.1c8.7-9.9,12.1-28,16.1-40.6c2.9-9.1,7.5-17.3,9-26.2
		c0.5,0.9,1.2,1.8,2,2.5C1242.4,317.2,1232.4,348.5,1226.6,356.8z"/>
	<path class="st22" d="M1178.2,379.2c0,0.6,2.5,1.2,3.1,1c1.2-0.8,0.7-1.6,2-2.2c-1.2,0.4-2.5,0.5-3.7,0.5
		C1178.9,378.5,1178.2,378.2,1178.2,379.2z"/>
	<path class="st22" d="M1184.3,377.5c-1.3,0.7-2.6,1.4-3.8,2.2c-1.5,1-4.5,3.5-4.7,3.7c-0.9,0.7-1.8,1.5-2.5,2.3
		c-0.3,0.6-0.3,1.3-0.2,2c0.2,0.4,0.6,0.6,1,0.5c0.2,0.8,2.2,0,2.2,0.2c0,0.9,1.2,1.2,3.5-0.9c0.1-0.1,6.8-4,8.9-5.5
		C1187.3,380.4,1185.9,378.9,1184.3,377.5z"/>
	<path class="st22" d="M1215.6,306.1c-1.7,6.7-1.6,29.1-3.5,39.8c-2.4,13.2,7.6,10.1,9.6,6.4c5.3-9.9,15.2-39.5,10.3-42.8
		C1230,308.1,1215.9,304.9,1215.6,306.1z"/>
	<path class="st22" d="M1215.3,346c-0.4,0.2-0.9,0.4-1.2,0.7c-5.7,4.9-23.5,26.8-30.2,30.9c1.5,1.5,2.8,3.1,3.9,5
		c11-7.1,36.1-27.9,34.5-32.8C1221,345.3,1217.4,345.1,1215.3,346z"/>
	<path class="st25" d="M1191.3,382.4c9.3-6.3,29.4-23,33.2-30.7c4.1-7.8,15.4-39.4,8.9-43.7c-2.2-1.4-15-4.4-17.4-3.4
		c-0.5,0.2-0.9,0.7-1.1,1.2c-0.8,3.4-2,33.8-2.9,39c-0.1,0.8-0.2,1.7-0.3,2.5c-2.1,2.3-5,5.5-7.8,8.8c-6.4,7.4-14.4,16.5-18.2,18.9
		L1191.3,382.4z"/>
	<path class="st23" d="M1202,312.5c0.3-9.7-2.6-12-4.1-15.8c-1.5-4-2-8.2-1.6-12.4c-0.1-0.1-7.4-5.1-8.7-1.4
		c-0.5,4.7,0.3,9.4,2.4,13.6c2.4,4.6,3.1,10,1.9,15.1c-0.8,4-0.6,8.2,0.6,12.1c1.3,4.1,3,8.1,5.1,11.8c0,0,7.3,6.4,12.4,5.2
		C1209.9,340.6,1201.6,326.4,1202,312.5z"/>
	<path class="st22" d="M1192.8,271c-4,0.5-6.9,4.1-6.4,8.1c0,1.6,4.3,14.5,11.9,14.6c3.1,0,7.5-6.6,6.8-10.1l-1-4.8
		C1203.1,274,1197.5,270,1192.8,271z"/>
	<path class="st23" d="M1230.8,312.6c-0.4-2.9-2-8.8-6.2-12.5c-4.6-4.1-6.9-10.1-6.3-16.2c0.6-7.8-3.1-15.3-9.6-19.6
		c-4.4-3.3-10.3-3.4-14.8-0.4c-3.8,2.8-3.7,3.6-3.7,3.6c-1.6,0.1-3.1,0.8-4.3,1.9c-4.4,4-1.3,15.3,3.5,17.8
		c-5.6-11.6,1.6-15.4,1.6-15.4s5.5-0.7,8.9,1.7c3.1,2.2,7.3,9.3,7.2,15.4c0,4.7-2.7,8.7,3.4,18.3c8.8,13.8,3.9,33,3.9,33
		c5.7-0.9,10.7-4.2,13.8-9C1228.2,331,1231.7,319.5,1230.8,312.6z"/>
	<path class="st22" d="M1203.4,276.9c-0.7,0.2-1.3,0.6-1.7,1.2c1.1,1.6,2.2,3.2,3.5,4.7c1.1-1,1.7-2.4,1.5-3.9
		C1206.1,277.5,1204.8,276.7,1203.4,276.9z"/>
	<circle class="st26" cx="1065.8" cy="514.3" r="8.7"/>
	<path class="st28" d="M1135.9,516.7h-70c-1,0.1-2-0.7-2.1-1.7c-0.1-1,0.7-2,1.7-2.1c0.1,0,0.2,0,0.3,0h70
		c21.9,0,39.7-17.8,39.7-39.7v-23c-0.1-1,0.7-2,1.7-2.1s2,0.7,2.1,1.7c0,0.1,0,0.2,0,0.3v23C1179.3,497.3,1159.9,516.7,1135.9,516.7
		z"/>
	<path class="st22" d="M709.5,354.4c0.1,0.6-2.3,1.6-2.9,1.6c-1.4-0.6-1-1.4-2.4-1.8c1.3,0.1,2.5,0.1,3.8-0.2
		C708.7,353.9,709.4,353.5,709.5,354.4z"/>
	<path class="st22" d="M703.2,353.9c1.4,0.4,2.8,0.9,4.1,1.6c1.6,0.7,5,2.7,5.3,2.8c1,0.5,2,1.1,2.9,1.8c0.4,0.6,0.5,1.2,0.5,1.9
		c-0.1,0.4-0.5,0.7-0.9,0.7c0,0.9-2.1,0.4-2.1,0.6c0.2,0.9-1,1.4-3.6-0.3c-0.2-0.1-7.4-2.7-9.7-3.8
		C700.7,357.4,701.9,355.6,703.2,353.9z"/>
	<path class="st22" d="M667,328.6c0.5,0.1,0.9,0.3,1.3,0.5c6.5,3.8,27.9,22,35.3,24.9c-1.2,1.7-2.2,3.6-3,5.6c-12-5-40.5-20.8-40-26
		C661.2,328.9,664.7,328.1,667,328.6z"/>
	<path class="st22" d="M659.4,289.4c2.9,6.3,6.8,28.3,10.7,38.5c4.7,12.5-5.7,11.4-8.3,8c-7-8.8-22.1-36.1-17.9-40.2
		C645.6,294,658.8,288.3,659.4,289.4z"/>
	<path class="st24" d="M704.2,352.6c-4.3-1.7-29.2-20.8-31.9-22.7c-0.2-0.8-4.6-15.4-6.5-23.1s-3.6-14.8-5.1-18.1
		c-0.2-0.5-0.7-0.9-1.3-1c-2.6-0.5-14.9,5-16.8,6.9c-5.6,5.6,12.1,35,17.8,42.2c5.4,6.9,29,19.8,39.6,24.2L704.2,352.6z"/>
	<g id="_Group_7_1_">
		<g>
			<path class="st36" d="M739.1,393.3l7.1-1.7l-3.5-14.9l-7.1,1.7c-2.4-5.4-5.8-10.2-10.2-14.1l3.8-6.2l-13-8.1l-3.8,6.2
				c-4.3-1.7-8.8-2.6-13.4-2.8c-1.2,0-2.4,0-3.6,0h-0.1l-1.6-7.1l-14.9,3.5l1.7,7.1c-5.4,2.4-10.2,5.8-14.1,10.2l-6.2-3.8l-8.1,13
				l6.2,3.8c-2.1,5.5-3.1,11.4-2.8,17.3l-7.1,1.7l3.5,14.9l7.1-1.7c2.4,5.4,5.8,10.2,10.2,14.1l-3.8,6.2l13,8.1l3.8-6.2
				c5.5,2.1,11.4,3.1,17.3,2.8l1.7,7.1l14.9-3.5l-1.7-7.1c1.4-0.6,2.8-1.3,4.2-2.1c3.7-2.2,7.1-4.9,10-8l6.2,3.8l8.1-13l-6.2-3.8
				C738.5,405.1,739.4,399.2,739.1,393.3z M712.7,422.1c-14.8,8.6-33.7,3.5-42.3-11.2c-8.6-14.8-3.5-33.7,11.2-42.3
				c4.2-2.4,8.9-3.8,13.7-4.1c1.2-0.1,2.4-0.1,3.6,0c17.1,1,30.1,15.7,29.1,32.8C727.5,407.5,721.7,416.9,712.7,422.1L712.7,422.1z"
				/>
		</g>
	</g>
	<path class="st22" d="M683.6,350.9c-1.2,0.3-2.5,0.4-3.8,0.4c1.4,0.3,1.1,1.1,2.5,1.6c0.6,0,2.9-1.1,2.8-1.7
		C684.9,350.3,684.2,350.7,683.6,350.9z"/>
	<path class="st22" d="M688.4,354.8c-0.3-0.1-3.8-1.9-5.4-2.5c-1.4-0.5-2.8-0.9-4.2-1.3c-1.2,1.7-2.3,3.6-3.1,5.5
		c2.3,0.9,9.7,3.1,9.9,3.2c2.7,1.4,3.8,0.9,3.6,0c0-0.2,2.1,0.1,2.1-0.7c0.4-0.1,0.7-0.4,0.8-0.8c0-0.7-0.2-1.3-0.6-1.9
		C690.4,355.8,689.4,355.3,688.4,354.8z"/>
	<path class="st24" d="M646.6,328.8c-0.3-0.8-0.6-1.6-0.9-2.4c-2.6-6.6-4.9-13.3-6.8-20.2c-2.3-7.5-4.4-14.6-6.1-17.8
		c-0.3-0.5-0.8-0.8-1.3-0.9c-2.6-0.4-14.6,5.9-16.4,7.8c-5.3,5.9,14,34.3,20.1,41.1c5.8,6.6,30.1,18.1,40.9,22l3.7-8.7
		c-4.4-1.4-14.7-8.5-23-14.1C652.9,333,649.3,330.5,646.6,328.8z"/>
	<path class="st32" d="M556,472.2c-0.3-1.9-0.1-3.8,0.4-5.5c0.6-1.7,1-3.4,1.4-5.1c0.5-2.9,0-5.8-1.4-8.4c-1.1-1.6-2.7-2.3-3.1-4.8
		c-0.3-2,0.3-4.3-0.2-6.3c-0.3-1.1-0.9-2.2-1.8-2.9l-0.8-0.8v-0.1l-0.1,0.1l-0.1-0.1v0.1l-0.8,0.8c-0.9,0.8-1.5,1.8-1.7,2.9
		c-0.4,1.9,0.2,4.2-0.2,6.3c-0.4,2.5-2,3.2-3.1,4.8c-1.4,2.5-1.9,5.5-1.4,8.4c0.4,1.7,0.8,3.4,1.4,5.1c0.6,1.8,0.7,3.7,0.4,5.5
		c-0.6,2.7-3.8,4.7-3.8,16c0,10.1,7.1,14.2,9.3,16.7v0.1c0,0,0,0,0-0.1c0,0,0,0,0.1,0.1v-0.1c2.2-2.5,9.3-6.6,9.3-16.7
		C559.8,476.9,556.6,474.9,556,472.2z"/>
	<path class="st26" d="M560.2,479.3c-0.5,0.7-0.3,1.8-0.8,2.6c-0.5,0.8-2,0.9-3.1,1.4c-1.3,0.6-2.1,1.8-2.1,3.2
		c0.1,0.8,0.3,1.7,0.6,2.4c0.3,0.8,0.2,1.7-0.3,2.4c-0.8,1-3.7,1.2-4.9,5.9c-1.1,4.3,4.5,7.6,6,9.1l7.4-28.1l-0.9,0.2
		C561.3,478.5,560.7,478.8,560.2,479.3z"/>
	<path class="st26" d="M564,483.1c0-0.9,0.7-1.8,0.6-2.7c-0.2-0.6-0.6-1.2-1.2-1.6l-0.7-0.6l-7.3,28.1c2-0.6,8.5-0.7,9.7-5
		c1.2-4.7-1.2-6.3-1.4-7.6c-0.1-0.9,0.3-1.7,0.9-2.3c0.6-0.6,1.2-1.2,1.7-1.9c0.7-1.2,0.6-2.7-0.2-3.8
		C565.3,484.9,564.1,484.3,564,483.1z"/>
	<path class="st27" d="M538.5,503.3c0,0,4.6,4.9,4.6,8.2c-0.1,1.3-0.4,2.5-0.8,3.7c-1.2,3.9,0.9,8.1,4.9,9.3
		c0.7,0.2,1.5,0.3,2.2,0.3h12.1c4.1,0,7.4-3.4,7.4-7.5c0-0.8-0.1-1.5-0.3-2.2c-0.4-1.2-0.7-2.5-0.8-3.7c0-3.3,4.6-8.2,4.6-8.2H538.5
		z"/>
	<path class="st22" d="M761.2,397.3c-0.7-0.1-1.4-0.5-1.4,0.4c-0.1,0.6,2.3,1.6,2.9,1.5c1.3-0.6,1-1.4,2.3-1.9
		C763.7,397.5,762.4,397.5,761.2,397.3z"/>
	<path class="st22" d="M766,397c-1.4,0.4-2.8,1-4.1,1.6c-1.6,0.8-5,2.8-5.2,3c-1,0.6-2,1.2-2.9,1.9c-0.3,0.6-0.5,1.3-0.5,1.9
		c0.1,0.4,0.5,0.7,0.9,0.7c0,0.9,2.1,0.3,2.1,0.5c-0.1,0.9,1,1.3,3.6-0.4c0.2-0.1,7.4-3,9.6-4.1C768.5,400.3,767.3,398.6,766,397z"
		/>
	<path class="st22" d="M801.3,370.6c-0.5,0.1-0.9,0.3-1.3,0.5c-6.3,4-27.2,22.9-34.5,26c1.3,1.7,2.3,3.5,3.1,5.5
		c11.9-5.4,39.9-22.1,39.2-27.2C807.1,370.6,803.6,370,801.3,370.6z"/>
	<path class="st25" d="M805.6,327.6c-1.1,7-2.2,13.5-3.8,21.1c-1.3,7-3,13.9-5,20.7c-0.3,0.8-0.5,1.7-0.7,2.5
		c-2.6,2-5.9,4.7-9.5,7.6c-7.8,6.3-17.4,14.2-21.6,16.1l4.4,8.4c10.4-4.7,33.7-18.3,38.8-25.4c5.5-7.3,20-33.9,16.2-40.8
		C817.9,326.2,805.7,327.1,805.6,327.6z"/>
	<path class="st37" d="M813.3,404.9c-10.1,0.5-63.4,19.5-85,32.5c-9.2,5.5-5.4,15.4,4.7,14.8c29.3-1.8,68-0.7,85.2-13
		C845.7,419.6,818.8,404.6,813.3,404.9z"/>
	<path class="st22" d="M757.5,507.3l-0.2,4.7c1.6,1.4,3.6,2.1,5.7,1.9c0.6-2,0.7-4.2,0.4-6.3C763,507.7,760.2,504.9,757.5,507.3z"/>
	<path class="st37" d="M724.4,452.6c17.6,31.7,32.7,58.2,32.7,58.2c1.4-2.3,4.1-3.4,6.7-2.6c0,0-10.2-29.8-20.5-60
		C736.6,428.2,717.3,439.6,724.4,452.6z"/>
	<path class="st37" d="M757.4,510.3c-0.4,0.5-0.8,1-1.3,1.4c-1.9,1.8-10.2,5.5-10.5,8.2c-0.1,1.4,2.7,2.9,5,3.3
		c1.9,0.4,3.9,0.4,5.8-0.2c2.2-1.4,4.1-3.2,5.7-5.2c1.1-1.4,1.1-5.3,1.1-5.3C761.9,509.3,757.4,510.3,757.4,510.3z"/>
	<path class="st25" d="M757.2,513.8c-2.4,1.7-10.1,4.4-10.4,6.7c-0.1,1.2,2.2,2.5,4.2,2.8c1.6,0.4,3.3,0.3,4.9-0.2
		c1.8-1.2,3.4-2.7,4.8-4.4C763.5,515,759.5,512.2,757.2,513.8z"/>
	<path class="st22" d="M802.6,508.7c-0.2,2.5,0.4,4.9,1.7,7c2.7-0.7,5.1-2,7.2-3.7c0,0-1.6-2.4-2.7-4.7
		C806.1,504.9,802.9,508.7,802.6,508.7z"/>
	<path class="st37" d="M771.6,457.3c17.6,31.7,31.1,53.4,31.1,53.4c1.4-2.3,4.1-3.4,6.7-2.6c0,0-8.6-25.1-18.9-55.3
		C783.8,432.9,764.5,444.4,771.6,457.3z"/>
	<path class="st37" d="M811.2,511.8c-0.5-0.4-0.9-0.9-1.3-1.4c0,0-4.5-1.1-5.9,2.2c0,0,0,3.9,1.1,5.3c1.6,2,3.6,3.7,5.7,5.2
		c1.9,0.6,3.9,0.6,5.8,0.2c2.4-0.3,5.2-1.9,5-3.3C821.3,517.2,813,513.5,811.2,511.8z"/>
	<path class="st25" d="M810,513.8c-2.3-1.6-6.3,1.2-3.6,4.9c1.4,1.7,3,3.2,4.8,4.4c1.6,0.5,3.3,0.5,4.9,0.2c2-0.3,4.4-1.6,4.2-2.8
		C820.1,518.2,812.4,515.5,810,513.8z"/>
	<path class="st26" d="M829.7,403.9c-11.7,1.7-23.4,2.9-35.2,3.4c-7,0.2-14-0.6-20.8-2.4c0,11-2.2,12.6-7.1,15.6
		c3.5,12,10.4,15.4,16.4,17.4c15.8,5.2,55.4-6.7,56.6-6.8c-0.2-9.4-0.8-18.9-2-28.2C835,403.3,832.4,403.6,829.7,403.9z"/>
	<path class="st22" d="M805.4,307.8c-0.8,0.6-9.3,5.3-11.7,5c0,0.7,1.7,7.8,0.1,11.6c0.7,3.6,10.5,3.6,13.3-2.5
		C805.9,320.2,804.9,311.1,805.4,307.8z"/>
	<path class="st22" d="M796.5,296.1c-4.5-0.3-8.8,0.8-9.8,5c-0.3,1.6,0.3,15.1,7.6,17.3c3.1,0.9,9-4.4,9.2-8l0.3-4.9
		C804.2,300.5,801.3,296.4,796.5,296.1z"/>
	<path class="st25" d="M817,324.6c-2.5-0.6-10-2.6-10-2.6s-1.5,2.1-6,3c-2.4,0.5-4.9,0.3-7.2-0.5c0,0-8.6,2.7-10.2,3.6
		c-6.1,3.6-6.1,6.1-6.5,14.5c-0.2,3.9-0.3,63.8-9.7,77.6c0.3,0.5,3.7,8.7,11.6,10.8l1.9-17l1.7,17.7c18.3,3.9,32.4-3.3,47-5.6
		l1.4-22.3l4.2,21.5c1.4-0.2,2.7-0.3,3.8-0.4c-0.2-34-9.6-85-10-86.6C827.3,331.8,824.6,326.4,817,324.6z"/>
	<path class="st5" d="M805.8,290.7c-7-5.5-18.8-0.2-21.9,7c-2.3,5.3-4.5,1.6-4.2,0.2c-0.7,3.5,0.8,6.6,7.7,6.1
		c1.4-0.1-3.1,1.3-3.1,1.3s7.3,15.1,18.6,11.5c2.4-1,4.5-2.5,6.3-4.4c0,0-3.7,0.6-1.7-2.4C811.2,304.2,812,295.5,805.8,290.7z"/>
	<path class="st22" d="M722.2,383.2c-0.3,0.5,1.6,2.4,2.1,2.5c1.5,0,1.5-0.9,2.9-0.8c-1.2-0.3-2.4-0.9-3.5-1.6
		C723.1,383,722.6,382.4,722.2,383.2z"/>
	<path class="st22" d="M723.8,384.9c-1.8,0-5.7,0.6-6,0.6c-1.1,0.1-2.3,0.3-3.4,0.6c-0.5,0.4-1,0.9-1.2,1.6c0,0.4,0.2,0.8,0.5,1
		c-0.3,0.8,1.8,1.2,1.7,1.3c-0.5,0.7,0.4,1.6,3.5,1.1c0.2,0,7.9,0.2,10.4,0.1c-0.2-2.1-0.6-4.2-1.2-6.3
		C726.7,384.9,725.2,384.8,723.8,384.9z"/>
	<path class="st22" d="M768,374.1c-0.5,0-0.9,0.1-1.4,0.3c-6.9,3-32,9-39.7,11c1,1.9,1.7,3.9,2.2,5.9c12.5-3.5,44.4-6.3,44.5-11.4
		C773.7,375.1,770.3,373.9,768,374.1z"/>
	<path class="st22" d="M780.4,336.1c-3.7,5.9-10.3,27.3-15.4,36.9c-6.3,11.8,4.2,12,7.3,9c8-7.8,26.4-33,22.8-37.6
		C793.4,342.4,781.1,335.1,780.4,336.1z"/>
	<path class="st25" d="M778.8,332.3c-2.2,6.7-4.2,13-7,20.3c-2.4,6.7-5.1,13.2-8.1,19.6c-0.4,0.8-0.8,1.6-1.1,2.4
		c-2.9,1.6-30.1,7.8-34.5,9l1.6,9.1c11.1-1.6,37.6-3.5,43.9-9.7c6.6-6.4,25-30.4,22.3-37.8C791.2,332.8,779,331.8,778.8,332.3z"/>
	<polygon class="st26" points="843.7,456.4 866.7,523.4 869.3,523.4 846.2,456.4 	"/>
	<polygon class="st26" points="804.8,456.4 827.8,523.4 830.3,523.4 807.3,456.4 	"/>
	<path class="st26" d="M848.8,357.4c-16.1,0-31.7,13.1-34.7,29.2l-10.1,42c-1.8,9.4-12.2,16.4-21.8,16.4h-21c-3.2,0.2-5.6,2.9-5.4,6
		c0.2,2.9,2.5,5.3,5.4,5.4l86.6,0.1c4,0,7.5-2.8,8.2-6.8l16.5-63.1C875.5,370.5,864.9,357.4,848.8,357.4z"/>
	<path class="st27" d="M848.8,357.4c-16.1,0-31.7,13.1-34.7,29.2l-10.1,42c-1.8,9.4-12.2,16.4-21.8,16.4h-21c-3.1-0.2-5.8,2.3-6,5.4
		s2.3,5.8,5.4,6c0.2,0,0.4,0,0.6,0h2.7c0.9-2.1,3-3.5,5.3-3.5h21c9.6,0,20-6.8,21.8-16.3l10.1-41.9c3-16.1,18.6-29.2,34.7-29.2
		c4.5-0.1,9,1.1,13,3.4C865.3,361.4,857.3,357.1,848.8,357.4z"/>
	<polygon class="st27" points="754.2,523.4 756.8,523.4 779.8,456.4 777.2,456.4 	"/>
	<polygon class="st27" points="793.1,523.4 795.7,523.4 818.7,456.4 816.1,456.4 	"/>
</g>
</svg>
