<svg xmlns="http://www.w3.org/2000/svg" viewBox="0 0 1440 730" width="1440" height="730">
	<style>
		tspan { white-space:pre }
		.shp0 { fill: #dfe3fe } 
		.shp1 { fill: #bcd0e2 } 
		.shp2 { fill: #b0bfde } 
		.shp3 { fill: #dbdac6 } 
		.shp4 { fill: #c4d1e1 } 
		.shp5 { fill: #e4eef3 } 
		.shp6 { fill: #e9d6b8 } 
		.shp7 { fill: #e2c59c } 
		.shp8 { fill: #163f59 } 
		.shp9 { fill: #194866 } 
		.shp10 { fill: #081832 } 
		.shp11 { fill: #b6c2c9 } 
		.shp12 { fill: #d8e5ed } 
		.shp13 { fill: #879ba6 } 
		.shp14 { fill: #d9e1e4 } 
		.shp15 { fill: #ffffff } 
		.shp16 { fill: #0c1153 } 
	</style>
	<g id="Layer">
		<g id="Group_3674">
			<g id="Group_3683">
				<path id="Path_4592" class="shp0" d="M568.55 645.55C457.35 611.95 338.05 614.85 270.35 564.85C202.55 514.65 186.45 411.65 205.15 306.45C223.65 201.25 276.85 94.25 365.05 57.25C453.55 20.35 576.95 53.35 699.35 44.85C821.75 36.35 942.55 -13.95 1038.15 4.95C1133.65 23.65 1203.85 111.45 1199.85 203.05C1195.85 294.45 1117.55 389.85 1052.85 493.05C988.05 596.35 937.15 707.75 860.05 728.45C782.85 748.95 679.95 679.05 568.55 645.55Z" />
				<g id="Group_2971">
					<g id="Group_2962">
						<path id="Path_4211" class="shp1" d="M1116.12 210.89C1096.02 215.89 1059.02 233.89 1051.32 264.69C1039.72 310.89 1062.92 378.69 1026.12 445.09C1014.32 466.19 1229.52 494.59 1229.52 494.59L1271.02 261.19C1271.02 261.19 1219.12 210.49 1208.52 207.09C1186.62 199.99 1156.22 200.79 1116.12 210.89Z" />
						<g id="Group_2958">
							<path id="Path_4212" class="shp2" d="M1271.42 261.32C1278.92 280.02 1297.72 390.92 1276.72 417.12C1274.32 420.12 1287.62 424.82 1285.22 438.62C1284.82 440.92 1280.82 451.92 1280.82 451.92L1263.62 456.42L1211.62 426.82L1221.62 414.72L1226.32 414.82C1226.32 414.82 1230.72 410.72 1229.52 405.62C1228.32 400.52 1241.42 392.22 1261.32 306.12C1267.12 280.72 1269.72 257.22 1271.42 261.32Z" />
							<path id="Path_4213" class="shp3" d="M1251.32 411.82L1235.92 408.42L1229.72 407.42C1229.72 411.62 1226.32 414.82 1226.32 414.82L1238.22 415.22L1252.22 418.22L1269.12 427.82L1251.32 411.82Z" />
						</g>
						<path id="Path_4214" class="shp4" d="M1229.32 426.19C1229.32 426.19 1241.22 426.09 1251.32 432.29C1259.02 436.99 1266.12 447.39 1259.02 452.89C1251.92 458.49 1241.02 463.69 1241.02 463.69C1241.02 463.69 1214.02 464.39 1229.32 426.19Z" />
						<path id="Path_4215" class="shp5" d="M1259.02 453.29L1251.82 451.79C1251.82 451.79 1226.92 449.49 1223.32 451.49C1219.82 453.49 1208.32 461.19 1208.32 461.19L1205.92 463.39C1205.92 463.39 1211.52 466.89 1219.02 461.59C1226.52 456.29 1227.12 460.39 1227.12 460.39L1225.82 466.99L1225.92 475.49L1224.72 479.09C1224.72 479.09 1223.62 480.99 1224.52 481.79C1225.82 482.99 1227.62 483.39 1229.22 482.89L1236.82 469.59L1238.92 483.99C1239.62 485.29 1240.92 486.19 1242.32 486.49C1244.52 486.99 1244.52 486.39 1244.52 486.39L1246.22 482.69C1246.42 483.69 1246.92 484.59 1247.72 485.19C1249.02 486.09 1250.62 486.59 1252.22 486.49L1251.52 471.29L1254.62 478.99C1255.42 480.19 1256.62 481.09 1258.02 481.49C1260.52 482.09 1261.22 482.29 1261.22 482.29L1259.02 453.29Z" />
						<g id="Group_2960">
							<g id="Group_2959">
								<path id="Path_4216" class="shp6" d="M1129.85 393.92C1129.85 393.92 1147.95 439.72 1191.45 452.02C1198.95 454.12 1203.65 462.32 1199.95 464.92C1195.35 468.22 1188.95 469.02 1178.05 468.92C1155.35 468.82 1124.35 461.82 1102.95 441.12C1071.25 410.42 1061.25 396.52 1064.45 381.12C1067.65 365.72 1129.85 393.92 1129.85 393.92Z" />
								<path id="Path_4217" class="shp2" d="M1057.45 249.22C1048.25 264.32 1042.95 288.62 1042.95 323.42C1043.05 350.32 1066.25 394.42 1069.85 407.92C1070.45 410.22 1071.85 419.92 1071.85 419.92L1097.55 445.22L1149.15 410.22L1133.45 386.12L1128.75 386.62C1128.75 386.62 1125.75 373.32 1126.55 368.12C1127.35 362.92 1112.25 293.52 1104.75 249.02C1100.55 223.42 1066.55 234.22 1057.45 249.22Z" />
								<path id="Path_4218" class="shp1" d="M1103.65 385.72L1118.65 381.02L1124.75 379.52C1125.15 383.72 1128.75 386.52 1128.75 386.52L1116.95 387.92L1103.25 392.12L1087.25 403.12L1103.65 385.72Z" />
							</g>
							<path id="Path_4219" class="shp6" d="M1188.15 451.92L1214.45 444.72C1214.45 444.72 1221.85 454.72 1220.45 457.22C1219.05 459.72 1220.45 474.52 1220.45 474.52L1207.75 485.32L1197.35 481.92C1197.35 481.92 1196.65 477.42 1200.15 476.92C1203.65 476.42 1197.75 473.92 1195.85 472.82C1194.05 471.72 1178.85 463.92 1188.15 451.92Z" />
						</g>
						<path id="Rectangle_457" class="shp7" d="M1143.22 221.99L1165.92 157.39C1166.32 156.39 1167.32 155.89 1168.42 156.19L1168.42 156.19L1210.02 170.79C1211.02 171.19 1211.52 172.29 1211.22 173.29L1188.52 237.89C1188.12 238.89 1187.12 239.39 1186.02 239.09L1144.42 224.49C1143.32 224.09 1142.82 222.99 1143.22 221.99L1143.22 221.99Z" />
						<g id="Group_2961">
							<path id="Path_4220" class="shp6" d="M1212.97 241.89C1211.47 247.39 1205.77 250.69 1200.17 249.09L1155.17 236.69C1149.67 235.19 1146.37 229.49 1147.97 223.89L1147.97 223.89L1166.37 157.19C1167.87 151.69 1173.57 148.39 1179.17 149.99L1179.17 149.99L1224.17 162.39C1229.67 163.89 1232.97 169.59 1231.47 175.19L1212.97 241.89Z" />
							<path id="Path_4221" class="shp8" d="M1227.57 188.99C1227.57 188.99 1235.37 184.19 1237.57 180.59C1238.67 178.79 1238.87 170.59 1234.57 166.29C1230.37 161.99 1224.67 166.29 1224.67 166.29C1224.67 166.29 1231.47 172.99 1231.37 174.69C1231.47 176.49 1227.57 188.99 1227.57 188.99Z" />
							<path id="Path_4222" class="shp9" d="M1153.47 186.09C1153.47 186.09 1153.77 158.59 1157.07 151.39C1160.37 144.19 1162.67 139.29 1172.07 140.99C1186.17 143.49 1185.47 146.49 1193.27 144.19C1201.07 141.89 1215.87 135.09 1220.27 135.29C1227.57 135.49 1237.77 140.79 1234.57 153.79C1232.27 163.39 1237.57 167.39 1237.37 167.69C1236.47 168.69 1233.67 169.09 1228.77 170.09C1214.57 172.89 1206.67 172.09 1197.77 166.99C1188.87 161.89 1172.47 151.49 1168.47 157.99C1164.47 164.49 1159.27 186.39 1157.97 187.89C1156.67 189.19 1154.77 187.79 1153.47 186.09Z" />
							<path id="Rectangle_458" class="shp6" d="M1145.07 207.99L1151.37 185.19C1151.47 184.79 1151.97 184.49 1152.37 184.59L1167.17 188.69C1167.57 188.79 1167.87 189.29 1167.77 189.69L1161.47 212.49C1161.37 212.89 1160.87 213.19 1160.47 213.09L1160.47 213.09L1145.67 208.99C1145.17 208.89 1144.87 208.39 1145.07 207.99Z" />
							<path id="Path_4223" class="shp6" d="M1220.17 225.99C1219.67 227.79 1217.77 228.89 1215.87 228.39L1206.17 225.69C1204.37 225.19 1203.27 223.29 1203.77 221.49L1203.77 221.49L1208.67 203.69C1209.17 201.89 1211.07 200.79 1212.87 201.29L1212.87 201.29L1222.57 203.99C1224.37 204.49 1225.47 206.39 1224.97 208.19L1220.17 225.99Z" />
							<path id="Path_4224" class="shp9" d="M1156.17 193.09C1156.17 193.09 1148.87 219.39 1146.47 228.09C1144.27 235.99 1142.67 254.19 1187.37 266.59C1213.87 273.89 1218.17 254.19 1219.97 247.79C1221.27 242.89 1219.77 226.79 1217.77 223.29C1217.67 223.19 1214.77 234.09 1214.77 234.09C1214.77 234.09 1212.17 221.99 1199.57 218.49C1179.27 212.89 1171.37 223.49 1162.47 220.89C1155.77 218.79 1153.67 206.19 1156.17 193.09Z" />
							<path id="Path_4225" class="shp6" d="M1186.57 233.49L1200.47 237.29C1202.27 237.79 1204.17 236.69 1204.67 234.89L1204.67 234.89L1205.17 232.99L1184.57 227.29L1184.07 229.19C1183.67 231.09 1184.77 232.99 1186.57 233.49L1186.57 233.49Z" />
						</g>
					</g>
					<path id="Path_4226" class="shp10" d="M1406.19 499.79C1399.79 517.49 1287.49 582.69 1249.89 578.89L1136.49 584.29C1039.89 572.49 994.29 422.59 994.29 422.59C998.09 384.99 1093.19 439.49 1126.99 456.39C1180.69 483.19 1214.59 484.49 1214.59 484.49C1250.49 488.19 1292.09 460.49 1337.39 459.49C1387.09 458.49 1416.29 471.89 1406.19 499.79Z" />
					<g id="Group_2965">
						<path id="Path_4227" class="shp11" d="M1159.45 481.82C1159.45 481.72 1159.35 481.72 1159.35 481.62L1159.35 476.92L1354.55 473.32L1354.65 478.02C1354.65 478.02 1354.65 478.12 1354.65 478.22L1354.15 479.12C1351.75 483.22 1347.25 484.12 1342.05 484.22L1172.15 487.32C1166.95 487.42 1162.45 486.82 1159.95 482.72L1159.45 481.82Z" />
						<path id="Path_4228" class="shp12" d="M1206.45 481.72L1206.45 481.82L1205.95 482.52C1205.25 483.52 1204.25 484.42 1203.15 485.02L1173.45 485.52C1168.45 485.62 1164.15 485.12 1161.65 481.82L1161.15 481.12L1161.05 481.02L1161.05 478.72L1206.25 477.92L1206.45 481.72Z" />
						<g id="Group_2963">
							<path id="Rectangle_459" class="shp13" d="M1232.76 476.66L1330.34 474.89L1330.4 478.19L1232.82 479.96L1232.76 476.66Z" />
						</g>
						<g id="Group_2964">
							<path id="Path_4229" class="shp14" d="M1207.43 475.92L1231.03 379.52C1231.73 376.92 1234.03 375.02 1236.73 374.82L1373.73 372.32C1375.63 372.22 1377.23 373.62 1377.33 375.52C1377.33 376.02 1377.33 376.42 1377.13 376.92L1353.53 473.32L1207.43 475.92Z" />
							<path id="Path_4230" class="shp11" d="M1284.03 424.22C1282.83 429.12 1285.83 433.02 1290.73 433.02C1295.63 432.92 1300.53 428.82 1301.73 423.92C1302.93 419.02 1299.93 415.02 1295.03 415.12C1290.13 415.22 1285.23 419.32 1284.03 424.22Z" />
						</g>
					</g>
					<g id="Group_2967">
						<path id="Path_4231" class="shp6" d="M1119.11 609.21C1132.61 611.51 1142.91 595.81 1142.91 595.81L1177.81 568.31L1170.41 549.71L1102.41 580.31C1102.41 580.31 1105.51 606.91 1119.11 609.21Z" />
						<path id="Path_4232" class="shp9" d="M1142.91 594.81C1142.91 594.81 1142.91 596.41 1140.31 603.61C1137.71 610.81 1134.51 613.21 1131.11 614.21C1118.11 618.01 1108.71 616.11 1077.31 622.11C1046.01 628.11 1036.61 623.61 1027.41 609.11C1018.21 594.71 1027.71 583.31 1043.01 582.11C1065.11 580.41 1077.41 582.91 1089.01 581.21C1101.11 579.41 1101.81 576.71 1108.91 572.31C1115.51 568.21 1121.61 592.51 1115.41 598.11C1109.91 603.21 1138.21 604.01 1142.91 594.81Z" />
						<path id="Path_4233" class="shp15" d="M1136.21 608.71C1123.21 612.51 1113.81 610.61 1082.41 616.61C1051.01 622.61 1041.71 618.11 1032.51 603.61C1028.31 596.91 1028.01 590.91 1030.51 586.31C1023.61 591.01 1021.31 599.31 1027.51 609.11C1036.71 623.51 1046.11 628.11 1077.41 622.11C1108.71 616.01 1118.11 618.01 1131.21 614.21C1133.81 613.41 1136.31 611.71 1138.51 607.71C1137.81 608.21 1137.01 608.51 1136.21 608.71Z" />
						<path id="Path_4234" class="shp6" d="M1142.91 595.21C1142.91 595.11 1142.91 594.91 1142.91 594.81C1142.81 595.01 1142.71 595.11 1142.61 595.31C1142.71 595.21 1142.81 595.21 1142.91 595.21Z" />
						<g id="Group_2966">
							<path id="Path_4235" class="shp15" d="M1075.13 606.14C1074.13 606.54 1073.23 604.64 1072.93 601.94C1072.33 596.44 1071.13 591.04 1069.33 585.74C1068.43 583.14 1068.43 580.74 1069.53 580.44C1070.63 580.14 1072.43 582.04 1073.23 584.64C1074.93 589.84 1076.13 595.14 1076.63 600.64C1076.93 603.24 1076.23 605.74 1075.13 606.14Z" />
							<path id="Path_4236" class="shp15" d="M1084.93 604.34C1083.83 604.54 1082.93 602.74 1082.63 600.24C1082.03 595.04 1080.83 589.94 1079.03 585.04C1078.13 582.54 1078.23 580.44 1079.33 580.24C1080.53 580.14 1082.33 581.94 1083.13 584.44C1084.83 589.34 1085.93 594.34 1086.53 599.44C1086.73 601.94 1085.93 604.04 1084.93 604.34Z" />
							<path id="Path_4237" class="shp15" d="M1095.03 603.84C1093.93 603.94 1092.83 602.04 1092.43 599.44C1091.53 594.04 1090.13 588.84 1088.23 583.74C1087.23 581.14 1087.23 579.04 1088.43 578.94C1089.63 578.84 1091.53 580.94 1092.53 583.44C1094.43 588.44 1095.73 593.64 1096.53 598.94C1096.93 601.54 1096.23 603.74 1095.03 603.84Z" />
						</g>
					</g>
					<path id="Path_4238" class="shp8" d="M1121.49 564.39C1121.49 564.39 1361.39 465.79 1375.09 465.59C1421.39 465.19 1410.79 512.09 1387.29 534.09C1359.59 560.09 1148.99 607.69 1148.99 607.69L1121.49 564.39Z" />
					<g id="Group_2970">
						<path id="Path_4239" class="shp6" d="M1216.59 581.52L1151.09 519.42L1178.99 491.82L1250.49 567.02L1216.59 581.52Z" />
						<path id="Path_4240" class="shp9" d="M1230.19 532.72C1230.19 532.72 1063.49 379.92 1052.29 375.42C1014.29 360.02 990.69 402.02 991.99 416.52C993.69 435.32 1163.09 588.32 1163.09 588.32L1230.19 532.72Z" />
						<g id="Group_2969">
							<path id="Path_4241" class="shp9" d="M1328.99 586.39C1332.89 589.99 1333.59 600.59 1333.59 600.59C1333.59 600.59 1277.99 621.59 1258.39 621.99C1253.29 622.09 1244.19 620.09 1235.49 617.59C1233.99 617.19 1230.59 613.39 1229.19 612.99C1226.49 612.19 1225.89 614.79 1223.59 614.09C1217.69 612.19 1213.39 610.59 1213.29 610.29C1201.59 585.29 1205.49 572.99 1205.49 572.99C1205.49 572.99 1231.09 580.29 1226.69 574.59C1217.29 562.39 1244.09 549.79 1250.09 556.39C1273.89 582.39 1317.69 575.89 1328.99 586.39Z" />
							<path id="Path_4242" class="shp15" d="M1332.09 591.59C1314.99 598.39 1279.09 612.39 1271.89 612.89C1242.59 614.99 1222.19 604.59 1208.49 598.49C1209.89 602.49 1211.49 606.49 1213.29 610.29C1213.49 610.59 1217.69 612.19 1223.59 614.09C1225.89 614.79 1226.49 612.19 1229.19 612.99C1230.59 613.39 1233.99 617.19 1235.49 617.59C1244.19 619.99 1253.39 622.09 1258.39 621.99C1277.89 621.59 1333.59 600.59 1333.59 600.59C1333.39 597.49 1332.89 594.49 1332.09 591.59Z" />
							<g id="Group_2968">
								<path id="Path_4243" class="shp15" d="M1292.75 575.34C1293.25 576.34 1291.05 577.44 1287.95 578.14C1281.55 579.44 1275.25 581.34 1269.15 583.84C1266.15 585.04 1263.35 585.34 1262.95 584.34C1262.55 583.24 1264.65 581.24 1267.65 580.04C1273.65 577.64 1279.85 575.84 1286.25 574.54C1289.25 573.94 1292.25 574.34 1292.75 575.34Z" />
								<path id="Path_4244" class="shp15" d="M1280.25 570.94C1280.75 571.94 1278.55 573.34 1275.55 574.24C1269.25 576.04 1263.25 578.44 1257.45 581.34C1254.55 582.84 1251.85 583.24 1251.45 582.14C1251.05 581.04 1253.05 578.84 1255.95 577.34C1261.75 574.54 1267.75 572.14 1273.95 570.44C1276.95 569.64 1279.75 569.94 1280.25 570.94Z" />
								<path id="Path_4245" class="shp15" d="M1268.25 567.04C1268.75 568.04 1266.65 569.64 1263.65 570.84C1257.55 573.14 1251.75 576.04 1246.15 579.34C1243.35 581.04 1240.75 581.64 1240.45 580.44C1240.05 579.34 1242.05 576.84 1244.75 575.24C1250.25 571.94 1256.05 569.24 1262.15 566.94C1265.05 565.84 1267.85 566.04 1268.25 567.04Z" />
							</g>
						</g>
					</g>
				</g>
			</g>
		</g>
		<g id="Layer">
			<g id="Group_2775">
				<g id="Group_2772">
					<path id="Path_4046" class="shp2" d="M97.73 680.67L95.44 680.13C140.06 490.38 220.35 411.27 221.06 410.49L222.73 412.22C221.92 413 142.14 491.62 97.73 680.67Z" />
				</g>
				<g id="Group_2773">
					<path id="Path_4047" class="shp2" d="M84.47 660.48L82.07 660.43C84.54 547.96 135.28 448.33 135.8 447.34L137.88 448.38C137.46 449.47 86.92 548.6 84.47 660.48Z" />
				</g>
				<g id="Group_2774">
					<path id="Path_4048" class="shp2" d="M127.36 668.51L124.96 668.47C126.41 614.39 147.13 578.94 164.28 558.74C182.97 536.86 201.63 527.59 201.84 527.49L202.9 529.61C202.09 530 130.04 566.44 127.36 668.51Z" />
				</g>
				<path id="Path_4049" class="shp2" d="M231.51 395.86C247.54 405.84 257.31 419.11 253.3 425.64C249.28 432.17 233.03 429.39 216.9 419.4C200.87 409.52 191.1 396.15 195.12 389.62C199.13 383.09 215.48 385.87 231.51 395.86Z" />
				<path id="Path_4050" class="shp16" d="M226.47 403.87C231.62 407.06 234.64 411.21 233.41 413.29C232.17 415.37 226.99 414.48 221.84 411.29C216.8 408.1 213.67 403.95 214.9 401.87C216.14 399.79 221.43 400.68 226.47 403.87Z" />
				<path id="Path_4051" class="shp2" d="M140.9 441.48C147.63 445.6 151.63 451.17 149.99 453.84C148.34 456.51 141.56 455.4 134.83 451.28C128.1 447.16 124.1 441.59 125.74 438.92C127.49 436.15 134.27 437.27 140.9 441.48Z" />
				<path id="Path_4052" class="shp16" d="M138.84 444.75C140.92 446.08 142.29 447.81 141.78 448.7C141.26 449.59 139.07 449.15 136.99 447.91C134.91 446.58 133.54 444.85 134.06 443.96C134.57 443.07 136.77 443.51 138.84 444.75Z" />
				<path id="Path_4053" class="shp2" d="M207.78 523.46C214.75 530.88 217.91 539.14 214.86 541.99C211.91 544.84 203.77 541.09 196.9 533.67C189.93 526.25 186.77 517.99 189.82 515.15C192.77 512.4 200.81 516.04 207.78 523.46Z" />
				<path id="Path_4054" class="shp16" d="M204.02 527C206.18 529.33 207.23 531.95 206.32 532.84C205.4 533.72 202.82 532.58 200.56 530.24C198.4 527.9 197.35 525.28 198.26 524.4C199.18 523.51 201.86 524.56 204.02 527Z" />
			</g>
			<path id="Layer" class="shp2" d="M0 695C0 695 202.6 763.4 289.6 708.5C299.9 702 289.5 687.7 266.9 681.5C242.2 674.7 218.2 677.2 198.2 683C246.2 651.5 302.6 606.8 253.7 598.7C238.4 596.2 214.2 606.2 187.1 622.4C218.3 587.9 235.9 559.1 218.5 552.7C202.3 546.7 167.2 574.3 129.4 611.3C151.5 579.8 164.8 551.9 156.3 538C149.4 526.7 132.8 538.4 113.3 560.7C115.2 540.3 110.1 527.6 97 529.4C84.7 531.1 73.5 554.3 65 582.4C56.2 540.8 29.4 513.4 0.1 519.1" />
		</g>
	</g>
</svg>