<?xml version="1.0" encoding="utf-8"?>
<!-- Generator: Adobe Illustrator 20.1.0, SVG Export Plug-In . SVG Version: 6.00 Build 0)  -->
<svg version="1.1" id="Layer_1" xmlns="http://www.w3.org/2000/svg" xmlns:xlink="http://www.w3.org/1999/xlink" x="0px" y="0px"
	 viewBox="0 0 66 66" style="enable-background:new 0 0 66 66;" xml:space="preserve">
<style type="text/css">
	.st0{display:none;}
	.st1{display:inline;}
	.st2{fill:#9FD479;}
	.st3{fill:#581998;}
	.st4{fill:#F8B64C;}
	.st5{fill:#FF2B5C;}
	.st6{fill:#11CDE1;}
	.st7{fill:#FFC084;}
	.st8{fill:#13BDE1;}
	.st9{fill:#F2F2F2;}
	.st10{fill:#BBFCFF;}
</style>
<g class="st0">
	<g class="st1">
		<path class="st2" d="M40,23.4c-2.2,0-4.1-1.1-5.2-2.8c-0.4-0.6-1.1-1-1.9-1.1V33H19.4c0.1-0.7,0.5-1.4,1.1-1.8
			c1.7-1.1,2.8-3,2.8-5.2c0-3.5-3-6.4-6.5-6.1c-3.1,0.2-5.6,2.7-5.7,5.8c-0.1,2.3,1,4.4,2.8,5.5c0.6,0.4,1,1.1,1.1,1.8H1.2V9.6
			C1.2,5,5,1.2,9.6,1.2H33V15c0.7-0.1,1.4-0.5,1.8-1.1c1.1-1.8,3.2-3,5.5-2.8c3.1,0.2,5.6,2.7,5.8,5.7C46.4,20.4,43.5,23.4,40,23.4z
			"/>
		<path class="st3" d="M34.2,34.2H18l0.2-1.4c0.2-1.1,0.8-2,1.7-2.6c1.4-0.9,2.3-2.5,2.3-4.1c0-1.4-0.6-2.6-1.6-3.6
			c-1-0.9-2.3-1.4-3.7-1.3c-2.4,0.2-4.5,2.2-4.6,4.6c-0.1,1.8,0.8,3.5,2.3,4.4c0.9,0.6,1.5,1.5,1.7,2.6l0.2,1.4H0V9.6
			C0,4.3,4.3,0,9.6,0h24.7v12.7c1.5-1.9,3.8-3,6.2-2.8c3.7,0.2,6.7,3.2,6.9,6.9c0.1,2.1-0.6,4-2,5.5C44,23.7,42,24.6,40,24.6
			c-2.3,0-4.4-1-5.8-2.8V34.2z M21.8,31.8h10V18.1l1.3,0.1c1.1,0.1,2.1,0.7,2.8,1.7c0.9,1.4,2.5,2.3,4.1,2.3c1.4,0,2.6-0.6,3.6-1.6
			c0.9-1,1.4-2.3,1.3-3.7c-0.2-2.4-2.2-4.5-4.6-4.6c-1.8-0.1-3.5,0.8-4.4,2.3c-0.6,0.9-1.6,1.6-2.7,1.7l-1.3,0.1v-14H9.6
			c-3.9,0-7.1,3.2-7.1,7.1v22.2h10.1c-1.8-1.5-2.9-3.8-2.7-6.1c0.2-3.7,3.2-6.7,6.9-6.9c2.1-0.1,4,0.6,5.5,2
			c1.5,1.4,2.3,3.3,2.3,5.4C24.5,28.3,23.5,30.4,21.8,31.8z"/>
	</g>
	<g class="st1">
		<path class="st4" d="M64.8,33H51c0.1,0.8,0.5,1.5,1.1,1.9c1.8,1.1,3,3.2,2.8,5.5c-0.2,3.1-2.7,5.6-5.7,5.8
			c-3.6,0.2-6.5-2.6-6.5-6.1c0-2.2,1.1-4.1,2.8-5.2c0.7-0.4,1.1-1.2,1.1-1.9H33V19.4c0.8,0.1,1.4,0.5,1.9,1.1c1.1,1.7,3,2.8,5.2,2.8
			c3.5,0,6.4-3,6.1-6.5c-0.2-3.1-2.7-5.6-5.8-5.7c-2.3-0.1-4.4,1-5.5,2.8c-0.4,0.6-1.1,1-1.8,1.1V1.2h23.4c4.6,0,8.3,3.7,8.3,8.3
			L64.8,33L64.8,33z"/>
		<path class="st3" d="M48.8,47.5c-1.9,0-3.7-0.7-5-2c-1.5-1.4-2.3-3.3-2.3-5.4c0-2.3,1.1-4.5,2.9-5.9H31.8V18.1l1.3,0.1
			c1.1,0.1,2.1,0.7,2.8,1.7c0.9,1.4,2.5,2.3,4.1,2.3c1.4,0,2.6-0.6,3.6-1.6s1.4-2.3,1.3-3.7c-0.2-2.4-2.2-4.5-4.6-4.6
			c-1.8-0.1-3.5,0.8-4.4,2.3c-0.6,0.9-1.6,1.6-2.7,1.7l-1.3,0.1V0h24.7C61.7,0,66,4.3,66,9.6v24.7H53.3c2,1.5,3.1,3.8,2.9,6.3
			c-0.2,3.7-3.2,6.7-6.9,6.9C49.2,47.5,49,47.5,48.8,47.5z M34.2,31.8H48l-0.1,1.3c-0.1,1.2-0.7,2.2-1.7,2.9
			c-1.4,0.9-2.3,2.5-2.3,4.1c0,1.4,0.6,2.7,1.6,3.6c1,0.9,2.3,1.4,3.7,1.3c2.4-0.2,4.5-2.2,4.6-4.6c0.1-1.8-0.8-3.5-2.3-4.4
			c-1-0.6-1.6-1.7-1.7-2.9l-0.1-1.3h13.8V9.6c0-3.9-3.2-7.1-7.1-7.1H34.2v10.3c1.5-1.9,3.8-3,6.2-2.8c3.7,0.2,6.7,3.2,6.9,6.9
			c0.1,2.1-0.6,4-2,5.5C44,23.7,42,24.6,40,24.6c-2.3,0-4.4-1.1-5.8-2.8V31.8z"/>
	</g>
	<g class="st1">
		<path class="st5" d="M64.8,33v23.4c0,4.6-3.7,8.3-8.3,8.3H33V51.1c-0.7,0.1-1.4,0.5-1.8,1.1c-1.1,1.8-3.2,3-5.5,2.8
			c-3.1-0.2-5.6-2.7-5.8-5.7c-0.2-3.6,2.6-6.5,6.1-6.5c2.2,0,4.1,1.1,5.2,2.8c0.4,0.6,1.1,1,1.9,1.1V33h13.7
			c-0.1,0.8-0.5,1.5-1.1,1.9c-1.7,1.1-2.8,3-2.8,5.2c0,3.5,3,6.4,6.5,6.1c3.1-0.2,5.6-2.7,5.7-5.8c0.1-2.3-1-4.4-2.8-5.5
			c-0.7-0.4-1.1-1.1-1.1-1.9L64.8,33L64.8,33z"/>
		<path class="st3" d="M56.4,66H31.8V53.5c-1.5,1.9-3.8,3-6.2,2.8c-3.7-0.2-6.7-3.2-6.9-6.9c-0.1-2.1,0.6-4,2-5.5
			c1.4-1.5,3.3-2.3,5.4-2.3c2.3,0,4.4,1,5.8,2.8V31.8H48l-0.1,1.3c-0.1,1.2-0.7,2.2-1.7,2.9c-1.4,0.9-2.3,2.5-2.3,4.1
			c0,1.4,0.6,2.7,1.6,3.6c1,0.9,2.3,1.4,3.7,1.3c2.4-0.2,4.5-2.2,4.6-4.6c0.1-1.8-0.8-3.5-2.3-4.4c-1-0.6-1.6-1.7-1.7-2.9l-0.1-1.3
			H66v24.7C66,61.7,61.7,66,56.4,66z M34.2,63.6h22.2c3.9,0,7.1-3.2,7.1-7.1V34.2H53.3c2,1.5,3.1,3.8,2.9,6.3
			c-0.2,3.7-3.2,6.7-6.9,6.9c-2.1,0.1-4-0.6-5.5-2c-1.5-1.4-2.3-3.3-2.3-5.4c0-2.3,1.1-4.5,2.9-5.9H34.2v13.9l-1.3-0.1
			c-1.1-0.1-2.1-0.7-2.8-1.7C29.2,44.9,27.7,44,26,44c-1.4,0-2.6,0.6-3.6,1.6c-0.9,1-1.4,2.3-1.3,3.7c0.2,2.4,2.2,4.5,4.6,4.6
			c1.8,0.1,3.5-0.8,4.4-2.3c0.6-0.9,1.6-1.6,2.7-1.7l1.3-0.1V63.6z"/>
	</g>
	<g class="st1">
		<path class="st6" d="M19.8,49.3c0.2,3.1,2.7,5.6,5.8,5.7c2.3,0.1,4.4-1,5.5-2.8c0.4-0.6,1.1-1,1.8-1.1v13.7H9.6
			c-4.6,0-8.3-3.7-8.3-8.3V33h13.7c-0.1-0.7-0.5-1.4-1.1-1.8c-1.8-1.1-3-3.2-2.8-5.5c0.2-3.1,2.7-5.6,5.7-5.8
			c3.6-0.2,6.5,2.6,6.5,6.1c0,2.2-1.1,4.1-2.8,5.2c-0.6,0.4-1,1.1-1.1,1.8H33v13.7c-0.8-0.1-1.4-0.5-1.9-1.1c-1.1-1.7-3-2.8-5.2-2.8
			C22.5,42.8,19.6,45.8,19.8,49.3z"/>
		<path class="st3" d="M34.2,66H9.6C4.3,66,0,61.7,0,56.4V31.8h12.5c-1.8-1.5-2.9-3.8-2.7-6.1c0.2-3.7,3.2-6.7,6.9-6.9
			c2.1-0.1,4,0.6,5.5,2c1.5,1.4,2.3,3.3,2.3,5.4c0,2.2-1,4.3-2.7,5.7h12.4v16.3L32.9,48c-1.1-0.1-2.1-0.7-2.8-1.7
			C29.2,44.9,27.7,44,26,44h0c-1.4,0-2.6,0.6-3.6,1.6c-0.9,1-1.4,2.3-1.3,3.7c0.2,2.4,2.2,4.5,4.6,4.6c1.8,0.1,3.5-0.8,4.4-2.3
			c0.6-0.9,1.6-1.6,2.7-1.7l1.3-0.1V66z M2.4,34.2v22.2c0,3.9,3.2,7.1,7.1,7.1h22.2V53.5c-1.5,1.9-3.8,3-6.2,2.8
			c-3.7-0.2-6.7-3.2-6.9-6.9v0c-0.1-2.1,0.6-4,2-5.5c1.4-1.5,3.3-2.3,5.4-2.3c0,0,0,0,0,0c2.3,0,4.4,1,5.8,2.8V34.2H18l0.2-1.4
			c0.2-1.1,0.8-2,1.7-2.6c1.4-0.9,2.3-2.5,2.3-4.1c0-1.4-0.6-2.6-1.6-3.6c-1-0.9-2.3-1.4-3.7-1.3c-2.4,0.2-4.5,2.2-4.6,4.6
			c-0.1,1.8,0.8,3.5,2.3,4.4c0.9,0.6,1.5,1.5,1.7,2.6l0.2,1.4H2.4z"/>
	</g>
</g>
<g class="st0">
	<g class="st1">
		<path class="st7" d="M18,40.2c0,3.1-2.5,5.6-5.6,5.6c-3.1,0-5.6-2.5-5.6-5.6c0-3.1,2.5-5.6,5.6-5.6C15.5,34.5,18,37.1,18,40.2z"/>
		<path class="st3" d="M12.4,47.1c-3.8,0-7-3.1-7-7c0-3.8,3.1-7,7-7c3.8,0,7,3.1,7,7C19.4,44,16.3,47.1,12.4,47.1z M12.4,35.9
			c-2.4,0-4.3,1.9-4.3,4.3c0,2.4,1.9,4.3,4.3,4.3c2.4,0,4.3-1.9,4.3-4.3C16.7,37.8,14.8,35.9,12.4,35.9z"/>
	</g>
	<g class="st1">
		<path class="st7" d="M1.3,52.1v9.2c0,0,0.1,1.2,1.3,1.2c1.2,0,20.1,0,20.1,0s1,0,1-1c0-1,0-9.4,0-9.4s-0.8-2-4.8-4.7
			c-3.3-2.3-9.8-2.1-12.7,0C1.7,50.7,1.3,51.2,1.3,52.1z"/>
		<path class="st3" d="M22.8,63.9H2.7c-1.8,0-2.6-1.4-2.7-2.4l0-0.2v-9.2c0-1.8,1-2.5,5.4-5.8c3.5-2.6,10.6-2.6,14.3,0
			c4.2,2.9,5.2,5.1,5.3,5.3l0.1,0.3v9.7C25.1,63,23.9,63.8,22.8,63.9L22.8,63.9z M2.7,61.2l19.7,0v-8.7c-0.3-0.5-1.4-2-4.2-4
			c-2.9-2-8.8-1.7-11.1,0c-1.6,1.2-4.1,3-4.3,3.5l0,0c0,0,0,0,0,0.1V61.2z"/>
	</g>
	<g class="st1">
		<path class="st7" d="M58.9,40.2c0,3.1-2.5,5.6-5.6,5.6c-3.1,0-5.6-2.5-5.6-5.6c0-3.1,2.5-5.6,5.6-5.6
			C56.4,34.5,58.9,37.1,58.9,40.2z"/>
		<path class="st3" d="M53.3,47.1c-3.8,0-7-3.1-7-7c0-3.8,3.1-7,7-7c3.8,0,7,3.1,7,7C60.3,44,57.2,47.1,53.3,47.1z M53.3,35.9
			c-2.4,0-4.3,1.9-4.3,4.3c0,2.4,1.9,4.3,4.3,4.3c2.4,0,4.3-1.9,4.3-4.3C57.6,37.8,55.7,35.9,53.3,35.9z"/>
	</g>
	<g class="st1">
		<path class="st7" d="M42.2,52.1v9.2c0,0,0.1,1.2,1.3,1.2c1.2,0,20.1,0,20.1,0s1,0,1-1c0-1,0-9.4,0-9.4s-0.8-2-4.8-4.7
			c-3.3-2.3-9.8-2.1-12.7,0C42.6,50.7,42.2,51.2,42.2,52.1z"/>
		<path class="st3" d="M63.7,63.9H43.6c-1.8,0-2.6-1.4-2.7-2.4l0-0.2v-9.2c0-1.8,1-2.5,5.4-5.8c3.5-2.6,10.6-2.6,14.3,0
			c4.2,2.9,5.2,5.1,5.3,5.3l0.1,0.3v9.7C66,63,64.8,63.8,63.7,63.9L63.7,63.9z M43.6,61.2l19.7,0v-8.7c-0.3-0.5-1.4-2-4.2-4
			c-2.9-2-8.8-1.7-11.1,0c-1.6,1.2-4.1,3-4.3,3.5l0,0c0,0,0,0,0,0.1V61.2z"/>
	</g>
	<g class="st1">
		<path class="st5" d="M48,6.4c0,0-2,0-5.1,0c0.8,1.4,0.7,3.1,0.7,3.1s0,7.4,0,12.1c0,3.1-2.1,5.5-2.9,6.1c0,0,2.2,2.5,4.3,4.1
			c2,1.6,2.2-0.3,2.2-0.3V27c3.9,0,5.6-5.3,5.6-5.3s0-6.5,0-10.1C52.8,8,48,6.4,48,6.4z"/>
		<path class="st3" d="M46.3,33.5c-0.6,0-1.3-0.3-2.1-0.9c-2.1-1.6-4.3-4.2-4.4-4.3L39,27.4l0.9-0.7c0.7-0.5,2.5-2.5,2.5-5.2V9.5
			c0,0,0-1.5-0.6-2.5l-1-1.7h7.2l0.2,0.1c0.2,0.1,5.6,2,5.6,6.3v10.2L53.9,22c-0.1,0.2-1.7,5.1-5.6,6l0,3.5
			c-0.1,0.6-0.4,1.5-1.2,1.8C46.8,33.4,46.6,33.5,46.3,33.5z M42.2,27.6c0.8,0.9,2.1,2.2,3.4,3.2c0.2,0.1,0.3,0.2,0.4,0.3v-5.3h1.1
			c2.7,0,4.2-3.6,4.5-4.4v-9.9c0-2.4-3.2-3.8-4-4.1h-3.3c0.2,1,0.2,1.9,0.2,2l0,12C44.7,24.2,43.4,26.4,42.2,27.6z"/>
	</g>
	<g class="st1">
		<path class="st8" d="M34.4,3.2c-4.1,0-15.2,0-15.2,0s-5.5,1.9-5.5,5.9c0,4,0,11.3,0,11.3s1.9,6,6.3,6v5c0,0,0.2,2.2,2.5,0.4
			c2.3-1.8,5-5,5-5h7c0,0,5.3-1.1,5.3-5.7s0-12.1,0-12.1S38.4,3.2,34.4,3.2z M32.7,11.8l-6.2,5.5c-0.3,0.3-0.7,0.4-1.1,0.4
			c-0.4,0-0.8-0.1-1.2-0.4L21.8,15c-0.7-0.6-0.8-1.7-0.1-2.4c0.6-0.7,1.7-0.8,2.4-0.1l1.3,1.2l5-4.4c0.7-0.6,1.8-0.6,2.4,0.1
			C33.5,10.1,33.4,11.1,32.7,11.8z"/>
		<path class="st3" d="M21,33.5c-0.3,0-0.5-0.1-0.8-0.2c-0.9-0.4-1.2-1.3-1.3-1.9l0-0.1v-3.9c-4.3-0.8-6.2-6.4-6.3-6.6l-0.1-0.2V9.1
			c0-4.8,6-6.9,6.2-6.9L19,2.1h15.4c4.9,0,6.5,6.2,6.6,6.4l0,0.1v12.2c0,4.4-4.1,6.4-6.2,6.8l-0.2,0h-6.5c-0.8,0.9-2.9,3.3-4.8,4.8
			C22.4,33.2,21.6,33.5,21,33.5z M14.8,20.2c0.3,0.9,2,5,5.2,5h1.1v6c0.1-0.1,0.4-0.2,0.7-0.4c2.2-1.7,4.8-4.8,4.9-4.9l0.3-0.4h7.4
			c0.7-0.2,4.3-1.2,4.3-4.6V9c-0.2-0.7-1.5-4.6-4.4-4.6h-15c-0.8,0.3-4.5,1.9-4.5,4.8V20.2z M25.4,18.8c-0.7,0-1.4-0.3-1.9-0.7
			L21,15.9c-0.6-0.5-0.9-1.2-0.9-2c0-0.8,0.2-1.5,0.7-2.1c1-1.2,2.8-1.3,4-0.2l0.6,0.5l4.3-3.8c1.2-1,3-0.9,4,0.2c1,1.2,0.9,3-0.2,4
			l0,0l-6.2,5.5C26.7,18.5,26.1,18.8,25.4,18.8z M22.9,13.1c-0.2,0-0.3,0.1-0.4,0.2c-0.1,0.1-0.2,0.3-0.2,0.4c0,0.2,0.1,0.3,0.2,0.4
			l2.4,2.2c0.2,0.2,0.6,0.2,0.8,0l6.2-5.5c0.2-0.2,0.3-0.6,0.1-0.8c-0.2-0.2-0.6-0.3-0.8-0.1l-5.8,5.1l-2-1.8
			C23.2,13.2,23.1,13.1,22.9,13.1z"/>
	</g>
</g>
<g>
	<g>
		<path class="st4" d="M6.5,54.8l-0.1,4.9l4.9-0.1c7.9-0.3,14.5-6.7,14.6-14.6L26,40l-4.9,0.1C13.2,40.3,6.7,46.9,6.5,54.8z"/>
		<path class="st3" d="M5,61l0.2-6.3c0.3-8.6,7.4-15.8,15.9-15.9l6.3-0.2l-0.2,6.3c-0.1,8.5-7.3,15.6-15.9,15.9L5,61z M7.8,54.8
			l-0.1,3.5l3.5-0.1C18.4,58,24.4,52,24.6,44.9l0.1-3.5l-3.5,0.1C14,41.6,8,47.6,7.8,54.8z"/>
	</g>
	<g>
		<path class="st5" d="M9,20.6c4.1-4.2,9.4-6.6,14.8-7.4c7.7-1.1,15.8,1.5,21.8,7.4c5.9,5.9,8.4,14,7.4,21.8
			c-0.8,5.4-3.2,10.6-7.4,14.8c-5.3,5.3-12.4,7.8-19.3,7.5c1.1-0.7,2.2-1.6,3.2-2.5c2.4-2.4,4-5.4,4.7-8.4
			c1.5-5.9-0.1-12.5-4.7-17.1s-11.2-6.2-17.1-4.7c-3.2,0.8-6.1,2.4-8.4,4.7c-0.9,0.9-1.8,2-2.5,3.2C1.1,32.9,3.6,25.7,9,20.6z"/>
		<path class="st3" d="M27.3,66c-0.3,0-0.7,0-1,0l-4.3-0.2l3.6-2.3c1-0.6,2.1-1.5,2.9-2.3c2.1-2.1,3.6-4.8,4.4-7.8
			c1.4-5.7-0.3-11.8-4.4-15.9c-4.1-4.1-10.2-5.8-15.9-4.4c-3,0.8-5.7,2.2-7.8,4.4c-1.1,1.1-1.8,2-2.3,2.9l-2.3,4.1L0,39.8
			c-0.3-7.6,2.6-15,8-20.1c4.1-4.2,9.4-6.9,15.5-7.8c8.3-1.1,16.9,1.8,22.9,7.8c6.1,6.1,8.9,14.4,7.8,22.9c-0.9,6-3.6,11.3-7.8,15.5
			C41.4,63.1,34.4,66,27.3,66z M16.6,30c5.1,0,10.1,2,13.8,5.7c4.8,4.8,6.7,11.8,5.1,18.4c-0.9,3.5-2.7,6.7-5.1,9.1
			c0,0-0.1,0.1-0.1,0.1c5.4-0.7,10.5-3.1,14.3-7c3.8-3.8,6.2-8.7,7-14c1-7.6-1.5-15.2-7-20.6c-5.4-5.4-13.1-8-20.7-7
			c-5.5,0.8-10.4,3.2-14,7l0,0C6,25.3,3.5,30.3,2.8,35.7c0,0,0.1-0.1,0.1-0.1c2.5-2.5,5.6-4.2,9.1-5.1C13.5,30.2,15.1,30,16.6,30z"
			/>
	</g>
	<g>
		<path class="st9" d="M26.1,53.3c22.6-3.7,39.2-23.1,38.5-47.1l-0.1-4.7l-4.7-0.1c-24-0.7-43.4,16-47.1,38.5L26.1,53.3z"/>
		<path class="st3" d="M25.7,54.7L11.3,40.3l0.1-0.7C15.3,16,35.6-0.6,59.8,0l6,0.2l0.2,6c0.7,24.2-16,44.6-39.6,48.4L25.7,54.7z
			 M14.1,39.4l12.5,12.5c22-3.9,37.4-23,36.8-45.6l-0.1-3.5l-3.5-0.1C37.1,2,18,17.5,14.1,39.4z"/>
	</g>
	<g>
		<path class="st6" d="M62.6,21.9C64,17,64.8,11.8,64.7,6.2l-0.1-4.7l-4.7-0.1C54.2,1.2,49,2,44.1,3.4L62.6,21.9z"/>
		<path class="st3" d="M63.2,24.4L41.6,2.8l2.1-0.6C49,0.6,54.4-0.1,59.8,0l6,0.2l0.2,6c0.1,5.4-0.6,10.8-2.2,16.1L63.2,24.4z
			 M46.6,4.1l15.3,15.3c1.1-4.3,1.6-8.7,1.5-13.1l-0.1-3.5l-3.5-0.1C55.3,2.6,50.9,3,46.6,4.1z"/>
	</g>
	<g>
		<path class="st6" d="M15.7,29.7c-1.3,3.3-2.4,6.7-2.9,10.3l0,0c-0.3,1.3-0.4,2.6-0.5,4.1l9.8,9.8c1.3-0.1,2.8-0.3,4.1-0.5l0,0
			c3.6-0.7,7-1.6,10.3-2.9L15.7,29.7z"/>
		<path class="st3" d="M21.6,55.2L10.9,44.6L11,44c0.1-1.5,0.3-2.8,0.5-4.2c0.5-3.3,1.5-6.8,3-10.6l0.7-1.9l23.5,23.5l-1.9,0.7
			c-3.2,1.3-6.6,2.3-10.5,3c-1.3,0.3-2.6,0.4-3.9,0.5L21.6,55.2z M13.7,43.6l8.9,8.9c1.1-0.1,2.3-0.2,3.3-0.4c3-0.6,5.7-1.2,8.2-2.1
			L16.2,32.1c-1,2.9-1.7,5.5-2.1,8.1l0,0.1C13.9,41.3,13.8,42.4,13.7,43.6z"/>
	</g>
	<g>
		<ellipse class="st10" cx="42.6" cy="23.4" rx="10.2" ry="10.2"/>
		<path class="st3" d="M42.6,34.9c-6.3,0-11.5-5.1-11.5-11.5s5.1-11.5,11.5-11.5s11.5,5.1,11.5,11.5S49,34.9,42.6,34.9z M42.6,14.6
			c-4.9,0-8.8,4-8.8,8.8s4,8.8,8.8,8.8s8.8-4,8.8-8.8S47.5,14.6,42.6,14.6z"/>
	</g>
</g>
<g class="st0">
	<g class="st1">
		<path class="st3" d="M61,6.4c-0.4-0.4-1.1-0.4-1.5,0c-0.4,0.4-0.4,1.1,0,1.5c3.9,3.9,3.9,10.3,0,14.3c-0.4,0.4-0.4,1.1,0,1.5
			c0.2,0.2,0.5,0.3,0.7,0.3c0.3,0,0.5-0.1,0.7-0.3C65.7,18.8,65.7,11.1,61,6.4z"/>
		<path class="st3" d="M60.3,24c-0.3,0-0.6-0.1-0.8-0.3c-0.5-0.5-0.5-1.2,0-1.7c3.9-3.9,3.9-10.2,0-14.1c-0.5-0.5-0.5-1.2,0-1.7
			c0.4-0.4,1.2-0.4,1.7,0l0,0l0,0c2.3,2.3,3.6,5.4,3.6,8.7s-1.3,6.4-3.6,8.7C60.9,23.9,60.6,24,60.3,24z M60.3,6.2
			c-0.2,0-0.5,0.1-0.7,0.3c-0.4,0.4-0.4,1,0,1.3c4,4,4,10.4,0,14.4c-0.4,0.4-0.4,1,0,1.3c0.4,0.4,1,0.4,1.3,0
			c2.3-2.3,3.5-5.3,3.5-8.5s-1.3-6.3-3.5-8.5l0,0C60.7,6.3,60.5,6.2,60.3,6.2z"/>
	</g>
	<g class="st1">
		<path class="st3" d="M56.6,8.8c-0.4-0.4-1.1-0.4-1.5,0c-0.4,0.4-0.4,1.1,0,1.5c1.3,1.3,2,3,2,4.9c0,1.8-0.7,3.6-2,4.9
			c-0.4,0.4-0.4,1.1,0,1.5c0.2,0.2,0.5,0.3,0.7,0.3s0.5-0.1,0.7-0.3c1.7-1.7,2.6-4,2.6-6.4S58.3,10.5,56.6,8.8z"/>
		<path class="st3" d="M55.8,21.9c-0.3,0-0.6-0.1-0.8-0.3c-0.5-0.5-0.5-1.2,0-1.7c1.3-1.3,2-3,2-4.8c0-1.8-0.7-3.5-2-4.8
			c-0.5-0.5-0.5-1.2,0-1.7c0.4-0.4,1.2-0.4,1.7,0c1.7,1.7,2.7,4,2.7,6.5c0,2.4-0.9,4.7-2.7,6.5C56.4,21.8,56.1,21.9,55.8,21.9z
			 M55.8,8.6c-0.2,0-0.5,0.1-0.7,0.3c-0.4,0.4-0.4,1,0,1.3c1.3,1.3,2.1,3.1,2.1,5c0,1.9-0.7,3.6-2.1,5c-0.4,0.4-0.4,1,0,1.3
			c0.4,0.4,1,0.4,1.3,0c1.7-1.7,2.6-3.9,2.6-6.3c0-2.4-0.9-4.6-2.6-6.3l0,0C56.3,8.7,56.1,8.6,55.8,8.6z"/>
	</g>
	<g class="st1">
		<path class="st3" d="M6.5,7.8c0.4-0.4,0.4-1.1,0-1.5S5.4,6,5,6.4c-4.8,4.8-4.8,12.5,0,17.2c0.2,0.2,0.5,0.3,0.7,0.3
			s0.5-0.1,0.7-0.3c0.4-0.4,0.4-1.1,0-1.5C2.6,18.2,2.6,11.8,6.5,7.8z"/>
		<path class="st3" d="M5.7,24c-0.3,0-0.6-0.1-0.8-0.3c-4.8-4.8-4.8-12.6,0-17.4c0.5-0.5,1.2-0.5,1.7,0C7,6.7,7,7.5,6.6,7.9l0,0
			c-1.9,1.9-2.9,4.4-2.9,7s1,5.2,2.9,7c0.5,0.5,0.5,1.2,0,1.7C6.4,23.9,6.1,24,5.7,24z M5.7,6.2c-0.2,0-0.5,0.1-0.7,0.3
			c-4.7,4.7-4.7,12.4,0,17.1c0.4,0.4,1,0.4,1.3,0c0.4-0.4,0.4-1,0-1.3c-1.9-1.9-3-4.5-3-7.2s1.1-5.3,3-7.2l0,0c0.4-0.4,0.4-1,0-1.3
			C6.2,6.3,6,6.2,5.7,6.2z"/>
	</g>
	<g class="st1">
		<path class="st3" d="M10.9,8.5c-0.4-0.4-1.1-0.4-1.5,0c-1.7,1.7-2.6,4-2.6,6.4s0.9,4.7,2.6,6.4c0.2,0.2,0.5,0.3,0.7,0.3
			c0.3,0,0.5-0.1,0.7-0.3c0.4-0.4,0.4-1.1,0-1.5c-1.3-1.3-2-3-2-4.9s0.7-3.6,2-4.9C11.3,9.5,11.3,8.9,10.9,8.5z"/>
		<path class="st3" d="M10.2,21.6c-0.3,0-0.6-0.1-0.8-0.3c-1.7-1.7-2.7-4-2.7-6.5c0-2.4,0.9-4.7,2.7-6.5c0.5-0.5,1.2-0.5,1.7,0l0,0
			c0.5,0.5,0.5,1.2,0,1.7c-1.3,1.3-2,3-2,4.8c0,1.8,0.7,3.5,2,4.8c0.5,0.5,0.5,1.2,0,1.7C10.8,21.5,10.5,21.6,10.2,21.6z M10.2,8.3
			c-0.2,0-0.5,0.1-0.7,0.3c-1.7,1.7-2.6,3.9-2.6,6.3c0,2.4,0.9,4.6,2.6,6.3c0.4,0.4,1,0.4,1.3,0c0.4-0.4,0.4-1,0-1.3
			c-1.3-1.3-2.1-3.1-2.1-5c0-1.9,0.7-3.6,2.1-5c0.4-0.4,0.4-1,0-1.3C10.7,8.4,10.4,8.3,10.2,8.3z"/>
	</g>
	<g class="st1">
		<path class="st9" d="M46.6,64.6H19.2c-2,0-3.7-1.7-3.7-3.7V5.1c0-2,1.7-3.7,3.7-3.7h27.4c2,0,3.7,1.7,3.7,3.7v55.7
			C50.3,62.9,48.6,64.6,46.6,64.6z"/>
		<path class="st3" d="M46.6,66H19.2c-2.8,0-5.1-2.3-5.1-5.1V5.1C14,2.3,16.3,0,19.2,0h27.4c2.8,0,5.1,2.3,5.1,5.1v55.7
			C51.7,63.7,49.4,66,46.6,66z M19.2,2.9c-1.3,0-2.3,1-2.3,2.3v55.7c0,1.3,1,2.3,2.3,2.3h27.4c1.3,0,2.3-1,2.3-2.3V5.1
			c0-1.3-1-2.3-2.3-2.3H19.2z"/>
	</g>
	<g class="st1">
		<rect x="15.5" y="8" class="st6" width="34.8" height="43.5"/>
		<path class="st3" d="M51.7,52.9H14V6.5h37.7V52.9z M16.9,50h31.9V9.4H16.9V50z"/>
	</g>
	<g class="st1">
		<circle class="st3" cx="32.9" cy="58" r="2.5"/>
	</g>
	<g class="st1">
		<g>
			<path class="st3" d="M32.2,5.5h-3.5c-0.5,0-0.9-0.4-0.9-0.8c0-0.5,0.4-0.8,0.9-0.8h3.5c0.5,0,0.9,0.4,0.9,0.8
				C33.1,5.2,32.7,5.5,32.2,5.5z"/>
		</g>
		<g>
			<path class="st3" d="M37.1,5.5h-0.9c-0.5,0-0.9-0.4-0.9-0.8c0-0.5,0.4-0.8,0.9-0.8h0.9c0.5,0,0.9,0.4,0.9,0.8
				C38,5.2,37.6,5.5,37.1,5.5z"/>
		</g>
	</g>
</g>
</svg>
