<?xml version="1.0" encoding="utf-8"?>
<!-- Generator: Adobe Illustrator 20.1.0, SVG Export Plug-In . SVG Version: 6.00 Build 0)  -->
<svg version="1.1" id="Layer_1" xmlns="http://www.w3.org/2000/svg" xmlns:xlink="http://www.w3.org/1999/xlink" x="0px" y="0px"
	 viewBox="0 0 205.5 256.9" style="enable-background:new 0 0 205.5 256.9;" xml:space="preserve">
<style type="text/css">
	.st0{fill:#2196F3;}
</style>
<g id="surface1">
	<path class="st0" d="M169.6,13.2c3.4-0.7,6.6-1.4,9.7-2.1c0.3-0.1,0.6-0.5,0.6-0.7c0-3.5,0-6.9,0-10.5c-3.3,0.8-6.4,1.4-9.5,2.2
		c-0.4,0.1-0.9,0.6-0.9,0.9C169.5,6.4,169.6,9.7,169.6,13.2z"/>
	<path class="st0" d="M179.9,256.9c0-3.5,0-7,0-10.4c0-0.3-0.6-0.7-1-0.8c-2-0.5-4-0.9-6-1.3c-1.1-0.2-2.2-0.5-3.4-0.7
		c0,3.5,0,6.7,0,9.9c0,0.4,0.4,0.9,0.6,1C173.4,255.4,176.6,256.2,179.9,256.9z"/>
	<path class="st0" d="M167,13.7c0-3.7,0-7.2,0-10.8c-2.3,0.5-4.6,0.9-6.8,1.4c-3.6,0.8-3.6,0.8-3.6,4.5c0,2.2,0,4.5,0,6.8
		C160.3,15,163.6,14.4,167,13.7z"/>
	<path class="st0" d="M156.6,241.2c0,3.5,0,6.7,0,9.9c0,0.3,0.4,0.8,0.6,0.8c3.2,0.7,6.4,1.3,9.7,2c0-3.6,0-7.2,0-10.8
		C163.6,242.5,160.2,241.9,156.6,241.2z"/>
	<path class="st0" d="M143.8,17.9c3.3-0.6,6.3-1,9.4-1.6c0.4-0.1,0.9-0.5,0.9-0.8c0.1-3.2,0.1-6.4,0.1-9.9c-3.4,0.6-6.6,1.2-9.8,1.8
		c-0.2,0.1-0.5,0.5-0.5,0.8C143.8,11.3,143.8,14.5,143.8,17.9z"/>
	<path class="st0" d="M141.3,238.6c-3.5-0.5-6.8-1-10.3-1.5c0,3.5,0,6.8,0,10.2c3.5,0.6,6.8,1.1,10.3,1.6
		C141.3,245.5,141.3,242.2,141.3,238.6z"/>
	<path class="st0" d="M104.8,22.7c3.3-0.3,6.6-0.6,9.8-1c0.3,0,0.7-0.4,0.7-0.7c0-3.1,0-6.2,0-9.4c-3.6,0.4-7.1,0.8-10.5,1.1
		C104.8,16.2,104.8,19.4,104.8,22.7z"/>
	<path class="st0" d="M102.1,243.9c0-2.3,0-4.4,0-6.5c0-3.3,0-3.3-3.3-3.7c-2.4-0.2-4.7-0.4-7.2-0.6c0,3.4,0,6.5,0,9.8
		C95.2,243.3,98.6,243.6,102.1,243.9z"/>
	<path class="st0" d="M102.1,13c-3.6,0.3-7,0.6-10.3,0.9c0,3.3,0,6.5,0,9.8c3.5-0.3,6.9-0.5,10.3-0.8
		C102.1,19.6,102.1,16.4,102.1,13z"/>
	<path class="st0" d="M117.9,245.6c3.5,0.5,6.8,0.9,10.3,1.4c0-3.5,0-6.8,0-10.2c-3.5-0.4-6.8-0.8-10.3-1.3
		C117.9,239,117.9,242.2,117.9,245.6z"/>
	<path class="st0" d="M128.2,10c-3.5,0.5-6.9,0.9-10.3,1.4c0,3.4,0,6.7,0,10.1c3.5-0.4,6.9-0.9,10.3-1.3
		C128.2,16.7,128.2,13.4,128.2,10z"/>
	<path class="st0" d="M78.7,14.8c0,3.3,0,6.5,0,9.8c3.5-0.2,6.9-0.4,10.3-0.6c0-3.3,0-6.5,0-9.8C85.5,14.4,82.2,14.6,78.7,14.8z"/>
	<path class="st0" d="M89,233c-3.6-0.2-7-0.4-10.5-0.6c0,3.1,0,6,0.1,8.9c0,0.3,0.6,0.8,1,0.9c1.5,0.2,3.1,0.2,4.6,0.3
		c1.6,0.1,3.2,0.2,4.8,0.2C89,239.4,89,236.3,89,233z"/>
	<path class="st0" d="M52.4,241.5c3.5,0,6.9,0,10.3,0c0-3.1,0-6.3,0-9.6c-3.5,0-6.8,0-10.3,0C52.4,235,52.4,238.1,52.4,241.5z"/>
	<path class="st0" d="M65.5,241.8c3.6,0,7,0,10.3,0c0-3.2,0-6.3,0-9.6c-3.5,0-6.9,0-10.3,0C65.5,235.3,65.5,238.4,65.5,241.8z"/>
	<path class="st0" d="M62.8,25c0-3.3,0-6.5,0-9.6c-3.5,0-6.9,0-10.3,0c0,3.3,0,6.4,0,9.6C56,25,59.3,25,62.8,25z"/>
	<path class="st0" d="M39.3,25c3.5,0,6.9,0,10.3,0c0-3.2,0-6.3,0-9.6c-3.5,0-6.9,0-10.3,0C39.3,18.7,39.3,21.8,39.3,25z"/>
	<path class="st0" d="M179.9,25.7c-3.5,0.7-6.9,1.3-10.2,1.9c0,3.3,0,6.3,0,9.6c3.5-0.6,6.8-1.2,10.2-1.7
		C179.9,32.2,179.9,29.1,179.9,25.7z"/>
	<path class="st0" d="M169.6,219.7c0,1.9,0,3.5,0,5.1c0,1.5-0.4,3.3,0.3,4.2c0.7,0.8,2.5,0.7,3.9,1c2,0.4,4,0.8,6.1,1.1
		c0-3.4,0-6.5,0-9.7C176.4,220.8,173.1,220.3,169.6,219.7z"/>
	<path class="st0" d="M192.7,223.8c-3.4-0.6-6.7-1.3-10.1-1.9c0,3.3,0,6.5,0,9.8c3.4,0.7,6.7,1.4,10.1,2.1
		C192.7,230.4,192.7,227.2,192.7,223.8z"/>
	<path class="st0" d="M182.6,35c3.4-0.7,6.8-1.3,10.1-1.9c0-3.5,0-6.7,0-10c-3.4,0.7-6.7,1.4-10.1,2.1
		C182.6,28.5,182.6,31.7,182.6,35z"/>
	<path class="st0" d="M192.7,10.6c-3.2,0.7-6.3,1.4-9.5,2.2c-0.3,0.1-0.6,0.4-0.6,0.6c-0.1,3.1,0,6.1,0,9.3
		c3.5-0.8,6.8-1.5,10.1-2.2C192.7,17.3,192.7,14.1,192.7,10.6z"/>
	<path class="st0" d="M156.7,39.2c3.5-0.5,6.9-1.1,10.2-1.6c0-3.2,0-6.3,0-9.5c-3.5,0.6-6.8,1.1-10.2,1.7
		C156.7,32.9,156.7,36,156.7,39.2z"/>
	<path class="st0" d="M166.9,228.8c0-3.3,0-6.4,0-9.5c-3.4-0.5-6.8-1-10.2-1.5c0,3.2,0,6.2,0,9.4
		C160.1,227.7,163.5,228.2,166.9,228.8z"/>
	<path class="st0" d="M167,240.7c0-3.2,0-6.3,0-9.5c-3.4-0.6-6.8-1.2-10.2-1.7c0,3.2,0,6.2,0,9.4C160.2,239.5,163.5,240.1,167,240.7
		z"/>
	<path class="st0" d="M167,16.2c-3.2,0.6-6.3,1.2-9.4,1.8c-0.3,0.1-0.9,0.5-0.9,0.7c-0.1,2.9-0.1,5.7-0.1,8.8
		c3.6-0.6,7-1.2,10.3-1.8C167,22.5,167,19.3,167,16.2z"/>
	<path class="st0" d="M115.2,233c0-3.1,0-5.9,0-8.9c-3.5-0.3-7-0.6-10.4-0.9c0,3.1,0,5.9,0,8.8C108.2,232.3,111.7,232.6,115.2,233z"
		/>
	<path class="st0" d="M104.8,220.9c3.5,0.3,7,0.6,10.3,0.9c0.1-0.3,0.2-0.4,0.2-0.5c0-1.7,0-3.4,0-5.2c0-3.1,0-3.1-3-3.4
		c-0.3,0-0.6-0.1-0.9-0.1c-2.2-0.2-4.4-0.3-6.6-0.5C104.8,215.2,104.8,218,104.8,220.9z"/>
	<path class="st0" d="M0.1,47.2c0,3,0,5.8,0,8.7c3.5,0.2,6.9,0.4,10.3,0.6c0-3,0-5.8,0-8.7C6.9,47.6,3.5,47.4,0.1,47.2z"/>
	<path class="st0" d="M0.1,220.7c3.5-0.3,6.9-0.5,10.3-0.7c0-2.9,0-5.7,0-8.7c-3.5,0.2-6.8,0.4-10.3,0.7
		C0.1,214.9,0.1,217.7,0.1,220.7z"/>
	<path class="st0" d="M0,69.4c0,2.5,0,5.2,0.1,7.9c0,0.2,0.5,0.7,0.8,0.7c3.2,0.1,6.3,0,9.6,0c0-2.6,0-5.5,0-8.5
		C6.9,69.4,3.5,69.4,0,69.4z"/>
	<path class="st0" d="M0.1,89c3.5,0,6.8,0,10.3,0c0-2.8,0-5.6,0-8.7c-3.5,0-6.8,0-10.3,0C0.1,83.1,0.1,85.9,0.1,89z"/>
	<path class="st0" d="M10.4,200.4c-3.5,0.2-6.9,0.4-10.3,0.6c0,3,0,5.8,0,8.8c3.5-0.2,6.9-0.4,10.3-0.7
		C10.4,206.2,10.4,203.4,10.4,200.4z"/>
	<path class="st0" d="M10.4,102.2c-3.5,0-6.9,0-10.3,0c0,2.9,0,5.7,0,8.7c3.5,0,6.9,0,10.3,0C10.4,108,10.4,105.2,10.4,102.2z"/>
	<path class="st0" d="M10.4,146.1c-3.5,0-6.9,0-10.3,0c0,3,0,5.8,0,8.5c3.5,0,6.9,0,10.3,0C10.4,151.6,10.4,148.9,10.4,146.1z"/>
	<path class="st0" d="M0.1,165.6c3.5,0,6.9,0,10.3,0c0-3,0-5.8,0-8.5c-3.5,0-6.9,0-10.3,0C0.1,160.1,0.1,162.9,0.1,165.6z"/>
	<path class="st0" d="M62.8,38.1c-3.5,0-7,0-10.3,0c0,2.9,0,5.7,0,8.4c3.5,0,6.9,0,10.3,0C62.8,43.7,62.8,40.9,62.8,38.1z"/>
	<path class="st0" d="M49.6,38.1c-3.5,0-6.9,0-10.3,0c0,2.8,0,5.6,0,8.5c3.5,0,6.9,0,10.3,0C49.6,43.8,49.6,41,49.6,38.1z"/>
	<path class="st0" d="M39.3,100.4c3.5,0,6.9,0,10.3,0c0-2.9,0-5.7,0-8.5c-3.5,0-6.9,0-10.3,0C39.3,94.8,39.3,97.6,39.3,100.4z"/>
	<path class="st0" d="M39.3,165c3.6,0,7,0,10.4,0c0-2.9,0-5.6,0-8.4c-3.5,0-6.9,0-10.4,0C39.3,159.4,39.3,162.2,39.3,165z"/>
	<path class="st0" d="M36.5,113.4c-3.5,0-6.9,0-10.4,0c0,2.9,0,5.6,0,8.5c3.5,0,6.9,0,10.4,0C36.5,119.1,36.5,116.3,36.5,113.4z"/>
	<path class="st0" d="M39.3,113.5c0,2.9,0,5.7,0,8.4c3.5,0,6.9,0,10.3,0c0-2.9,0-5.6,0-8.4C46.2,113.5,42.8,113.5,39.3,113.5z"/>
	<path class="st0" d="M13.1,111c3.5,0,6.8,0,10.3,0c0-2.8,0-5.6,0-8.5c-3.5,0-6.8,0-10.3,0C13.1,105.3,13.1,108.1,13.1,111z"/>
	<path class="st0" d="M36.5,135.1c-3.5,0-6.9,0-10.4,0c0,2.9,0,5.6,0,8.5c3.5,0,6.9,0,10.4,0C36.5,140.7,36.5,137.9,36.5,135.1z"/>
	<path class="st0" d="M49.7,135c-3.5,0-6.9,0-10.3,0c0,2.9,0,5.7,0,8.4c3.5,0,6.9,0,10.3,0C49.7,140.6,49.7,137.9,49.7,135z"/>
	<path class="st0" d="M23.4,146c-3.5,0-6.9,0-10.3,0c0,2.9,0,5.7,0,8.5c3.5,0,6.8,0,10.3,0C23.4,151.5,23.4,148.8,23.4,146z"/>
	<path class="st0" d="M23.4,132.8c0-2.9,0-5.7,0-8.5c-3.5,0-6.8,0-10.2,0c0,2.9,0,5.7,0,8.5C16.6,132.8,20,132.8,23.4,132.8z"/>
	<path class="st0" d="M13.1,165.3c3.5,0,6.8,0,10.3,0c0-3,0-5.7,0-8.4c-3.5,0-6.9,0-10.3,0C13.1,159.8,13.1,162.6,13.1,165.3z"/>
	<path class="st0" d="M13.1,219.9c3.5-0.2,6.8-0.3,10.2-0.5c0-2.9,0-5.7,0-8.6c-3.5,0.2-6.8,0.3-10.2,0.5
		C13.1,214.2,13.1,217,13.1,219.9z"/>
	<path class="st0" d="M36.5,189c-3.5,0-7,0-10.3,0c0,3,0,5.8,0,8.4c3.5,0,6.9,0,10.3,0C36.5,194.5,36.5,191.8,36.5,189z"/>
	<path class="st0" d="M13.1,56.8c3.5,0,6.9,0,10.2,0c0-2.7,0-5.5,0-8.6c-3.5,0-6.8,0-10.2,0C13.1,50.9,13.1,53.6,13.1,56.8z"/>
	<path class="st0" d="M26.2,175.9c3.5,0,6.9,0,10.3,0c0-2.9,0-5.7,0-8.4c-3.5,0-6.9,0-10.3,0C26.2,170.4,26.2,173.1,26.2,175.9z"/>
	<path class="st0" d="M23.4,178.5c-3.5,0-6.8,0-10.2,0c0,3,0,5.8,0,8.5c3.5,0,6.8,0,10.2,0C23.4,183.9,23.4,181.2,23.4,178.5z"/>
	<path class="st0" d="M52.4,218.8c3.6,0,7,0,10.3,0c0-2.9,0-5.6,0-8.5c-3.5,0-6.9,0-10.3,0C52.4,213.2,52.4,216,52.4,218.8z"/>
	<path class="st0" d="M39.3,210.4c0,3,0,5.7,0,8.4c3.5,0,6.9,0,10.3,0c0-2.9,0-5.6,0-8.4C46.2,210.4,42.8,210.4,39.3,210.4z"/>
	<path class="st0" d="M23.4,197.9c0-3.1,0-5.8,0-8.5c-3.5,0-6.8,0-10.3,0c0,3,0,5.8,0,8.5C16.6,197.9,19.9,197.9,23.4,197.9z"/>
	<path class="st0" d="M26.2,70.3c0,2.8,0,5.6,0,8.5c3.5,0,6.9,0,10.3,0c0-2.8,0-5.5,0-8.5C33.1,70.3,29.7,70.3,26.2,70.3z"/>
	<path class="st0" d="M13.1,67.6c3.5,0,6.8,0,10.3,0c0-2.7,0-5.5,0-8.5c-3.5,0-6.8,0-10.3,0C13.1,61.8,13.1,64.6,13.1,67.6z"/>
	<path class="st0" d="M23.3,100.2c0-2.9,0-5.7,0-8.6c-3.5,0-6.8,0-10.2,0c0,2.9,0,5.7,0,8.6C16.6,100.2,19.9,100.2,23.3,100.2z"/>
	<path class="st0" d="M36.6,145.9c-3.5,0-7,0-10.4,0c0,2.9,0,5.6,0,8.4c3.5,0,6.9,0,10.4,0C36.6,151.4,36.6,148.7,36.6,145.9z"/>
	<path class="st0" d="M26.2,48.7c0,2.7,0,5.5,0,8.5c3.5,0,6.9,0,10.3,0c0-2.8,0-5.5,0-8.5C33.1,48.7,29.7,48.7,26.2,48.7z"/>
	<path class="st0" d="M13.2,167.6c0,3.1,0,5.9,0,8.5c3.5,0,6.8,0,10.2,0c0-3,0-5.8,0-8.5C19.9,167.6,16.6,167.6,13.2,167.6z"/>
	<path class="st0" d="M26.2,219c3.5,0,6.9,0,10.3,0c0-3,0-5.7,0-8.4c-3.5,0-6.9,0-10.3,0C26.2,213.6,26.2,216.3,26.2,219z"/>
	<path class="st0" d="M36.6,221.4c-3.5,0-7,0-10.4,0c0,3,0,5.8,0,8.5c3.5,0,6.9,0,10.4,0C36.6,226.9,36.6,224.1,36.6,221.4z"/>
	<path class="st0" d="M26.2,208.2c3.5,0,6.9,0,10.3,0c0-3,0-5.7,0-8.4c-3.5,0-6.9,0-10.3,0C26.2,202.8,26.2,205.5,26.2,208.2z"/>
	<path class="st0" d="M49.7,81.2c-3.5,0-6.9,0-10.3,0c0,2.8,0,5.6,0,8.5c3.5,0,6.9,0,10.3,0C49.7,86.8,49.7,84.1,49.7,81.2z"/>
	<path class="st0" d="M36.5,89.5c0-2.9,0-5.6,0-8.5c-3.5,0-6.9,0-10.3,0c0,2.9,0,5.6,0,8.5C29.7,89.5,33,89.5,36.5,89.5z"/>
	<path class="st0" d="M39.3,124.2c0,2.9,0,5.6,0,8.4c3.5,0,6.9,0,10.3,0c0-2.8,0-5.6,0-8.4C46.2,124.2,42.8,124.2,39.3,124.2z"/>
	<path class="st0" d="M52.5,221.1c0,2.9,0,5.6,0,8.5c3.5,0,6.9,0,10.3,0c0-2.9,0-5.6,0-8.5C59.3,221.1,56,221.1,52.5,221.1z"/>
	<path class="st0" d="M52.4,35.7c3.6,0,7,0,10.3,0c0-2.9,0-5.6,0-8.3c-3.5,0-6.9,0-10.3,0C52.4,30.3,52.4,33,52.4,35.7z"/>
	<path class="st0" d="M36.5,111.1c0-2.8,0-5.6,0-8.5c-3.5,0-6.9,0-10.3,0c0,2.9,0,5.6,0,8.5C29.6,111.1,33,111.1,36.5,111.1z"/>
	<path class="st0" d="M39.3,167.3c0,2.9,0,5.7,0,8.4c3.5,0,6.9,0,10.3,0c0-2.9,0-5.6,0-8.4C46.2,167.3,42.8,167.3,39.3,167.3z"/>
	<path class="st0" d="M169.6,13.2c0-3.5,0-6.8,0.1-10.1c0-0.3,0.5-0.9,0.9-0.9c3.1-0.8,6.2-1.5,9.5-2.2c0,3.5,0,7,0,10.5
		c0,0.2-0.4,0.6-0.6,0.7C176.1,11.8,173,12.5,169.6,13.2z"/>
	<path class="st0" d="M179.9,256.9c-3.3-0.8-6.5-1.5-9.7-2.3c-0.3-0.1-0.6-0.7-0.6-1c-0.1-3.2,0-6.5,0-9.9c1.2,0.3,2.3,0.5,3.4,0.7
		c2,0.4,4,0.8,5.9,1.3c0.4,0.1,1,0.6,1,0.9C180,250,179.9,253.4,179.9,256.9z"/>
	<path class="st0" d="M167,13.7c-3.4,0.7-6.7,1.3-10.3,2c0-2.4,0-4.6,0-6.8c0-3.7,0-3.7,3.6-4.5c2.2-0.5,4.5-0.9,6.8-1.4
		C167,6.5,167,10,167,13.7z"/>
	<path class="st0" d="M156.6,241.2c3.6,0.7,6.9,1.3,10.3,2c0,3.6,0,7.1,0,10.8c-3.3-0.7-6.5-1.3-9.7-2c-0.3-0.1-0.6-0.6-0.6-0.8
		C156.6,247.9,156.6,244.7,156.6,241.2z"/>
	<path class="st0" d="M143.8,17.9c0-3.4,0-6.5,0-9.7c0-0.3,0.3-0.7,0.5-0.8c3.2-0.6,6.4-1.2,9.8-1.8c0,3.4,0,6.6-0.1,9.8
		c0,0.3-0.6,0.8-1,0.8C150.1,16.9,147.1,17.3,143.8,17.9z"/>
	<path class="st0" d="M141.3,238.6c0,3.5,0,6.8,0,10.4c-3.4-0.6-6.8-1.1-10.3-1.6c0-3.4,0-6.7,0-10.2
		C134.4,237.7,137.8,238.1,141.3,238.6z"/>
	<path class="st0" d="M104.8,22.7c0-3.4,0-6.6,0-9.9c3.4-0.4,6.8-0.7,10.5-1.1c0,3.2,0,6.3,0,9.4c0,0.2-0.4,0.6-0.7,0.7
		C111.4,22.1,108.1,22.4,104.8,22.7z"/>
	<path class="st0" d="M102.1,243.9c-3.6-0.3-7-0.6-10.4-0.9c0-3.3,0-6.5,0-9.8c2.4,0.2,4.8,0.4,7.2,0.6c3.3,0.3,3.3,0.3,3.3,3.7
		C102.1,239.5,102.1,241.6,102.1,243.9z"/>
	<path class="st0" d="M102.1,13c0,3.4,0,6.6,0,9.9c-3.5,0.3-6.8,0.5-10.3,0.8c0-3.3,0-6.5,0-9.8C95.1,13.7,98.5,13.4,102.1,13z"/>
	<path class="st0" d="M117.9,245.6c0-3.4,0-6.6,0-10.1c3.5,0.4,6.8,0.8,10.3,1.3c0,3.4,0,6.7,0,10.2
		C124.7,246.5,121.3,246,117.9,245.6z"/>
	<path class="st0" d="M128.2,10c0,3.4,0,6.7,0,10.2c-3.4,0.4-6.8,0.8-10.3,1.3c0-3.4,0-6.6,0-10.1C121.3,10.9,124.7,10.4,128.2,10z"
		/>
	<path class="st0" d="M78.7,14.8c3.5-0.2,6.8-0.4,10.3-0.6c0,3.3,0,6.4,0,9.8c-3.4,0.2-6.8,0.4-10.3,0.6
		C78.7,21.3,78.7,18.1,78.7,14.8z"/>
	<path class="st0" d="M89,233c0,3.3,0,6.5,0,9.8c-1.6-0.1-3.2-0.2-4.8-0.2c-1.5-0.1-3.1-0.1-4.6-0.3c-0.4-0.1-1-0.6-1-0.9
		c-0.1-2.9-0.1-5.8-0.1-8.9C82.1,232.6,85.5,232.8,89,233z"/>
	<path class="st0" d="M52.4,241.5c0-3.4,0-6.5,0-9.6c3.5,0,6.9,0,10.3,0c0,3.3,0,6.4,0,9.6C59.3,241.5,55.9,241.5,52.4,241.5z"/>
	<path class="st0" d="M65.5,241.8c0-3.4,0-6.5,0-9.6c3.5,0,6.8,0,10.3,0c0,3.3,0,6.4,0,9.6C72.5,241.8,69.1,241.8,65.5,241.8z"/>
	<path class="st0" d="M62.8,25c-3.4,0-6.8,0-10.3,0c0-3.1,0-6.3,0-9.6c3.4,0,6.8,0,10.3,0C62.8,18.6,62.8,21.7,62.8,25z"/>
	<path class="st0" d="M39.3,25c0-3.3,0-6.4,0-9.6c3.4,0,6.8,0,10.3,0c0,3.3,0,6.4,0,9.6C46.2,25,42.8,25,39.3,25z"/>
	<path class="st0" d="M179.9,25.7c0,3.3,0,6.5,0,9.7c-3.4,0.6-6.7,1.1-10.2,1.7c0-3.2,0-6.3,0-9.6C173,27,176.4,26.4,179.9,25.7z"/>
	<path class="st0" d="M169.6,219.7c3.6,0.6,6.9,1.2,10.3,1.7c0,3.2,0,6.3,0,9.7c-2-0.4-4.1-0.7-6.1-1.1c-1.4-0.3-3.2-0.2-3.9-1
		c-0.7-1-0.3-2.8-0.3-4.2C169.5,223.2,169.6,221.6,169.6,219.7z"/>
	<path class="st0" d="M192.7,223.8c0,3.4,0,6.6,0,10c-3.4-0.7-6.7-1.4-10.1-2.1c0-3.3,0-6.4,0-9.8
		C186,222.6,189.3,223.2,192.7,223.8z"/>
	<path class="st0" d="M182.6,35c0-3.3,0-6.5,0-9.8c3.3-0.7,6.6-1.4,10.1-2.1c0,3.3,0,6.5,0,10C189.4,33.7,186.1,34.3,182.6,35z"/>
	<path class="st0" d="M192.7,10.6c0,3.5,0,6.7,0,10c-3.3,0.7-6.6,1.4-10.1,2.2c0-3.2,0-6.2,0-9.3c0-0.2,0.4-0.6,0.6-0.7
		C186.3,12,189.5,11.3,192.7,10.6z"/>
	<path class="st0" d="M156.7,39.2c0-3.2,0-6.2,0-9.4c3.4-0.6,6.7-1.1,10.2-1.7c0,3.2,0,6.3,0,9.5C163.6,38.1,160.2,38.7,156.7,39.2z
		"/>
	<path class="st0" d="M166.9,228.8c-3.5-0.6-6.8-1.1-10.2-1.7c0-3.1,0-6.2,0-9.4c3.4,0.5,6.7,1,10.2,1.5
		C166.9,222.4,166.9,225.5,166.9,228.8z"/>
	<path class="st0" d="M167,240.7c-3.5-0.6-6.8-1.3-10.2-1.9c0-3.1,0-6.1,0-9.4c3.5,0.6,6.8,1.2,10.2,1.7
		C167,234.4,167,237.5,167,240.7z"/>
	<path class="st0" d="M167,16.2c0,3.2,0,6.3,0,9.5c-3.4,0.6-6.7,1.2-10.3,1.8c0-3,0-5.9,0.1-8.8c0-0.3,0.5-0.7,0.9-0.7
		C160.7,17.3,163.8,16.8,167,16.2z"/>
	<path class="st0" d="M115.2,233c-3.5-0.4-6.9-0.7-10.4-1c0-2.9,0-5.7,0-8.8c3.4,0.3,6.9,0.6,10.4,0.9
		C115.2,227,115.2,229.9,115.2,233z"/>
	<path class="st0" d="M104.8,220.9c0-3,0-5.7,0-8.8c2.2,0.2,4.4,0.3,6.6,0.5c0.3,0,0.6,0.1,0.9,0.1c3,0.3,3,0.3,3,3.4
		c0,1.7,0,3.4,0,5.1c0,0.1-0.1,0.2-0.2,0.5C111.7,221.6,108.3,221.3,104.8,220.9z"/>
	<path class="st0" d="M0.1,47.2c3.5,0.2,6.8,0.4,10.3,0.6c0,2.9,0,5.7,0,8.7C7,56.3,3.6,56.1,0.1,55.9C0.1,53,0.1,50.2,0.1,47.2z"/>
	<path class="st0" d="M0.1,220.7c0-3,0-5.8,0-8.8c3.5-0.2,6.8-0.4,10.3-0.7c0,2.9,0,5.7,0,8.7C7,220.2,3.6,220.5,0.1,220.7z"/>
	<path class="st0" d="M0,69.4c3.5,0,6.9,0,10.4,0c0,3.1,0,5.9,0,8.5c-3.2,0-6.4,0-9.6,0c-0.3,0-0.8-0.4-0.8-0.7C0,74.6,0,72,0,69.4z
		"/>
	<path class="st0" d="M0.1,89c0-3.1,0-5.9,0-8.7c3.5,0,6.8,0,10.3,0c0,3,0,5.9,0,8.7C6.9,89,3.6,89,0.1,89z"/>
	<path class="st0" d="M10.4,200.4c0,3,0,5.8,0,8.7c-3.4,0.2-6.8,0.4-10.3,0.7c0-2.9,0-5.7,0-8.8C3.5,200.8,6.9,200.6,10.4,200.4z"/>
	<path class="st0" d="M10.4,102.2c0,3,0,5.8,0,8.7c-3.4,0-6.8,0-10.3,0c0-3,0-5.8,0-8.7C3.5,102.2,6.9,102.2,10.4,102.2z"/>
	<path class="st0" d="M10.4,146.1c0,2.8,0,5.5,0,8.5c-3.4,0-6.8,0-10.3,0c0-2.7,0-5.5,0-8.5C3.5,146.1,6.9,146.1,10.4,146.1z"/>
	<path class="st0" d="M0.1,165.6c0-2.7,0-5.5,0-8.5c3.4,0,6.8,0,10.3,0c0,2.7,0,5.5,0,8.5C7,165.6,3.6,165.6,0.1,165.6z"/>
	<path class="st0" d="M62.8,38.1c0,2.8,0,5.5,0,8.4c-3.4,0-6.8,0-10.3,0c0-2.7,0-5.5,0-8.4C55.9,38.1,59.3,38.1,62.8,38.1z"/>
	<path class="st0" d="M49.6,38.1c0,3,0,5.7,0,8.5c-3.5,0-6.9,0-10.3,0c0-2.9,0-5.6,0-8.5C42.7,38.1,46.1,38.1,49.6,38.1z"/>
	<path class="st0" d="M39.3,100.4c0-2.8,0-5.6,0-8.5c3.4,0,6.8,0,10.3,0c0,2.8,0,5.6,0,8.5C46.2,100.4,42.8,100.4,39.3,100.4z"/>
	<path class="st0" d="M39.3,165c0-2.8,0-5.5,0-8.4c3.5,0,6.9,0,10.4,0c0,2.8,0,5.5,0,8.4C46.2,165,42.9,165,39.3,165z"/>
	<path class="st0" d="M36.5,113.4c0,2.9,0,5.7,0,8.5c-3.5,0-6.9,0-10.4,0c0-2.9,0-5.6,0-8.5C29.6,113.4,33,113.4,36.5,113.4z"/>
	<path class="st0" d="M39.3,113.5c3.4,0,6.8,0,10.3,0c0,2.8,0,5.6,0,8.4c-3.4,0-6.8,0-10.3,0C39.3,119.1,39.3,116.3,39.3,113.5z"/>
	<path class="st0" d="M13.1,111c0-2.9,0-5.7,0-8.5c3.4,0,6.8,0,10.3,0c0,2.9,0,5.7,0,8.5C20,111,16.6,111,13.1,111z"/>
	<path class="st0" d="M36.5,135.1c0,2.9,0,5.6,0,8.5c-3.5,0-6.9,0-10.4,0c0-2.8,0-5.6,0-8.5C29.6,135.1,33,135.1,36.5,135.1z"/>
	<path class="st0" d="M49.7,135c0,2.9,0,5.6,0,8.4c-3.4,0-6.8,0-10.3,0c0-2.8,0-5.5,0-8.4C42.8,135,46.1,135,49.7,135z"/>
	<path class="st0" d="M23.4,146c0,2.8,0,5.5,0,8.5c-3.4,0-6.8,0-10.3,0c0-2.8,0-5.5,0-8.5C16.5,146,19.9,146,23.4,146z"/>
	<path class="st0" d="M23.4,132.8c-3.4,0-6.8,0-10.2,0c0-2.8,0-5.6,0-8.5c3.4,0,6.8,0,10.2,0C23.4,127.1,23.4,129.9,23.4,132.8z"/>
	<path class="st0" d="M13.1,165.3c0-2.7,0-5.5,0-8.4c3.4,0,6.8,0,10.3,0c0,2.7,0,5.4,0,8.4C20,165.3,16.6,165.3,13.1,165.3z"/>
	<path class="st0" d="M13.1,219.9c0-2.9,0-5.7,0-8.7c3.4-0.2,6.8-0.3,10.2-0.5c0,2.9,0,5.7,0,8.6C20,219.5,16.6,219.7,13.1,219.9z"
		/>
	<path class="st0" d="M36.5,189c0,2.7,0,5.4,0,8.4c-3.4,0-6.8,0-10.3,0c0-2.6,0-5.4,0-8.4C29.6,189,33,189,36.5,189z"/>
	<path class="st0" d="M13.1,56.8c0-3.1,0-5.9,0-8.6c3.4,0,6.7,0,10.2,0c0,3,0,5.8,0,8.6C20,56.8,16.6,56.8,13.1,56.8z"/>
	<path class="st0" d="M26.2,175.9c0-2.8,0-5.5,0-8.4c3.5,0,6.8,0,10.3,0c0,2.7,0,5.4,0,8.4C33.1,175.9,29.7,175.9,26.2,175.9z"/>
	<path class="st0" d="M23.4,178.5c0,2.7,0,5.4,0,8.5c-3.4,0-6.8,0-10.2,0c0-2.6,0-5.4,0-8.5C16.5,178.5,19.9,178.5,23.4,178.5z"/>
	<path class="st0" d="M52.4,218.8c0-2.9,0-5.6,0-8.5c3.4,0,6.8,0,10.3,0c0,2.8,0,5.6,0,8.5C59.4,218.8,56,218.8,52.4,218.8z"/>
	<path class="st0" d="M39.3,210.4c3.5,0,6.9,0,10.3,0c0,2.8,0,5.5,0,8.4c-3.4,0-6.8,0-10.3,0C39.3,216.1,39.3,213.3,39.3,210.4z"/>
	<path class="st0" d="M23.4,197.9c-3.5,0-6.8,0-10.3,0c0-2.7,0-5.4,0-8.5c3.4,0,6.8,0,10.3,0C23.4,192,23.4,194.8,23.4,197.9z"/>
	<path class="st0" d="M26.2,70.3c3.5,0,6.9,0,10.3,0c0,2.9,0,5.7,0,8.5c-3.5,0-6.8,0-10.3,0C26.2,75.8,26.2,73.1,26.2,70.3z"/>
	<path class="st0" d="M13.1,67.6c0-3,0-5.7,0-8.5c3.4,0,6.8,0,10.3,0c0,3,0,5.8,0,8.5C20,67.6,16.6,67.6,13.1,67.6z"/>
	<path class="st0" d="M23.3,100.2c-3.4,0-6.7,0-10.2,0c0-2.9,0-5.7,0-8.6c3.3,0,6.7,0,10.2,0C23.3,94.5,23.3,97.3,23.3,100.2z"/>
	<path class="st0" d="M36.6,145.9c0,2.8,0,5.5,0,8.4c-3.5,0-6.9,0-10.4,0c0-2.8,0-5.5,0-8.4C29.6,145.9,33,145.9,36.6,145.9z"/>
	<path class="st0" d="M26.2,48.7c3.5,0,6.9,0,10.3,0c0,3,0,5.7,0,8.5c-3.5,0-6.8,0-10.3,0C26.2,54.2,26.2,51.4,26.2,48.7z"/>
	<path class="st0" d="M13.2,167.6c3.4,0,6.7,0,10.2,0c0,2.7,0,5.5,0,8.5c-3.4,0-6.7,0-10.2,0C13.2,173.5,13.2,170.7,13.2,167.6z"/>
	<path class="st0" d="M26.2,219c0-2.7,0-5.4,0-8.4c3.5,0,6.8,0,10.3,0c0,2.7,0,5.4,0,8.4C33.1,219,29.7,219,26.2,219z"/>
	<path class="st0" d="M36.6,221.4c0,2.7,0,5.5,0,8.5c-3.4,0-6.8,0-10.4,0c0-2.6,0-5.4,0-8.5C29.6,221.4,33,221.4,36.6,221.4z"/>
	<path class="st0" d="M26.2,208.2c0-2.7,0-5.4,0-8.4c3.4,0,6.8,0,10.3,0c0,2.7,0,5.4,0,8.4C33.1,208.2,29.7,208.2,26.2,208.2z"/>
	<path class="st0" d="M49.7,81.2c0,2.9,0,5.7,0,8.5c-3.5,0-6.9,0-10.3,0c0-2.9,0-5.6,0-8.5C42.7,81.2,46.1,81.2,49.7,81.2z"/>
	<path class="st0" d="M36.5,89.5c-3.4,0-6.8,0-10.3,0c0-2.9,0-5.6,0-8.5c3.4,0,6.8,0,10.3,0C36.5,83.9,36.5,86.6,36.5,89.5z"/>
	<path class="st0" d="M39.3,124.2c3.5,0,6.9,0,10.3,0c0,2.8,0,5.6,0,8.4c-3.5,0-6.8,0-10.3,0C39.3,129.9,39.3,127.1,39.3,124.2z"/>
	<path class="st0" d="M52.5,221.1c3.5,0,6.8,0,10.3,0c0,2.8,0,5.6,0,8.5c-3.4,0-6.8,0-10.3,0C52.5,226.7,52.5,224,52.5,221.1z"/>
	<path class="st0" d="M52.4,35.7c0-2.7,0-5.4,0-8.3c3.4,0,6.8,0,10.3,0c0,2.7,0,5.4,0,8.3C59.4,35.7,56,35.7,52.4,35.7z"/>
	<path class="st0" d="M36.5,111.1c-3.5,0-6.8,0-10.3,0c0-2.8,0-5.6,0-8.5c3.4,0,6.8,0,10.3,0C36.5,105.5,36.5,108.2,36.5,111.1z"/>
	<path class="st0" d="M39.3,167.3c3.5,0,6.8,0,10.3,0c0,2.8,0,5.5,0,8.4c-3.4,0-6.8,0-10.3,0C39.3,173,39.3,170.2,39.3,167.3z"/>
	<path class="st0" d="M205.1,167.6c-0.6-6.5-2.3-12.7-5.6-18.4c-1-1.8-2.1-2.8-4.3-2.6c-1.8,0.2-3.7-0.1-5.5-0.2
		c-2.4-0.1-4.7-0.2-7.2-0.3c0-3.6-0.1-7,0-10.5c0-1.1-0.3-1.6-1.3-1.9c-4.1-1.2-8.1-2.6-12.3-3.7c-2.4-0.6-4.8-0.9-7.3-1.4
		c0-1.2,0-2.3,0-3.5c0-4,0-3.9,3.7-5.3c6.5-2.3,12.9-4.7,18.4-9.1c6.1-4.9,10.6-11.1,13.2-18.5c2.4-6.7,2.6-13.8,2.1-20.8
		c-0.4-5.4-1.6-10.6-4.1-15.5c-2-3.8-4.8-6.8-8.4-9.1c-7.6-4.7-16-6-24.8-5.5c-2.6,0.2-5.1,0.3-7.7,0.5c-0.1-0.9-0.1-1.6-0.2-2.4
		c-3.4,0.4-6.7,0.8-10,1.3c0-3.1,0-6,0-9c3.4-0.5,6.7-1,10-1.5c0-4,0-7.8,0-11.6c-12.1,1.7-24.2,3.4-36.4,5.1c0,7.4,0,14.7,0,22.3
		c-7.6,0.3-15.1,0.7-22.8,1c0-3.1,0-5.9,0-8.9c3.3-0.2,6.5-0.4,9.6-0.6c0-4.4,0-8.5,0-12.5c-13.1,0.7-26.1,1.5-39.2,2.2
		c0,7.1,0,14.2,0,21.4c-8.8,0-17.4,0-26.1,0c0,3.7,0,7.2,0,10.9c3.4,0,6.8,0,10.2,0c0,3,0,5.8,0,8.5c-3.5,0-6.8,0-10.1,0
		c0,3.6,0,7.1,0,10.8c4.4,0,8.6,0,13.1,0c0,11.6,0,23,0,34.6c3.5,0,6.7,0,10,0c0,2.8,0,5.5,0,8.4c-3.4,0-6.6,0-10,0
		c0,4.4,0,8.7,0,13.2c3.4,0,6.7,0,10,0c0,2.8,0,5.5,0,8.4c-3.4,0-6.7,0-10.1,0c0,11.6,0,23,0,34.6c-4.4,0-8.7,0-13,0
		c0,7.4,0,14.6,0,21.8c3.4,0,6.6,0,10.1,0c0,2.8,0,5.4,0,8.4c5.4,0,10.7,0,16.1,0c0,7.3,0,14.4,0,21.5c8.9,0.4,17.5,0.8,26.4,1.2
		c0-2.8,0-5.4,0-8.3c3.5,0.3,6.7,0.6,10.1,0.9c0-4.6,0-9.1,0-13.7c5.3,0.4,10.4,0.8,15.7,1.2c0,7.5,0,14.9,0,22.1
		c12.2,1.7,24.2,3.4,36.4,5.1c0-7.7,0-15.4,0-23.2c2.2,0.2,4.1,0.3,6,0.4c6.7,0.5,13.3,0.4,19.8-1.4c12-3.3,20.2-10.6,23.5-23.1
		C205.6,183.3,205.9,175.5,205.1,167.6z M182.7,60.4c3.2-0.5,6.5-1,9.9-1.5c0,3.4,0,6.7,0,10.1c-3.2,0.4-6.5,0.8-9.9,1.2
		C182.7,67,182.7,63.8,182.7,60.4z M182.7,85.7c3.3-0.3,6.6-0.6,9.9-1c0,3.3,0,6.6,0,10.1c-3.3,0.2-6.5,0.5-9.9,0.7
		C182.7,92.1,182.7,88.9,182.7,85.7z M78.8,58.8c3.5-0.2,6.8-0.3,10.2-0.5c0,2.9,0,5.7,0,8.6c-3.4,0.2-6.7,0.3-10.2,0.5
		C78.8,64.4,78.8,61.7,78.8,58.8z M85,92c0,2.7,0,5.4,0,8.2c-3.3,0-6.6,0-10.1,0c0-2.7,0-5.4,0-8.2C78.3,92,81.6,92,85,92z
		 M65.8,59.2c3.4,0,6.7,0,10.1,0c0,2.6,0,5.3,0,8.3c-3.4,0-6.7,0-10.1,0C65.8,64.9,65.8,62.1,65.8,59.2z M60.2,89.5
		c0-2.8,0-5.5,0-8.3c3.4,0,6.7,0,10.2,0c0,2.8,0,5.5,0,8.3C66.9,89.5,63.6,89.5,60.2,89.5z M62.8,197.4c-3.4,0-6.7,0-10.2,0
		c0-2.7,0-5.4,0-8.3c3.4,0,6.7,0,10.2,0C62.8,191.8,62.8,194.5,62.8,197.4z M73.3,175.7c-3.4,0-6.8,0-10.2,0c0-2.7,0-5.4,0-8.2
		c3.4,0,6.7,0,10.2,0C73.3,170.2,73.3,172.9,73.3,175.7z M73.3,164.9c-3.4,0-6.7,0-10.2,0c0-2.7,0-5.4,0-8.3c3.4,0,6.7,0,10.2,0
		C73.3,159.4,73.3,162.1,73.3,164.9z M73.6,124.3c3.3,0,6.7,0,10.1,0c0,2.8,0,5.5,0,8.4c-3.3,0-6.6,0-10.1,0
		C73.6,129.8,73.6,127.1,73.6,124.3z M89.1,218.7c-3.4,0-6.8,0-10.2,0c0-2.8,0-5.4,0-8.2c3.4,0,6.7,0,10.2,0
		C89.1,213.2,89.1,216,89.1,218.7z M97.9,73.9c0.9-0.1,28.4-1.4,31.7-1.5c21.4-0.6,20.9,8.8,21,15.6c0.3,12.5-4.8,23.8-30.6,25.8
		c-0.9,0.1-21.8,1-22.1,1C97.9,101.1,97.9,87.5,97.9,73.9z M115.5,198.7c-1.7-0.1-8.4-0.4-10.1-0.5c0-2.8,0-5.6,0-8.3
		c3.3,0,6.7,0,10.1,0C115.5,192.9,115.5,195.7,115.5,198.7z M141.6,200.6c-2.5-0.2-9.3-0.7-10.1-0.8c0-2.9,0-5.7,0-8.7
		c2.6,0.2,5.1,0.4,7.6,0.5c0.9,0.1,1.7,0.1,2.5,0.2C141.6,194.7,141.6,197.5,141.6,200.6z M155.7,173.3c-0.6,2.4-2.4,11.3-23.1,11.3
		c-5.1,0-34-1.2-34.7-1.2c0-13.8,0-27.2,0-40.9c0.7,0,19,0.4,22.1,0.6c32.3,1.8,33,8.1,36.3,19.8
		C157.2,166.3,156.6,169.9,155.7,173.3z M192.7,185c-3.3-0.4-6.5-0.8-9.9-1.2c0-3.3,0-6.4,0-9.9c3.3,0.3,6.5,0.6,9.9,1
		C192.7,178.4,192.7,181.7,192.7,185z"/>
</g>
</svg>
