<svg xmlns="http://www.w3.org/2000/svg" viewBox="0 0 66 61.77"><defs><style>.cls-1{fill:#ffc084;}.cls-2{fill:#581998;}.cls-3{fill:#ff2b5c;}.cls-4{fill:#13bde1;}</style></defs><title>Asset 1</title><g id="Layer_2" data-name="Layer 2"><g id="Layer_1-2" data-name="Layer 1"><path class="cls-1" d="M18,38a5.61,5.61,0,1,1-5.61-5.61A5.61,5.61,0,0,1,18,38Z"/><path class="cls-2" d="M12.43,45a7,7,0,1,1,7-7A7,7,0,0,1,12.43,45Zm0-11.22A4.27,4.27,0,1,0,16.7,38,4.27,4.27,0,0,0,12.43,33.77Z"/><path class="cls-1" d="M1.35,50v9.22a1.34,1.34,0,0,0,1.33,1.19H22.8a1,1,0,0,0,1-1V50s-.83-2-4.81-4.72c-3.33-2.31-9.83-2.09-12.71,0C1.71,48.62,1.35,49,1.35,50Z"/><path class="cls-2" d="M22.83,61.77H2.67A2.66,2.66,0,0,1,0,59.39V50c0-1.75,1-2.51,5.44-5.79C9,41.65,16,41.63,19.71,44.19c4.18,2.9,5.19,5.06,5.29,5.3l.11.25v9.67a2.33,2.33,0,0,1-2.25,2.36ZM2.69,59.07H22.41V50.36a15.11,15.11,0,0,0-4.24-4c-2.95-2-8.78-1.73-11.15,0-1.65,1.21-4.14,3-4.34,3.5h0s0,0,0,.12Z"/><path class="cls-1" d="M58.94,38a5.61,5.61,0,1,1-5.61-5.61A5.61,5.61,0,0,1,58.94,38Z"/><path class="cls-2" d="M53.33,45a7,7,0,1,1,7-7A7,7,0,0,1,53.33,45Zm0-11.22A4.27,4.27,0,1,0,57.59,38,4.27,4.27,0,0,0,53.33,33.77Z"/><path class="cls-1" d="M42.24,50v9.22a1.34,1.34,0,0,0,1.33,1.19H63.69a1,1,0,0,0,1-1V50s-.83-2-4.81-4.72c-3.33-2.31-9.83-2.09-12.71,0C42.6,48.62,42.24,49,42.24,50Z"/><path class="cls-2" d="M63.72,61.77H43.57a2.66,2.66,0,0,1-2.66-2.38V50c0-1.75,1-2.51,5.44-5.79,3.52-2.57,10.59-2.59,14.27,0,4.18,2.9,5.19,5.06,5.29,5.3l.11.25v9.67a2.33,2.33,0,0,1-2.25,2.36ZM43.59,59.07H63.31V50.36a15.11,15.11,0,0,0-4.24-4c-2.95-2-8.78-1.73-11.15,0-1.65,1.21-4.14,3-4.34,3.5h0s0,0,0,.12Z"/><path class="cls-3" d="M48,4.24h-5.1a6.69,6.69,0,0,1,.73,3.1V19.39a8.21,8.21,0,0,1-2.92,6.07,38.22,38.22,0,0,0,4.28,4.14c2,1.6,2.24-.32,2.24-.32V24.87c3.91,0,5.64-5.32,5.64-5.32V9.49C52.82,5.91,48,4.24,48,4.24Z"/><path class="cls-2" d="M46.32,31.37a3.47,3.47,0,0,1-2.06-.88,38.89,38.89,0,0,1-4.43-4.29L39,25.3l.95-.73a7.11,7.11,0,0,0,2.48-5.17V7.34a5.59,5.59,0,0,0-.58-2.54l-1-1.68h7.23l.18.06c.23.08,5.63,2,5.63,6.31V19.73l-.05.17c-.07.23-1.72,5.15-5.58,6V29.4a2.22,2.22,0,0,1-1.24,1.82A1.88,1.88,0,0,1,46.32,31.37Zm-4.08-5.84a32.86,32.86,0,0,0,3.39,3.2,3.3,3.3,0,0,0,.43.29V23.75h1.12c2.72,0,4.22-3.59,4.52-4.39V9.49c0-2.42-3.19-3.83-4-4.13H44.48a8.17,8.17,0,0,1,.23,2v12A9.17,9.17,0,0,1,42.24,25.52Z"/><path class="cls-4" d="M34.35,1.12H19.14S13.69,3,13.69,7V18.27s1.94,6,6.31,6v5s.22,2.15,2.51.36a43,43,0,0,0,5-5h7s5.31-1.08,5.31-5.74V6.72S38.44,1.12,34.35,1.12ZM32.68,9.66l-6.16,5.45a1.72,1.72,0,0,1-2.29,0l-2.44-2.19a1.72,1.72,0,0,1,2.3-2.56l1.3,1.17,5-4.44a1.72,1.72,0,1,1,2.28,2.58Z"/><path class="cls-2" d="M21,31.37a2,2,0,0,1-.78-.16,2.34,2.34,0,0,1-1.3-1.92v-4c-4.33-.84-6.18-6.37-6.26-6.62l-.05-.17V7c0-4.76,6-6.86,6.21-6.94L19,0h15.4C39.26,0,40.9,6.17,41,6.44l0,.14V18.77c0,4.41-4.06,6.4-6.21,6.84l-.22,0H28.05a41.15,41.15,0,0,1-4.85,4.78A3.76,3.76,0,0,1,21,31.37ZM14.81,18.07c.32.86,2,5,5.19,5h1.12v6a3,3,0,0,0,.7-.43,42.14,42.14,0,0,0,4.86-4.86l.34-.4h7.42c.66-.16,4.31-1.21,4.31-4.62V6.87c-.22-.74-1.53-4.63-4.4-4.63h-15c-.82.32-4.53,1.94-4.53,4.76Zm10.56-1.41a2.84,2.84,0,0,1-1.9-.73L21,13.74a2.84,2.84,0,0,1,3.8-4.23l.56.5,4.26-3.77a2.84,2.84,0,0,1,3.77,4.26h0l-6.16,5.45A2.85,2.85,0,0,1,25.37,16.66ZM22.93,11a.6.6,0,0,0-.4,1L25,14.27a.62.62,0,0,0,.8,0l6.16-5.45a.6.6,0,1,0-.8-.9L25.38,13l-2-1.84A.6.6,0,0,0,22.93,11Z"/></g></g></svg>