<?xml version="1.0" encoding="utf-8"?>
<!-- Generator: Adobe Illustrator 20.1.0, SVG Export Plug-In . SVG Version: 6.00 Build 0)  -->
<svg version="1.1" id="Layer_1" xmlns="http://www.w3.org/2000/svg" xmlns:xlink="http://www.w3.org/1999/xlink" x="0px" y="0px"
	 viewBox="0 0 66 66" style="enable-background:new 0 0 66 66;" xml:space="preserve">
<style type="text/css">
	.st0{display:none;}
	.st1{display:inline;}
	.st2{fill:#9FD479;}
	.st3{fill:#581998;}
	.st4{fill:#F8B64C;}
	.st5{fill:#FF2B5C;}
	.st6{fill:#11CDE1;}
	.st7{fill:#FFC084;}
	.st8{fill:#13BDE1;}
	.st9{fill:#F2F2F2;}
	.st10{fill:#BBFCFF;}
</style>
<g class="st0">
	<g class="st1">
		<path class="st2" d="M-26.2-73.3c-5.3,0-10-2.8-12.7-7c-1-1.6-2.7-2.6-4.6-2.8v33.5h-33.6c0.2-1.8,1.2-3.4,2.8-4.4
			c4.2-2.7,7-7.4,7-12.7c0-8.7-7.3-15.7-16.1-15.1c-7.6,0.5-13.7,6.7-14.1,14.2c-0.3,5.7,2.5,10.8,7,13.6c1.5,1,2.5,2.6,2.7,4.4
			h-33.8v-57.7c0-11.4,9.2-20.6,20.6-20.6h57.7v34c1.8-0.2,3.5-1.2,4.5-2.7c2.8-4.4,7.9-7.3,13.6-7c7.6,0.4,13.8,6.6,14.2,14.1
			C-10.5-80.6-17.5-73.3-26.2-73.3z"/>
		<path class="st3" d="M-40.5-46.6h-40.1l0.5-3.4c0.4-2.7,1.9-5,4.1-6.5c3.5-2.2,5.6-6.1,5.6-10.2c0-3.4-1.4-6.5-3.8-8.8
			c-2.5-2.3-5.7-3.5-9.1-3.3c-6,0.4-11,5.4-11.3,11.4c-0.2,4.4,1.9,8.5,5.6,10.9c2.2,1.4,3.7,3.8,4.1,6.5l0.5,3.4h-40.2v-60.7
			c0-13,10.6-23.6,23.6-23.6h60.7v31.3c3.6-4.7,9.4-7.3,15.3-7C-16-106-8.7-98.7-8.1-89.6c0.3,5.1-1.4,9.9-4.9,13.6
			c-3.4,3.6-8.2,5.7-13.2,5.7c-5.6,0-10.9-2.6-14.3-7V-46.6z M-71.1-52.6h24.7v-33.8l3.3,0.3c2.8,0.3,5.3,1.8,6.8,4.1
			c2.3,3.5,6.1,5.6,10.2,5.6c3.4,0,6.5-1.4,8.8-3.8c2.3-2.5,3.5-5.7,3.3-9.1c-0.4-6-5.4-11-11.4-11.3c-4.4-0.3-8.6,1.9-10.9,5.6
			c-1.5,2.3-4,3.8-6.8,4.1l-3.3,0.3v-34.4h-54.7c-9.7,0-17.6,7.9-17.6,17.6v54.7h24.9c-4.5-3.6-7-9.3-6.7-15.1
			c0.5-9.2,7.8-16.5,16.9-17.1c5.1-0.3,9.9,1.4,13.6,4.9c3.6,3.4,5.7,8.2,5.7,13.2C-64.4-61.1-66.9-56-71.1-52.6z"/>
	</g>
	<g class="st1">
		<path class="st4" d="M34.8-49.6H1c0.1,1.9,1.1,3.7,2.8,4.7c4.4,2.8,7.3,7.9,7,13.6C10.3-23.7,4.1-17.5-3.4-17
			c-8.8,0.6-16.1-6.4-16.1-15.1c0-5.3,2.8-10,7-12.7c1.6-1.1,2.7-2.8,2.8-4.8h-33.7V-83c1.9,0.2,3.6,1.2,4.6,2.8
			c2.7,4.2,7.4,7,12.7,7c8.7,0,15.7-7.3,15.1-16.1c-0.5-7.6-6.7-13.7-14.2-14.1c-5.7-0.3-10.8,2.5-13.6,7c-1,1.6-2.7,2.6-4.5,2.7
			v-34h57.7c11.4,0,20.6,9.2,20.6,20.6L34.8-49.6L34.8-49.6z"/>
		<path class="st3" d="M-4.4-14c-4.6,0-9-1.7-12.4-4.9c-3.6-3.4-5.7-8.2-5.7-13.2c0-5.7,2.7-11.1,7.2-14.5h-31.2v-39.8l3.3,0.4
			c2.8,0.3,5.3,1.8,6.8,4.1c2.3,3.5,6.1,5.6,10.2,5.6c3.4,0,6.5-1.4,8.8-3.8s3.5-5.7,3.3-9.1c-0.4-6-5.4-11-11.4-11.3
			c-4.4-0.2-8.6,1.9-10.9,5.6c-1.5,2.3-4,3.8-6.8,4.1l-3.3,0.3v-40.4h60.7c13,0,23.6,10.6,23.6,23.6v60.7H6.5
			c4.8,3.6,7.6,9.4,7.2,15.5C13.2-21.9,5.9-14.6-3.3-14C-3.7-14-4-14-4.4-14z M-40.5-52.6h33.9l-0.2,3.2c-0.2,2.9-1.8,5.5-4.2,7.1
			c-3.5,2.2-5.6,6.1-5.6,10.2c0,3.4,1.4,6.5,3.8,8.9c2.5,2.3,5.7,3.5,9.1,3.3c6-0.4,11-5.4,11.3-11.4c0.2-4.4-1.9-8.6-5.6-10.9
			c-2.4-1.5-3.9-4.2-4.1-7.1l-0.2-3.2h34.1v-54.7c0-9.7-7.9-17.6-17.6-17.6h-54.7v25.3c3.6-4.7,9.4-7.3,15.3-7
			C-16-106-8.7-98.7-8.1-89.6c0.3,5.1-1.4,9.9-4.9,13.6c-3.4,3.6-8.2,5.7-13.2,5.7c-5.6,0-10.9-2.6-14.3-7V-52.6z"/>
	</g>
	<g class="st1">
		<path class="st5" d="M34.8-49.6V8.1c0,11.4-9.2,20.6-20.6,20.6h-57.7V-4.9C-45.3-4.8-47-3.8-48-2.2c-2.8,4.4-7.9,7.3-13.6,7
			c-7.6-0.4-13.8-6.6-14.2-14.1c-0.5-8.8,6.4-16.1,15.1-16.1c5.3,0,10,2.8,12.7,7c1,1.6,2.7,2.6,4.6,2.8v-33.8h33.7
			c-0.1,1.9-1.2,3.7-2.8,4.8c-4.2,2.7-7,7.4-7,12.7c0,8.7,7.3,15.7,16.1,15.1c7.6-0.5,13.7-6.7,14.1-14.2c0.3-5.7-2.5-10.8-7-13.6
			c-1.6-1-2.6-2.8-2.8-4.7L34.8-49.6L34.8-49.6z"/>
		<path class="st3" d="M14.3,31.7h-60.7V0.8c-3.6,4.7-9.4,7.3-15.3,7C-70.9,7.3-78.3,0-78.9-9.2c-0.3-5.1,1.4-9.9,4.9-13.6
			c3.4-3.6,8.2-5.7,13.2-5.7c5.6,0,10.9,2.6,14.3,7v-31.1h39.9l-0.2,3.2c-0.2,2.9-1.8,5.5-4.2,7.1c-3.5,2.2-5.6,6.1-5.6,10.2
			c0,3.4,1.4,6.5,3.8,8.8c2.5,2.3,5.7,3.5,9.1,3.3c6-0.4,11-5.4,11.3-11.4c0.2-4.4-1.9-8.6-5.6-10.9c-2.4-1.5-3.9-4.2-4.1-7.1
			l-0.2-3.2h40.1V8.1C37.8,21.1,27.2,31.7,14.3,31.7z M-40.5,25.7h54.7c9.7,0,17.6-7.9,17.6-17.6v-54.7H6.5
			c4.8,3.6,7.6,9.4,7.2,15.5C13.2-21.9,5.9-14.6-3.3-14c-5.1,0.3-9.9-1.4-13.6-4.9c-3.6-3.4-5.7-8.2-5.7-13.2
			c0-5.7,2.7-11.1,7.2-14.5h-25.2v34.2l-3.3-0.3c-2.8-0.3-5.3-1.8-6.8-4.1c-2.2-3.5-6.1-5.6-10.2-5.6c-3.4,0-6.5,1.4-8.8,3.8
			c-2.3,2.5-3.5,5.7-3.3,9.1c0.4,6,5.4,11,11.4,11.3c4.4,0.2,8.6-1.9,10.9-5.6c1.5-2.3,4-3.8,6.8-4.1l3.3-0.3V25.7z"/>
	</g>
	<g class="st1">
		<path class="st6" d="M-75.9-9.4c0.5,7.6,6.7,13.7,14.2,14.1c5.7,0.3,10.8-2.5,13.6-7c1-1.6,2.7-2.6,4.5-2.7v33.6h-57.7
			c-11.4,0-20.6-9.2-20.6-20.6v-57.7h33.8c-0.2-1.8-1.2-3.4-2.7-4.4c-4.4-2.8-7.3-7.9-7-13.6c0.4-7.6,6.6-13.8,14.1-14.2
			c8.8-0.6,16.1,6.4,16.1,15.1c0,5.3-2.8,10-7,12.7c-1.5,1-2.5,2.6-2.8,4.4h33.6v33.8c-1.9-0.2-3.6-1.2-4.6-2.8
			c-2.7-4.2-7.4-7-12.7-7C-69.4-25.5-76.4-18.2-75.9-9.4z"/>
		<path class="st3" d="M-40.5,31.7h-60.7c-13,0-23.6-10.6-23.6-23.6v-60.7h30.9c-4.5-3.6-7-9.3-6.7-15.1c0.5-9.2,7.8-16.5,16.9-17.1
			c5.1-0.3,9.9,1.4,13.6,4.9c3.6,3.4,5.7,8.2,5.7,13.2c0,5.5-2.5,10.7-6.7,14.1h30.7v40.2l-3.3-0.3c-2.8-0.3-5.3-1.8-6.8-4.1
			c-2.2-3.5-6.1-5.6-10.2-5.6h0c-3.4,0-6.5,1.4-8.8,3.8s-3.5,5.7-3.3,9.1c0.4,6,5.4,11,11.4,11.3c4.4,0.2,8.6-1.9,10.9-5.6
			c1.5-2.3,4-3.8,6.8-4.1l3.3-0.3V31.7z M-118.8-46.6V8.1c0,9.7,7.9,17.6,17.6,17.6h54.7V0.8c-3.6,4.7-9.4,7.3-15.3,7
			C-70.9,7.3-78.3,0-78.9-9.2v0c-0.3-5.1,1.4-9.9,4.9-13.6c3.4-3.6,8.2-5.7,13.2-5.7c0,0,0,0,0,0c5.6,0,10.9,2.6,14.3,7v-25.1h-34.1
			l0.5-3.4c0.4-2.7,1.9-5,4.1-6.5c3.5-2.2,5.6-6.1,5.6-10.2c0-3.4-1.4-6.5-3.8-8.8c-2.5-2.3-5.7-3.5-9.1-3.3
			c-6,0.4-11,5.4-11.3,11.4c-0.2,4.4,1.9,8.5,5.6,10.9c2.2,1.4,3.7,3.8,4.1,6.5l0.5,3.4H-118.8z"/>
	</g>
</g>
<g class="st0">
	<g class="st1">
		<path class="st7" d="M-98.8,143.4c0,6.9-5.6,12.5-12.5,12.5c-6.9,0-12.5-5.6-12.5-12.5c0-6.9,5.6-12.5,12.5-12.5
			C-104.4,130.8-98.8,136.4-98.8,143.4z"/>
		<path class="st3" d="M-111.3,158.9c-8.6,0-15.5-7-15.5-15.5c0-8.6,7-15.5,15.5-15.5c8.6,0,15.5,7,15.5,15.5
			C-95.8,151.9-102.8,158.9-111.3,158.9z M-111.3,133.8c-5.2,0-9.5,4.3-9.5,9.5c0,5.2,4.3,9.5,9.5,9.5c5.2,0,9.5-4.3,9.5-9.5
			C-101.8,138.1-106.1,133.8-111.3,133.8z"/>
	</g>
	<g class="st1">
		<path class="st7" d="M-136.1,170.1v20.6c0,0,0.3,2.7,3,2.7c2.6,0,44.9,0,44.9,0s2.1-0.1,2.1-2.3c0-2.2,0-20.9,0-20.9
			s-1.9-4.4-10.7-10.5c-7.4-5.1-21.9-4.7-28.3,0C-135.2,167-136.1,167.9-136.1,170.1z"/>
		<path class="st3" d="M-88.1,196.3h-44.9c-3.9,0-5.7-3.2-5.9-5.3l0-0.3v-20.6c0-3.9,2.1-5.6,12.1-12.9c7.8-5.7,23.6-5.8,31.8-0.1
			c9.3,6.5,11.6,11.3,11.8,11.8l0.2,0.6V191C-83.1,194.3-85.7,196.2-88.1,196.3L-88.1,196.3z M-133.1,190.3l44,0v-19.4
			c-0.7-1.1-3.1-4.4-9.4-8.8c-6.6-4.6-19.6-3.9-24.9,0c-3.7,2.7-9.2,6.7-9.7,7.8l0,0c0,0,0,0.1,0,0.3V190.3z"/>
	</g>
	<g class="st1">
		<path class="st7" d="M-7.6,143.4c0,6.9-5.6,12.5-12.5,12.5c-6.9,0-12.5-5.6-12.5-12.5c0-6.9,5.6-12.5,12.5-12.5
			C-13.2,130.8-7.6,136.4-7.6,143.4z"/>
		<path class="st3" d="M-20.1,158.9c-8.6,0-15.5-7-15.5-15.5c0-8.6,7-15.5,15.5-15.5c8.6,0,15.5,7,15.5,15.5
			C-4.6,151.9-11.6,158.9-20.1,158.9z M-20.1,133.8c-5.2,0-9.5,4.3-9.5,9.5c0,5.2,4.3,9.5,9.5,9.5s9.5-4.3,9.5-9.5
			C-10.6,138.1-14.9,133.8-20.1,133.8z"/>
	</g>
	<g class="st1">
		<path class="st7" d="M-44.9,170.1v20.6c0,0,0.3,2.7,3,2.7c2.7,0,44.9,0,44.9,0s2.1-0.1,2.1-2.3c0-2.2,0-20.9,0-20.9
			s-1.9-4.4-10.7-10.5c-7.4-5.1-21.9-4.7-28.3,0C-44.1,167-44.9,167.9-44.9,170.1z"/>
		<path class="st3" d="M3,196.3h-44.9c-3.9,0-5.7-3.2-5.9-5.3l0-0.3v-20.6c0-3.9,2.1-5.6,12.1-12.9c7.8-5.7,23.6-5.8,31.8-0.1
			c9.3,6.5,11.6,11.3,11.8,11.8l0.2,0.6V191C8.1,194.3,5.5,196.2,3,196.3L3,196.3z M-41.9,190.3l44,0v-19.4
			c-0.7-1.1-3.1-4.4-9.4-8.8c-6.6-4.6-19.6-3.9-24.9,0c-3.7,2.7-9.2,6.7-9.7,7.8l0,0c0,0,0,0.1,0,0.3V190.3z"/>
	</g>
	<g class="st1">
		<path class="st5" d="M-32.1,68c0,0-4.5,0-11.4,0c1.7,3,1.6,6.9,1.6,6.9s0,16.5,0,26.9c0.1,7-4.7,12.2-6.5,13.5c0,0,5,5.7,9.5,9.2
			c4.6,3.6,5-0.7,5-0.7V114c8.7,0,12.6-11.9,12.6-11.9s0-14.4,0-22.4C-21.3,71.7-32.1,68-32.1,68z"/>
		<path class="st3" d="M-35.8,128.5c-1.4,0-2.9-0.7-4.6-2c-4.7-3.7-9.7-9.3-9.9-9.6l-1.8-2l2.1-1.6c1.5-1.1,5.6-5.6,5.5-11.5V74.9
			c0-0.1,0.1-3.3-1.3-5.7l-2.2-3.7h16.1l0.4,0.1c0.5,0.2,12.5,4.4,12.5,14.1v22.8l-0.1,0.4c-0.2,0.5-3.8,11.5-12.4,13.3l0,7.9
			c-0.1,1.4-0.9,3.3-2.8,4.1C-34.6,128.4-35.2,128.5-35.8,128.5z M-44.9,115.4c1.8,1.9,4.8,5,7.6,7.1c0.4,0.3,0.7,0.5,1,0.7v-11.7
			h2.5c6.1,0,9.4-8,10.1-9.8v-22c0-5.4-7.1-8.5-8.8-9.2h-7.3c0.5,2.3,0.5,4.2,0.5,4.5l0,26.8C-39.3,107.8-42.3,112.6-44.9,115.4z"/>
	</g>
	<g class="st1">
		<path class="st8" d="M-62.5,61c-9.1,0-33.9,0-33.9,0s-12.2,4.2-12.2,13.1c0,9,0,25.1,0,25.1s4.3,13.3,14.1,13.3v11
			c0,0,0.5,4.8,5.6,0.8s11.2-11.2,11.2-11.2H-62c0,0,11.8-2.4,11.8-12.8s0-26.9,0-26.9S-53.3,61-62.5,61z M-66.2,80.1l-13.7,12.2
			c-0.7,0.6-1.6,1-2.5,1c-0.9,0-1.8-0.3-2.6-1l-5.4-4.9c-1.6-1.4-1.7-3.8-0.3-5.4c1.4-1.6,3.8-1.7,5.4-0.3l2.9,2.6l11.2-9.9
			c1.6-1.4,4-1.3,5.4,0.3C-64.5,76.2-64.6,78.7-66.2,80.1z"/>
		<path class="st3" d="M-92.3,128.5c-0.6,0-1.2-0.1-1.7-0.4c-1.9-0.8-2.8-2.8-2.9-4.3l0-0.2v-8.8c-9.6-1.9-13.8-14.2-14-14.8
			l-0.1-0.4V74.2c0-10.6,13.3-15.3,13.8-15.5l0.4-0.1h34.3c10.9,0,14.6,13.8,14.7,14.4l0.1,0.3v27.2c0,9.8-9.1,14.3-13.8,15.2
			l-0.5,0h-14.5c-1.8,2.1-6.6,7.4-10.8,10.7C-89.1,127.8-90.8,128.5-92.3,128.5z M-106,98.8c0.7,1.9,4.5,11.2,11.6,11.2h2.5v13.3
			c0.3-0.1,0.8-0.4,1.6-1c4.9-3.8,10.8-10.8,10.8-10.8l0.7-0.9h16.6c1.5-0.4,9.6-2.7,9.6-10.3V73.9c-0.5-1.7-3.4-10.3-9.8-10.3
			h-33.5c-1.8,0.7-10.1,4.3-10.1,10.6V98.8z M-82.5,95.7c-1.6,0-3.1-0.6-4.2-1.6l-5.4-4.9c-1.3-1.1-2-2.7-2.1-4.4
			c-0.1-1.7,0.5-3.3,1.6-4.6c2.3-2.6,6.3-2.8,8.9-0.5l1.2,1.1l9.5-8.4c2.6-2.3,6.6-2.1,8.9,0.5c2.3,2.6,2.1,6.6-0.5,8.9l0,0
			l-13.7,12.2C-79.4,95.1-80.9,95.7-82.5,95.7z M-87.9,83.1c-0.4,0-0.7,0.1-1,0.4c-0.2,0.3-0.4,0.6-0.3,1s0.2,0.7,0.4,0.9l5.4,4.9
			c0.5,0.4,1.3,0.4,1.8,0l13.7-12.2c0.6-0.5,0.6-1.3,0.1-1.9c-0.5-0.6-1.3-0.6-1.9-0.1l-12.8,11.4l-4.6-4.1
			C-87.3,83.2-87.6,83.1-87.9,83.1z"/>
	</g>
</g>
<g class="st0">
	<g class="st1">
		<path class="st4" d="M68.1,170.2l-0.3,11.1l11.1-0.3c18-0.6,33-15.3,33.3-33.3l0.3-11.1l-11.1,0.3
			C83.4,137.2,68.7,152.2,68.1,170.2z"/>
		<path class="st3" d="M64.7,184.3l0.4-14.3c0.7-19.6,16.9-35.9,36.2-36.2l14.2-0.4l-0.4,14.3c-0.3,19.3-16.6,35.5-36.2,36.2
			L64.7,184.3z M71.1,170.3l-0.2,7.9l7.9-0.2c16.5-0.5,30.1-14.2,30.4-30.3l0.2-8l-7.9,0.2C85.3,140.2,71.7,153.8,71.1,170.3z"/>
	</g>
	<g class="st1">
		<path class="st5" d="M73.8,92.5c9.3-9.6,21.3-15,33.6-16.8c17.4-2.4,36,3.3,49.5,16.8c13.5,13.5,19.2,31.8,16.8,49.5
			c-1.8,12.3-7.2,24-16.8,33.6c-12,12-28.2,17.7-43.8,17.1c2.4-1.5,5.1-3.6,7.2-5.7c5.4-5.4,9-12.3,10.8-19.2
			c3.3-13.5-0.3-28.5-10.8-39s-25.5-14.1-39-10.8c-7.2,1.8-13.8,5.4-19.2,10.8c-2.1,2.1-4.2,4.5-5.7,7.2
			C55.8,120.4,61.5,104.2,73.8,92.5z"/>
		<path class="st3" d="M115.3,195.7c-0.8,0-1.6,0-2.4,0l-9.7-0.4l8.3-5.2c2.3-1.5,4.8-3.4,6.7-5.3c4.7-4.7,8.2-11,10-17.8
			c3.2-12.9-0.7-26.8-10-36.1c-9.3-9.3-23.2-13.2-36.1-10c-6.9,1.7-12.9,5.1-17.8,10c-2.4,2.4-4.1,4.5-5.2,6.5l-5.2,9.4l-0.4-10.7
			c-0.7-17.4,6-34,18.3-45.7c9.2-9.5,21.4-15.6,35.3-17.6c18.9-2.6,38.4,4,52,17.6c13.8,13.8,20.3,32.8,17.6,52
			c-2,13.5-8.1,25.7-17.6,35.3C147.5,189.2,131.7,195.7,115.3,195.7z M91.1,113.8c11.6,0,23,4.5,31.3,12.8
			c10.8,10.8,15.3,26.8,11.6,41.8c-2.1,7.9-6.2,15.2-11.6,20.6c-0.1,0.1-0.1,0.1-0.2,0.2c12.2-1.5,23.8-7.1,32.5-15.8
			c8.6-8.6,14.2-19.7,15.9-31.9c2.3-17.3-3.5-34.4-15.9-46.9c-12.3-12.3-29.9-18.3-46.9-15.9C95.3,80.5,84.3,86,76,94.6l-0.1,0.1
			c-8.9,8.5-14.5,19.9-16.1,32.2c0.1-0.1,0.1-0.1,0.2-0.2c5.6-5.6,12.7-9.6,20.6-11.6C84,114.2,87.6,113.8,91.1,113.8z"/>
	</g>
	<g class="st1">
		<path class="st9" d="M112.8,166.9c51.3-8.4,89.1-52.5,87.6-107.1L200,49l-10.8-0.3C134.7,47.2,90.6,85,82.2,136.3L112.8,166.9z"/>
		<path class="st3" d="M111.7,170.1L79,137.3l0.2-1.5c8.8-53.7,55.1-91.6,110.1-90.1l13.6,0.4l0.4,13.6
			c1.5,55-36.4,101.3-90.1,110.1L111.7,170.1z M85.4,135.3l28.4,28.4c49.9-8.9,85-52.3,83.5-103.7l-0.2-8l-8-0.2
			C137.7,50.3,94.3,85.4,85.4,135.3z"/>
	</g>
	<g class="st1">
		<path class="st6" d="M195.5,95.5c3.3-11.1,5.1-23.1,4.8-35.7L200,49l-10.8-0.3c-12.6-0.3-24.6,1.5-35.7,4.8L195.5,95.5z"/>
		<path class="st3" d="M197,101.2l-49.1-49.1l4.8-1.4c12-3.6,24.3-5.2,36.6-4.9l13.6,0.4l0.4,13.6c0.3,12.3-1.4,24.7-4.9,36.6
			L197,101.2z M159.3,55.1L194,89.7c2.4-9.8,3.6-19.8,3.3-29.8l-0.2-7.9l-8-0.2C179.1,51.5,169.1,52.6,159.3,55.1z"/>
	</g>
	<g class="st1">
		<path class="st6" d="M89.1,113.2c-3,7.5-5.4,15.3-6.6,23.4l0,0c-0.6,3-0.9,6-1.2,9.3l22.2,22.2c3-0.3,6.3-0.6,9.3-1.2l0,0
			c8.1-1.5,15.9-3.6,23.4-6.6L89.1,113.2z"/>
		<path class="st3" d="M102.4,171.2L78.2,147l0.1-1.4c0.3-3.4,0.6-6.4,1.2-9.5c1.1-7.6,3.3-15.4,6.8-24l1.7-4.2l53.5,53.5l-4.2,1.7
			c-7.3,2.9-15.1,5.1-24,6.8c-2.9,0.6-6,0.9-8.8,1.2L102.4,171.2z M84.4,144.8l20.2,20.2c2.6-0.3,5.2-0.5,7.6-1
			c6.8-1.3,12.9-2.8,18.6-4.8l-40.5-40.5c-2.3,6.5-3.9,12.6-4.8,18.4l0,0.1C84.9,139.6,84.7,142.1,84.4,144.8z"/>
	</g>
	<g class="st1">
		<ellipse class="st10" cx="150.3" cy="98.9" rx="23.1" ry="23.1"/>
		<path class="st3" d="M150.3,125c-14.4,0-26.1-11.7-26.1-26.1s11.7-26.1,26.1-26.1s26.1,11.7,26.1,26.1S164.7,125,150.3,125z
			 M150.3,78.8c-11.1,0-20.1,9-20.1,20.1s9,20.1,20.1,20.1s20.1-9,20.1-20.1S161.4,78.8,150.3,78.8z"/>
	</g>
</g>
<g>
	<g>
		<path class="st3" d="M61,6.4c-0.4-0.4-1.1-0.4-1.5,0c-0.4,0.4-0.4,1.1,0,1.5c3.9,3.9,3.9,10.3,0,14.3c-0.4,0.4-0.4,1.1,0,1.5
			c0.2,0.2,0.5,0.3,0.7,0.3c0.3,0,0.5-0.1,0.7-0.3C65.7,18.8,65.7,11.1,61,6.4z"/>
		<path class="st3" d="M60.3,24c-0.3,0-0.6-0.1-0.8-0.3c-0.5-0.5-0.5-1.2,0-1.7c3.9-3.9,3.9-10.2,0-14.1c-0.5-0.5-0.5-1.2,0-1.7
			c0.4-0.4,1.2-0.4,1.7,0l0,0l0,0c2.3,2.3,3.6,5.4,3.6,8.7s-1.3,6.4-3.6,8.7C60.9,23.9,60.6,24,60.3,24z M60.3,6.2
			c-0.2,0-0.5,0.1-0.7,0.3c-0.4,0.4-0.4,1,0,1.3c4,4,4,10.4,0,14.4c-0.4,0.4-0.4,1,0,1.3c0.4,0.4,1,0.4,1.3,0
			c2.3-2.3,3.5-5.3,3.5-8.5s-1.3-6.3-3.5-8.5l0,0C60.7,6.3,60.5,6.2,60.3,6.2z"/>
	</g>
	<g>
		<path class="st3" d="M56.6,8.8c-0.4-0.4-1.1-0.4-1.5,0c-0.4,0.4-0.4,1.1,0,1.5c1.3,1.3,2,3,2,4.9c0,1.8-0.7,3.6-2,4.9
			c-0.4,0.4-0.4,1.1,0,1.5c0.2,0.2,0.5,0.3,0.7,0.3s0.5-0.1,0.7-0.3c1.7-1.7,2.6-4,2.6-6.4S58.3,10.5,56.6,8.8z"/>
		<path class="st3" d="M55.8,21.9c-0.3,0-0.6-0.1-0.8-0.3c-0.5-0.5-0.5-1.2,0-1.7c1.3-1.3,2-3,2-4.8c0-1.8-0.7-3.5-2-4.8
			c-0.5-0.5-0.5-1.2,0-1.7c0.4-0.4,1.2-0.4,1.7,0c1.7,1.7,2.7,4,2.7,6.5c0,2.4-0.9,4.7-2.7,6.5C56.4,21.8,56.1,21.9,55.8,21.9z
			 M55.8,8.6c-0.2,0-0.5,0.1-0.7,0.3c-0.4,0.4-0.4,1,0,1.3c1.3,1.3,2.1,3.1,2.1,5c0,1.9-0.7,3.6-2.1,5c-0.4,0.4-0.4,1,0,1.3
			c0.4,0.4,1,0.4,1.3,0c1.7-1.7,2.6-3.9,2.6-6.3c0-2.4-0.9-4.6-2.6-6.3l0,0C56.3,8.7,56.1,8.6,55.8,8.6z"/>
	</g>
	<g>
		<path class="st3" d="M6.5,7.8c0.4-0.4,0.4-1.1,0-1.5S5.4,6,5,6.4c-4.8,4.8-4.8,12.5,0,17.2c0.2,0.2,0.5,0.3,0.7,0.3
			s0.5-0.1,0.7-0.3c0.4-0.4,0.4-1.1,0-1.5C2.6,18.2,2.6,11.8,6.5,7.8z"/>
		<path class="st3" d="M5.7,24c-0.3,0-0.6-0.1-0.8-0.3c-4.8-4.8-4.8-12.6,0-17.4c0.5-0.5,1.2-0.5,1.7,0C7,6.7,7,7.5,6.6,7.9l0,0
			c-1.9,1.9-2.9,4.4-2.9,7s1,5.2,2.9,7c0.5,0.5,0.5,1.2,0,1.7C6.4,23.9,6.1,24,5.7,24z M5.7,6.2c-0.2,0-0.5,0.1-0.7,0.3
			c-4.7,4.7-4.7,12.4,0,17.1c0.4,0.4,1,0.4,1.3,0c0.4-0.4,0.4-1,0-1.3c-1.9-1.9-3-4.5-3-7.2s1.1-5.3,3-7.2l0,0c0.4-0.4,0.4-1,0-1.3
			C6.2,6.3,6,6.2,5.7,6.2z"/>
	</g>
	<g>
		<path class="st3" d="M10.9,8.5c-0.4-0.4-1.1-0.4-1.5,0c-1.7,1.7-2.6,4-2.6,6.4s0.9,4.7,2.6,6.4c0.2,0.2,0.5,0.3,0.7,0.3
			c0.3,0,0.5-0.1,0.7-0.3c0.4-0.4,0.4-1.1,0-1.5c-1.3-1.3-2-3-2-4.9s0.7-3.6,2-4.9C11.3,9.5,11.3,8.9,10.9,8.5z"/>
		<path class="st3" d="M10.2,21.6c-0.3,0-0.6-0.1-0.8-0.3c-1.7-1.7-2.7-4-2.7-6.5c0-2.4,0.9-4.7,2.7-6.5c0.5-0.5,1.2-0.5,1.7,0l0,0
			c0.5,0.5,0.5,1.2,0,1.7c-1.3,1.3-2,3-2,4.8c0,1.8,0.7,3.5,2,4.8c0.5,0.5,0.5,1.2,0,1.7C10.8,21.5,10.5,21.6,10.2,21.6z M10.2,8.3
			c-0.2,0-0.5,0.1-0.7,0.3c-1.7,1.7-2.6,3.9-2.6,6.3c0,2.4,0.9,4.6,2.6,6.3c0.4,0.4,1,0.4,1.3,0c0.4-0.4,0.4-1,0-1.3
			c-1.3-1.3-2.1-3.1-2.1-5c0-1.9,0.7-3.6,2.1-5c0.4-0.4,0.4-1,0-1.3C10.7,8.4,10.4,8.3,10.2,8.3z"/>
	</g>
	<g>
		<path class="st9" d="M46.6,64.6H19.2c-2,0-3.7-1.7-3.7-3.7V5.1c0-2,1.7-3.7,3.7-3.7h27.4c2,0,3.7,1.7,3.7,3.7v55.7
			C50.3,62.9,48.6,64.6,46.6,64.6z"/>
		<path class="st3" d="M46.6,66H19.2c-2.8,0-5.1-2.3-5.1-5.1V5.1C14,2.3,16.3,0,19.2,0h27.4c2.8,0,5.1,2.3,5.1,5.1v55.7
			C51.7,63.7,49.4,66,46.6,66z M19.2,2.9c-1.3,0-2.3,1-2.3,2.3v55.7c0,1.3,1,2.3,2.3,2.3h27.4c1.3,0,2.3-1,2.3-2.3V5.1
			c0-1.3-1-2.3-2.3-2.3H19.2z"/>
	</g>
	<g>
		<rect x="15.5" y="8" class="st6" width="34.8" height="43.5"/>
		<path class="st3" d="M51.7,52.9H14V6.5h37.7V52.9z M16.9,50h31.9V9.4H16.9V50z"/>
	</g>
	<g>
		<circle class="st3" cx="32.9" cy="58" r="2.5"/>
	</g>
	<g>
		<g>
			<path class="st3" d="M32.2,5.5h-3.5c-0.5,0-0.9-0.4-0.9-0.8c0-0.5,0.4-0.8,0.9-0.8h3.5c0.5,0,0.9,0.4,0.9,0.8
				C33.1,5.2,32.7,5.5,32.2,5.5z"/>
		</g>
		<g>
			<path class="st3" d="M37.1,5.5h-0.9c-0.5,0-0.9-0.4-0.9-0.8c0-0.5,0.4-0.8,0.9-0.8h0.9c0.5,0,0.9,0.4,0.9,0.8
				C38,5.2,37.6,5.5,37.1,5.5z"/>
		</g>
	</g>
</g>
</svg>
