<svg xmlns="http://www.w3.org/2000/svg" viewBox="0 0 66 66"><defs><style>.cls-1{fill:#9fd479;}.cls-2{fill:#581998;}.cls-3{fill:#f8b64c;}.cls-4{fill:#ff2b5c;}.cls-5{fill:#11cde1;}</style></defs><title>Asset 2</title><g id="Layer_2" data-name="Layer 2"><g id="Layer_1-2" data-name="Layer 1"><path class="cls-1" d="M40,23.37a6.13,6.13,0,0,1-5.16-2.82A2.52,2.52,0,0,0,33,19.42V33H19.35a2.52,2.52,0,0,1,1.12-1.78,6.14,6.14,0,1,0-6.63,0A2.48,2.48,0,0,1,14.95,33H1.22V9.56A8.35,8.35,0,0,1,9.56,1.22H33V15a2.49,2.49,0,0,0,1.85-1.11A6.14,6.14,0,1,1,40,23.37Z"/><path class="cls-2" d="M34.22,34.22H18l.19-1.39a3.74,3.74,0,0,1,1.66-2.63,4.92,4.92,0,0,0-3-9.05,4.92,4.92,0,0,0-2.33,9.06,3.69,3.69,0,0,1,1.65,2.63l.19,1.38H0V9.56A9.57,9.57,0,0,1,9.56,0H34.22V12.71a7.36,7.36,0,0,1,13.15,4.05,7.31,7.31,0,0,1-2,5.51,7.35,7.35,0,0,1-11.17-.52ZM21.77,31.78h10V18.07l1.35.14a3.72,3.72,0,0,1,2.75,1.68,4.92,4.92,0,0,0,9.06-3,4.92,4.92,0,0,0-9.06-2.33,3.68,3.68,0,0,1-2.75,1.67l-1.34.14v-14H9.56A7.14,7.14,0,0,0,2.44,9.56V31.78H12.53a7.36,7.36,0,0,1,4.15-13.07,7.3,7.3,0,0,1,5.51,2,7.36,7.36,0,0,1-.41,11.09Z"/><path class="cls-3" d="M64.78,33H51a2.49,2.49,0,0,0,1.12,1.93,6.14,6.14,0,1,1-6.63,0A2.53,2.53,0,0,0,46.67,33H33V19.42a2.52,2.52,0,0,1,1.86,1.13,6.14,6.14,0,1,0,0-6.63A2.49,2.49,0,0,1,33,15V1.22H56.44a8.35,8.35,0,0,1,8.35,8.35V33Z"/><path class="cls-2" d="M48.84,47.46a7.29,7.29,0,0,1-5-2,7.39,7.39,0,0,1-2.32-5.37,7.32,7.32,0,0,1,2.94-5.88H31.78V18.07l1.35.14a3.72,3.72,0,0,1,2.75,1.68,4.92,4.92,0,0,0,9.06-3,4.92,4.92,0,0,0-9.06-2.33,3.68,3.68,0,0,1-2.75,1.67l-1.34.14V0H56.44A9.57,9.57,0,0,1,66,9.56V34.22H53.27a7.36,7.36,0,0,1-3.95,13.23ZM34.22,31.78H48l-.1,1.31A3.77,3.77,0,0,1,46.19,36a4.92,4.92,0,0,0,3,9.05A4.92,4.92,0,0,0,51.5,36a3.72,3.72,0,0,1-1.68-2.86l-.1-1.31H63.56V9.56a7.14,7.14,0,0,0-7.13-7.13H34.22V12.71a7.36,7.36,0,0,1,13.15,4.05,7.31,7.31,0,0,1-2,5.51,7.35,7.35,0,0,1-11.17-.52Z"/><path class="cls-4" d="M64.78,33V56.44a8.35,8.35,0,0,1-8.35,8.35H33V51.12a2.49,2.49,0,0,0-1.85,1.11,6.14,6.14,0,1,1,0-6.63A2.51,2.51,0,0,0,33,46.74V33H46.67a2.53,2.53,0,0,1-1.14,1.94,6.14,6.14,0,1,0,6.63,0A2.49,2.49,0,0,1,51,33H64.78Z"/><path class="cls-2" d="M56.44,66H31.78V53.46a7.36,7.36,0,1,1,0-9V31.78H48l-.1,1.31A3.77,3.77,0,0,1,46.19,36a4.92,4.92,0,0,0,3,9.05A4.92,4.92,0,0,0,51.5,36a3.72,3.72,0,0,1-1.68-2.86l-.1-1.31H66V56.44A9.57,9.57,0,0,1,56.44,66ZM34.22,63.56H56.44a7.14,7.14,0,0,0,7.13-7.13V34.22H53.27a7.36,7.36,0,0,1-3.95,13.23,7.3,7.3,0,0,1-5.51-2,7.39,7.39,0,0,1-2.32-5.37,7.32,7.32,0,0,1,2.94-5.88H34.22V48.09l-1.35-.14a3.71,3.71,0,0,1-2.75-1.68,4.92,4.92,0,0,0-9.05,3,4.92,4.92,0,0,0,9.06,2.33,3.68,3.68,0,0,1,2.75-1.67l1.34-.14Z"/><path class="cls-5" d="M19.85,49.33a6.14,6.14,0,0,0,11.3,2.91A2.49,2.49,0,0,1,33,51.12V64.78H9.56a8.35,8.35,0,0,1-8.35-8.35V33H14.95a2.48,2.48,0,0,0-1.1-1.77,6.14,6.14,0,1,1,6.63,0A2.53,2.53,0,0,0,19.35,33H33V46.74a2.51,2.51,0,0,1-1.86-1.13,6.14,6.14,0,0,0-11.29,3.72Z"/><path class="cls-2" d="M34.22,66H9.56A9.57,9.57,0,0,1,0,56.44V31.78H12.53a7.36,7.36,0,0,1,4.15-13.07,7.3,7.3,0,0,1,5.51,2,7.36,7.36,0,0,1-.41,11.09H34.22V48.09l-1.35-.14a3.71,3.71,0,0,1-2.75-1.68A4.9,4.9,0,0,0,26,44h0a4.93,4.93,0,0,0-4.92,5.25,4.92,4.92,0,0,0,9.06,2.33,3.68,3.68,0,0,1,2.75-1.67l1.34-.14ZM2.44,34.22V56.44a7.14,7.14,0,0,0,7.13,7.13H31.78V53.46A7.36,7.36,0,0,1,18.63,49.4h0a7.31,7.31,0,0,1,2-5.51A7.39,7.39,0,0,1,26,41.57h0a7.32,7.32,0,0,1,5.8,2.84V34.22H18l.19-1.39a3.74,3.74,0,0,1,1.66-2.63,4.92,4.92,0,0,0-3-9.05,4.92,4.92,0,0,0-2.33,9.06,3.69,3.69,0,0,1,1.65,2.63l.19,1.38Z"/></g></g></svg>